<svg width="42" height="42" fill="none" xmlns="http://www.w3.org/2000/svg"><mask id="a" fill="#fff"><path d="M0 0h42v42H0V0z"/></mask><path d="M42 0h1v-1h-1v1zm0 42v1h1v-1h-1zM0 1h42v-2H0v2zm41-1v42h2V0h-2zm1 41H0v2h42v-2z" fill="#B74028" mask="url(#a)"/><path d="M3 17l4 4.704L3 26v-9zM25 3l-4.704 4L16 3h9zm14 14l-4 4.704L39 26v-9zM25 39l-4.704-4L16 39h9z" fill="#000"/><circle cx="7" cy="8" r="2" fill="#000"/><circle cx="7" cy="35" r="2" fill="#000"/><circle cx="34" cy="35" r="2" fill="#000"/><circle cx="34" cy="8" r="2" fill="#000"/><circle cx="20.5" cy="21.5" r="1.5" fill="#B74028"/><circle cx="16.5" cy="21.5" r=".5" fill="#000"/><circle cx="20.5" cy="17.5" r=".5" transform="rotate(90 20.5 17.5)" fill="#000"/><circle cx="31.5" cy="21.5" r=".5" fill="#000"/><circle cx="20.5" cy="32.5" r=".5" transform="rotate(90 20.5 32.5)" fill="#000"/><circle cx="9.5" cy="21.5" r=".5" fill="#000"/><circle cx="20.5" cy="9.5" r=".5" transform="rotate(90 20.5 9.5)" fill="#000"/><circle cx="24.5" cy="21.5" r=".5" fill="#000"/><circle cx="20.5" cy="25.5" r=".5" transform="rotate(90 20.5 25.5)" fill="#000"/><circle cx="12.5" cy="21.5" r=".5" fill="#000"/><circle cx="20.5" cy="13.5" r=".5" transform="rotate(90 20.5 13.5)" fill="#000"/><circle cx="27.5" cy="21.5" r=".5" fill="#000"/><circle cx="20.5" cy="28.5" r=".5" transform="rotate(90 20.5 28.5)" fill="#000"/><path d="M3 13.143h16V20H7.8L3 13.143z" fill="#B74028"/><path d="M12.143 4v16H19V8.8L12.143 4zM3 29.857h16V23H7.8L3 29.857z" fill="#B74028"/><path d="M12.143 39V23H19v11.2L12.143 39zM38 13.143H22V20h11.2l4.8-6.857z" fill="#B74028"/><path d="M28.857 4v16H22V8.8L28.857 4zM38 29.857H22V23h11.2l4.8 6.857z" fill="#B74028"/><path d="M28.857 39V23H22v11.2l6.857 4.8z" fill="#B74028"/></svg>