<svg aria-hidden="true" style="position:absolute;width:0;height:0" xmlns="http://www.w3.org/2000/svg" overflow="hidden"><defs><symbol id="icon-veggie-burger" viewBox="0 0 56 32"><path fill="none" stroke-linecap="round" stroke-width="4" d="M4 4h48M4 28h48"/></symbol><symbol id="icon-cross" viewBox="0 0 32 32"><path d="M16 17.853L2.271 31.582c-.244.244-.544.375-.9.393s-.673-.113-.953-.393-.419-.588-.419-.926c0-.338.14-.647.419-.926l13.729-13.729L.418 2.272c-.244-.244-.375-.544-.393-.9S.138.699.418.419C.697.14 1.006 0 1.344 0s.647.14.926.419l13.729 13.729L29.728.419c.244-.244.545-.375.903-.393.354-.017.671.113.95.393s.419.588.419.926c0 .338-.139.647-.419.926L17.852 16l13.729 13.729c.244.244.375.545.393.903.017.354-.113.671-.393.95s-.588.419-.926.419c-.338 0-.647-.139-.926-.419L16 17.853z"/></symbol><symbol id="icon-arrow-right" viewBox="0 0 18 32"><path d="M0 2.615L2.644 0l14.401 14.253a2.43 2.43 0 01.542 2.687c-.125.299-.31.571-.542.799L2.644 32 .002 29.385 13.519 16 0 2.615z"/></symbol><symbol id="icon-logo-black" viewBox="0 0 45 32"><path fill="var(--color1, #c61818)" d="M36.187 24.304h-5.334v-1.285h5.334v1.285z"/><path fill="var(--color2, #16080a)" d="M37.012 30.755h-1.281V17.329h1.281v13.426zm-5.519-1.268h-1.281V18.63l-3.301 2.565-.778-1.021 4.331-3.354 1.03.511v12.157z"/><path fill="var(--color2, #16080a)" d="M42.522 17.848c-.739 0-1.59.119-2.112.55-.36.296-.534.724-.534 1.308 0 .663.169 1.143.517 1.468.726.677 2.133.591 2.848.539v-3.829a7.394 7.394 0 00-.719-.036zm-8.974 14.151l-.079-1.067c4.321-.172 6.132-3.054 6.726-5.712.218-.979.801-1.706 1.415-2.233-.729-.087-1.5-.32-2.091-.872-.614-.573-.925-1.383-.925-2.409 0-.966.347-1.763 1.005-2.304 1.537-1.264 4.291-.729 4.408-.706l.515.63v11.901h-1.281v-5.826c-.677.396-1.563 1.065-1.795 2.099-.421 1.885-2.45 6.498-7.897 6.498zm-11.944-2.514l-1.226.001V18.472l-1.364.903-.675-1.026 2.315-1.533.951.512v12.157zm5.519 0h-1.281V17.328h1.281v12.157z"/><path fill="var(--color2, #16080a)" d="M26.27 24.304h-5.334v-1.285h5.334v1.285zM8.635 14.102H7.503V4.198c0-.034.004-.854.354-1.747.485-1.237 1.39-2.029 2.615-2.289 1.801-.383 3.426-.08 4.574.852.874.71 1.376 1.736 1.377 2.814 0 .728-.399 1.756-2.305 2.519a10.45 10.45 0 01-2.075.573l-.17-1.123a9.485 9.485 0 001.841-.511c.72-.29 1.577-.779 1.577-1.458 0-.734-.349-1.438-.957-1.932-.878-.713-2.166-.935-3.627-.624-2.034.433-2.072 2.826-2.072 2.927v9.903z"/><path fill="var(--color2, #16080a)" d="M7.551 9.256H2.217V7.971h5.334v1.285z"/><path fill="var(--color2, #16080a)" d="M3.265 14.131H2.039V3.117L.675 4.02 0 2.994l2.315-1.533.951.513v12.157zm12.627-9.943l3.462 9.928h-1.355L15.071 5.73l-2.564 8.38-1.383.006 2.679-8.657z"/><path fill="var(--color1, #c61818)" d="M14.05 10.397l1.098-1.101 1.098 1.101-1.098 1.101-1.098-1.101z"/><path fill="var(--color2, #16080a)" d="M24.73 15.073l-.357-1.234 6.103-1.914.869 1.186-6.615 1.962zm-7.742-4.47l-.357-1.234 4.358-1.318 1.706.673-5.707 1.879z"/><path fill="var(--color2, #16080a)" d="M24.914 13.866l-.08-5.006c-.53.537-1.22.82-2.009.82-.873 0-1.598-.327-2.155-.971-.746-.862-1.151-2.272-1.206-4.19-.039-1.37.119-2.498.125-2.546l1.311-.001c-.162 1.151-.384 4.604.736 5.897.312.361.69.529 1.189.529.497 0 .872-.167 1.179-.525.436-.508.682-1.321.779-2.193.122-1.088-.078-3.696-.078-3.696l1.414-.012v11.875l-1.206.019zm7.402.907c-.683 0-1.286-.276-1.793-.822-1.057-1.138-1.683-3.519-1.861-7.079-.129-2.574.025-4.806.031-4.899h1.29c-.17 2.434-.25 9.248 1.475 11.105.262.282.535.414.857.414.326 0 .604-.133.875-.419 1.564-1.649 1.796-7.117 1.744-10.035l-.056-1.064 1.301.013c.002.033.016.326.026.804l.385 11.789-1.278.042-.087-2.657c-.302.865-.672 1.531-1.109 1.991-.515.543-1.121.818-1.802.818z"/><path fill="var(--color2, #16080a)" d="M35.141 15.073l-.388-1.225 3.776-1.113.347 1.197-3.735 1.141z"/></symbol><symbol id="icon-logo-white" viewBox="0 0 45 32"><path fill="var(--color3, #f2c857)" d="M36.413 24.304h-5.368v-1.285h5.368v1.285z"/><path fill="var(--color4, #f5efe6)" d="M37.243 30.755h-1.289V17.329h1.289v13.426zm-5.553-1.268h-1.289V18.63l-3.322 2.565-.783-1.021 4.358-3.354 1.036.511v12.157z"/><path fill="var(--color4, #f5efe6)" d="M42.787 17.848c-.744 0-1.6.119-2.125.55-.362.296-.537.724-.537 1.308 0 .663.17 1.143.52 1.468.73.677 2.147.591 2.866.539v-3.829a7.48 7.48 0 00-.723-.036zm-9.029 14.151l-.079-1.067c4.348-.172 6.17-3.054 6.768-5.712.22-.979.806-1.706 1.424-2.233-.734-.088-1.51-.321-2.104-.872-.618-.573-.931-1.383-.931-2.409 0-.966.35-1.763 1.011-2.304 1.547-1.264 4.318-.729 4.435-.706l.518.63v11.901h-1.289v-5.826c-.681.396-1.574 1.065-1.806 2.099-.424 1.885-2.465 6.498-7.947 6.498zm-12.019-2.514l-1.233.001V18.472l-1.372.903-.68-1.026 2.329-1.533.957.512v12.157zm5.554 0h-1.289V17.328h1.289v12.157z"/><path fill="var(--color4, #f5efe6)" d="M26.434 24.304h-5.368v-1.285h5.368v1.285zM8.689 14.102H7.55V4.198c0-.034.004-.854.357-1.747C8.395 1.214 9.305.422 10.539.162c1.813-.383 3.447-.08 4.603.852.88.71 1.385 1.736 1.385 2.814 0 .728-.402 1.756-2.319 2.519-1.03.41-2.045.567-2.088.573l-.171-1.123a9.58 9.58 0 001.852-.511c.724-.29 1.587-.779 1.587-1.458 0-.734-.351-1.438-.963-1.932-.883-.713-2.18-.935-3.65-.624-2.046.433-2.085 2.826-2.085 2.927v9.902z"/><path fill="var(--color4, #f5efe6)" d="M7.598 9.256H2.23V7.971h5.368v1.285z"/><path fill="var(--color4, #f5efe6)" d="M3.285 14.131H2.052V3.117L.68 4.02 0 2.994l2.329-1.533.957.513v12.157zm12.706-9.943l3.484 9.928h-1.363L15.166 5.73l-2.58 8.38-1.392.006 2.696-8.657z"/><path fill="var(--color3, #f2c857)" d="M14.138 10.397l1.105-1.101 1.105 1.101-1.105 1.101-1.105-1.101z"/><path fill="var(--color4, #f5efe6)" d="M24.884 15.073l-.359-1.234 6.141-1.914.875 1.187-6.657 1.962zm-7.79-4.47l-.359-1.234 4.385-1.318 1.717.673-5.743 1.879z"/><path fill="var(--color4, #f5efe6)" d="M25.07 13.866l-.08-5.006c-.533.537-1.227.82-2.022.82-.878 0-1.608-.327-2.169-.971-.75-.862-1.159-2.272-1.214-4.19-.039-1.37.119-2.498.126-2.546l1.319-.001c-.163 1.151-.386 4.604.74 5.897.314.361.694.529 1.196.529.5 0 .877-.167 1.187-.525.438-.508.686-1.32.784-2.193.122-1.088-.078-3.696-.078-3.696l1.423-.012v11.875l-1.214.019zm7.448.907c-.687 0-1.294-.276-1.804-.822-1.064-1.138-1.694-3.519-1.873-7.079-.13-2.574.025-4.806.031-4.899h1.298c-.172 2.434-.252 9.248 1.485 11.105.264.282.538.413.863.413.328 0 .608-.133.881-.419 1.573-1.649 1.807-7.117 1.755-10.035l-.056-1.064 1.309.013c.002.033.016.326.027.804l.388 11.789-1.286.042-.087-2.657c-.304.865-.676 1.531-1.116 1.991-.518.543-1.128.818-1.813.818z"/><path fill="var(--color4, #f5efe6)" d="M35.361 15.073l-.391-1.225 3.8-1.113.349 1.197-3.759 1.141z"/></symbol><symbol id="icon-ornament1" viewBox="0 0 32 32"><path fill="var(--color5, #b74028)" d="M32 0h.36v-.36H32V0zm0 32v.36h.36V32H32zM0 .36h32v-.719H0V.36zM31.64 0v32h.719V0h-.719zM32 31.64H0v.719h32v-.719z"/><path fill="var(--color6, #000)" d="M1.438 12.225l3.236 4.135-3.236 3.775v-7.91zM19.775 1.438L15.64 4.674l-3.775-3.236h7.91zm10.787 10.787l-3.236 4.135 3.236 3.775v-7.91zM19.775 30.562l-4.135-3.236-3.775 3.236h7.91zM6.831 5.393a1.798 1.798 0 11-3.596 0 1.798 1.798 0 013.596 0zm0 21.573a1.798 1.798 0 11-3.596 0 1.798 1.798 0 013.596 0zm21.573 0a1.798 1.798 0 11-3.596 0 1.798 1.798 0 013.596 0zm0-21.573a1.798 1.798 0 11-3.596 0 1.798 1.798 0 013.596 0z"/><path fill="var(--color5, #b74028)" d="M16.899 16.18a1.079 1.079 0 11-2.158 0 1.079 1.079 0 012.158 0z"/><path fill="var(--color6, #000)" d="M13.303 16.18a.72.72 0 11-1.438 0 .72.72 0 011.438 0zm2.496-2.517a.72.72 0 110-1.438.72.72 0 010 1.438zm9.729 2.517a.72.72 0 11-1.438 0 .72.72 0 011.438 0zm-9.647 9.707a.72.72 0 110-1.438.72.72 0 010 1.438zm-8.33-9.707a.72.72 0 11-1.438 0 .72.72 0 011.438 0zm8.209-8.27a.72.72 0 110-1.438.72.72 0 010 1.438zm4.015 8.27a.72.72 0 11-1.438 0 .72.72 0 011.438 0zm-3.933 3.954a.72.72 0 110-1.438.72.72 0 010 1.438zm-5.415-3.954a.72.72 0 11-1.438 0 .72.72 0 011.438 0zm5.353-5.393a.72.72 0 110-1.438.72.72 0 010 1.438zm6.872 5.393a.72.72 0 11-1.438 0 .72.72 0 011.438 0zm-6.791 6.831a.72.72 0 110-1.438.72.72 0 010 1.438z"/><path fill="var(--color5, #b74028)" d="M1.438 9.554h12.944v5.547H5.321L1.438 9.554z"/><path fill="var(--color5, #b74028)" d="M8.835 2.157v12.944h5.547V6.04L8.835 2.157zM1.438 22.806h12.944v-5.547H5.321l-3.883 5.547z"/><path fill="var(--color5, #b74028)" d="M8.835 30.202V17.258h5.547v9.061l-5.547 3.883zM30.202 9.554H17.258v5.547h9.061l3.883-5.547z"/><path fill="var(--color5, #b74028)" d="M22.806 2.157v12.944h-5.547V6.04l5.547-3.883zm7.396 20.649H17.258v-5.547h9.061l3.883 5.547z"/><path fill="var(--color5, #b74028)" d="M22.806 30.202V17.258h-5.547v9.061l5.547 3.883z"/></symbol><symbol id="icon-wawe-s" viewBox="0 0 320 32"><path fill="none" stroke="var(--color7, #b73f28)" stroke-width="3.2" d="M156.8 21.254c-4.934 1.916-14.354 1.916-25.119-3.832-27.81-15.326-31.847-7.184-45.753 0s-14.354 4.791-25.119-1.916C51.09 9.439 28.065 1.328 13.711 17.422 10.347 21.158 7.58 21.688 1.6 20.776m168-9.113c3.598-2.084 21.123-8.654 32.389 0 11.734 6.732 18.776 9.137 29.102 9.137 8.262 0 17.525-5.771 22.062-9.137 11.266-10.579 23.658-2.885 35.674 2.885 12.018 5.771 24.722 2.404 29.573 0"/><path fill="none" stroke="var(--color5, #b74028)" stroke-linecap="round" stroke-width="1.6" d="M171.176 1.6c-6.037 0-10.243.568-15.874 3.121-6.599 2.992-5.64 10.164-3.47 16.174 2.556 7.084 12.597 11.335 19.115 8.734 3.755-1.498 5.693-4.586 6.629-8.734.63-2.796 1.699-6.781-.483-9.08-4.694-4.942-15.208-8.789-18.917-.568-.806 1.787-1.139 6.018-.54 7.914 1.351 4.277 8.703 3.437 11.89 3.437 5.381 0 6.464-6.345 1.366-8.229-3.746-1.384-7.587-1.349-8.933 3.121m-1.441-4.201c-.051-.008-.077-.028-.083-.055m0 0c-.006-.033.013-.077.042-.122m-.042.122a24.49 24.49 0 00-1.154 5.647c-.06.762-.062 1.546.06 2.272m1.094-7.919l.042-.122m0 0c.05-.075.128-.153.158-.192.717-.919 1.491-1.459 2.594-1.641m-2.752 1.833c.363-1.061.81-2.086 1.342-2.992m1.41 1.158l.008-.001a14.324 14.324 0 013.934-.087c.165.02.322.051.472.09m-4.414-.002c-.762 1.18-.792 2.895-.768 4.774.021 1.531.176 3.714.704 5.693m.064-10.467a3.074 3.074 0 011.251-1.107m3.163 1.109c.325.086.621.215.896.378m-.896-.378c-.942-.604-2.026-.953-3.163-1.109m3.163 1.109c.238.153.467.322.686.508.123.104.243.212.362.324m-.152-.454c.294.175.563.389.819.632m-.819-.632c-.498-1.29-1.458-2.167-2.978-1.85-.411.086-.77.208-1.082.363m4.06 1.487c.056.146.107.298.152.454m.667.178c.435.414.829.91 1.229 1.434.562.738 1.115 1.456 1.611 2.192m-2.84-3.626c-.123-1.015-.413-1.997-.872-2.851-.915-1.707-2.853-3.031-4.544-1.795-.822.601-1.526 1.465-2.123 2.476m7.539 2.17c.022.192.04.385.051.578m2.789 3.048c.771 1.149 1.4 2.346 1.694 3.74m-1.694-3.74c.075-.18.147-.357.214-.528.84-2.168 1.242-5.364.048-7.553m-.262 8.081c-.154.36-.326.736-.515 1.118m2.21 2.622c.126.6.19 1.236.178 1.922-.029 1.573-.741 2.739-1.774 3.545m1.596-5.467c.542-.916.995-1.889 1.336-2.908.773-2.309.755-4.87-.429-6.786m-.907 9.694a16.876 16.876 0 01-1.717 2.385m.12 3.082a6.194 6.194 0 01-1.414.816m1.414-.816c2.538-1.798 4.088-5.085 4.395-8.418.253-2.742-.294-4.777-1.891-6.742m-2.504 15.16c-.437.31-.904.576-1.398.79m-.016.026c-.242.101-.49.189-.741.265m.741-.265l.016-.027m-.016.027c-1.302 2.064-3.389 2.87-5.693 3.123-2.384.261-4.637.117-6.614-.978m11.566-1.88c-.867.26-1.779.37-2.626.345a3.581 3.581 0 01-.947-.152m3.573-.193c.168-.06.336-.122.506-.188.085-.033.168-.068.251-.104m-.757.292c-1.624.572-3.25.853-4.794.734m1.221-.541c-1.075-.328-1.875-1.152-2.469-2.229m2.469 2.229a17.957 17.957 0 005.608-4.355m-5.608 4.355c-.403.199-.811.379-1.221.541m-1.248-2.771c-.397-.719-.702-1.551-.934-2.422m.934 2.422l.099-.011c1.73-.202 3.534-.807 4.602-2.437.21-.318.384-.667.523-1.035m-5.224 3.483c-.966.109-1.915.149-2.845-.262-1.174-.518-1.712-1.557-1.913-2.753m3.824.593c.19-.049.381-.108.568-.176m-.568.176c-1.171.304-2.368.244-3.442-.352a3.976 3.976 0 01-.382-.24m5.139-10.982c-.869-.12-1.77-.128-2.661-.051m6.872 1.992c.181.632.267 1.333.267 2.026 0 .147-.008.287-.022.421m-.245-2.447c.251.238.491.49.718.756m-.473 1.69c-.029.262-.085.5-.166.718m.166-.718a2.267 2.267 0 00-.842.014c-.056.01-.112.022-.166.034m1.008-.048c.152.03.285.079.403.145m-.569.573c-.237.629-.69 1.091-1.323 1.494-.438.278-1.418.977-1.963.674a1.327 1.327 0 01-.632-.767m3.918-1.401a2.719 2.719 0 00-.842-.669m.842.669c.131.153.248.321.354.501m-4.273.9c-.299-.928.317-2.185 1.261-2.322.712-.103 1.317-.001 1.816.252m-3.077 2.07a6.558 6.558 0 00-1.104 2.181c-.224.781-.256 1.839-.014 2.71m1.118-4.891c.795-1.034 1.882-1.803 3.077-2.071m1.195 1.171c.352.611.554 1.362.606 2.152m-.606-2.152c.093-.349.166-.709.216-1.074m-.216 1.074c-.07.257-.15.509-.243.753-.322.844-.843 1.683-1.496 2.44m2.346-1.041a6.644 6.644 0 01-.406 2.755m.406-2.755c.464-1.229.51-2.719-.39-3.226m.39 3.226c-.034.086-.067.172-.104.255-.298.675-1.448 2.59-2.091 1.196a2.553 2.553 0 01-.15-.41m1.938 1.714c.938-1.095 1.742-2.409 2.36-3.65m-2.36 3.65c-.99 1.158-2.13 2.071-3.349 2.395-1.248.332-1.947-.451-2.242-1.51m-4.391-.416c-2.818-2.004-2.274-7.165-.694-10.422m3.172-.611a16.077 16.077 0 00-3.172.611m10.763 2.137a9.374 9.374 0 01-.07 1.836m.07-1.836c1.011 1.177 1.789 2.617 2.274 4.167m-4.3 1.936c-.992 1.148-2.288 2.106-3.651 2.598m3.651-2.598c-.163-.588-.09-1.144.022-1.766m-8.759-6.474c.346-.714.743-1.337 1.164-1.815 2.925-3.316 8.997-3.077 12.65-1.081m-13.814 2.896c-.382.114-.751.239-1.103.372-.428.162-.849.344-1.26.548m16.177-3.816c.23.125.45.257.658.396.102.067.2.137.294.208m-.952-.604a4.534 4.534 0 00-.462-.695m1.414 1.299c.573.434 1.032.95 1.387 1.523m-1.387-1.523c-.456-.46-.926-.894-1.414-1.299m1.414 1.299c.381.384.752.786 1.12 1.206.091.106.181.211.267.317m-2.624 12.079c.195-1.675.008-3.4-.493-5.007m.493 5.007a10.266 10.266 0 01-.814 2.996 7.359 7.359 0 01-.464.875m-5.551 1.026c-.229.09-.458.175-.688.253a17.423 17.423 0 01-6.085.893m6.773-1.146c-2.41-.185-4.619-1.343-6.301-3.88-1.828-2.758-3.263-6.836-2.944-10.301.036-.386.097-.754.182-1.105m2.291 16.432c-2.8-.099-5.579-.94-7.517-2.916-1.999-2.038-1.691-5.212-.569-7.658a11.792 11.792 0 012.047-3.076m6.039 13.65c-.849-.47-1.648-1.116-2.385-1.981-2.776-3.257-3.593-7.416-3.655-11.669m0 0a12.785 12.785 0 013.748-2.783m-3.748 2.783a45.26 45.26 0 01.072-3.125c.224-4.037 4.936-5.767 7.968-6.461 2.608-.597 6.163-.887 8.646.424.256.135.506.276.749.422m-13.686 5.957c.943-3.888 4.779-5.662 8.179-6.237 1.653-.279 3.771-.398 5.509.281m-.001 0c.718.431 1.389.914 2.027 1.445m-2.027-1.445a4.906 4.906 0 011.813 1.198c.075.08.147.162.214.247"/></symbol><symbol id="icon-wawe-m" viewBox="0 0 480 32"><path fill="none" stroke="var(--color7, #b73f28)" stroke-width="3.2" d="M240 23.945c-7.579 2.767-22.048 2.767-38.586-5.534-42.718-22.138-48.92-10.377-70.279 0s-22.048 6.92-38.585-2.768C77.621 6.879 42.252-4.836 20.203 18.411c-5.168 5.397-9.418 6.162-18.604 4.844M257.6 10.802c5.341-3.01 31.344-12.501 48.061 0C323.074 20.526 333.522 24 348.845 24c12.259 0 26.005-8.335 32.738-13.198 16.717-15.281 35.106-4.168 52.936 4.167 17.832 8.335 36.685 3.473 43.882 0"/><path fill="none" stroke="var(--color5, #b74028)" stroke-linecap="round" stroke-width="1.6" d="M259.176 1.6c-6.037 0-10.243.568-15.874 3.121-6.598 2.992-5.64 10.164-3.47 16.174 2.557 7.084 12.597 11.335 19.115 8.734 3.755-1.498 5.693-4.586 6.629-8.734.63-2.796 1.699-6.781-.483-9.08-4.694-4.942-15.208-8.789-18.917-.568-.806 1.787-1.139 6.018-.541 7.914 1.35 4.277 8.702 3.437 11.89 3.437 5.381 0 6.464-6.345 1.366-8.229-3.746-1.384-7.587-1.349-8.933 3.121m-1.44-4.201c-.051-.008-.077-.028-.083-.055m0 0c-.006-.033.013-.077.042-.122m-.042.122a24.49 24.49 0 00-1.154 5.647c-.061.762-.062 1.546.059 2.272m1.095-7.919l.042-.122m0 0c.05-.075.128-.153.158-.192.717-.919 1.491-1.459 2.594-1.641m-2.752 1.833c.363-1.061.81-2.086 1.342-2.992m1.41 1.158l.008-.001a14.324 14.324 0 013.934-.087c.165.02.322.051.472.09m-4.414-.002c-.762 1.18-.792 2.895-.768 4.774.021 1.531.176 3.714.704 5.693m.064-10.467a3.074 3.074 0 011.251-1.107m3.163 1.109c.325.086.621.215.896.378m-.896-.378c-.942-.604-2.026-.953-3.163-1.109m3.163 1.109c.238.153.467.322.686.508.123.104.243.212.362.324m-.152-.454c.294.175.563.389.819.632m-.819-.632c-.498-1.29-1.458-2.167-2.978-1.85-.411.086-.77.208-1.082.363m4.06 1.487c.056.146.107.298.152.454m.667.178c.435.414.829.91 1.229 1.434.562.738 1.115 1.456 1.611 2.192m-2.84-3.626c-.123-1.015-.413-1.997-.872-2.851-.915-1.707-2.853-3.031-4.544-1.795-.822.601-1.526 1.465-2.123 2.476m7.539 2.17c.022.192.04.385.051.578m2.789 3.048c.771 1.149 1.4 2.346 1.694 3.74m-1.694-3.74c.075-.18.147-.357.214-.528.84-2.168 1.242-5.364.048-7.553m-.262 8.081c-.154.36-.326.736-.515 1.118m2.21 2.622c.126.6.19 1.236.178 1.922-.029 1.573-.741 2.739-1.774 3.545m1.596-5.467c.542-.916.995-1.889 1.336-2.908.773-2.309.755-4.87-.429-6.786m-.907 9.694a16.876 16.876 0 01-1.717 2.385m.12 3.082a6.194 6.194 0 01-1.414.816m1.414-.816c2.538-1.798 4.088-5.085 4.395-8.418.253-2.742-.294-4.777-1.891-6.742m-2.504 15.16c-.437.31-.904.576-1.398.79m-.016.026c-.242.101-.49.189-.741.265m.741-.265l.016-.027m-.016.027c-1.302 2.064-3.389 2.87-5.693 3.123-2.384.261-4.637.117-6.614-.978m11.566-1.88c-.867.26-1.779.37-2.626.345a3.581 3.581 0 01-.947-.152m3.573-.193c.168-.06.336-.122.506-.188.085-.033.168-.068.251-.104m-.757.292c-1.624.572-3.25.853-4.794.734m1.221-.541c-1.075-.328-1.875-1.152-2.469-2.229m2.469 2.229a17.957 17.957 0 005.608-4.355m-5.608 4.355c-.403.199-.811.379-1.221.541m-1.248-2.771c-.397-.719-.702-1.551-.934-2.422m.934 2.422l.099-.011c1.73-.202 3.534-.807 4.602-2.437.21-.318.384-.667.523-1.035m-5.224 3.483c-.966.109-1.915.149-2.845-.262-1.174-.518-1.712-1.557-1.914-2.753m3.825.593c.19-.049.381-.108.568-.176m-.568.176c-1.171.304-2.368.244-3.442-.352a3.976 3.976 0 01-.382-.24m5.139-10.982c-.869-.12-1.77-.128-2.661-.051m6.872 1.992c.181.632.267 1.333.267 2.026 0 .147-.008.287-.022.421m-.245-2.447c.251.238.491.49.718.756m-.473 1.69c-.029.262-.085.5-.166.718m.166-.718a2.267 2.267 0 00-.842.014c-.056.01-.112.022-.166.034m1.008-.048c.152.03.285.079.403.145m-.569.573c-.237.629-.69 1.091-1.323 1.494-.438.278-1.418.977-1.963.674a1.327 1.327 0 01-.632-.767m3.918-1.401a2.719 2.719 0 00-.842-.669m.842.669c.131.153.248.321.354.501m-4.273.9c-.299-.928.317-2.185 1.261-2.322.712-.103 1.317-.001 1.816.252m-3.077 2.07a6.558 6.558 0 00-1.104 2.181c-.224.781-.256 1.839-.014 2.71m1.118-4.891c.795-1.034 1.882-1.803 3.077-2.071m1.195 1.171c.352.611.554 1.362.606 2.152m-.606-2.152c.093-.349.166-.709.216-1.074m-.216 1.074c-.07.257-.15.509-.243.753-.322.844-.843 1.683-1.496 2.44m2.346-1.041a6.644 6.644 0 01-.406 2.755m.406-2.755c.464-1.229.51-2.719-.39-3.226m.39 3.226c-.034.086-.067.172-.104.255-.298.675-1.448 2.59-2.091 1.196a2.553 2.553 0 01-.15-.41m1.938 1.714c.938-1.095 1.742-2.409 2.36-3.65m-2.36 3.65c-.99 1.158-2.13 2.071-3.349 2.395-1.248.332-1.947-.451-2.242-1.51m-4.391-.416c-2.818-2.004-2.274-7.165-.694-10.422m3.172-.611a16.101 16.101 0 00-3.173.611m10.764 2.137a9.374 9.374 0 01-.07 1.836m.07-1.836c1.011 1.177 1.789 2.617 2.274 4.167m-4.3 1.936c-.992 1.148-2.288 2.106-3.651 2.598m3.651-2.598c-.163-.588-.09-1.144.022-1.766m-8.76-6.474c.347-.714.744-1.337 1.165-1.815 2.925-3.316 8.997-3.077 12.65-1.081m-13.815 2.896c-.381.114-.75.239-1.102.372-.427.162-.85.344-1.261.548m16.178-3.816c.23.125.45.257.658.396.102.067.2.137.294.208m-.952-.604a4.534 4.534 0 00-.462-.695m1.414 1.299c.573.434 1.032.95 1.387 1.523m-1.387-1.523c-.456-.46-.926-.894-1.414-1.299m1.414 1.299c.381.384.752.786 1.12 1.206.091.106.181.211.267.317m-2.624 12.079c.195-1.675.008-3.4-.493-5.007m.493 5.007a10.266 10.266 0 01-.814 2.996 7.359 7.359 0 01-.464.875m-5.551 1.026c-.229.09-.458.175-.688.253a17.423 17.423 0 01-6.085.893m6.773-1.146c-2.41-.185-4.619-1.343-6.301-3.88-1.829-2.758-3.264-6.836-2.946-10.301.037-.386.098-.754.182-1.105m2.292 16.432c-2.8-.099-5.579-.94-7.517-2.916-2-2.038-1.691-5.212-.57-7.658a11.745 11.745 0 012.048-3.076m6.039 13.65c-.85-.47-1.648-1.116-2.384-1.981-2.778-3.257-3.594-7.416-3.654-11.669m0 0a12.781 12.781 0 013.747-2.783m-3.747 2.783c-.016-1.04.014-2.085.072-3.125.222-4.037 4.936-5.767 7.968-6.461 2.608-.597 6.163-.887 8.646.424.256.135.506.276.749.422m-13.688 5.957c.944-3.888 4.779-5.662 8.179-6.237 1.653-.279 3.771-.398 5.509.281m0 0c.718.431 1.389.914 2.027 1.445m-2.027-1.445a4.906 4.906 0 011.813 1.198c.075.08.147.162.214.247"/></symbol><symbol id="icon-wawe-l" viewBox="0 0 560 32"><path fill="none" stroke="var(--color7, #b73f28)" stroke-width="3.2" d="M278.4 25.506c-8.8 3.193-25.6 3.193-44.8-6.386-49.6-25.544-56.8-11.974-81.6 0s-25.6 7.985-44.8-3.193c-17.333-10.112-58.4-23.63-84 3.193-6 6.227-10.935 7.11-21.6 5.589m301.6-14.337c6.192-3.473 36.341-14.424 55.722 0 20.19 11.22 32.304 15.228 50.07 15.228 14.213 0 30.149-9.618 37.955-15.228 19.382-17.632 40.702-4.809 61.376 4.809s42.531 4.007 50.877 0"/><path fill="none" stroke="var(--color5, #b74028)" stroke-linecap="round" stroke-width="1.6" d="M299.976 1.6c-6.037 0-10.243.568-15.874 3.121-6.598 2.992-5.64 10.164-3.47 16.174 2.557 7.084 12.597 11.335 19.115 8.734 3.755-1.498 5.693-4.586 6.629-8.734.63-2.796 1.699-6.781-.483-9.08-4.694-4.942-15.208-8.789-18.917-.568-.806 1.787-1.139 6.018-.541 7.914 1.35 4.277 8.702 3.437 11.89 3.437 5.381 0 6.464-6.345 1.366-8.229-3.746-1.384-7.587-1.349-8.933 3.121m-1.44-4.201c-.051-.008-.077-.028-.083-.055m0 0c-.006-.033.013-.077.042-.122m-.042.122a24.49 24.49 0 00-1.154 5.647c-.061.762-.062 1.546.059 2.272m1.095-7.919l.042-.122m0 0c.05-.075.128-.153.158-.192.717-.919 1.491-1.459 2.594-1.641m-2.752 1.833c.363-1.061.81-2.086 1.342-2.992m1.41 1.158l.008-.001a14.324 14.324 0 013.934-.087c.165.02.322.051.472.09m-4.414-.002c-.762 1.18-.792 2.895-.768 4.774.021 1.531.176 3.714.704 5.693m.064-10.467a3.074 3.074 0 011.251-1.107m3.163 1.109c.325.086.621.215.896.378m-.896-.378c-.942-.604-2.026-.953-3.163-1.109m3.163 1.109c.238.153.467.322.686.508.123.104.243.212.362.324m-.152-.454c.294.175.563.389.819.632m-.819-.632c-.498-1.29-1.458-2.167-2.978-1.85-.411.086-.77.208-1.082.363m4.06 1.487c.056.146.107.298.152.454m.667.178c.435.414.829.91 1.229 1.434.562.738 1.115 1.456 1.611 2.192m-2.84-3.626c-.123-1.015-.413-1.997-.872-2.851-.915-1.707-2.853-3.031-4.544-1.795-.822.601-1.526 1.465-2.123 2.476m7.539 2.17c.022.192.04.385.051.578m2.789 3.048c.771 1.149 1.4 2.346 1.694 3.74m-1.694-3.74c.075-.18.147-.357.214-.528.84-2.168 1.242-5.364.048-7.553m-.262 8.081c-.154.36-.326.736-.515 1.118m2.21 2.622c.126.6.19 1.236.178 1.922-.029 1.573-.741 2.739-1.774 3.545m1.596-5.467c.542-.916.995-1.889 1.336-2.908.773-2.309.755-4.87-.429-6.786m-.907 9.694a16.876 16.876 0 01-1.717 2.385m.12 3.082a6.194 6.194 0 01-1.414.816m1.414-.816c2.538-1.798 4.088-5.085 4.395-8.418.253-2.742-.294-4.777-1.891-6.742m-2.504 15.16c-.437.31-.904.576-1.398.79m-.016.026c-.242.101-.49.189-.741.265m.741-.265l.016-.027m-.016.027c-1.302 2.064-3.389 2.87-5.693 3.123-2.384.261-4.637.117-6.614-.978m11.566-1.88c-.867.26-1.779.37-2.626.345a3.581 3.581 0 01-.947-.152m3.573-.193c.168-.06.336-.122.506-.188.085-.033.168-.068.251-.104m-.757.292c-1.624.572-3.25.853-4.794.734m1.221-.541c-1.075-.328-1.875-1.152-2.469-2.229m2.469 2.229a17.957 17.957 0 005.608-4.355m-5.608 4.355c-.403.199-.811.379-1.221.541m-1.248-2.771c-.397-.719-.702-1.551-.934-2.422m.934 2.422l.099-.011c1.73-.202 3.534-.807 4.602-2.437.21-.318.384-.667.523-1.035m-5.224 3.483c-.966.109-1.915.149-2.845-.262-1.174-.518-1.712-1.557-1.914-2.753m3.825.593c.19-.049.381-.108.568-.176m-.568.176c-1.171.304-2.368.244-3.442-.352a3.976 3.976 0 01-.382-.24m5.139-10.982c-.869-.12-1.77-.128-2.661-.051m6.872 1.992c.181.632.267 1.333.267 2.026 0 .147-.008.287-.022.421m-.245-2.447c.251.238.491.49.718.756m-.473 1.69c-.029.262-.085.5-.166.718m.166-.718a2.267 2.267 0 00-.842.014c-.056.01-.112.022-.166.034m1.008-.048c.152.03.285.079.403.145m-.569.573c-.237.629-.69 1.091-1.323 1.494-.438.278-1.418.977-1.963.674a1.327 1.327 0 01-.632-.767m3.918-1.401a2.719 2.719 0 00-.842-.669m.842.669c.131.153.248.321.354.501m-4.273.9c-.299-.928.317-2.185 1.261-2.322.712-.103 1.317-.001 1.816.252m-3.077 2.07a6.558 6.558 0 00-1.104 2.181c-.224.781-.256 1.839-.014 2.71m1.118-4.891c.795-1.034 1.882-1.803 3.077-2.071m1.195 1.171c.352.611.554 1.362.606 2.152m-.606-2.152c.093-.349.166-.709.216-1.074m-.216 1.074c-.07.257-.15.509-.243.753-.322.844-.843 1.683-1.496 2.44m2.346-1.041a6.644 6.644 0 01-.406 2.755m.406-2.755c.464-1.229.51-2.719-.39-3.226m.39 3.226c-.034.086-.067.172-.104.255-.298.675-1.448 2.59-2.091 1.196a2.553 2.553 0 01-.15-.41m1.938 1.714c.938-1.095 1.742-2.409 2.36-3.65m-2.36 3.65c-.99 1.158-2.13 2.071-3.349 2.395-1.248.332-1.947-.451-2.242-1.51m-4.391-.416c-2.818-2.004-2.274-7.165-.694-10.422m3.172-.611a16.101 16.101 0 00-3.173.611m10.764 2.137a9.374 9.374 0 01-.07 1.836m.07-1.836c1.011 1.177 1.789 2.617 2.274 4.167m-4.3 1.936c-.992 1.148-2.288 2.106-3.651 2.598m3.651-2.598c-.163-.588-.09-1.144.022-1.766m-8.76-6.474c.347-.714.744-1.337 1.165-1.815 2.925-3.316 8.997-3.077 12.65-1.081m-13.815 2.896c-.381.114-.75.239-1.102.372-.427.162-.85.344-1.261.548m16.178-3.816c.23.125.45.257.658.396.102.067.2.137.294.208m-.952-.604a4.534 4.534 0 00-.462-.695m1.414 1.299c.573.434 1.032.95 1.387 1.523m-1.387-1.523c-.456-.46-.926-.894-1.414-1.299m1.414 1.299c.381.384.752.786 1.12 1.206.091.106.181.211.267.317m-2.624 12.079c.195-1.675.008-3.4-.493-5.007m.493 5.007a10.266 10.266 0 01-.814 2.996 7.359 7.359 0 01-.464.875m-5.551 1.026c-.229.09-.458.175-.688.253a17.423 17.423 0 01-6.085.893m6.773-1.146c-2.41-.185-4.619-1.343-6.301-3.88-1.829-2.758-3.264-6.836-2.946-10.301.037-.386.098-.754.182-1.105m2.292 16.432c-2.8-.099-5.579-.94-7.517-2.916-2-2.038-1.691-5.212-.57-7.658a11.745 11.745 0 012.048-3.076m6.039 13.65c-.85-.47-1.648-1.116-2.384-1.981-2.778-3.257-3.594-7.416-3.654-11.669m0 0a12.781 12.781 0 013.747-2.783m-3.747 2.783c-.016-1.04.014-2.085.072-3.125.222-4.037 4.936-5.767 7.968-6.461 2.608-.597 6.163-.887 8.646.424.256.135.506.276.749.422m-13.688 5.957c.944-3.888 4.779-5.662 8.179-6.237 1.653-.279 3.771-.398 5.509.281m0 0c.718.431 1.389.914 2.027 1.445m-2.027-1.445a4.906 4.906 0 011.813 1.198c.075.08.147.162.214.247"/></symbol><symbol id="icon-mail" viewBox="0 0 32 32"><path fill="var(--color5, #b74028)" d="M6.644 6.857h18.711c.853 0 1.671.363 2.274 1.01s.942 1.523.942 2.437v12.535c0 .914-.339 1.791-.942 2.437s-1.421 1.01-2.274 1.01H6.644c-.853 0-1.671-.363-2.274-1.01s-.942-1.523-.942-2.437V10.304c0-.914.339-1.791.942-2.437s1.421-1.01 2.274-1.01zm4.012 5.184c-.191-.133-.422-.182-.646-.136s-.421.184-.552.384c-.131.2-.184.446-.148.687s.158.458.34.604l5.847 4.387c.147.11.323.17.503.17s.355-.059.503-.17l5.847-4.387c.099-.069.183-.158.249-.263s.111-.222.133-.346c.022-.124.021-.251-.003-.374s-.072-.24-.139-.343a.915.915 0 00-.253-.258.837.837 0 00-.676-.115.843.843 0 00-.315.161l-5.344 4.01-5.344-4.01z"/></symbol><symbol id="icon-phone" viewBox="0 0 32 32"><path fill="var(--color5, #b74028)" d="M23.229 19.449l3.814 3.814a1.294 1.294 0 01.386.929 1.312 1.312 0 01-.386.929 7.877 7.877 0 01-10.299.731l-2.268-1.702a33.113 33.113 0 01-6.625-6.625l-1.702-2.268A7.881 7.881 0 016.88 4.958a1.294 1.294 0 01.929-.386 1.312 1.312 0 01.929.386l3.814 3.814a1.44 1.44 0 010 2.036l-1.47 1.47a.77.77 0 00-.144.887 17.66 17.66 0 007.898 7.898.762.762 0 00.887-.144l1.469-1.469a1.427 1.427 0 011.571-.313c.175.073.334.179.467.313v-.001z"/></symbol><symbol id="icon-youtube" viewBox="0 0 32 32"><path fill="var(--color5, #b74028)" d="M16.307 5.714c.671.004 2.351.021 4.136.094l.634.028c1.797.086 3.592.235 4.483.489 1.188.342 2.121 1.337 2.436 2.6.503 2.006.566 5.917.573 6.865l.001.195v.224c-.009.948-.072 4.86-.575 6.865-.319 1.267-1.253 2.263-2.436 2.6-.891.253-2.687.402-4.483.489l-.634.03c-1.785.072-3.465.09-4.136.093l-.295.001h-.321c-1.421-.009-7.362-.075-9.253-.612-1.187-.342-2.121-1.337-2.436-2.6-.503-2.006-.566-5.917-.573-6.865v-.419c.008-.948.07-4.86.573-6.865.319-1.266 1.253-2.263 2.438-2.599 1.89-.539 7.832-.604 9.253-.612h.615zM13.485 11.5v9.001l7.543-4.5-7.543-4.5z"/></symbol><symbol id="icon-tiktok" viewBox="0 0 32 32"><path fill="var(--color5, #b74028)" d="M25.578 3.429H6.422a2.994 2.994 0 00-2.994 2.994v19.156a2.995 2.995 0 002.993 2.993h19.156a2.994 2.994 0 002.994-2.994V6.422a2.994 2.994 0 00-2.994-2.994zm-2.391 10.969a4.425 4.425 0 01-2.545-.518 4.471 4.471 0 01-1.62-1.489v6.906a5.106 5.106 0 01-3.151 4.716 5.106 5.106 0 01-6.959-3.72 5.106 5.106 0 012.17-5.24 5.104 5.104 0 012.836-.86c.106 0 .21.01.314.015v2.516c-.105-.013-.207-.032-.314-.032a2.602 2.602 0 00-2.605 2.605 2.602 2.602 0 002.605 2.605c1.439 0 2.71-1.133 2.71-2.572l.025-11.731h2.407a4.482 4.482 0 004.13 4.002v2.796z"/></symbol><symbol id="icon-linkedin" viewBox="0 0 32 32"><path fill="var(--color5, #b74028)" d="M24.381 3.429a4.188 4.188 0 014.19 4.19v16.762a4.188 4.188 0 01-4.19 4.19H7.619a4.188 4.188 0 01-4.19-4.19V7.619a4.188 4.188 0 014.19-4.19h16.762zm-13.968 9.777a1.398 1.398 0 00-1.397 1.397v6.984a1.398 1.398 0 002.794 0v-6.984a1.398 1.398 0 00-1.397-1.397zm4.19-1.397a1.398 1.398 0 00-1.397 1.397v8.381a1.398 1.398 0 002.794 0v-5.112a5.788 5.788 0 011.946-1.387c.465-.198 1.165-.279 1.651-.126a.766.766 0 01.409.263c.073.098.184.316.184.775v5.587a1.398 1.398 0 002.794 0V16c0-.936-.238-1.768-.732-2.436a3.555 3.555 0 00-1.817-1.267c-1.26-.395-2.655-.176-3.587.223a8.311 8.311 0 00-.87.436 1.396 1.396 0 00-1.374-1.146zm-4.19-2.793a1.398 1.398 0 100 2.796 1.398 1.398 0 000-2.796z"/></symbol><symbol id="icon-facebook" viewBox="0 0 32 32"><path fill="var(--color5, #b74028)" d="M25.778 3.429H6.222a2.802 2.802 0 00-2.794 2.794v19.556a2.801 2.801 0 002.794 2.794H16v-9.778h-2.794v-3.457H16v-2.863c0-3.023 1.693-5.146 5.26-5.146l2.518.003v3.639h-1.672c-1.388 0-1.916 1.042-1.916 2.009v2.361h3.587l-.793 3.456H20.19v9.778h5.587a2.802 2.802 0 002.794-2.794V6.225a2.802 2.802 0 00-2.794-2.794z"/></symbol><symbol id="icon-instagram" viewBox="0 0 32 32"><path fill="var(--color5, #b74028)" d="M17.292 3.429c1.414.004 2.132.011 2.752.029l.244.009c.282.01.559.023.895.038 1.338.063 2.25.274 3.051.585.83.319 1.529.752 2.228 1.449a6.154 6.154 0 011.449 2.228c.311.801.522 1.713.585 3.052.015.334.028.612.038.895l.008.244c.019.618.026 1.336.029 2.751l.001.938v1.647c.003.917-.006 1.834-.029 2.75l-.008.244c-.01.283-.023.561-.038.895-.063 1.339-.277 2.25-.586 3.052a6.17 6.17 0 01-1.449 2.228 6.156 6.156 0 01-2.228 1.45c-.801.311-1.713.522-3.051.585l-.895.038-.244.008c-.62.018-1.338.026-2.752.029l-2.583.001a97.117 97.117 0 01-2.752-.029l-.244-.008a66.943 66.943 0 01-.895-.039c-1.338-.063-2.25-.274-3.052-.585a6.157 6.157 0 01-2.226-1.45 6.159 6.159 0 01-1.451-2.228c-.311-.801-.522-1.713-.585-3.052l-.038-.895-.006-.244a97.02 97.02 0 01-.031-2.75v-2.585c-.003-.917.006-1.834.028-2.751l.009-.244c.01-.283.023-.561.038-.895.063-1.339.274-2.25.585-3.052a6.15 6.15 0 011.453-2.228A6.15 6.15 0 017.767 4.09c.802-.311 1.713-.522 3.052-.585.334-.015.614-.028.895-.038l.244-.008c.917-.022 1.834-.032 2.751-.029l2.585-.001zM16 9.714A6.282 6.282 0 009.715 16 6.286 6.286 0 1016 9.714zm0 2.514a3.76 3.76 0 012.667 1.104 3.76 3.76 0 01.818 4.109 3.781 3.781 0 01-2.04 2.042 3.77 3.77 0 11-1.443-7.257zm6.601-4.4a1.574 1.574 0 00-1.571 1.571 1.574 1.574 0 001.571 1.571 1.574 1.574 0 001.571-1.571 1.574 1.574 0 00-1.571-1.571z"/></symbol></defs></svg>