<svg aria-hidden="true" style="position:absolute;width:0;height:0" xmlns="http://www.w3.org/2000/svg" overflow="hidden"><defs><symbol id="icon-veggie-burger" viewBox="0 0 56 32"><path fill="none" stroke-linecap="round" stroke-width="4" d="M4 4h48M4 28h48"/></symbol><symbol id="icon-cross" viewBox="0 0 32 32"><path d="M16 17.853L2.271 31.582c-.244.244-.544.375-.9.393s-.673-.113-.953-.393-.419-.588-.419-.926c0-.338.14-.647.419-.926l13.729-13.729L.418 2.272c-.244-.244-.375-.544-.393-.9S.138.699.418.419C.697.14 1.006 0 1.344 0s.647.14.926.419l13.729 13.729L29.728.419c.244-.244.545-.375.903-.393.354-.017.671.113.95.393s.419.588.419.926c0 .338-.139.647-.419.926L17.852 16l13.729 13.729c.244.244.375.545.393.903.017.354-.113.671-.393.95s-.588.419-.926.419c-.338 0-.647-.139-.926-.419L16 17.853z"/></symbol><symbol id="icon-arrow-right" viewBox="0 0 18 32"><path d="M0 2.615L2.644 0l14.401 14.253a2.43 2.43 0 01.542 2.687c-.125.299-.31.571-.542.799L2.644 32 .002 29.385 13.519 16 0 2.615z"/></symbol></defs></svg>