<svg width="24" height="24" viewBox="0 0 24 24" fill="none" xmlns="http://www.w3.org/2000/svg">
<path d="M2.27372 13.5362C2.08394 13.34 1.99285 13.1111 2.00044 12.8495C2.00803 12.5879 2.10703 12.359 2.29744 12.1628C2.48722 11.9829 2.70863 11.8887 2.96168 11.8802C3.21472 11.8717 3.43613 11.9659 3.62591 12.1628L6.99451 15.6455L7.32662 15.9889L7.65874 16.3322C7.84852 16.5284 7.93961 16.7573 7.93202 17.019C7.92443 17.2806 7.82543 17.5095 7.63502 17.7057C7.44524 17.8855 7.22383 17.9797 6.97078 17.9882C6.71774 17.9967 6.49633 17.9025 6.30655 17.7057L2.27372 13.5362ZM12.3321 15.621L20.3977 7.28209C20.5875 7.08588 20.8089 6.99203 21.062 7.00053C21.315 7.00903 21.5364 7.11106 21.7262 7.30662C21.9002 7.50282 21.9913 7.73173 21.9995 7.99335C22.0077 8.25496 21.9166 8.48387 21.7262 8.68008L12.9963 17.7057C12.8065 17.9019 12.5851 18 12.3321 18C12.079 18 11.8576 17.9019 11.6678 17.7057L7.63502 13.5362C7.46105 13.3564 7.37407 13.1317 7.37407 12.8623C7.37407 12.5928 7.46105 12.3596 7.63502 12.1628C7.8248 11.9666 8.05032 11.8685 8.31158 11.8685C8.57285 11.8685 8.79805 11.9666 8.9872 12.1628L12.3321 15.621ZM16.3412 8.7046L12.9963 12.1628C12.8223 12.3426 12.605 12.4326 12.3444 12.4326C12.0838 12.4326 11.8583 12.3426 11.6678 12.1628C11.4781 11.9666 11.3832 11.7337 11.3832 11.4643C11.3832 11.1948 11.4781 10.9617 11.6678 10.7648L15.0127 7.30662C15.1867 7.12676 15.4043 7.03683 15.6656 7.03683C15.9268 7.03683 16.152 7.12676 16.3412 7.30662C16.531 7.50282 16.6259 7.73566 16.6259 8.00512C16.6259 8.27458 16.531 8.50774 16.3412 8.7046Z" fill="#F2C857"/>
</svg>
