<svg width="648" height="197" viewBox="0 0 648 197" fill="none" xmlns="http://www.w3.org/2000/svg">
<rect width="18" height="18" transform="translate(630 89)" fill="#B73F28"/>
<rect width="18" height="18" transform="translate(0 71)" fill="#351311"/>
<rect width="18" height="18" transform="translate(0 107)" fill="#351311"/>
<rect width="18" height="18" transform="translate(612 107)" fill="#351311"/>
<rect width="18" height="18" transform="translate(612 71)" fill="#351311"/>
<rect width="18" height="18" transform="translate(612 53)" fill="#351311"/>
<rect width="18" height="18" transform="translate(0 53)" fill="#351311"/>
<rect width="18" height="18" transform="translate(18 71)" fill="#351311"/>
<rect width="18" height="18" transform="translate(594 71)" fill="#351311"/>
<rect width="18" height="18" transform="translate(594 89)" fill="#351311"/>
<rect width="18" height="18" transform="translate(576 89)" fill="#351311"/>
<rect width="18" height="18" transform="translate(594 107)" fill="#351311"/>
<rect width="18" height="18" transform="translate(630 125)" fill="#351311"/>
<rect width="18" height="18" transform="translate(612 125)" fill="#351311"/>
<rect width="18" height="18" transform="translate(0 125)" fill="#351311"/>
<rect width="18" height="18" transform="translate(630 143)" fill="#351311"/>
<rect width="18" height="18" transform="translate(18 107)" fill="#351311"/>
<rect width="18" height="18" transform="translate(18 89)" fill="#351311"/>
<rect width="18" height="18" transform="translate(36 89)" fill="#351311"/>
<rect width="18" height="18" transform="translate(630 35)" fill="#351311"/>
<rect width="18" height="18" transform="translate(630 53)" fill="#351311"/>
<rect width="18" height="18" transform="translate(144 35)" fill="#B73F28"/>
<rect width="18" height="18" transform="translate(144 53)" fill="#B73F28"/>
<rect width="18" height="18" transform="translate(126 71)" fill="#B73F28"/>
<rect width="18" height="18" transform="translate(126 107)" fill="#B73F28"/>
<rect width="18" height="18" transform="translate(162 143)" fill="#B73F28"/>
<rect width="18" height="18" transform="translate(144 125)" fill="#B73F28"/>
<rect width="18" height="18" transform="translate(180 161)" fill="#B73F28"/>
<rect width="18" height="18" transform="translate(198 179)" fill="#B73F28"/>
<rect width="18" height="18" transform="translate(468 179)" fill="#B73F28"/>
<rect width="18" height="18" transform="translate(576 179)" fill="#B73F28"/>
<rect width="18" height="18" transform="translate(108 89)" fill="#B73F28"/>
<rect width="18" height="18" transform="translate(126 53)" fill="#B73F28"/>
<rect width="18" height="18" transform="translate(108 71)" fill="#B73F28"/>
<rect width="18" height="18" transform="translate(108 107)" fill="#B73F28"/>
<rect width="18" height="18" transform="translate(144 143)" fill="#B73F28"/>
<rect width="18" height="18" transform="translate(126 125)" fill="#B73F28"/>
<rect width="18" height="18" transform="translate(162 161)" fill="#B73F28"/>
<rect width="18" height="18" transform="translate(180 179)" fill="#B73F28"/>
<rect width="18" height="18" transform="translate(450 179)" fill="#B73F28"/>
<rect width="18" height="18" transform="translate(558 179)" fill="#B73F28"/>
<rect width="18" height="18" transform="translate(90 89)" fill="#B73F28"/>
<rect width="18" height="18" transform="translate(162 53)" fill="#B73F28"/>
<rect width="18" height="18" transform="translate(144 71)" fill="#B73F28"/>
<rect width="18" height="18" transform="translate(144 107)" fill="#B73F28"/>
<rect width="18" height="18" transform="translate(180 143)" fill="#B73F28"/>
<rect width="18" height="18" transform="translate(162 125)" fill="#B73F28"/>
<rect width="18" height="18" transform="translate(198 161)" fill="#B73F28"/>
<rect width="18" height="18" transform="translate(216 179)" fill="#B73F28"/>
<rect width="18" height="18" transform="translate(486 179)" fill="#B73F28"/>
<rect width="18" height="18" transform="translate(594 179)" fill="#B73F28"/>
<rect width="18" height="18" transform="translate(18 179)" fill="#B73F28"/>
<rect width="18" height="18" transform="translate(90 179)" fill="#B73F28"/>
<rect width="18" height="18" transform="translate(126 89)" fill="#B73F28"/>
<rect width="18" height="18" transform="translate(162 71)" fill="#B73F28"/>
<rect width="18" height="18" transform="translate(234 179)" fill="#B73F28"/>
<rect width="18" height="18" transform="translate(504 179)" fill="#B73F28"/>
<rect width="18" height="18" transform="translate(612 179)" fill="#B73F28"/>
<rect width="18" height="18" transform="translate(36 179)" fill="#B73F28"/>
<rect width="18" height="18" transform="translate(108 179)" fill="#B73F28"/>
<rect width="18" height="18" transform="translate(162 179)" fill="#B73F28"/>
<rect width="18" height="18" transform="translate(216 125)" fill="#B73F28"/>
<rect width="18" height="18" transform="translate(252 161)" fill="#B73F28"/>
<rect width="18" height="18" transform="translate(270 179)" fill="#B73F28"/>
<rect width="18" height="18" transform="translate(540 179)" fill="#B73F28"/>
<rect width="18" height="18" transform="translate(0 179)" fill="#B73F28"/>
<rect width="18" height="18" transform="translate(72 179)" fill="#B73F28"/>
<rect width="18" height="18" transform="translate(144 179)" fill="#B73F28"/>
<rect width="18" height="18" transform="translate(180 71)" fill="#B73F28"/>
<rect width="18" height="18" transform="translate(180 107)" fill="#B73F28"/>
<rect width="18" height="18" transform="translate(216 143)" fill="#B73F28"/>
<rect width="18" height="18" transform="translate(198 125)" fill="#B73F28"/>
<rect width="18" height="18" transform="translate(234 161)" fill="#B73F28"/>
<rect width="18" height="18" transform="translate(252 179)" fill="#B73F28"/>
<rect width="18" height="18" transform="translate(522 179)" fill="#B73F28"/>
<rect width="18" height="18" transform="translate(630 179)" fill="#B73F28"/>
<rect width="18" height="18" transform="translate(54 179)" fill="#B73F28"/>
<rect width="18" height="18" transform="translate(126 179)" fill="#B73F28"/>
<rect width="18" height="18" transform="translate(234 125)" fill="#B73F28"/>
<rect width="18" height="18" transform="translate(270 161)" fill="#B73F28"/>
<rect width="18" height="18" transform="translate(288 179)" fill="#B73F28"/>
<rect width="18" height="18" transform="translate(198 107)" fill="#B73F28"/>
<rect width="18" height="18" transform="translate(234 143)" fill="#B73F28"/>
<rect width="18" height="18" transform="translate(216 107)" fill="#B73F28"/>
<rect width="18" height="18" transform="translate(252 143)" fill="#B73F28"/>
<rect width="18" height="18" transform="translate(162 89)" fill="#B73F28"/>
<rect width="18" height="18" transform="translate(180 89)" fill="#B73F28"/>
<rect width="18" height="18" transform="translate(198 89)" fill="#B73F28"/>
<rect width="18" height="18" transform="matrix(-1 0 0 1 486 35)" fill="#B73F28"/>
<rect width="18" height="18" transform="matrix(-1 0 0 1 486 53)" fill="#B73F28"/>
<rect width="18" height="18" transform="matrix(-1 0 0 1 504 71)" fill="#B73F28"/>
<rect width="18" height="18" transform="matrix(-1 0 0 1 504 107)" fill="#B73F28"/>
<rect width="18" height="18" transform="matrix(-1 0 0 1 468 143)" fill="#B73F28"/>
<rect width="18" height="18" transform="matrix(-1 0 0 1 486 125)" fill="#B73F28"/>
<rect width="18" height="18" transform="matrix(-1 0 0 1 450 161)" fill="#B73F28"/>
<rect width="18" height="18" transform="matrix(-1 0 0 1 432 179)" fill="#B73F28"/>
<rect width="18" height="18" transform="matrix(-1 0 0 1 522 89)" fill="#B73F28"/>
<rect width="18" height="18" transform="matrix(-1 0 0 1 504 53)" fill="#B73F28"/>
<rect width="18" height="18" transform="matrix(-1 0 0 1 522 71)" fill="#B73F28"/>
<rect width="18" height="18" transform="matrix(-1 0 0 1 522 107)" fill="#B73F28"/>
<rect width="18" height="18" transform="matrix(-1 0 0 1 486 143)" fill="#B73F28"/>
<rect width="18" height="18" transform="matrix(-1 0 0 1 504 125)" fill="#B73F28"/>
<rect width="18" height="18" transform="matrix(-1 0 0 1 468 161)" fill="#B73F28"/>
<rect width="18" height="18" transform="matrix(-1 0 0 1 450 179)" fill="#B73F28"/>
<rect width="18" height="18" transform="matrix(-1 0 0 1 540 89)" fill="#B73F28"/>
<rect width="18" height="18" transform="matrix(-1 0 0 1 558 125)" fill="#B73F28"/>
<rect width="18" height="18" transform="matrix(-1 0 0 1 90 125)" fill="#B73F28"/>
<rect width="18" height="18" transform="matrix(-1 0 0 1 90 143)" fill="#B73F28"/>
<rect width="18" height="18" transform="matrix(-1 0 0 1 540 143)" fill="#B73F28"/>
<rect width="18" height="18" transform="matrix(-1 0 0 1 72 143)" fill="#B73F28"/>
<rect width="18" height="18" transform="matrix(-1 0 0 1 576 143)" fill="#B73F28"/>
<rect width="18" height="18" transform="matrix(-1 0 0 1 108 143)" fill="#B73F28"/>
<rect width="18" height="18" transform="matrix(-1 0 0 1 576 161)" fill="#B73F28"/>
<rect width="18" height="18" transform="matrix(-1 0 0 1 108 161)" fill="#B73F28"/>
<rect width="18" height="18" transform="matrix(-1 0 0 1 594 161)" fill="#B73F28"/>
<rect width="18" height="18" transform="matrix(-1 0 0 1 126 161)" fill="#B73F28"/>
<rect width="18" height="18" transform="matrix(-1 0 0 1 540 161)" fill="#B73F28"/>
<rect width="18" height="18" transform="matrix(-1 0 0 1 72 161)" fill="#B73F28"/>
<rect width="18" height="18" transform="matrix(-1 0 0 1 522 161)" fill="#B73F28"/>
<rect width="18" height="18" transform="matrix(-1 0 0 1 54 161)" fill="#B73F28"/>
<rect width="18" height="18" transform="matrix(-1 0 0 1 558 143)" fill="#B73F28"/>
<rect width="18" height="18" transform="matrix(-1 0 0 1 468 53)" fill="#B73F28"/>
<rect width="18" height="18" transform="matrix(-1 0 0 1 486 71)" fill="#B73F28"/>
<rect width="18" height="18" transform="matrix(-1 0 0 1 486 107)" fill="#B73F28"/>
<rect width="18" height="18" transform="matrix(-1 0 0 1 450 143)" fill="#B73F28"/>
<rect width="18" height="18" transform="matrix(-1 0 0 1 468 125)" fill="#B73F28"/>
<rect width="18" height="18" transform="matrix(-1 0 0 1 432 161)" fill="#B73F28"/>
<rect width="18" height="18" transform="matrix(-1 0 0 1 414 179)" fill="#B73F28"/>
<rect width="18" height="18" transform="matrix(-1 0 0 1 504 89)" fill="#B73F28"/>
<rect width="18" height="18" transform="matrix(-1 0 0 1 468 71)" fill="#B73F28"/>
<rect width="18" height="18" transform="matrix(-1 0 0 1 396 179)" fill="#B73F28"/>
<rect width="18" height="18" transform="matrix(-1 0 0 1 414 125)" fill="#B73F28"/>
<rect width="18" height="18" transform="matrix(-1 0 0 1 378 161)" fill="#B73F28"/>
<rect width="18" height="18" transform="matrix(-1 0 0 1 360 179)" fill="#B73F28"/>
<rect width="18" height="18" transform="matrix(-1 0 0 1 450 71)" fill="#B73F28"/>
<rect width="18" height="18" transform="matrix(-1 0 0 1 450 107)" fill="#B73F28"/>
<rect width="18" height="18" transform="matrix(-1 0 0 1 414 143)" fill="#B73F28"/>
<rect width="18" height="18" transform="matrix(-1 0 0 1 432 125)" fill="#B73F28"/>
<rect width="18" height="18" transform="matrix(-1 0 0 1 396 161)" fill="#B73F28"/>
<rect width="18" height="18" transform="matrix(-1 0 0 1 378 179)" fill="#B73F28"/>
<rect width="18" height="18" transform="matrix(-1 0 0 1 396 125)" fill="#B73F28"/>
<rect width="18" height="18" transform="matrix(-1 0 0 1 360 161)" fill="#B73F28"/>
<rect width="18" height="18" transform="matrix(-1 0 0 1 324 179)" fill="#B73F28"/>
<rect width="18" height="18" transform="matrix(-1 0 0 1 342 179)" fill="#B73F28"/>
<rect width="18" height="18" transform="matrix(-1 0 0 1 432 107)" fill="#B73F28"/>
<rect width="18" height="18" transform="matrix(-1 0 0 1 396 143)" fill="#B73F28"/>
<rect width="18" height="18" transform="matrix(-1 0 0 1 414 107)" fill="#B73F28"/>
<rect width="18" height="18" transform="matrix(-1 0 0 1 378 143)" fill="#B73F28"/>
<rect width="18" height="18" transform="matrix(-1 0 0 1 468 89)" fill="#B73F28"/>
<rect width="18" height="18" transform="matrix(-1 0 0 1 450 89)" fill="#B73F28"/>
<rect width="18" height="18" transform="matrix(-1 0 0 1 432 89)" fill="#B73F28"/>
<rect width="18" height="18" transform="translate(307 18)" fill="#B73F28"/>
<rect width="18" height="18" transform="translate(289)" fill="#B73F28"/>
<rect width="18" height="18" transform="translate(325)" fill="#B73F28"/>
<rect width="18" height="18" transform="matrix(-1 0 0 1 379 17)" fill="#B73F28"/>
<rect width="18" height="18" transform="matrix(-1 0 0 1 271 17)" fill="#B73F28"/>
<rect width="18" height="18" transform="matrix(-1 0 0 1 379 35)" fill="#B73F28"/>
<rect width="18" height="18" transform="matrix(-1 0 0 1 271 35)" fill="#B73F28"/>
<rect width="18" height="18" transform="matrix(-1 0 0 1 397 53)" fill="#B73F28"/>
<rect width="18" height="18" transform="matrix(-1 0 0 1 289 53)" fill="#B73F28"/>
<rect width="18" height="18" transform="matrix(-1 0 0 1 379 71)" fill="#B73F28"/>
<rect width="18" height="18" transform="matrix(-1 0 0 1 361 89)" fill="#B73F28"/>
<rect width="18" height="18" transform="matrix(-1 0 0 1 343 107)" fill="#B73F28"/>
<rect width="18" height="18" transform="matrix(-1 0 0 1 325 125)" fill="#B73F28"/>
<rect width="18" height="18" transform="matrix(-1 0 0 1 325 143)" fill="#B73F28"/>
<rect width="18" height="18" transform="matrix(-1 0 0 1 325 161)" fill="#B73F28"/>
<rect width="18" height="18" transform="matrix(-1 0 0 1 397 35)" fill="#B73F28"/>
<rect width="18" height="18" transform="matrix(-1 0 0 1 289 35)" fill="#B73F28"/>
<rect width="18" height="18" transform="matrix(-1 0 0 1 415 53)" fill="#B73F28"/>
<rect width="18" height="18" transform="matrix(-1 0 0 1 307 53)" fill="#B73F28"/>
<rect width="18" height="18" transform="matrix(-1 0 0 1 397 71)" fill="#B73F28"/>
<rect width="18" height="18" transform="matrix(-1 0 0 1 379 89)" fill="#B73F28"/>
<rect width="18" height="18" transform="matrix(-1 0 0 1 361 107)" fill="#B73F28"/>
<rect width="18" height="18" transform="matrix(-1 0 0 1 343 125)" fill="#B73F28"/>
<rect width="18" height="18" transform="matrix(-1 0 0 1 361 35)" fill="#B73F28"/>
<rect width="18" height="18" transform="matrix(-1 0 0 1 253 35)" fill="#B73F28"/>
<rect width="18" height="18" transform="matrix(-1 0 0 1 307 71)" fill="#B73F28"/>
<rect width="18" height="18" transform="matrix(-1 0 0 1 307 125)" fill="#B73F28"/>
<rect width="18" height="18" transform="matrix(-1 0 0 1 361 53)" fill="#B73F28"/>
<rect width="18" height="18" transform="matrix(-1 0 0 1 253 53)" fill="#B73F28"/>
<rect width="18" height="18" transform="matrix(-1 0 0 1 343 71)" fill="#B73F28"/>
<rect width="18" height="18" transform="matrix(-1 0 0 1 325 89)" fill="#B73F28"/>
<rect width="18" height="18" transform="matrix(-1 0 0 1 307 107)" fill="#B73F28"/>
<rect width="18" height="18" transform="matrix(-1 0 0 1 343 53)" fill="#B73F28"/>
<rect width="18" height="18" transform="matrix(-1 0 0 1 235 53)" fill="#B73F28"/>
<rect width="18" height="18" transform="matrix(-1 0 0 1 325 71)" fill="#B73F28"/>
<rect width="18" height="18" transform="matrix(-1 0 0 1 271 71)" fill="#B73F28"/>
<rect width="18" height="18" transform="matrix(-1 0 0 1 289 89)" fill="#B73F28"/>
<rect width="18" height="18" transform="matrix(-1 0 0 1 253 71)" fill="#B73F28"/>
<rect width="18" height="18" transform="matrix(-1 0 0 1 271 89)" fill="#B73F28"/>
<rect width="18" height="18" transform="matrix(-1 0 0 1 289 107)" fill="#B73F28"/>
<rect width="18" height="18" transform="translate(144 89)" fill="#351311"/>
<rect width="18" height="18" transform="translate(162 107)" fill="#351311"/>
<rect width="18" height="18" transform="translate(180 125)" fill="#351311"/>
<rect width="18" height="18" transform="translate(198 143)" fill="#351311"/>
<rect width="18" height="18" transform="translate(216 161)" fill="#351311"/>
<rect width="18" height="18" transform="translate(72 161)" fill="#351311"/>
<rect width="18" height="18" transform="translate(253 53)" fill="#351311"/>
<rect width="18" height="18" transform="translate(271 71)" fill="#351311"/>
<rect width="18" height="18" transform="translate(289 89)" fill="#351311"/>
<rect width="18" height="18" transform="translate(307 107)" fill="#351311"/>
<rect width="18" height="18" transform="translate(325 89)" fill="#351311"/>
<rect width="18" height="18" transform="translate(343 71)" fill="#351311"/>
<rect width="18" height="18" transform="translate(361 53)" fill="#351311"/>
<rect width="18" height="18" transform="translate(396 161)" fill="#351311"/>
<rect width="18" height="18" transform="translate(414 143)" fill="#351311"/>
<rect width="18" height="18" transform="translate(432 125)" fill="#351311"/>
<rect width="18" height="18" transform="translate(450 107)" fill="#351311"/>
<rect width="18" height="18" transform="translate(468 89)" fill="#351311"/>
<rect width="18" height="18" transform="translate(540 161)" fill="#351311"/>
</svg>
