<svg width="42" height="42" viewBox="0 0 42 42" fill="none" xmlns="http://www.w3.org/2000/svg">
<mask id="path-1-inside-1_1198_19930" fill="white">
<path d="M0 0H42V42H0V0Z"/>
</mask>
<path d="M42 0H43V-1H42V0ZM42 42V43H43V42H42ZM0 1H42V-1H0V1ZM41 0V42H43V0H41ZM42 41H0V43H42V41Z" fill="#B74028" mask="url(#path-1-inside-1_1198_19930)"/>
<path d="M3 17L7 21.7045L3 26V17Z" fill="black"/>
<path d="M25 3L20.2955 7L16 3L25 3Z" fill="black"/>
<path d="M39 17L35 21.7045L39 26V17Z" fill="black"/>
<path d="M25 39L20.2955 35L16 39H25Z" fill="black"/>
<circle cx="7" cy="8" r="2" fill="black"/>
<circle cx="7" cy="35" r="2" fill="black"/>
<circle cx="34" cy="35" r="2" fill="black"/>
<circle cx="34" cy="8" r="2" fill="black"/>
<circle cx="20.5" cy="21.5" r="1.5" fill="#B74028"/>
<circle cx="16.5" cy="21.5" r="0.5" fill="black"/>
<circle cx="20.5" cy="17.5" r="0.5" transform="rotate(90 20.5 17.5)" fill="black"/>
<circle cx="31.5" cy="21.5" r="0.5" fill="black"/>
<circle cx="20.5" cy="32.5" r="0.5" transform="rotate(90 20.5 32.5)" fill="black"/>
<circle cx="9.5" cy="21.5" r="0.5" fill="black"/>
<circle cx="20.5" cy="9.5" r="0.5" transform="rotate(90 20.5 9.5)" fill="black"/>
<circle cx="24.5" cy="21.5" r="0.5" fill="black"/>
<circle cx="20.5" cy="25.5" r="0.5" transform="rotate(90 20.5 25.5)" fill="black"/>
<circle cx="12.5" cy="21.5" r="0.5" fill="black"/>
<circle cx="20.5" cy="13.5" r="0.5" transform="rotate(90 20.5 13.5)" fill="black"/>
<circle cx="27.5" cy="21.5" r="0.5" fill="black"/>
<circle cx="20.5" cy="28.5" r="0.5" transform="rotate(90 20.5 28.5)" fill="black"/>
<path d="M3 13.1429H19V20H7.8L3 13.1429Z" fill="#B74028"/>
<path d="M12.1429 4V20H19V8.8L12.1429 4Z" fill="#B74028"/>
<path d="M3 29.8571H19V23H7.8L3 29.8571Z" fill="#B74028"/>
<path d="M12.1429 39V23H19V34.2L12.1429 39Z" fill="#B74028"/>
<path d="M38 13.1429H22V20H33.2L38 13.1429Z" fill="#B74028"/>
<path d="M28.8571 4V20H22V8.8L28.8571 4Z" fill="#B74028"/>
<path d="M38 29.8571H22V23H33.2L38 29.8571Z" fill="#B74028"/>
<path d="M28.8571 39V23H22V34.2L28.8571 39Z" fill="#B74028"/>
</svg>
