<svg width="37" height="37" viewBox="0 0 37 37" fill="none" xmlns="http://www.w3.org/2000/svg">
<path d="M16.4444 8.22222C16.4444 12.7632 12.7632 16.4444 8.22222 16.4444C3.68121 16.4444 0 12.7632 0 8.22222C0 3.68121 3.68121 0 8.22222 0C12.7632 0 16.4444 3.68121 16.4444 8.22222Z" fill="#F2C857"/>
<path d="M37 8.22222C37 11.628 34.2391 14.3889 30.8333 14.3889C27.4276 14.3889 24.6667 11.628 24.6667 8.22222C24.6667 4.81647 27.4276 2.05556 30.8333 2.05556C34.2391 2.05556 37 4.81647 37 8.22222Z" fill="#F2C857"/>
<path d="M16.4444 30.8333C16.4444 34.2391 13.6835 37 10.2778 37C6.87202 37 4.11111 34.2391 4.11111 30.8333C4.11111 27.4276 6.87202 24.6667 10.2778 24.6667C13.6835 24.6667 16.4444 27.4276 16.4444 30.8333Z" fill="#F2C857"/>
</svg>
