<svg width="38" height="38" viewBox="0 0 38 38" fill="none" xmlns="http://www.w3.org/2000/svg">
<path d="M16.9444 8.72222C16.9444 13.2632 13.2632 16.9444 8.72222 16.9444C4.18121 16.9444 0.5 13.2632 0.5 8.72222C0.5 4.18121 4.18121 0.5 8.72222 0.5C13.2632 0.5 16.9444 4.18121 16.9444 8.72222Z" fill="#B74028"/>
<path d="M37.5 8.72222C37.5 12.128 34.7391 14.8889 31.3333 14.8889C27.9276 14.8889 25.1667 12.128 25.1667 8.72222C25.1667 5.31647 27.9276 2.55556 31.3333 2.55556C34.7391 2.55556 37.5 5.31647 37.5 8.72222Z" fill="#B74028"/>
<path d="M16.9444 31.3333C16.9444 34.7391 14.1835 37.5 10.7778 37.5C7.37202 37.5 4.61111 34.7391 4.61111 31.3333C4.61111 27.9276 7.37202 25.1667 10.7778 25.1667C14.1835 25.1667 16.9444 27.9276 16.9444 31.3333Z" fill="#B74028"/>
</svg>
