<svg width="1760" height="336" viewBox="0 0 1760 336" fill="none" xmlns="http://www.w3.org/2000/svg">
<path d="M1685 326.765C1768.61 288.567 1846.92 168.253 1467.16 129.053M1467.16 129.053C1436.18 126.645 1404.91 128.343 1412.96 134.409C1420.83 140.338 1446.15 136.99 1467.16 129.053ZM1467.16 129.053C1548.06 80.4042 1358.59 -11.1698 991.363 4.85826C960.093 5.83327 895.499 15.2002 862.332 22.4626M862.332 22.4626C852.185 24.6846 844.979 26.7096 842.57 28.237C832.286 34.7565 874.564 37.1585 882.563 33.384C889.251 30.2279 892.79 27.7892 862.332 22.4626ZM862.332 22.4626C856.365 21.4191 849.093 20.2647 840.284 18.9723M24.483 335C-24.5718 291.728 0.0546875 169.36 400.418 160.001M400.418 160.001C432.413 160.001 461.27 164 448.41 169.266C435.841 174.413 414.13 169.266 400.418 160.001ZM400.418 160.001C362.711 106.815 497.029 -24.1888 839.147 18.9723" stroke="#B74028" stroke-width="2" stroke-dasharray="4 4"/>
<path d="M752.074 11.651C752.105 11.4578 752.33 11.6987 752.402 11.7551C753.218 12.3907 753.697 13.077 753.857 14.0541C754.04 15.1681 754.073 16.4133 753.934 17.5329C753.766 18.8954 752.799 19.7079 751.689 20.5519C749.576 22.1584 747.653 23.6848 744.73 23.6317C741.551 23.5738 740.251 20.3706 740.326 17.8365C740.437 14.0757 746.533 13.409 749.626 13.3688C752.298 13.334 754.596 13.4233 755.158 16.1102C755.601 18.2232 753.423 19.1118 751.323 19.1118C750.199 19.1118 749.533 18.6292 748.99 17.7758C748.744 17.3887 748.125 16.5233 748.393 16.0408C749.035 14.8839 750.968 15.4813 751.13 16.596C751.611 19.9048 747.061 20.5784 744.605 18.973C743.161 18.0291 742.625 16.4339 742.446 14.9043C742.343 14.0198 742.292 13.1516 742.668 12.3017C743.406 10.6342 745.335 10.4183 747.121 10.558C750.319 10.8081 755.176 12.0866 757.076 14.6787C758.172 16.173 756.998 17.8858 755.486 18.6954C753.656 19.6755 751.159 19.7849 749.202 19.0424C746.198 17.9027 743.252 13.9039 744.894 10.9483C746.823 7.47691 753.513 8.88231 755.949 11.0264C759.071 13.7746 758.636 19.6645 756.556 22.7902C754.935 25.2262 751.769 25.5776 749.01 24.6553C744.574 23.1729 741.122 19.3125 739.757 15.312C738.503 11.6368 738.463 6.3091 741.55 3.28804C743.356 1.52073 746.168 1.79315 748.335 2.78487C751.124 4.06136 753.016 6.39383 754.012 9.02243C755.091 11.8735 755.573 16.0162 753.404 18.5566C750.777 21.6347 745.643 23.0139 741.666 21.2373C739.239 20.1533 738.354 18.0911 738.1 15.7805C737.768 12.7675 738.171 9.99364 740.721 7.82523C744.312 4.77102 749.141 4.39987 753.828 4.65874C757.405 4.85626 758.939 9.02208 759.553 11.7031C760.082 14.0083 760.339 17.1504 759.177 19.3461C758.216 21.1631 756.906 22.6426 755.303 24.0394C753.474 25.6339 751.609 26.1831 749.048 25.948C745.5 25.6221 742.011 23.7088 740.798 20.604C739.306 16.7849 739.582 12.8879 743.42 10.3497C745.863 8.73361 749.476 7.4654 752.547 7.74715C756.679 8.12631 758.497 11.8616 759.052 15.1385C759.396 17.1698 759.466 19.9947 757.741 21.6103C755.87 23.3636 752.434 23.0249 750.214 22.1655C747.733 21.205 744.085 19.0446 743.4 16.4745C742.865 14.4644 745.606 14.0671 747.14 14.5052C749.023 15.043 750.611 16.5739 750.937 18.3484C751.301 20.3312 749.214 20.3491 747.737 19.7017C747.139 19.4397 745.443 18.4218 746.677 17.8539C747.34 17.5491 747.928 17.6193 748.605 17.7411" stroke="#B74028" stroke-width="2" stroke-linecap="round"/>
</svg>
