<svg width="1280" height="342" viewBox="0 0 1280 342" fill="none" xmlns="http://www.w3.org/2000/svg">
<path d="M1228.55 332.566C1289.68 293.449 1346.94 170.235 1069.28 130.091M1069.28 130.091C1046.64 127.624 1023.77 129.364 1029.66 135.576C1035.41 141.647 1053.92 138.218 1069.28 130.091ZM1069.28 130.091C1128.43 80.2694 989.905 -13.5112 721.42 2.90306C698.558 3.90156 651.332 13.4942 627.083 20.9316M627.083 20.9316C619.664 23.2071 614.395 25.2809 612.634 26.8451C605.115 33.5218 636.026 35.9816 641.874 32.1162C646.764 28.884 649.351 26.3865 627.083 20.9316ZM627.083 20.9316C622.72 19.8629 617.403 18.6807 610.963 17.3572M14.5133 341C-21.3517 296.685 -3.34674 171.369 289.368 161.784M289.368 161.784C312.76 161.784 333.857 165.879 324.456 171.272C315.266 176.543 299.393 171.272 289.368 161.784ZM289.368 161.784C261.799 107.317 360.002 -26.8439 610.131 17.3572" stroke="#B74028" stroke-width="2" stroke-dasharray="4 4"/>
<path d="M357.074 43.651C357.105 43.4578 357.33 43.6987 357.402 43.7551C358.218 44.3907 358.697 45.077 358.857 46.0541C359.04 47.1681 359.073 48.4133 358.934 49.5329C358.766 50.8954 357.799 51.7079 356.689 52.5519C354.576 54.1584 352.653 55.6848 349.73 55.6317C346.551 55.5738 345.251 52.3706 345.326 49.8365C345.437 46.0757 351.533 45.409 354.626 45.3688C357.298 45.334 359.596 45.4233 360.158 48.1102C360.601 50.2232 358.423 51.1118 356.323 51.1118C355.199 51.1118 354.533 50.6292 353.99 49.7758C353.744 49.3887 353.125 48.5233 353.393 48.0408C354.035 46.8839 355.968 47.4813 356.13 48.596C356.611 51.9048 352.061 52.5784 349.605 50.973C348.161 50.0291 347.625 48.4339 347.446 46.9043C347.343 46.0198 347.292 45.1516 347.668 44.3017C348.406 42.6342 350.335 42.4183 352.121 42.558C355.319 42.8081 360.176 44.0866 362.076 46.6787C363.172 48.173 361.998 49.8858 360.486 50.6954C358.656 51.6755 356.159 51.7849 354.202 51.0424C351.198 49.9027 348.252 45.9039 349.894 42.9483C351.823 39.4769 358.513 40.8823 360.949 43.0264C364.071 45.7746 363.636 51.6645 361.556 54.7902C359.935 57.2262 356.769 57.5776 354.01 56.6553C349.574 55.1729 346.122 51.3125 344.757 47.312C343.503 43.6368 343.463 38.3091 346.55 35.288C348.356 33.5207 351.168 33.7932 353.335 34.7849C356.124 36.0614 358.016 38.3938 359.012 41.0224C360.091 43.8735 360.573 48.0162 358.404 50.5566C355.777 53.6347 350.643 55.0139 346.666 53.2373C344.239 52.1533 343.354 50.0911 343.1 47.7805C342.768 44.7675 343.171 41.9936 345.721 39.8252C349.312 36.771 354.141 36.3999 358.828 36.6587C362.405 36.8563 363.939 41.0221 364.553 43.7031C365.082 46.0083 365.339 49.1504 364.177 51.3461C363.216 53.1631 361.906 54.6426 360.303 56.0394C358.474 57.6339 356.609 58.1831 354.048 57.948C350.5 57.6221 347.011 55.7088 345.798 52.604C344.306 48.7849 344.582 44.8879 348.42 42.3497C350.863 40.7336 354.476 39.4654 357.547 39.7472C361.679 40.1263 363.497 43.8616 364.052 47.1385C364.396 49.1698 364.466 51.9947 362.741 53.6103C360.87 55.3636 357.434 55.0249 355.214 54.1655C352.733 53.205 349.085 51.0446 348.4 48.4745C347.865 46.4644 350.606 46.0671 352.14 46.5052C354.023 47.043 355.611 48.5739 355.937 50.3484C356.301 52.3312 354.214 52.3491 352.737 51.7017C352.139 51.4397 350.443 50.4218 351.677 49.8539C352.34 49.5491 352.928 49.6193 353.605 49.7411" stroke="#B74028" stroke-width="2" stroke-linecap="round"/>
</svg>
