<svg width="326" height="88" viewBox="0 0 326 88" fill="none" xmlns="http://www.w3.org/2000/svg">
<path d="M85.4845 16C81.7117 16 79.0831 16.3552 75.564 17.9509C71.4398 19.8209 72.0393 24.3033 73.395 28.0598C74.9927 32.487 81.2676 35.1442 85.3423 33.5183C87.689 32.5819 88.9001 30.6518 89.4847 28.0598C89.879 26.312 90.547 23.8214 89.1825 22.3846C86.2492 19.296 79.6777 16.8913 77.3597 22.0299C76.8559 23.1467 76.6477 25.7911 77.0219 26.976C77.866 29.6493 82.4609 29.1239 84.4534 29.1239C87.8155 29.1239 88.4932 25.158 85.3067 23.9808C82.9656 23.1158 80.5646 23.1374 79.7242 25.9316M78.8236 23.3057C78.7916 23.3007 78.7764 23.2881 78.7725 23.2711M78.7725 23.2711C78.7677 23.2503 78.7797 23.223 78.7983 23.1948M78.7725 23.2711C78.366 24.4841 78.1319 25.7652 78.0508 26.8002C78.0135 27.2762 78.012 27.7665 78.0883 28.2205M78.7725 23.2711C78.781 23.2457 78.7896 23.2202 78.7983 23.1948M78.7983 23.1948C78.8292 23.148 78.8781 23.099 78.8972 23.0746C79.3455 22.5004 79.8295 22.1628 80.5176 22.0488M78.7983 23.1948C79.025 22.5318 79.3036 21.8913 79.6373 21.3248M80.5176 22.0488L80.5227 22.048C81.3103 21.919 82.1907 21.8961 82.9823 21.9936C83.0848 22.0063 83.183 22.0253 83.2772 22.0501M80.5176 22.0488C80.0415 22.7861 80.0228 23.8582 80.0381 25.0326C80.0506 25.9895 80.1482 27.3538 80.4782 28.5906M80.5176 22.0488C80.7019 21.7635 80.9546 21.5283 81.3004 21.3568M83.2772 22.0501C83.4802 22.1036 83.665 22.1842 83.8367 22.2862M83.2772 22.0501C82.6882 21.6727 82.0107 21.4548 81.3004 21.3568M83.2772 22.0501C83.4261 22.1455 83.5694 22.2511 83.7061 22.3675C83.7827 22.4328 83.8579 22.5003 83.9315 22.5699M83.8367 22.2862C84.0205 22.3955 84.1892 22.5294 84.3489 22.6811M83.8367 22.2862C83.5256 21.4801 82.9258 20.9319 81.9764 21.1302C81.7187 21.184 81.4948 21.2603 81.3004 21.3568M83.8367 22.2862C83.872 22.3777 83.9036 22.4725 83.9315 22.5699M84.3489 22.6811C84.6211 22.9397 84.867 23.2498 85.1168 23.5777C85.4683 24.0389 85.8144 24.4874 86.1236 24.9478M84.3489 22.6811C84.2719 22.0469 84.0907 21.4328 83.8042 20.8991C83.2318 19.8324 82.0208 19.0047 80.9643 19.7773C80.4504 20.1531 80.0096 20.6928 79.6373 21.3248M84.3489 22.6811C84.3635 22.801 84.3743 22.9216 84.3814 23.0425M86.1236 24.9478C86.606 25.6662 86.9988 26.4138 87.1826 27.2851M86.1236 24.9478C86.1714 24.8352 86.2161 24.725 86.2577 24.6179C86.7835 23.2627 87.0336 21.2656 86.2883 19.8969M86.1236 24.9478C86.0281 25.1729 85.9204 25.4077 85.8015 25.6467M87.1826 27.2851C87.2617 27.6601 87.3021 28.0579 87.2943 28.4862C87.2764 29.4696 86.8309 30.1981 86.1852 30.7017M87.1826 27.2851C87.5218 26.7124 87.8048 26.1044 88.0181 25.4677C88.5015 24.0247 88.49 22.424 87.7499 21.2266M87.1826 27.2851C86.8694 27.8138 86.5082 28.3125 86.1096 28.7759M86.1852 30.7017C85.919 30.9093 85.6189 31.0787 85.3006 31.212M86.1852 30.7017C87.7708 29.578 88.7402 27.5237 88.932 25.4405C89.0898 23.7267 88.7482 22.4547 87.7499 21.2266M86.1852 30.7017C85.9119 30.8954 85.6202 31.0615 85.3111 31.1952M85.3006 31.212C85.1498 31.2752 84.9948 31.3302 84.8375 31.3774M85.3006 31.212C85.3041 31.2064 85.3077 31.2008 85.3111 31.1952M85.3006 31.212C84.487 32.5017 83.1833 33.0057 81.7433 33.1636C80.2529 33.327 78.8452 33.237 77.6091 32.5523M84.8375 31.3774C84.2957 31.5399 83.7257 31.6088 83.197 31.5931C82.9861 31.5869 82.7891 31.5541 82.6049 31.498M84.8375 31.3774C84.9429 31.3402 85.0483 31.3011 85.1536 31.26C85.2066 31.2394 85.2591 31.2178 85.3111 31.1952M84.8375 31.3774C83.8234 31.7351 82.8072 31.9103 81.8423 31.8361M82.6049 31.498C81.9332 31.2933 81.4329 30.7777 81.0617 30.1046M82.6049 31.498C83.8972 30.8609 85.1191 29.9272 86.1096 28.7759M82.6049 31.498C82.353 31.6222 82.0984 31.7351 81.8423 31.8361M81.0617 30.1046C80.8138 29.655 80.6235 29.1352 80.4782 28.5906M81.0617 30.1046C81.0824 30.1023 81.1031 30.0999 81.1238 30.0975C82.2053 29.9713 83.3331 29.5931 84.0005 28.5746C84.1307 28.3759 84.2397 28.1577 84.3271 27.9277M81.0617 30.1046C80.4578 30.1725 79.8647 30.1977 79.2836 29.9411C78.5502 29.6171 78.2139 28.9681 78.0883 28.2205M80.4782 28.5906C80.5971 28.5597 80.7157 28.5228 80.8334 28.4804M80.4782 28.5906C79.7459 28.7808 78.9983 28.7428 78.3268 28.3706C78.2433 28.3244 78.1639 28.2743 78.0883 28.2205M81.3004 21.3568C80.7569 21.2818 80.1942 21.277 79.6373 21.3248M83.9315 22.5699C84.0449 22.9649 84.0986 23.4028 84.0986 23.836C84.0986 23.9279 84.094 24.0154 84.085 24.099M83.9315 22.5699C84.0886 22.7183 84.2387 22.8762 84.3814 23.0425M84.085 24.099C84.0672 24.2629 84.0323 24.4115 83.9812 24.5476M84.085 24.099C83.9371 24.0699 83.7627 24.0706 83.5589 24.108C83.5239 24.1144 83.4892 24.1214 83.4545 24.1292M84.085 24.099C84.1796 24.1176 84.2634 24.1485 84.337 24.1898M83.9812 24.5476C83.8334 24.9408 83.5502 25.2298 83.154 25.4813C82.8803 25.655 82.2685 26.0919 81.9273 25.9028C81.7219 25.7889 81.5947 25.6177 81.5319 25.4233M83.9812 24.5476C83.8332 24.3747 83.6578 24.232 83.4545 24.1292M83.9812 24.5476C84.063 24.6433 84.1365 24.7483 84.2016 24.8608M81.5319 25.4233C81.3445 24.8436 81.7296 24.0575 82.3198 23.972C82.7649 23.9075 83.1426 23.9714 83.4545 24.1292M81.5319 25.4233C81.2225 25.8253 80.9833 26.2915 80.8416 26.7866C80.7019 27.2748 80.6823 27.9361 80.8334 28.4804M81.5319 25.4233C82.0295 24.7768 82.7084 24.2963 83.4545 24.1292M84.2016 24.8608C84.4224 25.2424 84.5477 25.7118 84.5807 26.2058M84.2016 24.8608C84.2604 24.6427 84.3055 24.418 84.337 24.1898M84.2016 24.8608C84.1583 25.0217 84.1076 25.179 84.0496 25.3317C83.849 25.859 83.5234 26.3838 83.115 26.8567M84.5807 26.2058C84.619 26.7795 84.5329 27.3864 84.3271 27.9277M84.5807 26.2058C84.8713 25.4377 84.9005 24.5064 84.337 24.1898M84.5807 26.2058C84.5603 26.2598 84.5386 26.313 84.5157 26.3651C84.3304 26.7869 83.6107 27.9836 83.2092 27.1129C83.1691 27.026 83.1382 26.9408 83.115 26.8567M84.3271 27.9277C84.9128 27.2434 85.4159 26.4223 85.8015 25.6467M84.3271 27.9277C83.7079 28.6512 82.9965 29.2219 82.234 29.4244C81.4538 29.6316 81.0173 29.1426 80.8334 28.4804M78.0883 28.2205C76.3269 26.9678 76.6672 23.7425 77.6544 21.707M79.6373 21.3248C78.9519 21.3836 78.2754 21.522 77.6544 21.707M84.3814 23.0425C84.404 23.4261 84.3891 23.8128 84.337 24.1898M84.3814 23.0425C85.0129 23.7783 85.4988 24.678 85.8015 25.6467M83.115 26.8567C82.4953 27.5745 81.6853 28.1731 80.8334 28.4804M83.115 26.8567C83.0135 26.4889 83.0594 26.1416 83.1295 25.7532M77.6544 21.707C77.8709 21.2605 78.1186 20.8713 78.382 20.5727C80.2103 18.5003 84.0054 18.6496 86.2883 19.8969M77.6544 21.707C77.4155 21.7782 77.1849 21.8562 76.9651 21.9392C76.6976 22.0403 76.4345 22.1545 76.1773 22.2817M86.2883 19.8969C86.4315 19.9752 86.5688 20.0578 86.6993 20.1444C86.7625 20.1864 86.8238 20.2298 86.883 20.2747M86.2883 19.8969C86.2048 19.7436 86.1089 19.5982 85.9994 19.4625M86.883 20.2747C87.2415 20.5458 87.5283 20.8681 87.7499 21.2266M86.883 20.2747C86.5976 19.9869 86.3043 19.7159 85.9994 19.4625M86.883 20.2747C87.1209 20.5144 87.3533 20.7658 87.5826 21.0282C87.6403 21.0943 87.696 21.1604 87.7499 21.2266M86.1096 28.7759C86.2321 27.7293 86.1153 26.651 85.8015 25.6467M86.1096 28.7759C86.0342 29.4202 85.868 30.0526 85.6014 30.6481C85.5135 30.8445 85.4165 31.0265 85.3111 31.1952M81.8423 31.8361C81.6993 31.8926 81.5558 31.9453 81.4121 31.9943C80.2876 32.3771 78.9443 32.5996 77.6091 32.5523M81.8423 31.8361C80.3358 31.7203 78.9548 30.9966 77.9036 29.4108C76.7609 27.6871 75.8642 25.1386 76.0634 22.9726C76.0856 22.7313 76.1241 22.5011 76.1773 22.2817M77.6091 32.5523C75.8588 32.4903 74.1223 31.9649 72.9107 30.7297C71.6611 29.456 71.8538 27.4722 72.5549 25.9436C72.8885 25.2163 73.3241 24.5756 73.8345 24.0213M77.6091 32.5523C77.0783 32.2583 76.5792 31.8547 76.1186 31.3144C74.3834 29.2787 73.8731 26.6796 73.8345 24.0213M73.8345 24.0213C74.5064 23.2917 75.3079 22.7119 76.1773 22.2817M73.8345 24.0213C73.8251 23.3714 73.8439 22.718 73.8798 22.0684C74.0195 19.5453 76.9648 18.4637 78.8604 18.0301C80.4903 17.6572 82.7118 17.4759 84.2642 18.2952C84.4238 18.3794 84.5797 18.4675 84.7323 18.5592M76.1773 22.2817C76.7666 19.8515 79.1643 18.7426 81.2894 18.3836C82.3224 18.2091 83.6457 18.1346 84.7323 18.5592M84.7323 18.5592C85.1806 18.8288 85.6 19.1306 85.9994 19.4625M84.7323 18.5592C85.1564 18.725 85.5445 18.9667 85.8651 19.3082C85.912 19.3581 85.9567 19.4096 85.9994 19.4625" stroke="#B74028" stroke-linecap="round"/>
<path d="M312.21 84.9277C327.708 75.026 342.224 43.8376 271.832 33.6761M271.832 33.6761C266.091 33.0517 260.294 33.4921 261.787 35.0645C263.246 36.6014 267.938 35.7334 271.832 33.6761ZM271.832 33.6761C286.828 21.0651 251.708 -2.67316 183.642 1.48171C177.846 1.73445 165.873 4.16259 159.725 6.04519M159.725 6.04519C157.844 6.62118 156.509 7.1461 156.062 7.54204C154.156 9.23207 161.992 9.85471 163.475 8.87627C164.715 8.05813 165.371 7.42596 159.725 6.04519ZM159.725 6.04519C158.619 5.77467 157.271 5.47542 155.639 5.14041M4.42591 87.0625C-4.66663 75.8454 -0.101992 44.1246 74.1073 41.6985M74.1073 41.6985C80.0376 41.6985 85.3864 42.7351 83.0028 44.1001C80.673 45.4343 76.6489 44.1001 74.1073 41.6985ZM74.1073 41.6985C67.118 27.9114 92.0146 -6.04799 155.428 5.1404" stroke="#B74028" stroke-width="2" stroke-dasharray="4 4"/>
</svg>
