<svg width="1280" height="350" viewBox="0 0 1280 350" fill="none" xmlns="http://www.w3.org/2000/svg">
<path d="M359.485 46C355.712 46 353.083 46.3552 349.564 47.9509C345.44 49.8209 346.039 54.3033 347.395 58.0598C348.993 62.487 355.268 65.1442 359.342 63.5183C361.689 62.5819 362.9 60.6518 363.485 58.0598C363.879 56.312 364.547 53.8214 363.183 52.3846C360.249 49.296 353.678 46.8913 351.36 52.0299C350.856 53.1467 350.648 55.7911 351.022 56.976C351.866 59.6493 356.461 59.1239 358.453 59.1239C361.816 59.1239 362.493 55.158 359.307 53.9808C356.966 53.1158 354.565 53.1374 353.724 55.9316M352.824 53.3057C352.792 53.3007 352.776 53.2881 352.772 53.2711M352.772 53.2711C352.768 53.2503 352.78 53.223 352.798 53.1948M352.772 53.2711C352.366 54.4841 352.132 55.7652 352.051 56.8002C352.013 57.2762 352.012 57.7665 352.088 58.2205M352.772 53.2711C352.781 53.2457 352.79 53.2202 352.798 53.1948M352.798 53.1948C352.829 53.148 352.878 53.099 352.897 53.0746C353.345 52.5004 353.829 52.1628 354.518 52.0488M352.798 53.1948C353.025 52.5318 353.304 51.8913 353.637 51.3248M354.518 52.0488L354.523 52.048C355.31 51.919 356.191 51.8961 356.982 51.9936C357.085 52.0063 357.183 52.0253 357.277 52.0501M354.518 52.0488C354.042 52.7861 354.023 53.8582 354.038 55.0326C354.051 55.9895 354.148 57.3538 354.478 58.5906M354.518 52.0488C354.702 51.7635 354.955 51.5283 355.3 51.3568M357.277 52.0501C357.48 52.1036 357.665 52.1842 357.837 52.2862M357.277 52.0501C356.688 51.6727 356.011 51.4548 355.3 51.3568M357.277 52.0501C357.426 52.1455 357.569 52.2511 357.706 52.3675C357.783 52.4328 357.858 52.5003 357.932 52.5699M357.837 52.2862C358.021 52.3955 358.189 52.5294 358.349 52.6811M357.837 52.2862C357.526 51.4801 356.926 50.9319 355.976 51.1302C355.719 51.184 355.495 51.2603 355.3 51.3568M357.837 52.2862C357.872 52.3777 357.904 52.4725 357.932 52.5699M358.349 52.6811C358.621 52.9397 358.867 53.2498 359.117 53.5777C359.468 54.0389 359.814 54.4874 360.124 54.9478M358.349 52.6811C358.272 52.0469 358.091 51.4328 357.804 50.8991C357.232 49.8324 356.021 49.0047 354.964 49.7773C354.45 50.1531 354.01 50.6928 353.637 51.3248M358.349 52.6811C358.363 52.801 358.374 52.9216 358.381 53.0425M360.124 54.9478C360.606 55.6662 360.999 56.4138 361.183 57.2851M360.124 54.9478C360.171 54.8352 360.216 54.725 360.258 54.6179C360.783 53.2627 361.034 51.2656 360.288 49.8969M360.124 54.9478C360.028 55.1729 359.92 55.4077 359.802 55.6467M361.183 57.2851C361.262 57.6601 361.302 58.0579 361.294 58.4862C361.276 59.4696 360.831 60.1981 360.185 60.7017M361.183 57.2851C361.522 56.7124 361.805 56.1044 362.018 55.4677C362.501 54.0247 362.49 52.424 361.75 51.2266M361.183 57.2851C360.869 57.8138 360.508 58.3125 360.11 58.7759M360.185 60.7017C359.919 60.9093 359.619 61.0787 359.301 61.212M360.185 60.7017C361.771 59.578 362.74 57.5237 362.932 55.4405C363.09 53.7267 362.748 52.4547 361.75 51.2266M360.185 60.7017C359.912 60.8954 359.62 61.0615 359.311 61.1952M359.301 61.212C359.15 61.2752 358.995 61.3302 358.838 61.3774M359.301 61.212C359.304 61.2064 359.308 61.2008 359.311 61.1952M359.301 61.212C358.487 62.5017 357.183 63.0057 355.743 63.1636C354.253 63.327 352.845 63.237 351.609 62.5523M358.838 61.3774C358.296 61.5399 357.726 61.6088 357.197 61.5931C356.986 61.5869 356.789 61.5541 356.605 61.498M358.838 61.3774C358.943 61.3402 359.048 61.3011 359.154 61.26C359.207 61.2394 359.259 61.2178 359.311 61.1952M358.838 61.3774C357.823 61.7351 356.807 61.9103 355.842 61.8361M356.605 61.498C355.933 61.2933 355.433 60.7777 355.062 60.1046M356.605 61.498C357.897 60.8609 359.119 59.9272 360.11 58.7759M356.605 61.498C356.353 61.6222 356.098 61.7351 355.842 61.8361M355.062 60.1046C354.814 59.655 354.623 59.1352 354.478 58.5906M355.062 60.1046C355.082 60.1023 355.103 60.0999 355.124 60.0975C356.205 59.9713 357.333 59.5931 358 58.5746C358.131 58.3759 358.24 58.1577 358.327 57.9277M355.062 60.1046C354.458 60.1725 353.865 60.1977 353.284 59.9411C352.55 59.6171 352.214 58.9681 352.088 58.2205M354.478 58.5906C354.597 58.5597 354.716 58.5228 354.833 58.4804M354.478 58.5906C353.746 58.7808 352.998 58.7428 352.327 58.3706C352.243 58.3244 352.164 58.2743 352.088 58.2205M355.3 51.3568C354.757 51.2818 354.194 51.277 353.637 51.3248M357.932 52.5699C358.045 52.9649 358.099 53.4028 358.099 53.836C358.099 53.9279 358.094 54.0154 358.085 54.099M357.932 52.5699C358.089 52.7183 358.239 52.8762 358.381 53.0425M358.085 54.099C358.067 54.2629 358.032 54.4115 357.981 54.5476M358.085 54.099C357.937 54.0699 357.763 54.0706 357.559 54.108C357.524 54.1144 357.489 54.1214 357.455 54.1292M358.085 54.099C358.18 54.1176 358.263 54.1485 358.337 54.1898M357.981 54.5476C357.833 54.9408 357.55 55.2298 357.154 55.4813C356.88 55.655 356.268 56.0919 355.927 55.9028C355.722 55.7889 355.595 55.6177 355.532 55.4233M357.981 54.5476C357.833 54.3747 357.658 54.232 357.455 54.1292M357.981 54.5476C358.063 54.6433 358.136 54.7483 358.202 54.8608M355.532 55.4233C355.345 54.8436 355.73 54.0575 356.32 53.972C356.765 53.9075 357.143 53.9714 357.455 54.1292M355.532 55.4233C355.223 55.8253 354.983 56.2915 354.842 56.7866C354.702 57.2748 354.682 57.9361 354.833 58.4804M355.532 55.4233C356.029 54.7768 356.708 54.2963 357.455 54.1292M358.202 54.8608C358.422 55.2424 358.548 55.7118 358.581 56.2058M358.202 54.8608C358.26 54.6427 358.306 54.418 358.337 54.1898M358.202 54.8608C358.158 55.0217 358.108 55.179 358.05 55.3317C357.849 55.859 357.523 56.3838 357.115 56.8567M358.581 56.2058C358.619 56.7795 358.533 57.3864 358.327 57.9277M358.581 56.2058C358.871 55.4377 358.9 54.5064 358.337 54.1898M358.581 56.2058C358.56 56.2598 358.539 56.313 358.516 56.3651C358.33 56.7869 357.611 57.9836 357.209 57.1129C357.169 57.026 357.138 56.9408 357.115 56.8567M358.327 57.9277C358.913 57.2434 359.416 56.4223 359.802 55.6467M358.327 57.9277C357.708 58.6512 356.996 59.2219 356.234 59.4244C355.454 59.6316 355.017 59.1426 354.833 58.4804M352.088 58.2205C350.327 56.9678 350.667 53.7425 351.654 51.707M353.637 51.3248C352.952 51.3836 352.275 51.522 351.654 51.707M358.381 53.0425C358.404 53.4261 358.389 53.8128 358.337 54.1898M358.381 53.0425C359.013 53.7783 359.499 54.678 359.802 55.6467M357.115 56.8567C356.495 57.5745 355.685 58.1731 354.833 58.4804M357.115 56.8567C357.013 56.4889 357.059 56.1416 357.129 55.7532M351.654 51.707C351.871 51.2605 352.119 50.8713 352.382 50.5727C354.21 48.5003 358.005 48.6496 360.288 49.8969M351.654 51.707C351.416 51.7782 351.185 51.8562 350.965 51.9392C350.698 52.0403 350.434 52.1545 350.177 52.2817M360.288 49.8969C360.432 49.9752 360.569 50.0578 360.699 50.1444C360.763 50.1864 360.824 50.2298 360.883 50.2747M360.288 49.8969C360.205 49.7436 360.109 49.5982 359.999 49.4625M360.883 50.2747C361.241 50.5458 361.528 50.8681 361.75 51.2266M360.883 50.2747C360.598 49.9869 360.304 49.7159 359.999 49.4625M360.883 50.2747C361.121 50.5144 361.353 50.7658 361.583 51.0282C361.64 51.0943 361.696 51.1604 361.75 51.2266M360.11 58.7759C360.232 57.7293 360.115 56.651 359.802 55.6467M360.11 58.7759C360.034 59.4202 359.868 60.0526 359.601 60.6481C359.513 60.8445 359.416 61.0265 359.311 61.1952M355.842 61.8361C355.699 61.8926 355.556 61.9453 355.412 61.9943C354.288 62.3771 352.944 62.5996 351.609 62.5523M355.842 61.8361C354.336 61.7203 352.955 60.9966 351.904 59.4108C350.761 57.6871 349.864 55.1386 350.063 52.9726C350.086 52.7313 350.124 52.5011 350.177 52.2817M351.609 62.5523C349.859 62.4903 348.122 61.9649 346.911 60.7297C345.661 59.456 345.854 57.4722 346.555 55.9436C346.889 55.2163 347.324 54.5756 347.835 54.0213M351.609 62.5523C351.078 62.2583 350.579 61.8547 350.119 61.3144C348.383 59.2787 347.873 56.6796 347.835 54.0213M347.835 54.0213C348.506 53.2917 349.308 52.7119 350.177 52.2817M347.835 54.0213C347.825 53.3714 347.844 52.718 347.88 52.0684C348.019 49.5453 350.965 48.4637 352.86 48.0301C354.49 47.6572 356.712 47.4759 358.264 48.2952C358.424 48.3794 358.58 48.4675 358.732 48.5592M350.177 52.2817C350.767 49.8515 353.164 48.7426 355.289 48.3836C356.322 48.2091 357.646 48.1346 358.732 48.5592M358.732 48.5592C359.181 48.8288 359.6 49.1306 359.999 49.4625M358.732 48.5592C359.156 48.725 359.544 48.9667 359.865 49.3082C359.912 49.3581 359.957 49.4096 359.999 49.4625" stroke="#B74028" stroke-linecap="round"/>
<path d="M1228.55 340.566C1289.68 301.449 1346.94 178.235 1069.28 138.091M1069.28 138.091C1046.64 135.624 1023.77 137.364 1029.66 143.576C1035.41 149.647 1053.92 146.218 1069.28 138.091ZM1069.28 138.091C1128.43 88.2694 989.905 -5.5113 721.42 10.903C698.558 11.9015 651.332 21.4941 627.083 28.9316M627.083 28.9316C619.664 31.2071 614.395 33.2809 612.634 34.8451C605.115 41.5217 636.026 43.9815 641.874 40.1161C646.764 36.8839 649.351 34.3865 627.083 28.9316ZM627.083 28.9316C622.72 27.8629 617.403 26.6806 610.963 25.3571M14.5133 349C-21.3517 304.685 -3.34674 179.369 289.368 169.784M289.368 169.784C312.76 169.784 333.857 173.879 324.456 179.272C315.266 184.543 299.393 179.272 289.368 169.784ZM289.368 169.784C261.799 115.316 360.002 -18.844 610.131 25.3571" stroke="#B74028" stroke-width="2" stroke-dasharray="4 4"/>
</svg>
