<svg width="48" height="48" viewBox="0 0 48 48" fill="none" xmlns="http://www.w3.org/2000/svg">
<rect x="-0.5" y="0.5" width="47" height="47" rx="23.5" transform="matrix(-1 0 0 1 47 0)" fill="#B74028"/>
<rect x="-0.5" y="0.5" width="47" height="47" rx="23.5" transform="matrix(-1 0 0 1 47 0)" stroke="#F2C857"/>
<path d="M29 16.4711L27.5127 15L19.412 23.0174C19.2815 23.1459 19.1778 23.2987 19.1071 23.4669C19.0364 23.6352 19 23.8157 19 23.9979C19 24.1802 19.0364 24.3606 19.1071 24.5289C19.1778 24.6972 19.2815 24.8499 19.412 24.9784L27.5127 33L28.9986 31.5289L21.3955 24L29 16.4711Z" fill="#F2C857"/>
</svg>
