<svg width="160" height="48" viewBox="0 0 160 48" fill="none" xmlns="http://www.w3.org/2000/svg">
<g clip-path="url(#clip0_50_28429)">
<rect width="4.44444" height="4.38579" transform="translate(155.556 21.6853)" fill="#B73F28"/>
<rect width="4.44444" height="4.38579" transform="translate(0 17.2996)" fill="#351311"/>
<rect width="4.44444" height="4.38579" transform="translate(0 26.071)" fill="#351311"/>
<rect width="4.44444" height="4.38579" transform="translate(151.111 26.071)" fill="#351311"/>
<rect width="4.44444" height="4.38579" transform="translate(151.111 17.2996)" fill="#351311"/>
<rect width="4.44444" height="4.38579" transform="translate(151.111 12.9138)" fill="#351311"/>
<rect width="4.44444" height="4.38579" transform="translate(0 12.9138)" fill="#351311"/>
<rect width="4.44444" height="4.38579" transform="translate(4.44434 17.2996)" fill="#351311"/>
<rect width="4.44444" height="4.38579" transform="translate(146.667 17.2996)" fill="#351311"/>
<rect width="4.44444" height="4.38579" transform="translate(146.667 21.6853)" fill="#351311"/>
<rect width="4.44444" height="4.38579" transform="translate(142.222 21.6853)" fill="#351311"/>
<rect width="4.44444" height="4.38579" transform="translate(146.667 26.071)" fill="#351311"/>
<rect width="4.44444" height="4.38579" transform="translate(155.556 30.4568)" fill="#351311"/>
<rect width="4.44444" height="4.38579" transform="translate(151.111 30.4568)" fill="#351311"/>
<rect width="4.44444" height="4.38579" transform="translate(0 30.4568)" fill="#351311"/>
<rect width="4.44444" height="4.38579" transform="translate(155.556 34.8425)" fill="#351311"/>
<rect width="4.44444" height="4.38579" transform="translate(4.44434 26.071)" fill="#351311"/>
<rect width="4.44444" height="4.38579" transform="translate(4.44434 21.6853)" fill="#351311"/>
<rect width="4.44444" height="4.38579" transform="translate(8.88892 21.6853)" fill="#351311"/>
<rect width="4.44444" height="4.38579" transform="translate(155.556 8.52783)" fill="#351311"/>
<rect width="4.44444" height="4.38579" transform="translate(155.556 12.9138)" fill="#351311"/>
<rect width="4.44444" height="4.38579" transform="translate(35.5557 8.52783)" fill="#B73F28"/>
<rect width="4.44444" height="4.38579" transform="translate(35.5557 12.9138)" fill="#B73F28"/>
<rect width="4.44444" height="4.38579" transform="translate(31.1111 17.2996)" fill="#B73F28"/>
<rect width="4.44444" height="4.38579" transform="translate(31.1111 26.071)" fill="#B73F28"/>
<rect width="4.44444" height="4.38579" transform="translate(40 34.8425)" fill="#B73F28"/>
<rect width="4.44444" height="4.38579" transform="translate(35.5557 30.4568)" fill="#B73F28"/>
<rect width="4.44444" height="4.38579" transform="translate(44.4443 39.2285)" fill="#B73F28"/>
<rect width="4.44444" height="4.38579" transform="translate(48.8889 43.6143)" fill="#B73F28"/>
<rect width="4.44444" height="4.38579" transform="translate(115.556 43.6143)" fill="#B73F28"/>
<rect width="4.44444" height="4.38579" transform="translate(142.222 43.6143)" fill="#B73F28"/>
<rect width="4.44444" height="4.38579" transform="translate(26.6667 21.6853)" fill="#B73F28"/>
<rect width="4.44444" height="4.38579" transform="translate(31.1111 12.9138)" fill="#B73F28"/>
<rect width="4.44444" height="4.38579" transform="translate(26.6667 17.2996)" fill="#B73F28"/>
<rect width="4.44444" height="4.38579" transform="translate(26.6667 26.071)" fill="#B73F28"/>
<rect width="4.44444" height="4.38579" transform="translate(35.5557 34.8425)" fill="#B73F28"/>
<rect width="4.44444" height="4.38579" transform="translate(31.1111 30.4568)" fill="#B73F28"/>
<rect width="4.44444" height="4.38579" transform="translate(40 39.2285)" fill="#B73F28"/>
<rect width="4.44444" height="4.38579" transform="translate(44.4443 43.6143)" fill="#B73F28"/>
<rect width="4.44444" height="4.38579" transform="translate(111.111 43.6143)" fill="#B73F28"/>
<rect width="4.44444" height="4.38579" transform="translate(137.778 43.6143)" fill="#B73F28"/>
<rect width="4.44444" height="4.38579" transform="translate(22.2222 21.6853)" fill="#B73F28"/>
<rect width="4.44444" height="4.38579" transform="translate(40 12.9138)" fill="#B73F28"/>
<rect width="4.44444" height="4.38579" transform="translate(35.5557 17.2996)" fill="#B73F28"/>
<rect width="4.44444" height="4.38579" transform="translate(35.5557 26.071)" fill="#B73F28"/>
<rect width="4.44444" height="4.38579" transform="translate(44.4443 34.8425)" fill="#B73F28"/>
<rect width="4.44444" height="4.38579" transform="translate(40 30.4568)" fill="#B73F28"/>
<rect width="4.44444" height="4.38579" transform="translate(48.8889 39.2285)" fill="#B73F28"/>
<rect width="4.44444" height="4.38579" transform="translate(53.3333 43.6143)" fill="#B73F28"/>
<rect width="4.44444" height="4.38579" transform="translate(120 43.6143)" fill="#B73F28"/>
<rect width="4.44444" height="4.38579" transform="translate(146.667 43.6143)" fill="#B73F28"/>
<rect width="4.44444" height="4.38579" transform="translate(4.44434 43.6143)" fill="#B73F28"/>
<rect width="4.44444" height="4.38579" transform="translate(22.2222 43.6143)" fill="#B73F28"/>
<rect width="4.44444" height="4.38579" transform="translate(31.1111 21.6853)" fill="#B73F28"/>
<rect width="4.44444" height="4.38579" transform="translate(40 17.2996)" fill="#B73F28"/>
<rect width="4.44444" height="4.38579" transform="translate(57.7778 43.6143)" fill="#B73F28"/>
<rect width="4.44444" height="4.38579" transform="translate(124.444 43.6143)" fill="#B73F28"/>
<rect width="4.44444" height="4.38579" transform="translate(151.111 43.6143)" fill="#B73F28"/>
<rect width="4.44444" height="4.38579" transform="translate(8.88892 43.6143)" fill="#B73F28"/>
<rect width="4.44444" height="4.38579" transform="translate(26.6667 43.6143)" fill="#B73F28"/>
<rect width="4.44444" height="4.38579" transform="translate(40 43.6143)" fill="#B73F28"/>
<rect width="4.44444" height="4.38579" transform="translate(53.3333 30.4568)" fill="#B73F28"/>
<rect width="4.44444" height="4.38579" transform="translate(62.2222 39.2285)" fill="#B73F28"/>
<rect width="4.44444" height="4.38579" transform="translate(66.6667 43.6143)" fill="#B73F28"/>
<rect width="4.44444" height="4.38579" transform="translate(133.333 43.6143)" fill="#B73F28"/>
<rect width="4.44444" height="4.38579" transform="translate(0 43.6143)" fill="#B73F28"/>
<rect width="4.44444" height="4.38579" transform="translate(17.7778 43.6143)" fill="#B73F28"/>
<rect width="4.44444" height="4.38579" transform="translate(35.5557 43.6143)" fill="#B73F28"/>
<rect width="4.44444" height="4.38579" transform="translate(44.4443 17.2996)" fill="#B73F28"/>
<rect width="4.44444" height="4.38579" transform="translate(44.4443 26.071)" fill="#B73F28"/>
<rect width="4.44444" height="4.38579" transform="translate(53.3333 34.8425)" fill="#B73F28"/>
<rect width="4.44444" height="4.38579" transform="translate(48.8889 30.4568)" fill="#B73F28"/>
<rect width="4.44444" height="4.38579" transform="translate(57.7778 39.2285)" fill="#B73F28"/>
<rect width="4.44444" height="4.38579" transform="translate(62.2222 43.6143)" fill="#B73F28"/>
<rect width="4.44444" height="4.38579" transform="translate(128.889 43.6143)" fill="#B73F28"/>
<rect width="4.44444" height="4.38579" transform="translate(155.556 43.6143)" fill="#B73F28"/>
<rect width="4.44444" height="4.38579" transform="translate(13.3333 43.6143)" fill="#B73F28"/>
<rect width="4.44444" height="4.38579" transform="translate(31.1111 43.6143)" fill="#B73F28"/>
<rect width="4.44444" height="4.38579" transform="translate(57.7778 30.4568)" fill="#B73F28"/>
<rect width="4.44444" height="4.38579" transform="translate(66.6667 39.2285)" fill="#B73F28"/>
<rect width="4.44444" height="4.38579" transform="translate(71.1111 43.6143)" fill="#B73F28"/>
<rect width="4.44444" height="4.38579" transform="translate(48.8889 26.071)" fill="#B73F28"/>
<rect width="4.44444" height="4.38579" transform="translate(57.7778 34.8425)" fill="#B73F28"/>
<rect width="4.44444" height="4.38579" transform="translate(53.3333 26.071)" fill="#B73F28"/>
<rect width="4.44444" height="4.38579" transform="translate(62.2222 34.8425)" fill="#B73F28"/>
<rect width="4.44444" height="4.38579" transform="translate(40 21.6853)" fill="#B73F28"/>
<rect width="4.44444" height="4.38579" transform="translate(44.4443 21.6853)" fill="#B73F28"/>
<rect width="4.44444" height="4.38579" transform="translate(48.8889 21.6853)" fill="#B73F28"/>
<rect width="4.44444" height="4.38579" transform="matrix(-1 0 0 1 120 8.52783)" fill="#B73F28"/>
<rect width="4.44444" height="4.38579" transform="matrix(-1 0 0 1 120 12.9138)" fill="#B73F28"/>
<rect width="4.44444" height="4.38579" transform="matrix(-1 0 0 1 124.444 17.2996)" fill="#B73F28"/>
<rect width="4.44444" height="4.38579" transform="matrix(-1 0 0 1 124.444 26.071)" fill="#B73F28"/>
<rect width="4.44444" height="4.38579" transform="matrix(-1 0 0 1 115.556 34.8425)" fill="#B73F28"/>
<rect width="4.44444" height="4.38579" transform="matrix(-1 0 0 1 120 30.4568)" fill="#B73F28"/>
<rect width="4.44444" height="4.38579" transform="matrix(-1 0 0 1 111.111 39.2285)" fill="#B73F28"/>
<rect width="4.44444" height="4.38579" transform="matrix(-1 0 0 1 106.667 43.6143)" fill="#B73F28"/>
<rect width="4.44444" height="4.38579" transform="matrix(-1 0 0 1 128.889 21.6853)" fill="#B73F28"/>
<rect width="4.44444" height="4.38579" transform="matrix(-1 0 0 1 124.444 12.9138)" fill="#B73F28"/>
<rect width="4.44444" height="4.38579" transform="matrix(-1 0 0 1 128.889 17.2996)" fill="#B73F28"/>
<rect width="4.44444" height="4.38579" transform="matrix(-1 0 0 1 128.889 26.071)" fill="#B73F28"/>
<rect width="4.44444" height="4.38579" transform="matrix(-1 0 0 1 120 34.8425)" fill="#B73F28"/>
<rect width="4.44444" height="4.38579" transform="matrix(-1 0 0 1 124.444 30.4568)" fill="#B73F28"/>
<rect width="4.44444" height="4.38579" transform="matrix(-1 0 0 1 115.556 39.2285)" fill="#B73F28"/>
<rect width="4.44444" height="4.38579" transform="matrix(-1 0 0 1 111.111 43.6143)" fill="#B73F28"/>
<rect width="4.44444" height="4.38579" transform="matrix(-1 0 0 1 133.333 21.6853)" fill="#B73F28"/>
<rect width="4.44444" height="4.38579" transform="matrix(-1 0 0 1 137.778 30.4568)" fill="#B73F28"/>
<rect width="4.44444" height="4.38579" transform="matrix(-1 0 0 1 22.2222 30.4568)" fill="#B73F28"/>
<rect width="4.44444" height="4.38579" transform="matrix(-1 0 0 1 22.2222 34.8425)" fill="#B73F28"/>
<rect width="4.44444" height="4.38579" transform="matrix(-1 0 0 1 133.333 34.8425)" fill="#B73F28"/>
<rect width="4.44444" height="4.38579" transform="matrix(-1 0 0 1 17.7778 34.8425)" fill="#B73F28"/>
<rect width="4.44444" height="4.38579" transform="matrix(-1 0 0 1 142.222 34.8425)" fill="#B73F28"/>
<rect width="4.44444" height="4.38579" transform="matrix(-1 0 0 1 26.6667 34.8425)" fill="#B73F28"/>
<rect width="4.44444" height="4.38579" transform="matrix(-1 0 0 1 142.222 39.2285)" fill="#B73F28"/>
<rect width="4.44444" height="4.38579" transform="matrix(-1 0 0 1 26.6667 39.2285)" fill="#B73F28"/>
<rect width="4.44444" height="4.38579" transform="matrix(-1 0 0 1 146.667 39.2285)" fill="#B73F28"/>
<rect width="4.44444" height="4.38579" transform="matrix(-1 0 0 1 31.1111 39.2285)" fill="#B73F28"/>
<rect width="4.44444" height="4.38579" transform="matrix(-1 0 0 1 133.333 39.2285)" fill="#B73F28"/>
<rect width="4.44444" height="4.38579" transform="matrix(-1 0 0 1 17.7778 39.2285)" fill="#B73F28"/>
<rect width="4.44444" height="4.38579" transform="matrix(-1 0 0 1 128.889 39.2285)" fill="#B73F28"/>
<rect width="4.44444" height="4.38579" transform="matrix(-1 0 0 1 13.3333 39.2285)" fill="#B73F28"/>
<rect width="4.44444" height="4.38579" transform="matrix(-1 0 0 1 137.778 34.8425)" fill="#B73F28"/>
<rect width="4.44444" height="4.38579" transform="matrix(-1 0 0 1 115.556 12.9138)" fill="#B73F28"/>
<rect width="4.44444" height="4.38579" transform="matrix(-1 0 0 1 120 17.2996)" fill="#B73F28"/>
<rect width="4.44444" height="4.38579" transform="matrix(-1 0 0 1 120 26.071)" fill="#B73F28"/>
<rect width="4.44444" height="4.38579" transform="matrix(-1 0 0 1 111.111 34.8425)" fill="#B73F28"/>
<rect width="4.44444" height="4.38579" transform="matrix(-1 0 0 1 115.556 30.4568)" fill="#B73F28"/>
<rect width="4.44444" height="4.38579" transform="matrix(-1 0 0 1 106.667 39.2285)" fill="#B73F28"/>
<rect width="4.44444" height="4.38579" transform="matrix(-1 0 0 1 102.222 43.6143)" fill="#B73F28"/>
<rect width="4.44444" height="4.38579" transform="matrix(-1 0 0 1 124.444 21.6853)" fill="#B73F28"/>
<rect width="4.44444" height="4.38579" transform="matrix(-1 0 0 1 115.556 17.2996)" fill="#B73F28"/>
<rect width="4.44444" height="4.38579" transform="matrix(-1 0 0 1 97.7778 43.6143)" fill="#B73F28"/>
<rect width="4.44444" height="4.38579" transform="matrix(-1 0 0 1 102.222 30.4568)" fill="#B73F28"/>
<rect width="4.44444" height="4.38579" transform="matrix(-1 0 0 1 93.3333 39.2285)" fill="#B73F28"/>
<rect width="4.44444" height="4.38579" transform="matrix(-1 0 0 1 88.8889 43.6143)" fill="#B73F28"/>
<rect width="4.44444" height="4.38579" transform="matrix(-1 0 0 1 111.111 17.2996)" fill="#B73F28"/>
<rect width="4.44444" height="4.38579" transform="matrix(-1 0 0 1 111.111 26.071)" fill="#B73F28"/>
<rect width="4.44444" height="4.38579" transform="matrix(-1 0 0 1 102.222 34.8425)" fill="#B73F28"/>
<rect width="4.44444" height="4.38579" transform="matrix(-1 0 0 1 106.667 30.4568)" fill="#B73F28"/>
<rect width="4.44444" height="4.38579" transform="matrix(-1 0 0 1 97.7778 39.2285)" fill="#B73F28"/>
<rect width="4.44444" height="4.38579" transform="matrix(-1 0 0 1 93.3333 43.6143)" fill="#B73F28"/>
<rect width="4.44444" height="4.38579" transform="matrix(-1 0 0 1 97.7778 30.4568)" fill="#B73F28"/>
<rect width="4.44444" height="4.38579" transform="matrix(-1 0 0 1 88.8889 39.2285)" fill="#B73F28"/>
<rect width="4.44444" height="4.38579" transform="matrix(-1 0 0 1 80 43.6143)" fill="#B73F28"/>
<rect width="4.44444" height="4.38579" transform="matrix(-1 0 0 1 84.4443 43.6143)" fill="#B73F28"/>
<rect width="4.44444" height="4.38579" transform="matrix(-1 0 0 1 106.667 26.071)" fill="#B73F28"/>
<rect width="4.44444" height="4.38579" transform="matrix(-1 0 0 1 97.7778 34.8425)" fill="#B73F28"/>
<rect width="4.44444" height="4.38579" transform="matrix(-1 0 0 1 102.222 26.071)" fill="#B73F28"/>
<rect width="4.44444" height="4.38579" transform="matrix(-1 0 0 1 93.3333 34.8425)" fill="#B73F28"/>
<rect width="4.44444" height="4.38579" transform="matrix(-1 0 0 1 115.556 21.6853)" fill="#B73F28"/>
<rect width="4.44444" height="4.38579" transform="matrix(-1 0 0 1 111.111 21.6853)" fill="#B73F28"/>
<rect width="4.44444" height="4.38579" transform="matrix(-1 0 0 1 106.667 21.6853)" fill="#B73F28"/>
<rect width="4.44444" height="4.38579" transform="translate(75.8025 4.38574)" fill="#B73F28"/>
<rect width="4.44444" height="4.38579" transform="translate(71.3579)" fill="#B73F28"/>
<rect width="4.44444" height="4.38579" transform="translate(80.2468)" fill="#B73F28"/>
<rect width="4.44444" height="4.38579" transform="matrix(-1 0 0 1 93.5803 4.14209)" fill="#B73F28"/>
<rect width="4.44444" height="4.38579" transform="matrix(-1 0 0 1 66.9136 4.14209)" fill="#B73F28"/>
<rect width="4.44444" height="4.38579" transform="matrix(-1 0 0 1 93.5803 8.52783)" fill="#B73F28"/>
<rect width="4.44444" height="4.38579" transform="matrix(-1 0 0 1 66.9136 8.52783)" fill="#B73F28"/>
<rect width="4.44444" height="4.38579" transform="matrix(-1 0 0 1 98.0247 12.9138)" fill="#B73F28"/>
<rect width="4.44444" height="4.38579" transform="matrix(-1 0 0 1 71.3579 12.9138)" fill="#B73F28"/>
<rect width="4.44444" height="4.38579" transform="matrix(-1 0 0 1 93.5803 17.2996)" fill="#B73F28"/>
<rect width="4.44444" height="4.38579" transform="matrix(-1 0 0 1 89.1357 21.6853)" fill="#B73F28"/>
<rect width="4.44444" height="4.38579" transform="matrix(-1 0 0 1 84.6914 26.071)" fill="#B73F28"/>
<rect width="4.44444" height="4.38579" transform="matrix(-1 0 0 1 80.2468 30.4568)" fill="#B73F28"/>
<rect width="4.44444" height="4.38579" transform="matrix(-1 0 0 1 80.2468 34.8425)" fill="#B73F28"/>
<rect width="4.44444" height="4.38579" transform="matrix(-1 0 0 1 80.2468 39.2285)" fill="#B73F28"/>
<rect width="4.44444" height="4.38579" transform="matrix(-1 0 0 1 98.0247 8.52783)" fill="#B73F28"/>
<rect width="4.44444" height="4.38579" transform="matrix(-1 0 0 1 71.3579 8.52783)" fill="#B73F28"/>
<rect width="4.44444" height="4.38579" transform="matrix(-1 0 0 1 102.469 12.9138)" fill="#B73F28"/>
<rect width="4.44444" height="4.38579" transform="matrix(-1 0 0 1 75.8025 12.9138)" fill="#B73F28"/>
<rect width="4.44444" height="4.38579" transform="matrix(-1 0 0 1 98.0247 17.2996)" fill="#B73F28"/>
<rect width="4.44444" height="4.38579" transform="matrix(-1 0 0 1 93.5803 21.6853)" fill="#B73F28"/>
<rect width="4.44444" height="4.38579" transform="matrix(-1 0 0 1 89.1357 26.071)" fill="#B73F28"/>
<rect width="4.44444" height="4.38579" transform="matrix(-1 0 0 1 84.6914 30.4568)" fill="#B73F28"/>
<rect width="4.44444" height="4.38579" transform="matrix(-1 0 0 1 89.1357 8.52783)" fill="#B73F28"/>
<rect width="4.44444" height="4.38579" transform="matrix(-1 0 0 1 62.4692 8.52783)" fill="#B73F28"/>
<rect width="4.44444" height="4.38579" transform="matrix(-1 0 0 1 75.8025 17.2996)" fill="#B73F28"/>
<rect width="4.44444" height="4.38579" transform="matrix(-1 0 0 1 75.8025 30.4568)" fill="#B73F28"/>
<rect width="4.44444" height="4.38579" transform="matrix(-1 0 0 1 89.1357 12.9138)" fill="#B73F28"/>
<rect width="4.44444" height="4.38579" transform="matrix(-1 0 0 1 62.4692 12.9138)" fill="#B73F28"/>
<rect width="4.44444" height="4.38579" transform="matrix(-1 0 0 1 84.6914 17.2996)" fill="#B73F28"/>
<rect width="4.44444" height="4.38579" transform="matrix(-1 0 0 1 80.2468 21.6853)" fill="#B73F28"/>
<rect width="4.44444" height="4.38579" transform="matrix(-1 0 0 1 75.8025 26.071)" fill="#B73F28"/>
<rect width="4.44444" height="4.38579" transform="matrix(-1 0 0 1 84.6914 12.9138)" fill="#B73F28"/>
<rect width="4.44444" height="4.38579" transform="matrix(-1 0 0 1 58.0247 12.9138)" fill="#B73F28"/>
<rect width="4.44444" height="4.38579" transform="matrix(-1 0 0 1 80.2468 17.2996)" fill="#B73F28"/>
<rect width="4.44444" height="4.38579" transform="matrix(-1 0 0 1 66.9136 17.2996)" fill="#B73F28"/>
<rect width="4.44444" height="4.38579" transform="matrix(-1 0 0 1 71.3579 21.6853)" fill="#B73F28"/>
<rect width="4.44444" height="4.38579" transform="matrix(-1 0 0 1 62.4692 17.2996)" fill="#B73F28"/>
<rect width="4.44444" height="4.38579" transform="matrix(-1 0 0 1 66.9136 21.6853)" fill="#B73F28"/>
<rect width="4.44444" height="4.38579" transform="matrix(-1 0 0 1 71.3579 26.071)" fill="#B73F28"/>
<rect width="4.44444" height="4.38579" transform="translate(35.5557 21.6853)" fill="#351311"/>
<rect width="4.44444" height="4.38579" transform="translate(40 26.071)" fill="#351311"/>
<rect width="4.44444" height="4.38579" transform="translate(44.4443 30.4568)" fill="#351311"/>
<rect width="4.44444" height="4.38579" transform="translate(48.8889 34.8425)" fill="#351311"/>
<rect width="4.44444" height="4.38579" transform="translate(53.3333 39.2285)" fill="#351311"/>
<rect width="4.44444" height="4.38579" transform="translate(17.7778 39.2285)" fill="#351311"/>
<rect width="4.44444" height="4.38579" transform="translate(62.4692 12.9138)" fill="#351311"/>
<rect width="4.44444" height="4.38579" transform="translate(66.9136 17.2996)" fill="#351311"/>
<rect width="4.44444" height="4.38579" transform="translate(71.3579 21.6853)" fill="#351311"/>
<rect width="4.44444" height="4.38579" transform="translate(75.8025 26.071)" fill="#351311"/>
<rect width="4.44444" height="4.38579" transform="translate(80.2468 21.6853)" fill="#351311"/>
<rect width="4.44444" height="4.38579" transform="translate(84.6914 17.2996)" fill="#351311"/>
<rect width="4.44444" height="4.38579" transform="translate(89.1357 12.9138)" fill="#351311"/>
<rect width="4.44444" height="4.38579" transform="translate(97.7778 39.2285)" fill="#351311"/>
<rect width="4.44444" height="4.38579" transform="translate(102.222 34.8425)" fill="#351311"/>
<rect width="4.44444" height="4.38579" transform="translate(106.667 30.4568)" fill="#351311"/>
<rect width="4.44444" height="4.38579" transform="translate(111.111 26.071)" fill="#351311"/>
<rect width="4.44444" height="4.38579" transform="translate(115.556 21.6853)" fill="#351311"/>
<rect width="4.44444" height="4.38579" transform="translate(133.333 39.2285)" fill="#351311"/>
</g>
<defs>
<clipPath id="clip0_50_28429">
<rect width="160" height="48" fill="white"/>
</clipPath>
</defs>
</svg>
