<svg aria-hidden="true" style="position: absolute; width: 0; height: 0; overflow: hidden;" version="1.1"
  xmlns="http://www.w3.org/2000/svg"
  xmlns:xlink="http://www.w3.org/1999/xlink">
  <defs>
    <symbol id="icon-mail" viewBox="0 0 32 32">
      <path d="M6.644 6.857h18.711c0.853 0 1.671 0.363 2.274 1.010s0.942 1.523 0.942 2.437v12.535c0 0.914-0.339 1.791-0.942 2.437s-1.421 1.010-2.274 1.010h-18.711c-0.853 0-1.671-0.363-2.274-1.010s-0.942-1.523-0.942-2.437v-12.535c0-0.914 0.339-1.791 0.942-2.437s1.421-1.010 2.274-1.010zM10.656 12.041c-0.191-0.133-0.422-0.182-0.646-0.136s-0.421 0.184-0.552 0.384c-0.131 0.2-0.184 0.446-0.148 0.687s0.158 0.458 0.34 0.604l5.847 4.387c0.147 0.11 0.323 0.17 0.503 0.17s0.355-0.059 0.503-0.17l5.847-4.387c0.099-0.069 0.183-0.158 0.249-0.263s0.111-0.222 0.133-0.346c0.022-0.124 0.021-0.251-0.003-0.374s-0.072-0.24-0.139-0.343c-0.067-0.103-0.154-0.191-0.253-0.258s-0.211-0.111-0.327-0.131-0.235-0.014-0.349 0.016c-0.114 0.030-0.221 0.085-0.315 0.161l-5.344 4.010-5.344-4.010z"></path>
    </symbol>
    <symbol id="icon-phone" viewBox="0 0 32 32">
      <path d="M23.229 19.449l3.814 3.814c0.122 0.122 0.219 0.267 0.286 0.426s0.1 0.33 0.1 0.503c0 0.173-0.034 0.344-0.1 0.503s-0.163 0.304-0.286 0.426c-1.341 1.341-3.121 2.154-5.013 2.288s-3.769-0.418-5.286-1.557l-2.268-1.702c-2.511-1.883-4.742-4.114-6.625-6.625l-1.702-2.268c-1.138-1.517-1.691-3.394-1.557-5.286s0.947-3.672 2.288-5.013c0.122-0.122 0.267-0.219 0.426-0.286s0.33-0.1 0.503-0.1c0.173 0 0.344 0.034 0.503 0.1s0.304 0.163 0.426 0.286l3.814 3.814c0.27 0.27 0.422 0.636 0.422 1.018s-0.152 0.748-0.422 1.018l-1.47 1.47c-0.115 0.114-0.191 0.261-0.216 0.42s-0.001 0.323 0.072 0.467c1.709 3.418 4.48 6.189 7.898 7.898 0.144 0.073 0.308 0.098 0.467 0.072s0.306-0.102 0.42-0.216l1.469-1.469c0.134-0.134 0.293-0.24 0.467-0.313s0.362-0.11 0.552-0.11c0.189 0 0.377 0.037 0.552 0.11s0.334 0.179 0.467 0.313v-0.001z"></path>
    </symbol>
    <symbol id="icon-youtube" viewBox="0 0 32 32">
      <path d="M16.307 5.714c0.671 0.004 2.351 0.021 4.136 0.094l0.634 0.028c1.797 0.086 3.592 0.235 4.483 0.489 1.188 0.342 2.121 1.337 2.436 2.6 0.503 2.006 0.566 5.917 0.573 6.865l0.001 0.195v0.224c-0.009 0.948-0.072 4.86-0.575 6.865-0.319 1.267-1.253 2.263-2.436 2.6-0.891 0.253-2.687 0.402-4.483 0.489l-0.634 0.030c-1.785 0.072-3.465 0.090-4.136 0.093l-0.295 0.001h-0.321c-1.421-0.009-7.362-0.075-9.253-0.612-1.187-0.342-2.121-1.337-2.436-2.6-0.503-2.006-0.566-5.917-0.573-6.865v-0.419c0.008-0.948 0.070-4.86 0.573-6.865 0.319-1.266 1.253-2.263 2.438-2.599 1.89-0.539 7.832-0.604 9.253-0.612h0.615zM13.485 11.5v9.001l7.543-4.5-7.543-4.5z"></path>
    </symbol>
    <symbol id="icon-tiktok" viewBox="0 0 32 32">
      <path d="M25.578 3.429h-19.156c-0.794 0.001-1.555 0.316-2.116 0.878s-0.877 1.322-0.878 2.116v19.156c0 1.652 1.342 2.993 2.993 2.993h19.156c0.794-0.001 1.555-0.316 2.116-0.878s0.877-1.322 0.878-2.116v-19.156c-0.001-0.794-0.316-1.555-0.878-2.116s-1.322-0.877-2.116-0.878zM23.187 14.398c-0.881 0.086-1.768-0.095-2.545-0.518-0.656-0.354-1.213-0.866-1.62-1.489v6.906c0 1.009-0.299 1.996-0.86 2.836s-1.358 1.494-2.291 1.88c-0.933 0.386-1.959 0.487-2.949 0.29s-1.9-0.683-2.613-1.397-1.2-1.623-1.397-2.613c-0.197-0.99-0.096-2.016 0.29-2.949s1.040-1.73 1.88-2.291 1.826-0.86 2.836-0.86c0.106 0 0.21 0.010 0.314 0.015v2.516c-0.105-0.013-0.207-0.032-0.314-0.032-0.691 0-1.354 0.274-1.842 0.763s-0.763 1.151-0.763 1.842c0 0.691 0.274 1.354 0.763 1.842s1.151 0.763 1.842 0.763c1.439 0 2.71-1.133 2.71-2.572l0.025-11.731h2.407c0.11 1.045 0.584 2.019 1.339 2.75s1.743 1.174 2.791 1.252v2.796z"></path>
    </symbol>
    <symbol id="icon-linkedin" viewBox="0 0 32 32">
      <path d="M24.381 3.429c1.111 0 2.177 0.442 2.963 1.227s1.227 1.852 1.227 2.963v16.762c0 1.111-0.442 2.177-1.227 2.963s-1.852 1.227-2.963 1.227h-16.762c-1.111 0-2.177-0.442-2.963-1.227s-1.227-1.852-1.227-2.963v-16.762c0-1.111 0.442-2.177 1.227-2.963s1.852-1.227 2.963-1.227h16.762zM10.413 13.206c-0.37 0-0.726 0.147-0.988 0.409s-0.409 0.617-0.409 0.988v6.984c0 0.37 0.147 0.726 0.409 0.988s0.617 0.409 0.988 0.409c0.37 0 0.726-0.147 0.988-0.409s0.409-0.617 0.409-0.988v-6.984c0-0.37-0.147-0.726-0.409-0.988s-0.617-0.409-0.988-0.409zM14.603 11.809c-0.37 0-0.726 0.147-0.988 0.409s-0.409 0.617-0.409 0.988v8.381c0 0.37 0.147 0.726 0.409 0.988s0.617 0.409 0.988 0.409c0.37 0 0.726-0.147 0.988-0.409s0.409-0.617 0.409-0.988v-5.112c0.426-0.481 1.145-1.045 1.946-1.387 0.465-0.198 1.165-0.279 1.651-0.126 0.161 0.041 0.305 0.133 0.409 0.263 0.073 0.098 0.184 0.316 0.184 0.775v5.587c0 0.37 0.147 0.726 0.409 0.988s0.617 0.409 0.988 0.409c0.37 0 0.726-0.147 0.988-0.409s0.409-0.617 0.409-0.988v-5.587c0-0.936-0.238-1.768-0.732-2.436-0.455-0.605-1.092-1.049-1.817-1.267-1.26-0.395-2.655-0.176-3.587 0.223-0.298 0.128-0.589 0.274-0.87 0.436-0.059-0.322-0.228-0.613-0.479-0.822s-0.568-0.324-0.895-0.324zM10.413 9.016c-0.37 0-0.726 0.147-0.988 0.409s-0.409 0.617-0.409 0.988c0 0.37 0.147 0.726 0.409 0.988s0.617 0.409 0.988 0.409 0.726-0.147 0.988-0.409c0.262-0.262 0.409-0.617 0.409-0.988s-0.147-0.726-0.409-0.988c-0.262-0.262-0.617-0.409-0.988-0.409z"></path>
    </symbol>
    <symbol id="icon-facebook" viewBox="0 0 32 32">
      <path d="M25.778 3.429h-19.556c-1.537 0-2.794 1.257-2.794 2.794v19.556c0 1.538 1.257 2.794 2.794 2.794h9.778v-9.778h-2.794v-3.457h2.794v-2.863c0-3.023 1.693-5.146 5.26-5.146l2.518 0.003v3.639h-1.672c-1.388 0-1.916 1.042-1.916 2.009v2.361h3.587l-0.793 3.456h-2.794v9.778h5.587c1.536 0 2.794-1.256 2.794-2.794v-19.556c0-1.537-1.257-2.794-2.794-2.794z"></path>
    </symbol>
    <symbol id="icon-instagram" viewBox="0 0 32 32">
      <path d="M17.292 3.429c1.414 0.004 2.132 0.011 2.752 0.029l0.244 0.009c0.282 0.010 0.559 0.023 0.895 0.038 1.338 0.063 2.25 0.274 3.051 0.585 0.83 0.319 1.529 0.752 2.228 1.449 0.639 0.628 1.134 1.388 1.449 2.228 0.311 0.801 0.522 1.713 0.585 3.052 0.015 0.334 0.028 0.612 0.038 0.895l0.008 0.244c0.019 0.618 0.026 1.336 0.029 2.751l0.001 0.938v1.647c0.003 0.917-0.006 1.834-0.029 2.75l-0.008 0.244c-0.010 0.283-0.023 0.561-0.038 0.895-0.063 1.339-0.277 2.25-0.586 3.052-0.315 0.839-0.81 1.599-1.449 2.228-0.628 0.64-1.388 1.134-2.228 1.45-0.801 0.311-1.713 0.522-3.051 0.585l-0.895 0.038-0.244 0.008c-0.62 0.018-1.338 0.026-2.752 0.029l-2.583 0.001c-0.917 0.003-1.835-0.006-2.752-0.029l-0.244-0.008c-0.298-0.011-0.597-0.024-0.895-0.039-1.338-0.063-2.25-0.274-3.052-0.585-0.839-0.316-1.598-0.81-2.226-1.45-0.64-0.628-1.135-1.388-1.451-2.228-0.311-0.801-0.522-1.713-0.585-3.052l-0.038-0.895-0.006-0.244c-0.023-0.917-0.034-1.834-0.031-2.75v-2.585c-0.003-0.917 0.006-1.834 0.028-2.751l0.009-0.244c0.010-0.283 0.023-0.561 0.038-0.895 0.063-1.339 0.274-2.25 0.585-3.052 0.316-0.84 0.812-1.6 1.453-2.228 0.627-0.639 1.387-1.134 2.225-1.449 0.802-0.311 1.713-0.522 3.052-0.585 0.334-0.015 0.614-0.028 0.895-0.038l0.244-0.008c0.917-0.022 1.834-0.032 2.751-0.029l2.585-0.001zM16 9.714c-1.667 0-3.266 0.662-4.444 1.841s-1.841 2.778-1.841 4.445c0 1.667 0.662 3.266 1.841 4.445s2.777 1.841 4.444 1.841 3.266-0.662 4.444-1.841c1.179-1.179 1.841-2.777 1.841-4.445s-0.662-3.266-1.841-4.445c-1.179-1.179-2.777-1.841-4.444-1.841zM16 12.228c0.495-0 0.986 0.097 1.443 0.287s0.873 0.467 1.224 0.817c0.35 0.35 0.628 0.766 0.818 1.223s0.287 0.948 0.287 1.443c0 0.495-0.098 0.986-0.287 1.443s-0.467 0.873-0.817 1.224c-0.35 0.35-0.766 0.628-1.223 0.818s-0.948 0.287-1.443 0.287c-1 0-1.959-0.397-2.667-1.105s-1.105-1.666-1.105-2.667 0.397-1.959 1.105-2.667c0.707-0.707 1.666-1.105 2.667-1.105zM22.601 7.828c-0.417 0-0.816 0.166-1.111 0.46s-0.46 0.694-0.46 1.111 0.166 0.816 0.46 1.111c0.295 0.295 0.694 0.46 1.111 0.46s0.816-0.166 1.111-0.46c0.295-0.295 0.46-0.694 0.46-1.111s-0.166-0.816-0.46-1.111c-0.295-0.295-0.694-0.46-1.111-0.46z"></path>
    </symbol>
  </defs>
</svg>