<svg aria-hidden="true" style="position: absolute; width: 0; height: 0; overflow: hidden;" version="1.1" xmlns="http://www.w3.org/2000/svg" xmlns:xlink="http://www.w3.org/1999/xlink">
<defs>
<symbol id="icon-veggie-burger" viewBox="0 0 56 32">
<path fill="none" stroke-linejoin="miter" stroke-linecap="round" stroke-miterlimit="4" stroke-width="4" d="M4 4h48M4 28h48"></path>
</symbol>
<symbol id="icon-cross" viewBox="0 0 32 32">
<path d="M16 17.853l-13.729 13.729c-0.244 0.244-0.544 0.375-0.9 0.393s-0.673-0.113-0.953-0.393-0.419-0.588-0.419-0.926c0-0.338 0.14-0.647 0.419-0.926l13.729-13.729-13.729-13.729c-0.244-0.244-0.375-0.544-0.393-0.9s0.113-0.673 0.393-0.953c0.279-0.279 0.588-0.419 0.926-0.419s0.647 0.14 0.926 0.419l13.729 13.729 13.729-13.729c0.244-0.244 0.545-0.375 0.903-0.393 0.354-0.017 0.671 0.113 0.95 0.393s0.419 0.588 0.419 0.926c0 0.338-0.139 0.647-0.419 0.926l-13.729 13.729 13.729 13.729c0.244 0.244 0.375 0.545 0.393 0.903 0.017 0.354-0.113 0.671-0.393 0.95s-0.588 0.419-0.926 0.419c-0.338 0-0.647-0.139-0.926-0.419l-13.729-13.729z"></path>
</symbol>
<symbol id="icon-arrow-right" viewBox="0 0 18 32">
<path d="M0 2.615l2.644-2.615 14.401 14.253c0.232 0.228 0.416 0.5 0.542 0.799s0.19 0.62 0.19 0.944c0 0.324-0.065 0.645-0.19 0.944s-0.31 0.571-0.542 0.799l-14.401 14.261-2.642-2.615 13.517-13.385-13.519-13.385z"></path>
</symbol>
<symbol id="icon-logo-black" viewBox="0 0 45 32">
<path fill="#c61818" style="fill: var(--color1, #c61818)" d="M36.187 24.304h-5.334v-1.285h5.334v1.285z"></path>
<path fill="#16080a" style="fill: var(--color2, #16080a)" d="M37.012 30.755h-1.281l-0-13.426h1.281l0 13.426z"></path>
<path fill="#16080a" style="fill: var(--color2, #16080a)" d="M31.493 29.487h-1.281v-10.857l-3.301 2.565-0.778-1.021 4.331-3.354 1.030 0.511v12.157z"></path>
<path fill="#16080a" style="fill: var(--color2, #16080a)" d="M42.522 17.848c-0.739 0-1.59 0.119-2.112 0.55-0.36 0.296-0.534 0.724-0.534 1.308 0 0.663 0.169 1.143 0.517 1.468 0.726 0.677 2.133 0.591 2.848 0.539v-3.829c-0.213-0.021-0.459-0.036-0.719-0.036zM33.548 31.999l-0.079-1.067c4.321-0.172 6.132-3.054 6.726-5.712 0.218-0.979 0.801-1.706 1.415-2.233-0.729-0.087-1.5-0.32-2.091-0.872-0.614-0.573-0.925-1.383-0.925-2.409 0-0.966 0.347-1.763 1.005-2.304 1.537-1.264 4.291-0.729 4.408-0.706l0.515 0.63v11.901h-1.281v-5.826c-0.677 0.396-1.563 1.065-1.795 2.099-0.421 1.885-2.45 6.498-7.897 6.498z"></path>
<path fill="#16080a" style="fill: var(--color2, #16080a)" d="M21.604 29.485l-1.226 0.001v-11.014l-1.364 0.903-0.675-1.026 2.315-1.533 0.951 0.512v12.157z"></path>
<path fill="#16080a" style="fill: var(--color2, #16080a)" d="M27.123 29.485h-1.281v-12.157h1.281v12.157z"></path>
<path fill="#16080a" style="fill: var(--color2, #16080a)" d="M26.27 24.304h-5.334v-1.285h5.334v1.285z"></path>
<path fill="#16080a" style="fill: var(--color2, #16080a)" d="M8.635 14.102h-1.132v-9.904c0-0.034 0.004-0.854 0.354-1.747 0.485-1.237 1.39-2.029 2.615-2.289 1.801-0.383 3.426-0.080 4.574 0.852 0.874 0.71 1.376 1.736 1.377 2.814 0 0.728-0.399 1.756-2.305 2.519-1.024 0.41-2.032 0.567-2.075 0.573l-0.17-1.123c0.009-0.001 0.937-0.147 1.841-0.511 0.72-0.29 1.577-0.779 1.577-1.458-0-0.734-0.349-1.438-0.957-1.932-0.878-0.713-2.166-0.935-3.627-0.624-2.034 0.433-2.072 2.826-2.072 2.927v9.903z"></path>
<path fill="#16080a" style="fill: var(--color2, #16080a)" d="M7.551 9.256h-5.334v-1.285h5.334v1.285z"></path>
<path fill="#16080a" style="fill: var(--color2, #16080a)" d="M3.265 14.131h-1.226v-11.014l-1.364 0.903-0.675-1.026 2.315-1.533 0.951 0.513v12.157z"></path>
<path fill="#16080a" style="fill: var(--color2, #16080a)" d="M15.892 4.188l3.462 9.928h-1.355l-2.928-8.386-2.564 8.38-1.383 0.006 2.679-8.657z"></path>
<path fill="#c61818" style="fill: var(--color1, #c61818)" d="M14.050 10.397l1.098-1.101 1.098 1.101-1.098 1.101-1.098-1.101z"></path>
<path fill="#16080a" style="fill: var(--color2, #16080a)" d="M24.73 15.073l-0.357-1.234 6.103-1.914 0.869 1.186-6.615 1.962z"></path>
<path fill="#16080a" style="fill: var(--color2, #16080a)" d="M16.988 10.603l-0.357-1.234 4.358-1.318 1.706 0.673-5.707 1.879z"></path>
<path fill="#16080a" style="fill: var(--color2, #16080a)" d="M24.914 13.866l-0.080-5.006c-0.53 0.537-1.22 0.82-2.009 0.82-0.873 0-1.598-0.327-2.155-0.971-0.746-0.862-1.151-2.272-1.206-4.19-0.039-1.37 0.119-2.498 0.125-2.546l1.311-0.001c-0.162 1.151-0.384 4.604 0.736 5.897 0.312 0.361 0.69 0.529 1.189 0.529 0.497 0 0.872-0.167 1.179-0.525 0.436-0.508 0.682-1.321 0.779-2.193 0.122-1.088-0.078-3.696-0.078-3.696l1.414-0.012c0 0.376 0 11.875 0 11.875l-1.206 0.019z"></path>
<path fill="#16080a" style="fill: var(--color2, #16080a)" d="M32.316 14.773c-0.683 0-1.286-0.276-1.793-0.822-1.057-1.138-1.683-3.519-1.861-7.079-0.129-2.574 0.025-4.806 0.031-4.899h1.29c-0.17 2.434-0.25 9.248 1.475 11.105 0.262 0.282 0.535 0.414 0.857 0.414 0.326 0 0.604-0.133 0.875-0.419 1.564-1.649 1.796-7.117 1.744-10.035l-0.056-1.064 1.301 0.013c0.002 0.033 0.016 0.326 0.026 0.804l0.385 11.789-1.278 0.042-0.087-2.657c-0.302 0.865-0.672 1.531-1.109 1.991-0.515 0.543-1.121 0.818-1.802 0.818z"></path>
<path fill="#16080a" style="fill: var(--color2, #16080a)" d="M35.141 15.073l-0.388-1.225 3.776-1.113 0.347 1.197-3.735 1.141z"></path>
</symbol>
<symbol id="icon-logo-white" viewBox="0 0 45 32">
<path fill="#f2c857" style="fill: var(--color1, #f2c857)" d="M36.204 24.304h-5.337v-1.285h5.337v1.285z"></path>
<path fill="#f5efe6" style="fill: var(--color2, #f5efe6)" d="M37.030 30.755h-1.282l-0-13.426h1.282l0 13.426z"></path>
<path fill="#f5efe6" style="fill: var(--color2, #f5efe6)" d="M31.508 29.487h-1.282v-10.857l-3.302 2.565-0.778-1.021 4.333-3.354 1.030 0.511v12.157z"></path>
<path fill="#f5efe6" style="fill: var(--color2, #f5efe6)" d="M42.542 17.848c-0.74 0-1.591 0.119-2.113 0.55-0.36 0.296-0.535 0.724-0.535 1.308 0 0.663 0.169 1.143 0.517 1.468 0.726 0.677 2.134 0.591 2.85 0.539v-3.829c-0.213-0.021-0.459-0.036-0.719-0.036zM33.564 31.999l-0.079-1.067c4.323-0.172 6.135-3.054 6.729-5.712 0.219-0.979 0.802-1.706 1.416-2.233-0.73-0.087-1.501-0.321-2.093-0.872-0.614-0.573-0.926-1.383-0.926-2.409 0-0.967 0.348-1.763 1.005-2.304 1.538-1.264 4.293-0.729 4.41-0.705l0.515 0.63v11.901h-1.282v-5.826c-0.677 0.396-1.564 1.065-1.796 2.099-0.421 1.885-2.451 6.498-7.901 6.498z"></path>
<path fill="#f5efe6" style="fill: var(--color2, #f5efe6)" d="M21.614 29.485l-1.226 0.001v-11.014l-1.365 0.903-0.676-1.026 2.316-1.533 0.951 0.512v12.157z"></path>
<path fill="#f5efe6" style="fill: var(--color2, #f5efe6)" d="M27.136 29.485h-1.282v-12.157h1.282v12.157z"></path>
<path fill="#f5efe6" style="fill: var(--color2, #f5efe6)" d="M26.282 24.304h-5.337v-1.285h5.337v1.285z"></path>
<path fill="#f5efe6" style="fill: var(--color2, #f5efe6)" d="M8.639 14.102h-1.133v-9.904c0-0.034 0.004-0.854 0.354-1.747 0.485-1.237 1.39-2.029 2.617-2.289 1.802-0.383 3.428-0.080 4.576 0.852 0.875 0.71 1.377 1.736 1.377 2.814 0 0.728-0.399 1.756-2.306 2.519-1.024 0.41-2.033 0.567-2.076 0.573l-0.17-1.123c0.009-0.001 0.938-0.147 1.841-0.511 0.72-0.29 1.578-0.779 1.578-1.458-0-0.734-0.349-1.438-0.958-1.932-0.878-0.713-2.167-0.935-3.629-0.624-2.035 0.433-2.073 2.826-2.073 2.927v9.903z"></path>
<path fill="#f5efe6" style="fill: var(--color2, #f5efe6)" d="M7.555 9.256h-5.337v-1.285h5.337v1.285z"></path>
<path fill="#f5efe6" style="fill: var(--color2, #f5efe6)" d="M3.267 14.131h-1.226v-11.014l-1.365 0.903-0.676-1.026 2.316-1.533 0.951 0.513v12.157z"></path>
<path fill="#f5efe6" style="fill: var(--color2, #f5efe6)" d="M15.899 4.188l3.464 9.928h-1.355l-2.929-8.386-2.565 8.38-1.384 0.006 2.68-8.657z"></path>
<path fill="#f2c857" style="fill: var(--color1, #f2c857)" d="M14.057 10.397l1.099-1.101 1.099 1.101-1.099 1.101-1.099-1.101z"></path>
<path fill="#f5efe6" style="fill: var(--color2, #f5efe6)" d="M24.741 15.073l-0.357-1.234 6.106-1.914 0.869 1.186-6.618 1.962z"></path>
<path fill="#f5efe6" style="fill: var(--color2, #f5efe6)" d="M16.996 10.603l-0.357-1.234 4.36-1.318 1.707 0.673-5.71 1.879z"></path>
<path fill="#f5efe6" style="fill: var(--color2, #f5efe6)" d="M24.926 13.866l-0.080-5.006c-0.53 0.537-1.221 0.82-2.010 0.82-0.873 0-1.598-0.327-2.156-0.971-0.746-0.862-1.152-2.272-1.207-4.19-0.039-1.37 0.119-2.498 0.125-2.546l1.312-0.001c-0.163 1.151-0.384 4.604 0.736 5.897 0.312 0.361 0.69 0.529 1.189 0.529 0.497 0 0.872-0.167 1.18-0.525 0.436-0.508 0.682-1.32 0.78-2.193 0.121-1.088-0.078-3.696-0.078-3.696l1.415-0.012c0 0.376 0 11.875 0 11.875l-1.207 0.019z"></path>
<path fill="#f5efe6" style="fill: var(--color2, #f5efe6)" d="M32.331 14.773c-0.683 0-1.287-0.276-1.794-0.822-1.058-1.138-1.684-3.519-1.862-7.079-0.129-2.574 0.025-4.806 0.031-4.899h1.291c-0.171 2.434-0.25 9.248 1.476 11.105 0.262 0.282 0.535 0.413 0.858 0.413 0.326 0 0.604-0.133 0.875-0.419 1.564-1.649 1.797-7.117 1.744-10.035l-0.056-1.064 1.301 0.013c0.002 0.033 0.016 0.326 0.026 0.804l0.385 11.789-1.278 0.042-0.087-2.657c-0.302 0.865-0.672 1.531-1.109 1.991-0.515 0.543-1.121 0.818-1.803 0.818z"></path>
<path fill="#f5efe6" style="fill: var(--color2, #f5efe6)" d="M35.158 15.073l-0.389-1.225 3.778-1.113 0.347 1.197-3.737 1.141z"></path>
</symbol>
<symbol id="icon-ornament1" viewBox="0 0 32 32">
<path fill="#b74028" style="fill: var(--color5, #b74028)" d="M32 0h0.36v-0.36h-0.36v0.36zM32 32v0.36h0.36v-0.36h-0.36zM0 0.36h32v-0.719h-32v0.719zM31.64 0v32h0.719v-32h-0.719zM32 31.64h-32v0.719h32v-0.719z"></path>
<path fill="#000" style="fill: var(--color6, #000)" d="M1.438 12.225l3.236 4.135-3.236 3.775v-7.91z"></path>
<path fill="#000" style="fill: var(--color6, #000)" d="M19.775 1.438l-4.135 3.236-3.775-3.236h7.91z"></path>
<path fill="#000" style="fill: var(--color6, #000)" d="M30.562 12.225l-3.236 4.135 3.236 3.775v-7.91z"></path>
<path fill="#000" style="fill: var(--color6, #000)" d="M19.775 30.562l-4.135-3.236-3.775 3.236h7.91z"></path>
<path fill="#000" style="fill: var(--color6, #000)" d="M6.831 5.393c0 0.993-0.805 1.798-1.798 1.798s-1.798-0.805-1.798-1.798c0-0.993 0.805-1.798 1.798-1.798s1.798 0.805 1.798 1.798z"></path>
<path fill="#000" style="fill: var(--color6, #000)" d="M6.831 26.966c0 0.993-0.805 1.798-1.798 1.798s-1.798-0.805-1.798-1.798c0-0.993 0.805-1.798 1.798-1.798s1.798 0.805 1.798 1.798z"></path>
<path fill="#000" style="fill: var(--color6, #000)" d="M28.404 26.966c0 0.993-0.805 1.798-1.798 1.798s-1.798-0.805-1.798-1.798c0-0.993 0.805-1.798 1.798-1.798s1.798 0.805 1.798 1.798z"></path>
<path fill="#000" style="fill: var(--color6, #000)" d="M28.404 5.393c0 0.993-0.805 1.798-1.798 1.798s-1.798-0.805-1.798-1.798c0-0.993 0.805-1.798 1.798-1.798s1.798 0.805 1.798 1.798z"></path>
<path fill="#b74028" style="fill: var(--color5, #b74028)" d="M16.899 16.18c0 0.596-0.483 1.079-1.079 1.079s-1.079-0.483-1.079-1.079c0-0.596 0.483-1.079 1.079-1.079s1.079 0.483 1.079 1.079z"></path>
<path fill="#000" style="fill: var(--color6, #000)" d="M13.303 16.18c0 0.397-0.322 0.719-0.719 0.719s-0.719-0.322-0.719-0.719c0-0.397 0.322-0.719 0.719-0.719s0.719 0.322 0.719 0.719z"></path>
<path fill="#000" style="fill: var(--color6, #000)" d="M15.799 13.663c-0.397 0-0.719-0.322-0.719-0.719s0.322-0.719 0.719-0.719c0.397 0 0.719 0.322 0.719 0.719s-0.322 0.719-0.719 0.719z"></path>
<path fill="#000" style="fill: var(--color6, #000)" d="M25.528 16.18c0 0.397-0.322 0.719-0.719 0.719s-0.719-0.322-0.719-0.719c0-0.397 0.322-0.719 0.719-0.719s0.719 0.322 0.719 0.719z"></path>
<path fill="#000" style="fill: var(--color6, #000)" d="M15.881 25.887c-0.397 0-0.719-0.322-0.719-0.719s0.322-0.719 0.719-0.719c0.397 0 0.719 0.322 0.719 0.719s-0.322 0.719-0.719 0.719z"></path>
<path fill="#000" style="fill: var(--color6, #000)" d="M7.551 16.18c0 0.397-0.322 0.719-0.719 0.719s-0.719-0.322-0.719-0.719c0-0.397 0.322-0.719 0.719-0.719s0.719 0.322 0.719 0.719z"></path>
<path fill="#000" style="fill: var(--color6, #000)" d="M15.76 7.91c-0.397 0-0.719-0.322-0.719-0.719s0.322-0.719 0.719-0.719c0.397 0 0.719 0.322 0.719 0.719s-0.322 0.719-0.719 0.719z"></path>
<path fill="#000" style="fill: var(--color6, #000)" d="M19.775 16.18c0 0.397-0.322 0.719-0.719 0.719s-0.719-0.322-0.719-0.719c0-0.397 0.322-0.719 0.719-0.719s0.719 0.322 0.719 0.719z"></path>
<path fill="#000" style="fill: var(--color6, #000)" d="M15.842 20.134c-0.397 0-0.719-0.322-0.719-0.719s0.322-0.719 0.719-0.719c0.397 0 0.719 0.322 0.719 0.719s-0.322 0.719-0.719 0.719z"></path>
<path fill="#000" style="fill: var(--color6, #000)" d="M10.427 16.18c0 0.397-0.322 0.719-0.719 0.719s-0.719-0.322-0.719-0.719c0-0.397 0.322-0.719 0.719-0.719s0.719 0.322 0.719 0.719z"></path>
<path fill="#000" style="fill: var(--color6, #000)" d="M15.78 10.787c-0.397 0-0.719-0.322-0.719-0.719s0.322-0.719 0.719-0.719c0.397 0 0.719 0.322 0.719 0.719s-0.322 0.719-0.719 0.719z"></path>
<path fill="#000" style="fill: var(--color6, #000)" d="M22.652 16.18c0 0.397-0.322 0.719-0.719 0.719s-0.719-0.322-0.719-0.719c0-0.397 0.322-0.719 0.719-0.719s0.719 0.322 0.719 0.719z"></path>
<path fill="#000" style="fill: var(--color6, #000)" d="M15.861 23.011c-0.397 0-0.719-0.322-0.719-0.719s0.322-0.719 0.719-0.719c0.397 0 0.719 0.322 0.719 0.719s-0.322 0.719-0.719 0.719z"></path>
<path fill="#b74028" style="fill: var(--color5, #b74028)" d="M1.438 9.554h12.944v5.547h-9.061l-3.883-5.547z"></path>
<path fill="#b74028" style="fill: var(--color5, #b74028)" d="M8.835 2.157v12.944h5.547v-9.061l-5.547-3.883z"></path>
<path fill="#b74028" style="fill: var(--color5, #b74028)" d="M1.438 22.806h12.944v-5.547h-9.061l-3.883 5.547z"></path>
<path fill="#b74028" style="fill: var(--color5, #b74028)" d="M8.835 30.202v-12.944h5.547v9.061l-5.547 3.883z"></path>
<path fill="#b74028" style="fill: var(--color5, #b74028)" d="M30.202 9.554h-12.944v5.547h9.061l3.883-5.547z"></path>
<path fill="#b74028" style="fill: var(--color5, #b74028)" d="M22.806 2.157v12.944h-5.547v-9.061l5.547-3.883z"></path>
<path fill="#b74028" style="fill: var(--color5, #b74028)" d="M30.202 22.806h-12.944v-5.547h9.061l3.883 5.547z"></path>
<path fill="#b74028" style="fill: var(--color5, #b74028)" d="M22.806 30.202v-12.944h-5.547v9.061l5.547 3.883z"></path>
</symbol>
<symbol id="icon-wave-s" viewBox="0 0 320 32">
<path stroke-linejoin="miter" stroke-linecap="butt" stroke-miterlimit="4" stroke-width="3.2" d="M156.8 21.254c-4.934 1.916-14.354 1.916-25.119-3.832-27.81-15.326-31.847-7.184-45.753 0s-14.354 4.791-25.119-1.916c-9.719-6.067-32.744-14.178-47.098 1.916-3.364 3.736-6.131 4.266-12.111 3.354"></path>
<path stroke-linejoin="miter" stroke-linecap="butt" stroke-miterlimit="4" stroke-width="3.2" d="M169.6 11.663c3.598-2.084 21.123-8.654 32.389 0 11.734 6.732 18.776 9.137 29.102 9.137 8.262 0 17.525-5.771 22.062-9.137 11.266-10.579 23.658-2.885 35.674 2.885 12.018 5.771 24.722 2.404 29.573 0"></path>
<path stroke-linejoin="miter" stroke-linecap="round" stroke-miterlimit="4" stroke-width="1.6" d="M171.176 1.6c-6.037 0-10.243 0.568-15.874 3.121-6.599 2.992-5.64 10.164-3.47 16.174 2.556 7.084 12.597 11.335 19.115 8.734 3.755-1.498 5.693-4.586 6.629-8.734 0.63-2.796 1.699-6.781-0.483-9.080-4.694-4.942-15.208-8.789-18.917-0.568-0.806 1.787-1.139 6.018-0.54 7.914 1.351 4.277 8.703 3.437 11.89 3.437 5.381 0 6.464-6.345 1.366-8.229-3.746-1.384-7.587-1.349-8.933 3.121M160.518 13.289c-0.051-0.008-0.077-0.028-0.083-0.055M160.435 13.234c-0.006-0.033 0.013-0.077 0.042-0.122M160.435 13.234c-0.65 1.941-1.024 3.99-1.154 5.647-0.060 0.762-0.062 1.546 0.060 2.272M160.435 13.234c0.014-0.041 0.029-0.082 0.042-0.122M160.477 13.112c0.050-0.075 0.128-0.153 0.158-0.192 0.717-0.919 1.491-1.459 2.594-1.641M160.477 13.112c0.363-1.061 0.81-2.086 1.342-2.992M163.229 11.278l0.008-0.001c1.259-0.206 2.669-0.243 3.934-0.087 0.165 0.020 0.322 0.051 0.472 0.090M163.229 11.278c-0.762 1.18-0.792 2.895-0.768 4.774 0.021 1.531 0.176 3.714 0.704 5.693M163.229 11.278c0.294-0.457 0.699-0.833 1.251-1.107M167.643 11.28c0.325 0.086 0.621 0.215 0.896 0.378M167.643 11.28c-0.942-0.604-2.026-0.953-3.163-1.109M167.643 11.28c0.238 0.153 0.467 0.322 0.686 0.508 0.123 0.104 0.243 0.212 0.362 0.324M168.539 11.658c0.294 0.175 0.563 0.389 0.819 0.632M168.539 11.658c-0.498-1.29-1.458-2.167-2.978-1.85-0.411 0.086-0.77 0.208-1.082 0.363M168.539 11.658c0.056 0.146 0.107 0.298 0.152 0.454M169.358 12.29c0.435 0.414 0.829 0.91 1.229 1.434 0.562 0.738 1.115 1.456 1.611 2.192M169.358 12.29c-0.123-1.015-0.413-1.997-0.872-2.851-0.915-1.707-2.853-3.031-4.544-1.795-0.822 0.601-1.526 1.465-2.123 2.476M169.358 12.29c0.022 0.192 0.040 0.385 0.051 0.578M172.198 15.916c0.771 1.149 1.4 2.346 1.694 3.74M172.198 15.916c0.075-0.18 0.147-0.357 0.214-0.528 0.84-2.168 1.242-5.364 0.048-7.553M172.198 15.916c-0.154 0.36-0.326 0.736-0.515 1.118M173.893 19.656c0.126 0.6 0.19 1.236 0.178 1.922-0.029 1.573-0.741 2.739-1.774 3.545M173.893 19.656c0.542-0.916 0.995-1.889 1.336-2.908 0.773-2.309 0.755-4.87-0.429-6.786M173.893 19.656c-0.502 0.846-1.080 1.644-1.717 2.385M172.296 25.123c-0.426 0.332-0.906 0.603-1.414 0.816M172.296 25.123c2.538-1.798 4.088-5.085 4.395-8.418 0.253-2.742-0.294-4.777-1.891-6.742M172.296 25.123c-0.437 0.31-0.904 0.576-1.398 0.79M170.882 25.939c-0.242 0.101-0.49 0.189-0.741 0.265M170.882 25.939c0.005-0.009 0.011-0.018 0.016-0.027M170.882 25.939c-1.302 2.064-3.389 2.87-5.693 3.123-2.384 0.261-4.637 0.117-6.614-0.978M170.141 26.204c-0.867 0.26-1.779 0.37-2.626 0.345-0.338-0.010-0.653-0.062-0.947-0.152M170.141 26.204c0.168-0.060 0.336-0.122 0.506-0.188 0.085-0.033 0.168-0.068 0.251-0.104M170.141 26.204c-1.624 0.572-3.25 0.853-4.794 0.734M166.568 26.397c-1.075-0.328-1.875-1.152-2.469-2.229M166.568 26.397c2.067-1.019 4.022-2.513 5.608-4.355M166.568 26.397c-0.403 0.199-0.811 0.379-1.221 0.541M164.099 24.167c-0.397-0.719-0.702-1.551-0.934-2.422M164.099 24.167c0.032-0.004 0.066-0.008 0.099-0.011 1.73-0.202 3.534-0.807 4.602-2.437 0.21-0.318 0.384-0.667 0.523-1.035M164.099 24.167c-0.966 0.109-1.915 0.149-2.845-0.262-1.174-0.518-1.712-1.557-1.913-2.753M163.165 21.745c0.19-0.049 0.381-0.108 0.568-0.176M163.165 21.745c-1.171 0.304-2.368 0.244-3.442-0.352-0.134-0.074-0.261-0.154-0.382-0.24M164.48 10.171c-0.869-0.12-1.77-0.128-2.661-0.051M168.691 12.112c0.181 0.632 0.267 1.333 0.267 2.026 0 0.147-0.008 0.287-0.022 0.421M168.691 12.112c0.251 0.238 0.491 0.49 0.718 0.756M168.936 14.558c-0.029 0.262-0.085 0.5-0.166 0.718M168.936 14.558c-0.237-0.047-0.515-0.045-0.842 0.014-0.056 0.010-0.112 0.022-0.166 0.034M168.936 14.558c0.152 0.030 0.285 0.079 0.403 0.145M168.77 15.276c-0.237 0.629-0.69 1.091-1.323 1.494-0.438 0.278-1.418 0.977-1.963 0.674-0.328-0.182-0.531-0.456-0.632-0.767M168.77 15.276c-0.237-0.277-0.517-0.505-0.842-0.669M168.77 15.276c0.131 0.153 0.248 0.321 0.354 0.501M164.851 16.677c-0.299-0.928 0.317-2.185 1.261-2.322 0.712-0.103 1.317-0.001 1.816 0.252M164.851 16.677c-0.494 0.643-0.878 1.389-1.104 2.181-0.224 0.781-0.256 1.839-0.014 2.71M164.851 16.677c0.795-1.034 1.882-1.803 3.077-2.071M169.123 15.777c0.352 0.611 0.554 1.362 0.606 2.152M169.123 15.777c0.093-0.349 0.166-0.709 0.216-1.074M169.123 15.777c-0.070 0.257-0.15 0.509-0.243 0.753-0.322 0.844-0.843 1.683-1.496 2.44M169.73 17.929c0.061 0.918-0.077 1.889-0.406 2.755M169.73 17.929c0.464-1.229 0.51-2.719-0.39-3.226M169.73 17.929c-0.034 0.086-0.067 0.172-0.104 0.255-0.298 0.675-1.448 2.59-2.091 1.196-0.064-0.139-0.114-0.275-0.15-0.41M169.323 20.684c0.938-1.095 1.742-2.409 2.36-3.65M169.323 20.684c-0.99 1.158-2.13 2.071-3.349 2.395-1.248 0.332-1.947-0.451-2.242-1.51M159.341 21.153c-2.818-2.004-2.274-7.165-0.694-10.422M161.819 10.12c-1.096 0.094-2.179 0.316-3.172 0.611M169.41 12.868c0.037 0.614 0.013 1.233-0.070 1.836M169.41 12.868c1.011 1.177 1.789 2.617 2.274 4.167M167.384 18.971c-0.992 1.148-2.288 2.106-3.651 2.598M167.384 18.971c-0.163-0.588-0.090-1.144 0.022-1.766M158.647 10.731c0.346-0.714 0.743-1.337 1.164-1.815 2.925-3.316 8.997-3.077 12.65-1.081M158.647 10.731c-0.382 0.114-0.751 0.239-1.103 0.372-0.428 0.162-0.849 0.344-1.26 0.548M172.461 7.835c0.23 0.125 0.45 0.257 0.658 0.396 0.102 0.067 0.2 0.137 0.294 0.208M172.461 7.835c-0.133-0.245-0.286-0.478-0.462-0.695M173.413 8.439c0.573 0.434 1.032 0.95 1.387 1.523M173.413 8.439c-0.456-0.46-0.926-0.894-1.414-1.299M173.413 8.439c0.381 0.384 0.752 0.786 1.12 1.206 0.091 0.106 0.181 0.211 0.267 0.317M172.176 22.041c0.195-1.675 0.008-3.4-0.493-5.007M172.176 22.041c-0.122 1.031-0.387 2.043-0.814 2.996-0.141 0.314-0.296 0.605-0.464 0.875M165.347 26.938c-0.229 0.090-0.458 0.175-0.688 0.253-1.798 0.612-3.949 0.968-6.085 0.893M165.347 26.938c-2.41-0.185-4.619-1.343-6.301-3.88-1.828-2.758-3.263-6.836-2.944-10.301 0.036-0.386 0.097-0.754 0.182-1.105M158.575 28.084c-2.8-0.099-5.579-0.94-7.517-2.916-1.999-2.038-1.691-5.212-0.569-7.658 0.534-1.164 1.231-2.189 2.047-3.076M158.575 28.084c-0.849-0.47-1.648-1.116-2.385-1.981-2.776-3.257-3.593-7.416-3.655-11.669M152.535 14.434c1.075-1.167 2.357-2.095 3.748-2.783M152.535 14.434c-0.015-1.040 0.015-2.085 0.072-3.125 0.224-4.037 4.936-5.767 7.968-6.461 2.608-0.597 6.163-0.887 8.646 0.424 0.256 0.135 0.506 0.276 0.749 0.422M156.284 11.651c0.943-3.888 4.779-5.662 8.179-6.237 1.653-0.279 3.771-0.398 5.509 0.281M169.971 5.695c0.718 0.431 1.389 0.914 2.027 1.445M169.971 5.695c0.678 0.265 1.299 0.652 1.813 1.198 0.075 0.080 0.147 0.162 0.214 0.247"></path>
</symbol>
<symbol id="icon-wave-m" viewBox="0 0 480 32">
<path fill="none" stroke="#b73f28" style="stroke: var(--color7, #b73f28)" stroke-linejoin="miter" stroke-linecap="butt" stroke-miterlimit="4" stroke-width="3.2" d="M240 23.945c-7.579 2.767-22.048 2.767-38.586-5.534-42.718-22.138-48.92-10.377-70.279 0s-22.048 6.92-38.585-2.768c-14.929-8.764-50.298-20.479-72.347 2.768-5.168 5.397-9.418 6.162-18.604 4.844"></path>
<path fill="none" stroke="#b73f28" style="stroke: var(--color7, #b73f28)" stroke-linejoin="miter" stroke-linecap="butt" stroke-miterlimit="4" stroke-width="3.2" d="M257.6 10.802c5.341-3.010 31.344-12.501 48.061 0 17.413 9.724 27.861 13.198 43.184 13.198 12.259 0 26.005-8.335 32.738-13.198 16.717-15.281 35.106-4.168 52.936 4.167 17.832 8.335 36.685 3.473 43.882 0"></path>
<path fill="none" stroke="#b74028" style="stroke: var(--color5, #b74028)" stroke-linejoin="miter" stroke-linecap="round" stroke-miterlimit="4" stroke-width="1.6" d="M259.176 1.6c-6.037 0-10.243 0.568-15.874 3.121-6.598 2.992-5.64 10.164-3.47 16.174 2.557 7.084 12.597 11.335 19.115 8.734 3.755-1.498 5.693-4.586 6.629-8.734 0.63-2.796 1.699-6.781-0.483-9.080-4.694-4.942-15.208-8.789-18.917-0.568-0.806 1.787-1.139 6.018-0.541 7.914 1.35 4.277 8.702 3.437 11.89 3.437 5.381 0 6.464-6.345 1.366-8.229-3.746-1.384-7.587-1.349-8.933 3.121M248.518 13.289c-0.051-0.008-0.077-0.028-0.083-0.055M248.435 13.234c-0.006-0.033 0.013-0.077 0.042-0.122M248.435 13.234c-0.65 1.941-1.024 3.99-1.154 5.647-0.061 0.762-0.062 1.546 0.059 2.272M248.435 13.234c0.014-0.041 0.029-0.082 0.042-0.122M248.477 13.112c0.050-0.075 0.128-0.153 0.158-0.192 0.717-0.919 1.491-1.459 2.594-1.641M248.477 13.112c0.363-1.061 0.81-2.086 1.342-2.992M251.229 11.278l0.008-0.001c1.259-0.206 2.669-0.243 3.934-0.087 0.165 0.020 0.322 0.051 0.472 0.090M251.229 11.278c-0.762 1.18-0.792 2.895-0.768 4.774 0.021 1.531 0.176 3.714 0.704 5.693M251.229 11.278c0.294-0.457 0.699-0.833 1.251-1.107M255.643 11.28c0.325 0.086 0.621 0.215 0.896 0.378M255.643 11.28c-0.942-0.604-2.026-0.953-3.163-1.109M255.643 11.28c0.238 0.153 0.467 0.322 0.686 0.508 0.123 0.104 0.243 0.212 0.362 0.324M256.539 11.658c0.294 0.175 0.563 0.389 0.819 0.632M256.539 11.658c-0.498-1.29-1.458-2.167-2.978-1.85-0.411 0.086-0.77 0.208-1.082 0.363M256.539 11.658c0.056 0.146 0.107 0.298 0.152 0.454M257.358 12.29c0.435 0.414 0.829 0.91 1.229 1.434 0.562 0.738 1.115 1.456 1.611 2.192M257.358 12.29c-0.123-1.015-0.413-1.997-0.872-2.851-0.915-1.707-2.853-3.031-4.544-1.795-0.822 0.601-1.526 1.465-2.123 2.476M257.358 12.29c0.022 0.192 0.040 0.385 0.051 0.578M260.198 15.916c0.771 1.149 1.4 2.346 1.694 3.74M260.198 15.916c0.075-0.18 0.147-0.357 0.214-0.528 0.84-2.168 1.242-5.364 0.048-7.553M260.198 15.916c-0.154 0.36-0.326 0.736-0.515 1.118M261.893 19.656c0.126 0.6 0.19 1.236 0.178 1.922-0.029 1.573-0.741 2.739-1.774 3.545M261.893 19.656c0.542-0.916 0.995-1.889 1.336-2.908 0.773-2.309 0.755-4.87-0.429-6.786M261.893 19.656c-0.502 0.846-1.080 1.644-1.717 2.385M260.296 25.123c-0.426 0.332-0.906 0.603-1.414 0.816M260.296 25.123c2.538-1.798 4.088-5.085 4.395-8.418 0.253-2.742-0.294-4.777-1.891-6.742M260.296 25.123c-0.437 0.31-0.904 0.576-1.398 0.79M258.882 25.939c-0.242 0.101-0.49 0.189-0.741 0.265M258.882 25.939c0.005-0.009 0.011-0.018 0.016-0.027M258.882 25.939c-1.302 2.064-3.389 2.87-5.693 3.123-2.384 0.261-4.637 0.117-6.614-0.978M258.141 26.204c-0.867 0.26-1.779 0.37-2.626 0.345-0.338-0.010-0.653-0.062-0.947-0.152M258.141 26.204c0.168-0.060 0.336-0.122 0.506-0.188 0.085-0.033 0.168-0.068 0.251-0.104M258.141 26.204c-1.624 0.572-3.25 0.853-4.794 0.734M254.568 26.397c-1.075-0.328-1.875-1.152-2.469-2.229M254.568 26.397c2.067-1.019 4.022-2.513 5.608-4.355M254.568 26.397c-0.403 0.199-0.811 0.379-1.221 0.541M252.099 24.167c-0.397-0.719-0.702-1.551-0.934-2.422M252.099 24.167c0.032-0.004 0.066-0.008 0.099-0.011 1.73-0.202 3.534-0.807 4.602-2.437 0.21-0.318 0.384-0.667 0.523-1.035M252.099 24.167c-0.966 0.109-1.915 0.149-2.845-0.262-1.174-0.518-1.712-1.557-1.914-2.753M251.165 21.745c0.19-0.049 0.381-0.108 0.568-0.176M251.165 21.745c-1.171 0.304-2.368 0.244-3.442-0.352-0.134-0.074-0.261-0.154-0.382-0.24M252.48 10.171c-0.869-0.12-1.77-0.128-2.661-0.051M256.691 12.112c0.181 0.632 0.267 1.333 0.267 2.026 0 0.147-0.008 0.287-0.022 0.421M256.691 12.112c0.251 0.238 0.491 0.49 0.718 0.756M256.936 14.558c-0.029 0.262-0.085 0.5-0.166 0.718M256.936 14.558c-0.237-0.047-0.515-0.045-0.842 0.014-0.056 0.010-0.112 0.022-0.166 0.034M256.936 14.558c0.152 0.030 0.285 0.079 0.403 0.145M256.77 15.276c-0.237 0.629-0.69 1.091-1.323 1.494-0.438 0.278-1.418 0.977-1.963 0.674-0.328-0.182-0.531-0.456-0.632-0.767M256.77 15.276c-0.237-0.277-0.517-0.505-0.842-0.669M256.77 15.276c0.131 0.153 0.248 0.321 0.354 0.501M252.851 16.677c-0.299-0.928 0.317-2.185 1.261-2.322 0.712-0.103 1.317-0.001 1.816 0.252M252.851 16.677c-0.494 0.643-0.878 1.389-1.104 2.181-0.224 0.781-0.256 1.839-0.014 2.71M252.851 16.677c0.795-1.034 1.882-1.803 3.077-2.071M257.123 15.777c0.352 0.611 0.554 1.362 0.606 2.152M257.123 15.777c0.093-0.349 0.166-0.709 0.216-1.074M257.123 15.777c-0.070 0.257-0.15 0.509-0.243 0.753-0.322 0.844-0.843 1.683-1.496 2.44M257.73 17.929c0.061 0.918-0.077 1.889-0.406 2.755M257.73 17.929c0.464-1.229 0.51-2.719-0.39-3.226M257.73 17.929c-0.034 0.086-0.067 0.172-0.104 0.255-0.298 0.675-1.448 2.59-2.091 1.196-0.064-0.139-0.114-0.275-0.15-0.41M257.323 20.684c0.938-1.095 1.742-2.409 2.36-3.65M257.323 20.684c-0.99 1.158-2.13 2.071-3.349 2.395-1.248 0.332-1.947-0.451-2.242-1.51M247.341 21.153c-2.818-2.004-2.274-7.165-0.694-10.422M249.819 10.12c-1.096 0.094-2.179 0.316-3.173 0.611M257.41 12.868c0.037 0.614 0.013 1.233-0.070 1.836M257.41 12.868c1.011 1.177 1.789 2.617 2.274 4.167M255.384 18.971c-0.992 1.148-2.288 2.106-3.651 2.598M255.384 18.971c-0.163-0.588-0.090-1.144 0.022-1.766M246.646 10.731c0.347-0.714 0.744-1.337 1.165-1.815 2.925-3.316 8.997-3.077 12.65-1.081M246.646 10.731c-0.381 0.114-0.75 0.239-1.102 0.372-0.427 0.162-0.85 0.344-1.261 0.548M260.461 7.835c0.23 0.125 0.45 0.257 0.658 0.396 0.102 0.067 0.2 0.137 0.294 0.208M260.461 7.835c-0.133-0.245-0.286-0.478-0.462-0.695M261.413 8.439c0.573 0.434 1.032 0.95 1.387 1.523M261.413 8.439c-0.456-0.46-0.926-0.894-1.414-1.299M261.413 8.439c0.381 0.384 0.752 0.786 1.12 1.206 0.091 0.106 0.181 0.211 0.267 0.317M260.176 22.041c0.195-1.675 0.008-3.4-0.493-5.007M260.176 22.041c-0.122 1.031-0.387 2.043-0.814 2.996-0.141 0.314-0.296 0.605-0.464 0.875M253.347 26.938c-0.229 0.090-0.458 0.175-0.688 0.253-1.798 0.612-3.949 0.968-6.085 0.893M253.347 26.938c-2.41-0.185-4.619-1.343-6.301-3.88-1.829-2.758-3.264-6.836-2.946-10.301 0.037-0.386 0.098-0.754 0.182-1.105M246.574 28.084c-2.8-0.099-5.579-0.94-7.517-2.916-2-2.038-1.691-5.212-0.57-7.658 0.534-1.164 1.23-2.189 2.048-3.076M246.574 28.084c-0.85-0.47-1.648-1.116-2.384-1.981-2.778-3.257-3.594-7.416-3.654-11.669M240.536 14.434c1.074-1.167 2.357-2.095 3.747-2.783M240.536 14.434c-0.016-1.040 0.014-2.085 0.072-3.125 0.222-4.037 4.936-5.767 7.968-6.461 2.608-0.597 6.163-0.887 8.646 0.424 0.256 0.135 0.506 0.276 0.749 0.422M244.283 11.651c0.944-3.888 4.779-5.662 8.179-6.237 1.653-0.279 3.771-0.398 5.509 0.281M257.971 5.695c0.718 0.431 1.389 0.914 2.027 1.445M257.971 5.695c0.678 0.265 1.299 0.652 1.813 1.198 0.075 0.080 0.147 0.162 0.214 0.247"></path>
</symbol>
<symbol id="icon-wave-l" viewBox="0 0 560 32">
<path fill="none" stroke="#b73f28" style="stroke: var(--color7, #b73f28)" stroke-linejoin="miter" stroke-linecap="butt" stroke-miterlimit="4" stroke-width="3.2" d="M278.4 25.506c-8.8 3.193-25.6 3.193-44.8-6.386-49.6-25.544-56.8-11.974-81.6 0s-25.6 7.985-44.8-3.193c-17.333-10.112-58.4-23.63-84 3.193-6 6.227-10.935 7.11-21.6 5.589"></path>
<path fill="none" stroke="#b73f28" style="stroke: var(--color7, #b73f28)" stroke-linejoin="miter" stroke-linecap="butt" stroke-miterlimit="4" stroke-width="3.2" d="M303.2 10.372c6.192-3.473 36.341-14.424 55.722 0 20.19 11.22 32.304 15.228 50.070 15.228 14.213 0 30.149-9.618 37.955-15.228 19.382-17.632 40.702-4.809 61.376 4.809s42.531 4.007 50.877 0"></path>
<path fill="none" stroke="#b74028" style="stroke: var(--color5, #b74028)" stroke-linejoin="miter" stroke-linecap="round" stroke-miterlimit="4" stroke-width="1.6" d="M299.976 1.6c-6.037 0-10.243 0.568-15.874 3.121-6.598 2.992-5.64 10.164-3.47 16.174 2.557 7.084 12.597 11.335 19.115 8.734 3.755-1.498 5.693-4.586 6.629-8.734 0.63-2.796 1.699-6.781-0.483-9.080-4.694-4.942-15.208-8.789-18.917-0.568-0.806 1.787-1.139 6.018-0.541 7.914 1.35 4.277 8.702 3.437 11.89 3.437 5.381 0 6.464-6.345 1.366-8.229-3.746-1.384-7.587-1.349-8.933 3.121M289.318 13.289c-0.051-0.008-0.077-0.028-0.083-0.055M289.235 13.234c-0.006-0.033 0.013-0.077 0.042-0.122M289.235 13.234c-0.65 1.941-1.024 3.99-1.154 5.647-0.061 0.762-0.062 1.546 0.059 2.272M289.235 13.234c0.014-0.041 0.029-0.082 0.042-0.122M289.277 13.112c0.050-0.075 0.128-0.153 0.158-0.192 0.717-0.919 1.491-1.459 2.594-1.641M289.277 13.112c0.363-1.061 0.81-2.086 1.342-2.992M292.029 11.278l0.008-0.001c1.259-0.206 2.669-0.243 3.934-0.087 0.165 0.020 0.322 0.051 0.472 0.090M292.029 11.278c-0.762 1.18-0.792 2.895-0.768 4.774 0.021 1.531 0.176 3.714 0.704 5.693M292.029 11.278c0.294-0.457 0.699-0.833 1.251-1.107M296.443 11.28c0.325 0.086 0.621 0.215 0.896 0.378M296.443 11.28c-0.942-0.604-2.026-0.953-3.163-1.109M296.443 11.28c0.238 0.153 0.467 0.322 0.686 0.508 0.123 0.104 0.243 0.212 0.362 0.324M297.339 11.658c0.294 0.175 0.563 0.389 0.819 0.632M297.339 11.658c-0.498-1.29-1.458-2.167-2.978-1.85-0.411 0.086-0.77 0.208-1.082 0.363M297.339 11.658c0.056 0.146 0.107 0.298 0.152 0.454M298.158 12.29c0.435 0.414 0.829 0.91 1.229 1.434 0.562 0.738 1.115 1.456 1.611 2.192M298.158 12.29c-0.123-1.015-0.413-1.997-0.872-2.851-0.915-1.707-2.853-3.031-4.544-1.795-0.822 0.601-1.526 1.465-2.123 2.476M298.158 12.29c0.022 0.192 0.040 0.385 0.051 0.578M300.998 15.916c0.771 1.149 1.4 2.346 1.694 3.74M300.998 15.916c0.075-0.18 0.147-0.357 0.214-0.528 0.84-2.168 1.242-5.364 0.048-7.553M300.998 15.916c-0.154 0.36-0.326 0.736-0.515 1.118M302.693 19.656c0.126 0.6 0.19 1.236 0.178 1.922-0.029 1.573-0.741 2.739-1.774 3.545M302.693 19.656c0.542-0.916 0.995-1.889 1.336-2.908 0.773-2.309 0.755-4.87-0.429-6.786M302.693 19.656c-0.502 0.846-1.080 1.644-1.717 2.385M301.096 25.123c-0.426 0.332-0.906 0.603-1.414 0.816M301.096 25.123c2.538-1.798 4.088-5.085 4.395-8.418 0.253-2.742-0.294-4.777-1.891-6.742M301.096 25.123c-0.437 0.31-0.904 0.576-1.398 0.79M299.682 25.939c-0.242 0.101-0.49 0.189-0.741 0.265M299.682 25.939c0.005-0.009 0.011-0.018 0.016-0.027M299.682 25.939c-1.302 2.064-3.389 2.87-5.693 3.123-2.384 0.261-4.637 0.117-6.614-0.978M298.941 26.204c-0.867 0.26-1.779 0.37-2.626 0.345-0.338-0.010-0.653-0.062-0.947-0.152M298.941 26.204c0.168-0.060 0.336-0.122 0.506-0.188 0.085-0.033 0.168-0.068 0.251-0.104M298.941 26.204c-1.624 0.572-3.25 0.853-4.794 0.734M295.368 26.397c-1.075-0.328-1.875-1.152-2.469-2.229M295.368 26.397c2.067-1.019 4.022-2.513 5.608-4.355M295.368 26.397c-0.403 0.199-0.811 0.379-1.221 0.541M292.899 24.167c-0.397-0.719-0.702-1.551-0.934-2.422M292.899 24.167c0.032-0.004 0.066-0.008 0.099-0.011 1.73-0.202 3.534-0.807 4.602-2.437 0.21-0.318 0.384-0.667 0.523-1.035M292.899 24.167c-0.966 0.109-1.915 0.149-2.845-0.262-1.174-0.518-1.712-1.557-1.914-2.753M291.965 21.745c0.19-0.049 0.381-0.108 0.568-0.176M291.965 21.745c-1.171 0.304-2.368 0.244-3.442-0.352-0.134-0.074-0.261-0.154-0.382-0.24M293.28 10.171c-0.869-0.12-1.77-0.128-2.661-0.051M297.491 12.112c0.181 0.632 0.267 1.333 0.267 2.026 0 0.147-0.008 0.287-0.022 0.421M297.491 12.112c0.251 0.238 0.491 0.49 0.718 0.756M297.736 14.558c-0.029 0.262-0.085 0.5-0.166 0.718M297.736 14.558c-0.237-0.047-0.515-0.045-0.842 0.014-0.056 0.010-0.112 0.022-0.166 0.034M297.736 14.558c0.152 0.030 0.285 0.079 0.403 0.145M297.57 15.276c-0.237 0.629-0.69 1.091-1.323 1.494-0.438 0.278-1.418 0.977-1.963 0.674-0.328-0.182-0.531-0.456-0.632-0.767M297.57 15.276c-0.237-0.277-0.517-0.505-0.842-0.669M297.57 15.276c0.131 0.153 0.248 0.321 0.354 0.501M293.651 16.677c-0.299-0.928 0.317-2.185 1.261-2.322 0.712-0.103 1.317-0.001 1.816 0.252M293.651 16.677c-0.494 0.643-0.878 1.389-1.104 2.181-0.224 0.781-0.256 1.839-0.014 2.71M293.651 16.677c0.795-1.034 1.882-1.803 3.077-2.071M297.923 15.777c0.352 0.611 0.554 1.362 0.606 2.152M297.923 15.777c0.093-0.349 0.166-0.709 0.216-1.074M297.923 15.777c-0.070 0.257-0.15 0.509-0.243 0.753-0.322 0.844-0.843 1.683-1.496 2.44M298.53 17.929c0.061 0.918-0.077 1.889-0.406 2.755M298.53 17.929c0.464-1.229 0.51-2.719-0.39-3.226M298.53 17.929c-0.034 0.086-0.067 0.172-0.104 0.255-0.298 0.675-1.448 2.59-2.091 1.196-0.064-0.139-0.114-0.275-0.15-0.41M298.123 20.684c0.938-1.095 1.742-2.409 2.36-3.65M298.123 20.684c-0.99 1.158-2.13 2.071-3.349 2.395-1.248 0.332-1.947-0.451-2.242-1.51M288.141 21.153c-2.818-2.004-2.274-7.165-0.694-10.422M290.619 10.12c-1.096 0.094-2.179 0.316-3.173 0.611M298.21 12.868c0.037 0.614 0.013 1.233-0.070 1.836M298.21 12.868c1.011 1.177 1.789 2.617 2.274 4.167M296.184 18.971c-0.992 1.148-2.288 2.106-3.651 2.598M296.184 18.971c-0.163-0.588-0.090-1.144 0.022-1.766M287.446 10.731c0.347-0.714 0.744-1.337 1.165-1.815 2.925-3.316 8.997-3.077 12.65-1.081M287.446 10.731c-0.381 0.114-0.75 0.239-1.102 0.372-0.427 0.162-0.85 0.344-1.261 0.548M301.261 7.835c0.23 0.125 0.45 0.257 0.658 0.396 0.102 0.067 0.2 0.137 0.294 0.208M301.261 7.835c-0.133-0.245-0.286-0.478-0.462-0.695M302.213 8.439c0.573 0.434 1.032 0.95 1.387 1.523M302.213 8.439c-0.456-0.46-0.926-0.894-1.414-1.299M302.213 8.439c0.381 0.384 0.752 0.786 1.12 1.206 0.091 0.106 0.181 0.211 0.267 0.317M300.976 22.041c0.195-1.675 0.008-3.4-0.493-5.007M300.976 22.041c-0.122 1.031-0.387 2.043-0.814 2.996-0.141 0.314-0.296 0.605-0.464 0.875M294.147 26.938c-0.229 0.090-0.458 0.175-0.688 0.253-1.798 0.612-3.949 0.968-6.085 0.893M294.147 26.938c-2.41-0.185-4.619-1.343-6.301-3.88-1.829-2.758-3.264-6.836-2.946-10.301 0.037-0.386 0.098-0.754 0.182-1.105M287.374 28.084c-2.8-0.099-5.579-0.94-7.517-2.916-2-2.038-1.691-5.212-0.57-7.658 0.534-1.164 1.23-2.189 2.048-3.076M287.374 28.084c-0.85-0.47-1.648-1.116-2.384-1.981-2.778-3.257-3.594-7.416-3.654-11.669M281.336 14.434c1.074-1.167 2.357-2.095 3.747-2.783M281.336 14.434c-0.016-1.040 0.014-2.085 0.072-3.125 0.222-4.037 4.936-5.767 7.968-6.461 2.608-0.597 6.163-0.887 8.646 0.424 0.256 0.135 0.506 0.276 0.749 0.422M285.083 11.651c0.944-3.888 4.779-5.662 8.179-6.237 1.653-0.279 3.771-0.398 5.509 0.281M298.771 5.695c0.718 0.431 1.389 0.914 2.027 1.445M298.771 5.695c0.678 0.265 1.299 0.652 1.813 1.198 0.075 0.080 0.147 0.162 0.214 0.247"></path>
</symbol>
<symbol id="icon-wave-l-y" fill="none" viewBox="0 0 350 20" >
    <path d="M174 15.9412C168.5 17.9369 158 17.9368 146 11.9502C115 -4.01479 110.5 4.46659 95 11.9502C79.5 19.4337 79 16.9409 67 9.95433C56.1667 3.63437 30.5 -4.81442 14.5 11.9502C10.7501 15.8422 7.66579 16.3939 1 15.4434" stroke="#F2C857" stroke-width="2" stroke-dasharray="4 4"></path>
    <path d="M189.5 6.48251C193.37 4.31191 212.213 -2.53239 224.326 6.48251C236.945 13.4951 244.516 16 255.62 16C264.503 16 274.463 9.98883 279.342 6.48251C291.456 -4.53738 304.781 3.47697 317.702 9.48786C330.623 15.4988 344.284 11.9924 349.5 9.48786" stroke="#F2C857" stroke-width="2" stroke-dasharray="4 4"></path>
    <path d="M187.485 1C183.712 1 181.083 1.35522 177.564 2.95086C173.44 4.8209 174.039 9.3033 175.395 13.0598C176.993 17.487 183.268 20.1442 187.342 18.5183C189.689 17.5819 190.9 15.6518 191.485 13.0598C191.879 11.312 192.547 8.82144 191.183 7.38462C188.249 4.29599 181.678 1.89126 179.36 7.02992C178.856 8.14673 178.648 10.7911 179.022 11.976C179.866 14.6493 184.461 14.1239 186.453 14.1239C189.816 14.1239 190.493 10.158 187.307 8.98078C184.966 8.1158 182.565 8.13736 181.724 10.9316M180.824 8.30574C180.792 8.30067 180.776 8.28809 180.772 8.27114M180.772 8.27114C180.768 8.25034 180.78 8.22296 180.798 8.19479M180.772 8.27114C180.366 9.48415 180.132 10.7652 180.051 11.8002C180.013 12.2762 180.012 12.7665 180.088 13.2205M180.772 8.27114C180.781 8.24566 180.79 8.22021 180.798 8.19479M180.798 8.19479C180.829 8.14799 180.878 8.09904 180.897 8.07459C181.345 7.50044 181.829 7.16277 182.518 7.04884M180.798 8.19479C181.025 7.53183 181.304 6.89128 181.637 6.32482M182.518 7.04884L182.523 7.04801C183.31 6.91904 184.191 6.89613 184.982 6.99362C185.085 7.00625 185.183 7.02527 185.277 7.05012M182.518 7.04884C182.042 7.78611 182.023 8.85825 182.038 10.0326C182.051 10.9895 182.148 12.3538 182.478 13.5906M182.518 7.04884C182.702 6.7635 182.955 6.52832 183.3 6.35679M185.277 7.05012C185.48 7.10364 185.665 7.18421 185.837 7.28624M185.277 7.05012C184.688 6.67274 184.011 6.45479 183.3 6.35679M185.277 7.05012C185.426 7.14553 185.569 7.25112 185.706 7.36754C185.783 7.43283 185.858 7.50032 185.932 7.56988M185.837 7.28624C186.021 7.39553 186.189 7.52945 186.349 7.68113M185.837 7.28624C185.526 6.48008 184.926 5.93195 183.976 6.13021C183.719 6.18401 183.495 6.26034 183.3 6.35679M185.837 7.28624C185.872 7.3777 185.904 7.47249 185.932 7.56988M186.349 7.68113C186.621 7.93968 186.867 8.24984 187.117 8.57768C187.468 9.03894 187.814 9.48737 188.124 9.94782M186.349 7.68113C186.272 7.04687 186.091 6.43283 185.804 5.89906C185.232 4.83243 184.021 4.0047 182.964 4.7773C182.45 5.15308 182.01 5.69284 181.637 6.32482M186.349 7.68113C186.363 7.80099 186.374 7.92158 186.381 8.04248M188.124 9.94782C188.606 10.6662 188.999 11.4138 189.183 12.2851M188.124 9.94782C188.171 9.83519 188.216 9.72498 188.258 9.61785C188.783 8.26272 189.034 6.26563 188.288 4.89692M188.124 9.94782C188.028 10.1729 187.92 10.4077 187.802 10.6467M189.183 12.2851C189.262 12.6601 189.302 13.0579 189.294 13.4862C189.276 14.4696 188.831 15.1981 188.185 15.7017M189.183 12.2851C189.522 11.7124 189.805 11.1044 190.018 10.4677C190.501 9.02469 190.49 7.42403 189.75 6.22659M189.183 12.2851C188.869 12.8138 188.508 13.3125 188.11 13.7759M188.185 15.7017C187.919 15.9093 187.619 16.0787 187.301 16.212M188.185 15.7017C189.771 14.578 190.74 12.5237 190.932 10.4405C191.09 8.72672 190.748 7.45467 189.75 6.22659M188.185 15.7017C187.912 15.8954 187.62 16.0615 187.311 16.1952M187.301 16.212C187.15 16.2752 186.995 16.3302 186.838 16.3774M187.301 16.212C187.304 16.2064 187.308 16.2008 187.311 16.1952M187.301 16.212C186.487 17.5017 185.183 18.0057 183.743 18.1636C182.253 18.327 180.845 18.237 179.609 17.5523M186.838 16.3774C186.296 16.5399 185.726 16.6088 185.197 16.5931C184.986 16.5869 184.789 16.5541 184.605 16.498M186.838 16.3774C186.943 16.3402 187.048 16.3011 187.154 16.26C187.207 16.2394 187.259 16.2178 187.311 16.1952M186.838 16.3774C185.823 16.7351 184.807 16.9103 183.842 16.8361M184.605 16.498C183.933 16.2933 183.433 15.7777 183.062 15.1046M184.605 16.498C185.897 15.8609 187.119 14.9272 188.11 13.7759M184.605 16.498C184.353 16.6222 184.098 16.7351 183.842 16.8361M183.062 15.1046C182.814 14.655 182.623 14.1352 182.478 13.5906M183.062 15.1046C183.082 15.1023 183.103 15.0999 183.124 15.0975C184.205 14.9713 185.333 14.5931 186 13.5746C186.131 13.3759 186.24 13.1577 186.327 12.9277M183.062 15.1046C182.458 15.1725 181.865 15.1977 181.284 14.9411C180.55 14.6171 180.214 13.9681 180.088 13.2205M182.478 13.5906C182.597 13.5597 182.716 13.5228 182.833 13.4804M182.478 13.5906C181.746 13.7808 180.998 13.7428 180.327 13.3706C180.243 13.3244 180.164 13.2743 180.088 13.2205M183.3 6.35679C182.757 6.2818 182.194 6.27704 181.637 6.32482M185.932 7.56988C186.045 7.96489 186.099 8.4028 186.099 8.83602C186.099 8.92788 186.094 9.01541 186.085 9.09897M185.932 7.56988C186.089 7.71831 186.239 7.87621 186.381 8.04248M186.085 9.09897C186.067 9.26287 186.032 9.4115 185.981 9.54764M186.085 9.09897C185.937 9.06986 185.763 9.07064 185.559 9.10796C185.524 9.11436 185.489 9.12144 185.455 9.1292M186.085 9.09897C186.18 9.1176 186.263 9.14846 186.337 9.18983M185.981 9.54764C185.833 9.94079 185.55 10.2298 185.154 10.4813C184.88 10.655 184.268 11.0919 183.927 10.9028C183.722 10.7889 183.595 10.6177 183.532 10.4233M185.981 9.54764C185.833 9.3747 185.658 9.23202 185.455 9.1292M185.981 9.54764C186.063 9.64332 186.136 9.74825 186.202 9.86084M183.532 10.4233C183.345 9.84359 183.73 9.05754 184.32 8.97199C184.765 8.90748 185.143 8.97142 185.455 9.1292M183.532 10.4233C183.223 10.8253 182.983 11.2915 182.842 11.7866C182.702 12.2748 182.682 12.9361 182.833 13.4804M183.532 10.4233C184.029 9.77677 184.708 9.29633 185.455 9.1292M186.202 9.86084C186.422 10.2424 186.548 10.7118 186.581 11.2058M186.202 9.86084C186.26 9.64266 186.306 9.41803 186.337 9.18983M186.202 9.86084C186.158 10.0217 186.108 10.179 186.05 10.3317C185.849 10.859 185.523 11.3838 185.115 11.8567M186.581 11.2058C186.619 11.7795 186.533 12.3864 186.327 12.9277M186.581 11.2058C186.871 10.4377 186.9 9.50635 186.337 9.18983M186.581 11.2058C186.56 11.2598 186.539 11.313 186.516 11.3651C186.33 11.7869 185.611 12.9836 185.209 12.1129C185.169 12.026 185.138 11.9408 185.115 11.8567M186.327 12.9277C186.913 12.2434 187.416 11.4223 187.802 10.6467M186.327 12.9277C185.708 13.6512 184.996 14.2219 184.234 14.4244C183.454 14.6316 183.017 14.1426 182.833 13.4804M180.088 13.2205C178.327 11.9678 178.667 8.74248 179.654 6.70701M181.637 6.32482C180.952 6.38363 180.275 6.52203 179.654 6.70701M186.381 8.04248C186.404 8.42606 186.389 8.81282 186.337 9.18983M186.381 8.04248C187.013 8.77827 187.499 9.67802 187.802 10.6467M185.115 11.8567C184.495 12.5745 183.685 13.1731 182.833 13.4804M185.115 11.8567C185.013 11.4889 185.059 11.1416 185.129 10.7532M179.654 6.70701C179.871 6.26055 180.119 5.87133 180.382 5.57273C182.21 3.50031 186.005 3.64964 188.288 4.89692M179.654 6.70701C179.416 6.77815 179.185 6.85618 178.965 6.93923C178.698 7.0403 178.434 7.15446 178.177 7.28171M188.288 4.89692C188.432 4.97519 188.569 5.05778 188.699 5.14442C188.763 5.18639 188.824 5.22982 188.883 5.27466M188.288 4.89692C188.205 4.74364 188.109 4.59824 187.999 4.46251M188.883 5.27466C189.241 5.5458 189.528 5.86813 189.75 6.22659M188.883 5.27466C188.598 4.98693 188.304 4.71592 187.999 4.46251M188.883 5.27466C189.121 5.51441 189.353 5.76577 189.583 6.02823C189.64 6.09426 189.696 6.16036 189.75 6.22659M188.11 13.7759C188.232 12.7293 188.115 11.651 187.802 10.6467M188.11 13.7759C188.034 14.4202 187.868 15.0526 187.601 15.6481C187.513 15.8445 187.416 16.0265 187.311 16.1952M183.842 16.8361C183.699 16.8926 183.556 16.9453 183.412 16.9943C182.288 17.3771 180.944 17.5996 179.609 17.5523M183.842 16.8361C182.336 16.7203 180.955 15.9966 179.904 14.4108C178.761 12.6871 177.864 10.1386 178.063 7.97261C178.086 7.73126 178.124 7.5011 178.177 7.28171M179.609 17.5523C177.859 17.4903 176.122 16.9649 174.911 15.7297C173.661 14.456 173.854 12.4722 174.555 10.9436C174.889 10.2163 175.324 9.57557 175.835 9.02127M179.609 17.5523C179.078 17.2583 178.579 16.8547 178.119 16.3144C176.383 14.2787 175.873 11.6796 175.835 9.02127M175.835 9.02127C176.506 8.29169 177.308 7.71187 178.177 7.28171M175.835 9.02127C175.825 8.3714 175.844 7.71799 175.88 7.0684C176.019 4.54534 178.965 3.46374 180.86 3.03008C182.49 2.6572 184.712 2.47586 186.264 3.29522C186.424 3.37945 186.58 3.46748 186.732 3.55923M178.177 7.28171C178.767 4.85154 181.164 3.74265 183.289 3.3836C184.322 3.20907 185.646 3.13463 186.732 3.55923M186.732 3.55923C187.181 3.82882 187.6 4.13057 187.999 4.46251M186.732 3.55923C187.156 3.72495 187.544 3.9667 187.865 4.3082C187.912 4.3581 187.957 4.40957 187.999 4.46251" stroke="#F2C857" stroke-linecap="round"></path>
  </symbol>
<symbol id="icon-wave-m-y" fill="none" viewBox="0 0 301 20" >
    <path d="M150.5 14.9656C145.763 16.6952 136.72 16.6951 126.384 11.5067C99.685 -2.32961 95.8092 5.02091 82.4595 11.5067C69.1098 17.9924 68.6792 15.832 58.3439 9.77696C49.0135 4.29965 26.9075 -3.02263 13.1272 11.5067C9.89746 14.8797 7.24105 15.3579 1.5 14.5342" stroke="#F2C857" stroke-width="2" stroke-dasharray="4 4"></path>
    <path d="M161.5 6.75151C164.838 4.87032 181.09 -1.06141 191.538 6.75151C202.421 12.8291 208.951 15 218.528 15C226.19 15 234.781 9.79032 238.989 6.75151C249.437 -2.79906 260.93 4.1467 272.074 9.35615C283.219 14.5656 295.002 11.5268 299.5 9.35615" stroke="#F2C857" stroke-width="2" stroke-dasharray="4 4"></path>
    <path d="M162.485 1C158.712 1 156.083 1.35522 152.564 2.95086C148.44 4.8209 149.039 9.3033 150.395 13.0598C151.993 17.487 158.268 20.1442 162.342 18.5183C164.689 17.5819 165.9 15.6518 166.485 13.0598C166.879 11.312 167.547 8.82144 166.183 7.38462C163.249 4.29599 156.678 1.89126 154.36 7.02992C153.856 8.14673 153.648 10.7911 154.022 11.976C154.866 14.6493 159.461 14.1239 161.453 14.1239C164.816 14.1239 165.493 10.158 162.307 8.98078C159.966 8.1158 157.565 8.13736 156.724 10.9316M155.824 8.30574C155.792 8.30067 155.776 8.28809 155.772 8.27114M155.772 8.27114C155.768 8.25034 155.78 8.22296 155.798 8.19479M155.772 8.27114C155.366 9.48415 155.132 10.7652 155.051 11.8002C155.013 12.2762 155.012 12.7665 155.088 13.2205M155.772 8.27114C155.781 8.24566 155.79 8.22021 155.798 8.19479M155.798 8.19479C155.829 8.14799 155.878 8.09904 155.897 8.07459C156.345 7.50044 156.829 7.16277 157.518 7.04884M155.798 8.19479C156.025 7.53183 156.304 6.89128 156.637 6.32482M157.518 7.04884L157.523 7.04801C158.31 6.91904 159.191 6.89613 159.982 6.99362C160.085 7.00625 160.183 7.02527 160.277 7.05012M157.518 7.04884C157.042 7.78611 157.023 8.85825 157.038 10.0326C157.051 10.9895 157.148 12.3538 157.478 13.5906M157.518 7.04884C157.702 6.7635 157.955 6.52832 158.3 6.35679M160.277 7.05012C160.48 7.10364 160.665 7.18421 160.837 7.28624M160.277 7.05012C159.688 6.67274 159.011 6.45479 158.3 6.35679M160.277 7.05012C160.426 7.14553 160.569 7.25112 160.706 7.36754C160.783 7.43283 160.858 7.50032 160.932 7.56988M160.837 7.28624C161.021 7.39553 161.189 7.52945 161.349 7.68113M160.837 7.28624C160.526 6.48008 159.926 5.93195 158.976 6.13021C158.719 6.18401 158.495 6.26034 158.3 6.35679M160.837 7.28624C160.872 7.3777 160.904 7.47249 160.932 7.56988M161.349 7.68113C161.621 7.93968 161.867 8.24984 162.117 8.57768C162.468 9.03894 162.814 9.48737 163.124 9.94782M161.349 7.68113C161.272 7.04687 161.091 6.43283 160.804 5.89906C160.232 4.83243 159.021 4.0047 157.964 4.7773C157.45 5.15308 157.01 5.69284 156.637 6.32482M161.349 7.68113C161.363 7.80099 161.374 7.92158 161.381 8.04248M163.124 9.94782C163.606 10.6662 163.999 11.4138 164.183 12.2851M163.124 9.94782C163.171 9.83519 163.216 9.72498 163.258 9.61785C163.783 8.26272 164.034 6.26563 163.288 4.89692M163.124 9.94782C163.028 10.1729 162.92 10.4077 162.802 10.6467M164.183 12.2851C164.262 12.6601 164.302 13.0579 164.294 13.4862C164.276 14.4696 163.831 15.1981 163.185 15.7017M164.183 12.2851C164.522 11.7124 164.805 11.1044 165.018 10.4677C165.501 9.02469 165.49 7.42403 164.75 6.22659M164.183 12.2851C163.869 12.8138 163.508 13.3125 163.11 13.7759M163.185 15.7017C162.919 15.9093 162.619 16.0787 162.301 16.212M163.185 15.7017C164.771 14.578 165.74 12.5237 165.932 10.4405C166.09 8.72672 165.748 7.45467 164.75 6.22659M163.185 15.7017C162.912 15.8954 162.62 16.0615 162.311 16.1952M162.301 16.212C162.15 16.2752 161.995 16.3302 161.838 16.3774M162.301 16.212C162.304 16.2064 162.308 16.2008 162.311 16.1952M162.301 16.212C161.487 17.5017 160.183 18.0057 158.743 18.1636C157.253 18.327 155.845 18.237 154.609 17.5523M161.838 16.3774C161.296 16.5399 160.726 16.6088 160.197 16.5931C159.986 16.5869 159.789 16.5541 159.605 16.498M161.838 16.3774C161.943 16.3402 162.048 16.3011 162.154 16.26C162.207 16.2394 162.259 16.2178 162.311 16.1952M161.838 16.3774C160.823 16.7351 159.807 16.9103 158.842 16.8361M159.605 16.498C158.933 16.2933 158.433 15.7777 158.062 15.1046M159.605 16.498C160.897 15.8609 162.119 14.9272 163.11 13.7759M159.605 16.498C159.353 16.6222 159.098 16.7351 158.842 16.8361M158.062 15.1046C157.814 14.655 157.623 14.1352 157.478 13.5906M158.062 15.1046C158.082 15.1023 158.103 15.0999 158.124 15.0975C159.205 14.9713 160.333 14.5931 161 13.5746C161.131 13.3759 161.24 13.1577 161.327 12.9277M158.062 15.1046C157.458 15.1725 156.865 15.1977 156.284 14.9411C155.55 14.6171 155.214 13.9681 155.088 13.2205M157.478 13.5906C157.597 13.5597 157.716 13.5228 157.833 13.4804M157.478 13.5906C156.746 13.7808 155.998 13.7428 155.327 13.3706C155.243 13.3244 155.164 13.2743 155.088 13.2205M158.3 6.35679C157.757 6.2818 157.194 6.27704 156.637 6.32482M160.932 7.56988C161.045 7.96489 161.099 8.4028 161.099 8.83602C161.099 8.92788 161.094 9.01541 161.085 9.09897M160.932 7.56988C161.089 7.71831 161.239 7.87621 161.381 8.04248M161.085 9.09897C161.067 9.26287 161.032 9.4115 160.981 9.54764M161.085 9.09897C160.937 9.06986 160.763 9.07064 160.559 9.10796C160.524 9.11436 160.489 9.12144 160.455 9.1292M161.085 9.09897C161.18 9.1176 161.263 9.14846 161.337 9.18983M160.981 9.54764C160.833 9.94079 160.55 10.2298 160.154 10.4813C159.88 10.655 159.268 11.0919 158.927 10.9028C158.722 10.7889 158.595 10.6177 158.532 10.4233M160.981 9.54764C160.833 9.3747 160.658 9.23202 160.455 9.1292M160.981 9.54764C161.063 9.64332 161.136 9.74825 161.202 9.86084M158.532 10.4233C158.345 9.84359 158.73 9.05754 159.32 8.97199C159.765 8.90748 160.143 8.97142 160.455 9.1292M158.532 10.4233C158.223 10.8253 157.983 11.2915 157.842 11.7866C157.702 12.2748 157.682 12.9361 157.833 13.4804M158.532 10.4233C159.029 9.77677 159.708 9.29633 160.455 9.1292M161.202 9.86084C161.422 10.2424 161.548 10.7118 161.581 11.2058M161.202 9.86084C161.26 9.64266 161.306 9.41803 161.337 9.18983M161.202 9.86084C161.158 10.0217 161.108 10.179 161.05 10.3317C160.849 10.859 160.523 11.3838 160.115 11.8567M161.581 11.2058C161.619 11.7795 161.533 12.3864 161.327 12.9277M161.581 11.2058C161.871 10.4377 161.9 9.50635 161.337 9.18983M161.581 11.2058C161.56 11.2598 161.539 11.313 161.516 11.3651C161.33 11.7869 160.611 12.9836 160.209 12.1129C160.169 12.026 160.138 11.9408 160.115 11.8567M161.327 12.9277C161.913 12.2434 162.416 11.4223 162.802 10.6467M161.327 12.9277C160.708 13.6512 159.996 14.2219 159.234 14.4244C158.454 14.6316 158.017 14.1426 157.833 13.4804M155.088 13.2205C153.327 11.9678 153.667 8.74248 154.654 6.70701M156.637 6.32482C155.952 6.38363 155.275 6.52203 154.654 6.70701M161.381 8.04248C161.404 8.42606 161.389 8.81282 161.337 9.18983M161.381 8.04248C162.013 8.77827 162.499 9.67802 162.802 10.6467M160.115 11.8567C159.495 12.5745 158.685 13.1731 157.833 13.4804M160.115 11.8567C160.013 11.4889 160.059 11.1416 160.129 10.7532M154.654 6.70701C154.871 6.26055 155.119 5.87133 155.382 5.57273C157.21 3.50031 161.005 3.64964 163.288 4.89692M154.654 6.70701C154.416 6.77815 154.185 6.85618 153.965 6.93923C153.698 7.0403 153.434 7.15446 153.177 7.28171M163.288 4.89692C163.432 4.97519 163.569 5.05778 163.699 5.14442C163.763 5.18639 163.824 5.22982 163.883 5.27466M163.288 4.89692C163.205 4.74364 163.109 4.59824 162.999 4.46251M163.883 5.27466C164.241 5.5458 164.528 5.86813 164.75 6.22659M163.883 5.27466C163.598 4.98693 163.304 4.71592 162.999 4.46251M163.883 5.27466C164.121 5.51441 164.353 5.76577 164.583 6.02823C164.64 6.09426 164.696 6.16036 164.75 6.22659M163.11 13.7759C163.232 12.7293 163.115 11.651 162.802 10.6467M163.11 13.7759C163.034 14.4202 162.868 15.0526 162.601 15.6481C162.513 15.8445 162.416 16.0265 162.311 16.1952M158.842 16.8361C158.699 16.8926 158.556 16.9453 158.412 16.9943C157.288 17.3771 155.944 17.5996 154.609 17.5523M158.842 16.8361C157.336 16.7203 155.955 15.9966 154.904 14.4108C153.761 12.6871 152.864 10.1386 153.063 7.97261C153.086 7.73126 153.124 7.5011 153.177 7.28171M154.609 17.5523C152.859 17.4903 151.122 16.9649 149.911 15.7297C148.661 14.456 148.854 12.4722 149.555 10.9436C149.889 10.2163 150.324 9.57557 150.835 9.02127M154.609 17.5523C154.078 17.2583 153.579 16.8547 153.119 16.3144C151.383 14.2787 150.873 11.6796 150.835 9.02127M150.835 9.02127C151.506 8.29169 152.308 7.71187 153.177 7.28171M150.835 9.02127C150.825 8.3714 150.844 7.71799 150.88 7.0684C151.019 4.54534 153.965 3.46374 155.86 3.03008C157.49 2.6572 159.712 2.47586 161.264 3.29522C161.424 3.37945 161.58 3.46748 161.732 3.55923M153.177 7.28171C153.767 4.85154 156.164 3.74265 158.289 3.3836C159.322 3.20907 160.646 3.13463 161.732 3.55923M161.732 3.55923C162.181 3.82882 162.6 4.13057 162.999 4.46251M161.732 3.55923C162.156 3.72495 162.544 3.9667 162.865 4.3082C162.912 4.3581 162.957 4.40957 162.999 4.46251" stroke="#F2C857" stroke-linecap="round"></path>
  </symbol>
<symbol id="icon-wave-s-y" fill="none" viewBox="0 0 201 20" >
    <path d="M98.5 13.2839C95.4162 14.4813 89.5289 14.4812 82.8006 10.8892C65.4191 1.31027 62.896 6.39909 54.2052 10.8892C45.5144 15.3794 45.2341 13.8837 38.5058 9.69174C32.4316 5.89976 18.0405 0.83049 9.06936 10.8892C6.9668 13.2244 5.23746 13.5555 1.5 12.9852" stroke="#F2C857" stroke-width="2" stroke-dasharray="4 4"></path>
    <path d="M106.5 7.2895C108.749 5.98714 119.702 1.88056 126.743 7.2895C134.077 11.4971 138.478 13 144.932 13C150.096 13 155.885 9.3933 158.721 7.2895C165.762 0.677571 173.507 5.48618 181.017 9.09272C188.528 12.6993 196.468 10.5954 199.5 9.09272" stroke="#F2C857" stroke-width="2" stroke-dasharray="4 4"></path>
    <path d="M107.485 1C103.712 1 101.083 1.35522 97.564 2.95086C93.4398 4.8209 94.0393 9.3033 95.395 13.0598C96.9927 17.487 103.268 20.1442 107.342 18.5183C109.689 17.5819 110.9 15.6518 111.485 13.0598C111.879 11.312 112.547 8.82144 111.183 7.38462C108.249 4.29599 101.678 1.89126 99.3597 7.02992C98.8559 8.14673 98.6477 10.7911 99.0219 11.976C99.866 14.6493 104.461 14.1239 106.453 14.1239C109.816 14.1239 110.493 10.158 107.307 8.98078C104.966 8.1158 102.565 8.13736 101.724 10.9316M100.824 8.30574C100.792 8.30067 100.776 8.28809 100.772 8.27114M100.772 8.27114C100.768 8.25034 100.78 8.22296 100.798 8.19479M100.772 8.27114C100.366 9.48415 100.132 10.7652 100.051 11.8002C100.013 12.2762 100.012 12.7665 100.088 13.2205M100.772 8.27114C100.781 8.24566 100.79 8.22021 100.798 8.19479M100.798 8.19479C100.829 8.14799 100.878 8.09904 100.897 8.07459C101.345 7.50044 101.829 7.16277 102.518 7.04884M100.798 8.19479C101.025 7.53183 101.304 6.89128 101.637 6.32482M102.518 7.04884L102.523 7.04801C103.31 6.91904 104.191 6.89613 104.982 6.99362C105.085 7.00625 105.183 7.02527 105.277 7.05012M102.518 7.04884C102.042 7.78611 102.023 8.85825 102.038 10.0326C102.051 10.9895 102.148 12.3538 102.478 13.5906M102.518 7.04884C102.702 6.7635 102.955 6.52832 103.3 6.35679M105.277 7.05012C105.48 7.10364 105.665 7.18421 105.837 7.28624M105.277 7.05012C104.688 6.67274 104.011 6.45479 103.3 6.35679M105.277 7.05012C105.426 7.14553 105.569 7.25112 105.706 7.36754C105.783 7.43283 105.858 7.50032 105.932 7.56988M105.837 7.28624C106.021 7.39553 106.189 7.52945 106.349 7.68113M105.837 7.28624C105.526 6.48008 104.926 5.93195 103.976 6.13021C103.719 6.18401 103.495 6.26034 103.3 6.35679M105.837 7.28624C105.872 7.3777 105.904 7.47249 105.932 7.56988M106.349 7.68113C106.621 7.93968 106.867 8.24984 107.117 8.57768C107.468 9.03894 107.814 9.48737 108.124 9.94782M106.349 7.68113C106.272 7.04687 106.091 6.43283 105.804 5.89906C105.232 4.83243 104.021 4.0047 102.964 4.7773C102.45 5.15308 102.01 5.69284 101.637 6.32482M106.349 7.68113C106.363 7.80099 106.374 7.92158 106.381 8.04248M108.124 9.94782C108.606 10.6662 108.999 11.4138 109.183 12.2851M108.124 9.94782C108.171 9.83519 108.216 9.72498 108.258 9.61785C108.783 8.26272 109.034 6.26563 108.288 4.89692M108.124 9.94782C108.028 10.1729 107.92 10.4077 107.802 10.6467M109.183 12.2851C109.262 12.6601 109.302 13.0579 109.294 13.4862C109.276 14.4696 108.831 15.1981 108.185 15.7017M109.183 12.2851C109.522 11.7124 109.805 11.1044 110.018 10.4677C110.501 9.02469 110.49 7.42403 109.75 6.22659M109.183 12.2851C108.869 12.8138 108.508 13.3125 108.11 13.7759M108.185 15.7017C107.919 15.9093 107.619 16.0787 107.301 16.212M108.185 15.7017C109.771 14.578 110.74 12.5237 110.932 10.4405C111.09 8.72672 110.748 7.45467 109.75 6.22659M108.185 15.7017C107.912 15.8954 107.62 16.0615 107.311 16.1952M107.301 16.212C107.15 16.2752 106.995 16.3302 106.838 16.3774M107.301 16.212C107.304 16.2064 107.308 16.2008 107.311 16.1952M107.301 16.212C106.487 17.5017 105.183 18.0057 103.743 18.1636C102.253 18.327 100.845 18.237 99.6091 17.5523M106.838 16.3774C106.296 16.5399 105.726 16.6088 105.197 16.5931C104.986 16.5869 104.789 16.5541 104.605 16.498M106.838 16.3774C106.943 16.3402 107.048 16.3011 107.154 16.26C107.207 16.2394 107.259 16.2178 107.311 16.1952M106.838 16.3774C105.823 16.7351 104.807 16.9103 103.842 16.8361M104.605 16.498C103.933 16.2933 103.433 15.7777 103.062 15.1046M104.605 16.498C105.897 15.8609 107.119 14.9272 108.11 13.7759M104.605 16.498C104.353 16.6222 104.098 16.7351 103.842 16.8361M103.062 15.1046C102.814 14.655 102.623 14.1352 102.478 13.5906M103.062 15.1046C103.082 15.1023 103.103 15.0999 103.124 15.0975C104.205 14.9713 105.333 14.5931 106 13.5746C106.131 13.3759 106.24 13.1577 106.327 12.9277M103.062 15.1046C102.458 15.1725 101.865 15.1977 101.284 14.9411C100.55 14.6171 100.214 13.9681 100.088 13.2205M102.478 13.5906C102.597 13.5597 102.716 13.5228 102.833 13.4804M102.478 13.5906C101.746 13.7808 100.998 13.7428 100.327 13.3706C100.243 13.3244 100.164 13.2743 100.088 13.2205M103.3 6.35679C102.757 6.2818 102.194 6.27704 101.637 6.32482M105.932 7.56988C106.045 7.96489 106.099 8.4028 106.099 8.83602C106.099 8.92788 106.094 9.01541 106.085 9.09897M105.932 7.56988C106.089 7.71831 106.239 7.87621 106.381 8.04248M106.085 9.09897C106.067 9.26287 106.032 9.4115 105.981 9.54764M106.085 9.09897C105.937 9.06986 105.763 9.07064 105.559 9.10796C105.524 9.11436 105.489 9.12144 105.455 9.1292M106.085 9.09897C106.18 9.1176 106.263 9.14846 106.337 9.18983M105.981 9.54764C105.833 9.94079 105.55 10.2298 105.154 10.4813C104.88 10.655 104.268 11.0919 103.927 10.9028C103.722 10.7889 103.595 10.6177 103.532 10.4233M105.981 9.54764C105.833 9.3747 105.658 9.23202 105.455 9.1292M105.981 9.54764C106.063 9.64332 106.136 9.74825 106.202 9.86084M103.532 10.4233C103.345 9.84359 103.73 9.05754 104.32 8.97199C104.765 8.90748 105.143 8.97142 105.455 9.1292M103.532 10.4233C103.223 10.8253 102.983 11.2915 102.842 11.7866C102.702 12.2748 102.682 12.9361 102.833 13.4804M103.532 10.4233C104.029 9.77677 104.708 9.29633 105.455 9.1292M106.202 9.86084C106.422 10.2424 106.548 10.7118 106.581 11.2058M106.202 9.86084C106.26 9.64266 106.306 9.41803 106.337 9.18983M106.202 9.86084C106.158 10.0217 106.108 10.179 106.05 10.3317C105.849 10.859 105.523 11.3838 105.115 11.8567M106.581 11.2058C106.619 11.7795 106.533 12.3864 106.327 12.9277M106.581 11.2058C106.871 10.4377 106.9 9.50635 106.337 9.18983M106.581 11.2058C106.56 11.2598 106.539 11.313 106.516 11.3651C106.33 11.7869 105.611 12.9836 105.209 12.1129C105.169 12.026 105.138 11.9408 105.115 11.8567M106.327 12.9277C106.913 12.2434 107.416 11.4223 107.802 10.6467M106.327 12.9277C105.708 13.6512 104.996 14.2219 104.234 14.4244C103.454 14.6316 103.017 14.1426 102.833 13.4804M100.088 13.2205C98.3269 11.9678 98.6672 8.74248 99.6544 6.70701M101.637 6.32482C100.952 6.38363 100.275 6.52203 99.6544 6.70701M106.381 8.04248C106.404 8.42606 106.389 8.81282 106.337 9.18983M106.381 8.04248C107.013 8.77827 107.499 9.67802 107.802 10.6467M105.115 11.8567C104.495 12.5745 103.685 13.1731 102.833 13.4804M105.115 11.8567C105.013 11.4889 105.059 11.1416 105.129 10.7532M99.6544 6.70701C99.8709 6.26055 100.119 5.87133 100.382 5.57273C102.21 3.50031 106.005 3.64964 108.288 4.89692M99.6544 6.70701C99.4155 6.77815 99.1849 6.85618 98.9651 6.93923C98.6976 7.0403 98.4345 7.15446 98.1773 7.28171M108.288 4.89692C108.432 4.97519 108.569 5.05778 108.699 5.14442C108.763 5.18639 108.824 5.22982 108.883 5.27466M108.288 4.89692C108.205 4.74364 108.109 4.59824 107.999 4.46251M108.883 5.27466C109.241 5.5458 109.528 5.86813 109.75 6.22659M108.883 5.27466C108.598 4.98693 108.304 4.71592 107.999 4.46251M108.883 5.27466C109.121 5.51441 109.353 5.76577 109.583 6.02823C109.64 6.09426 109.696 6.16036 109.75 6.22659M108.11 13.7759C108.232 12.7293 108.115 11.651 107.802 10.6467M108.11 13.7759C108.034 14.4202 107.868 15.0526 107.601 15.6481C107.513 15.8445 107.416 16.0265 107.311 16.1952M103.842 16.8361C103.699 16.8926 103.556 16.9453 103.412 16.9943C102.288 17.3771 100.944 17.5996 99.6091 17.5523M103.842 16.8361C102.336 16.7203 100.955 15.9966 99.9036 14.4108C98.7609 12.6871 97.8642 10.1386 98.0634 7.97261C98.0856 7.73126 98.1241 7.5011 98.1773 7.28171M99.6091 17.5523C97.8588 17.4903 96.1223 16.9649 94.9107 15.7297C93.6611 14.456 93.8538 12.4722 94.5549 10.9436C94.8885 10.2163 95.3241 9.57557 95.8345 9.02127M99.6091 17.5523C99.0783 17.2583 98.5792 16.8547 98.1186 16.3144C96.3834 14.2787 95.8731 11.6796 95.8345 9.02127M95.8345 9.02127C96.5064 8.29169 97.3079 7.71187 98.1773 7.28171M95.8345 9.02127C95.8251 8.3714 95.8439 7.71799 95.8798 7.0684C96.0195 4.54534 98.9648 3.46374 100.86 3.03008C102.49 2.6572 104.712 2.47586 106.264 3.29522C106.424 3.37945 106.58 3.46748 106.732 3.55923M98.1773 7.28171C98.7666 4.85154 101.164 3.74265 103.289 3.3836C104.322 3.20907 105.646 3.13463 106.732 3.55923M106.732 3.55923C107.181 3.82882 107.6 4.13057 107.999 4.46251M106.732 3.55923C107.156 3.72495 107.544 3.9667 107.865 4.3082C107.912 4.3581 107.957 4.40957 107.999 4.46251" stroke="#F2C857" stroke-linecap="round"></path>
  </symbol>
<symbol id="icon-mail" viewBox="0 0 32 32">
<path d="M6.644 6.857h18.711c0.853 0 1.671 0.363 2.274 1.010s0.942 1.523 0.942 2.437v12.535c0 0.914-0.339 1.791-0.942 2.437s-1.421 1.010-2.274 1.010h-18.711c-0.853 0-1.671-0.363-2.274-1.010s-0.942-1.523-0.942-2.437v-12.535c0-0.914 0.339-1.791 0.942-2.437s1.421-1.010 2.274-1.010zM10.656 12.041c-0.191-0.133-0.422-0.182-0.646-0.136s-0.421 0.184-0.552 0.384c-0.131 0.2-0.184 0.446-0.148 0.687s0.158 0.458 0.34 0.604l5.847 4.387c0.147 0.11 0.323 0.17 0.503 0.17s0.355-0.059 0.503-0.17l5.847-4.387c0.099-0.069 0.183-0.158 0.249-0.263s0.111-0.222 0.133-0.346c0.022-0.124 0.021-0.251-0.003-0.374s-0.072-0.24-0.139-0.343c-0.067-0.103-0.154-0.191-0.253-0.258s-0.211-0.111-0.327-0.131-0.235-0.014-0.349 0.016c-0.114 0.030-0.221 0.085-0.315 0.161l-5.344 4.010-5.344-4.010z"></path>
</symbol>
<symbol id="icon-phone" viewBox="0 0 32 32">
<path d="M23.229 19.449l3.814 3.814c0.122 0.122 0.219 0.267 0.286 0.426s0.1 0.33 0.1 0.503c0 0.173-0.034 0.344-0.1 0.503s-0.163 0.304-0.286 0.426c-1.341 1.341-3.121 2.154-5.013 2.288s-3.769-0.418-5.286-1.557l-2.268-1.702c-2.511-1.883-4.742-4.114-6.625-6.625l-1.702-2.268c-1.138-1.517-1.691-3.394-1.557-5.286s0.947-3.672 2.288-5.013c0.122-0.122 0.267-0.219 0.426-0.286s0.33-0.1 0.503-0.1c0.173 0 0.344 0.034 0.503 0.1s0.304 0.163 0.426 0.286l3.814 3.814c0.27 0.27 0.422 0.636 0.422 1.018s-0.152 0.748-0.422 1.018l-1.47 1.47c-0.115 0.114-0.191 0.261-0.216 0.42s-0.001 0.323 0.072 0.467c1.709 3.418 4.48 6.189 7.898 7.898 0.144 0.073 0.308 0.098 0.467 0.072s0.306-0.102 0.42-0.216l1.469-1.469c0.134-0.134 0.293-0.24 0.467-0.313s0.362-0.11 0.552-0.11c0.189 0 0.377 0.037 0.552 0.11s0.334 0.179 0.467 0.313v-0.001z"></path>
</symbol>
<symbol id="icon-youtube" viewBox="0 0 32 32">
<path d="M16.307 5.714c0.671 0.004 2.351 0.021 4.136 0.094l0.634 0.028c1.797 0.086 3.592 0.235 4.483 0.489 1.188 0.342 2.121 1.337 2.436 2.6 0.503 2.006 0.566 5.917 0.573 6.865l0.001 0.195v0.224c-0.009 0.948-0.072 4.86-0.575 6.865-0.319 1.267-1.253 2.263-2.436 2.6-0.891 0.253-2.687 0.402-4.483 0.489l-0.634 0.030c-1.785 0.072-3.465 0.090-4.136 0.093l-0.295 0.001h-0.321c-1.421-0.009-7.362-0.075-9.253-0.612-1.187-0.342-2.121-1.337-2.436-2.6-0.503-2.006-0.566-5.917-0.573-6.865v-0.419c0.008-0.948 0.070-4.86 0.573-6.865 0.319-1.266 1.253-2.263 2.438-2.599 1.89-0.539 7.832-0.604 9.253-0.612h0.615zM13.485 11.5v9.001l7.543-4.5-7.543-4.5z"></path>
</symbol>
<symbol id="icon-tiktok" viewBox="0 0 32 32">
<path d="M25.578 3.429h-19.156c-0.794 0.001-1.555 0.316-2.116 0.878s-0.877 1.322-0.878 2.116v19.156c0 1.652 1.342 2.993 2.993 2.993h19.156c0.794-0.001 1.555-0.316 2.116-0.878s0.877-1.322 0.878-2.116v-19.156c-0.001-0.794-0.316-1.555-0.878-2.116s-1.322-0.877-2.116-0.878zM23.187 14.398c-0.881 0.086-1.768-0.095-2.545-0.518-0.656-0.354-1.213-0.866-1.62-1.489v6.906c0 1.009-0.299 1.996-0.86 2.836s-1.358 1.494-2.291 1.88c-0.933 0.386-1.959 0.487-2.949 0.29s-1.9-0.683-2.613-1.397-1.2-1.623-1.397-2.613c-0.197-0.99-0.096-2.016 0.29-2.949s1.040-1.73 1.88-2.291 1.826-0.86 2.836-0.86c0.106 0 0.21 0.010 0.314 0.015v2.516c-0.105-0.013-0.207-0.032-0.314-0.032-0.691 0-1.354 0.274-1.842 0.763s-0.763 1.151-0.763 1.842c0 0.691 0.274 1.354 0.763 1.842s1.151 0.763 1.842 0.763c1.439 0 2.71-1.133 2.71-2.572l0.025-11.731h2.407c0.11 1.045 0.584 2.019 1.339 2.75s1.743 1.174 2.791 1.252v2.796z"></path>
</symbol>
<symbol id="icon-linkedin" viewBox="0 0 32 32">
<path d="M24.381 3.429c1.111 0 2.177 0.442 2.963 1.227s1.227 1.852 1.227 2.963v16.762c0 1.111-0.442 2.177-1.227 2.963s-1.852 1.227-2.963 1.227h-16.762c-1.111 0-2.177-0.442-2.963-1.227s-1.227-1.852-1.227-2.963v-16.762c0-1.111 0.442-2.177 1.227-2.963s1.852-1.227 2.963-1.227h16.762zM10.413 13.206c-0.37 0-0.726 0.147-0.988 0.409s-0.409 0.617-0.409 0.988v6.984c0 0.37 0.147 0.726 0.409 0.988s0.617 0.409 0.988 0.409c0.37 0 0.726-0.147 0.988-0.409s0.409-0.617 0.409-0.988v-6.984c0-0.37-0.147-0.726-0.409-0.988s-0.617-0.409-0.988-0.409zM14.603 11.809c-0.37 0-0.726 0.147-0.988 0.409s-0.409 0.617-0.409 0.988v8.381c0 0.37 0.147 0.726 0.409 0.988s0.617 0.409 0.988 0.409c0.37 0 0.726-0.147 0.988-0.409s0.409-0.617 0.409-0.988v-5.112c0.426-0.481 1.145-1.045 1.946-1.387 0.465-0.198 1.165-0.279 1.651-0.126 0.161 0.041 0.305 0.133 0.409 0.263 0.073 0.098 0.184 0.316 0.184 0.775v5.587c0 0.37 0.147 0.726 0.409 0.988s0.617 0.409 0.988 0.409c0.37 0 0.726-0.147 0.988-0.409s0.409-0.617 0.409-0.988v-5.587c0-0.936-0.238-1.768-0.732-2.436-0.455-0.605-1.092-1.049-1.817-1.267-1.26-0.395-2.655-0.176-3.587 0.223-0.298 0.128-0.589 0.274-0.87 0.436-0.059-0.322-0.228-0.613-0.479-0.822s-0.568-0.324-0.895-0.324zM10.413 9.016c-0.37 0-0.726 0.147-0.988 0.409s-0.409 0.617-0.409 0.988c0 0.37 0.147 0.726 0.409 0.988s0.617 0.409 0.988 0.409 0.726-0.147 0.988-0.409c0.262-0.262 0.409-0.617 0.409-0.988s-0.147-0.726-0.409-0.988c-0.262-0.262-0.617-0.409-0.988-0.409z"></path>
</symbol>
<symbol id="icon-facebook" viewBox="0 0 32 32">
<path d="M25.778 3.429h-19.556c-1.537 0-2.794 1.257-2.794 2.794v19.556c0 1.538 1.257 2.794 2.794 2.794h9.778v-9.778h-2.794v-3.457h2.794v-2.863c0-3.023 1.693-5.146 5.26-5.146l2.518 0.003v3.639h-1.672c-1.388 0-1.916 1.042-1.916 2.009v2.361h3.587l-0.793 3.456h-2.794v9.778h5.587c1.536 0 2.794-1.256 2.794-2.794v-19.556c0-1.537-1.257-2.794-2.794-2.794z"></path>
</symbol>
<symbol id="icon-instagram" viewBox="0 0 32 32">
<path d="M17.292 3.429c1.414 0.004 2.132 0.011 2.752 0.029l0.244 0.009c0.282 0.010 0.559 0.023 0.895 0.038 1.338 0.063 2.25 0.274 3.051 0.585 0.83 0.319 1.529 0.752 2.228 1.449 0.639 0.628 1.134 1.388 1.449 2.228 0.311 0.801 0.522 1.713 0.585 3.052 0.015 0.334 0.028 0.612 0.038 0.895l0.008 0.244c0.019 0.618 0.026 1.336 0.029 2.751l0.001 0.938v1.647c0.003 0.917-0.006 1.834-0.029 2.75l-0.008 0.244c-0.010 0.283-0.023 0.561-0.038 0.895-0.063 1.339-0.277 2.25-0.586 3.052-0.315 0.839-0.81 1.599-1.449 2.228-0.628 0.64-1.388 1.134-2.228 1.45-0.801 0.311-1.713 0.522-3.051 0.585l-0.895 0.038-0.244 0.008c-0.62 0.018-1.338 0.026-2.752 0.029l-2.583 0.001c-0.917 0.003-1.835-0.006-2.752-0.029l-0.244-0.008c-0.298-0.011-0.597-0.024-0.895-0.039-1.338-0.063-2.25-0.274-3.052-0.585-0.839-0.316-1.598-0.81-2.226-1.45-0.64-0.628-1.135-1.388-1.451-2.228-0.311-0.801-0.522-1.713-0.585-3.052l-0.038-0.895-0.006-0.244c-0.023-0.917-0.034-1.834-0.031-2.75v-2.585c-0.003-0.917 0.006-1.834 0.028-2.751l0.009-0.244c0.010-0.283 0.023-0.561 0.038-0.895 0.063-1.339 0.274-2.25 0.585-3.052 0.316-0.84 0.812-1.6 1.453-2.228 0.627-0.639 1.387-1.134 2.225-1.449 0.802-0.311 1.713-0.522 3.052-0.585 0.334-0.015 0.614-0.028 0.895-0.038l0.244-0.008c0.917-0.022 1.834-0.032 2.751-0.029l2.585-0.001zM16 9.714c-1.667 0-3.266 0.662-4.444 1.841s-1.841 2.778-1.841 4.445c0 1.667 0.662 3.266 1.841 4.445s2.777 1.841 4.444 1.841 3.266-0.662 4.444-1.841c1.179-1.179 1.841-2.777 1.841-4.445s-0.662-3.266-1.841-4.445c-1.179-1.179-2.777-1.841-4.444-1.841zM16 12.228c0.495-0 0.986 0.097 1.443 0.287s0.873 0.467 1.224 0.817c0.35 0.35 0.628 0.766 0.818 1.223s0.287 0.948 0.287 1.443c0 0.495-0.098 0.986-0.287 1.443s-0.467 0.873-0.817 1.224c-0.35 0.35-0.766 0.628-1.223 0.818s-0.948 0.287-1.443 0.287c-1 0-1.959-0.397-2.667-1.105s-1.105-1.666-1.105-2.667 0.397-1.959 1.105-2.667c0.707-0.707 1.666-1.105 2.667-1.105zM22.601 7.828c-0.417 0-0.816 0.166-1.111 0.46s-0.46 0.694-0.46 1.111 0.166 0.816 0.46 1.111c0.295 0.295 0.694 0.46 1.111 0.46s0.816-0.166 1.111-0.46c0.295-0.295 0.46-0.694 0.46-1.111s-0.166-0.816-0.46-1.111c-0.295-0.295-0.694-0.46-1.111-0.46z"></path>
</symbol>

</defs>
</svg>