<svg aria-hidden="true" style="position: absolute; width: 0; height: 0; overflow: hidden;" version="1.1" xmlns="http://www.w3.org/2000/svg" xmlns:xlink="http://www.w3.org/1999/xlink">
<defs>
<symbol id="icon-veggie-burger" viewBox="0 0 56 32">
<path fill="none" stroke-linejoin="miter" stroke-linecap="round" stroke-miterlimit="4" stroke-width="4" d="M4 4h48M4 28h48"></path>
</symbol>
<symbol id="icon-cross" viewBox="0 0 32 32">
<path d="M16 17.853l-13.729 13.729c-0.244 0.244-0.544 0.375-0.9 0.393s-0.673-0.113-0.953-0.393-0.419-0.588-0.419-0.926c0-0.338 0.14-0.647 0.419-0.926l13.729-13.729-13.729-13.729c-0.244-0.244-0.375-0.544-0.393-0.9s0.113-0.673 0.393-0.953c0.279-0.279 0.588-0.419 0.926-0.419s0.647 0.14 0.926 0.419l13.729 13.729 13.729-13.729c0.244-0.244 0.545-0.375 0.903-0.393 0.354-0.017 0.671 0.113 0.95 0.393s0.419 0.588 0.419 0.926c0 0.338-0.139 0.647-0.419 0.926l-13.729 13.729 13.729 13.729c0.244 0.244 0.375 0.545 0.393 0.903 0.017 0.354-0.113 0.671-0.393 0.95s-0.588 0.419-0.926 0.419c-0.338 0-0.647-0.139-0.926-0.419l-13.729-13.729z"></path>
</symbol>
</defs>
</svg>
