<svg aria-hidden="true" style="position: absolute; width: 0; height: 0; overflow: hidden;" version="1.1" xmlns="http://www.w3.org/2000/svg" xmlns:xlink="http://www.w3.org/1999/xlink">
<defs>
<symbol id="icon-veggie-burger" viewBox="0 0 56 32">
<path fill="none" stroke-linejoin="miter" stroke-linecap="round" stroke-miterlimit="4" stroke-width="4" d="M4 4h48M4 28h48"></path>
</symbol>
<symbol id="icon-cross" viewBox="0 0 32 32">
<path d="M16 17.853l-13.729 13.729c-0.244 0.244-0.544 0.375-0.9 0.393s-0.673-0.113-0.953-0.393-0.419-0.588-0.419-0.926c0-0.338 0.14-0.647 0.419-0.926l13.729-13.729-13.729-13.729c-0.244-0.244-0.375-0.544-0.393-0.9s0.113-0.673 0.393-0.953c0.279-0.279 0.588-0.419 0.926-0.419s0.647 0.14 0.926 0.419l13.729 13.729 13.729-13.729c0.244-0.244 0.545-0.375 0.903-0.393 0.354-0.017 0.671 0.113 0.95 0.393s0.419 0.588 0.419 0.926c0 0.338-0.139 0.647-0.419 0.926l-13.729 13.729 13.729 13.729c0.244 0.244 0.375 0.545 0.393 0.903 0.017 0.354-0.113 0.671-0.393 0.95s-0.588 0.419-0.926 0.419c-0.338 0-0.647-0.139-0.926-0.419l-13.729-13.729z"></path>
</symbol>
<symbol id="icon-arrow-right" viewBox="0 0 18 32">
<path d="M0 2.615l2.644-2.615 14.401 14.253c0.232 0.228 0.416 0.5 0.542 0.799s0.19 0.62 0.19 0.944c0 0.324-0.065 0.645-0.19 0.944s-0.31 0.571-0.542 0.799l-14.401 14.261-2.642-2.615 13.517-13.385-13.519-13.385z"></path>
</symbol>
<symbol id="icon-logo-black" viewBox="0 0 45 32">
<path fill="#c61818" style="fill: var(--color1, #c61818)" d="M36.187 24.304h-5.334v-1.285h5.334v1.285z"></path>
<path fill="#16080a" style="fill: var(--color2, #16080a)" d="M37.012 30.755h-1.281l-0-13.426h1.281l0 13.426z"></path>
<path fill="#16080a" style="fill: var(--color2, #16080a)" d="M31.493 29.487h-1.281v-10.857l-3.301 2.565-0.778-1.021 4.331-3.354 1.030 0.511v12.157z"></path>
<path fill="#16080a" style="fill: var(--color2, #16080a)" d="M42.522 17.848c-0.739 0-1.59 0.119-2.112 0.55-0.36 0.296-0.534 0.724-0.534 1.308 0 0.663 0.169 1.143 0.517 1.468 0.726 0.677 2.133 0.591 2.848 0.539v-3.829c-0.213-0.021-0.459-0.036-0.719-0.036zM33.548 31.999l-0.079-1.067c4.321-0.172 6.132-3.054 6.726-5.712 0.218-0.979 0.801-1.706 1.415-2.233-0.729-0.087-1.5-0.32-2.091-0.872-0.614-0.573-0.925-1.383-0.925-2.409 0-0.966 0.347-1.763 1.005-2.304 1.537-1.264 4.291-0.729 4.408-0.706l0.515 0.63v11.901h-1.281v-5.826c-0.677 0.396-1.563 1.065-1.795 2.099-0.421 1.885-2.45 6.498-7.897 6.498z"></path>
<path fill="#16080a" style="fill: var(--color2, #16080a)" d="M21.604 29.485l-1.226 0.001v-11.014l-1.364 0.903-0.675-1.026 2.315-1.533 0.951 0.512v12.157z"></path>
<path fill="#16080a" style="fill: var(--color2, #16080a)" d="M27.123 29.485h-1.281v-12.157h1.281v12.157z"></path>
<path fill="#16080a" style="fill: var(--color2, #16080a)" d="M26.27 24.304h-5.334v-1.285h5.334v1.285z"></path>
<path fill="#16080a" style="fill: var(--color2, #16080a)" d="M8.635 14.102h-1.132v-9.904c0-0.034 0.004-0.854 0.354-1.747 0.485-1.237 1.39-2.029 2.615-2.289 1.801-0.383 3.426-0.080 4.574 0.852 0.874 0.71 1.376 1.736 1.377 2.814 0 0.728-0.399 1.756-2.305 2.519-1.024 0.41-2.032 0.567-2.075 0.573l-0.17-1.123c0.009-0.001 0.937-0.147 1.841-0.511 0.72-0.29 1.577-0.779 1.577-1.458-0-0.734-0.349-1.438-0.957-1.932-0.878-0.713-2.166-0.935-3.627-0.624-2.034 0.433-2.072 2.826-2.072 2.927v9.903z"></path>
<path fill="#16080a" style="fill: var(--color2, #16080a)" d="M7.551 9.256h-5.334v-1.285h5.334v1.285z"></path>
<path fill="#16080a" style="fill: var(--color2, #16080a)" d="M3.265 14.131h-1.226v-11.014l-1.364 0.903-0.675-1.026 2.315-1.533 0.951 0.513v12.157z"></path>
<path fill="#16080a" style="fill: var(--color2, #16080a)" d="M15.892 4.188l3.462 9.928h-1.355l-2.928-8.386-2.564 8.38-1.383 0.006 2.679-8.657z"></path>
<path fill="#c61818" style="fill: var(--color1, #c61818)" d="M14.050 10.397l1.098-1.101 1.098 1.101-1.098 1.101-1.098-1.101z"></path>
<path fill="#16080a" style="fill: var(--color2, #16080a)" d="M24.73 15.073l-0.357-1.234 6.103-1.914 0.869 1.186-6.615 1.962z"></path>
<path fill="#16080a" style="fill: var(--color2, #16080a)" d="M16.988 10.603l-0.357-1.234 4.358-1.318 1.706 0.673-5.707 1.879z"></path>
<path fill="#16080a" style="fill: var(--color2, #16080a)" d="M24.914 13.866l-0.080-5.006c-0.53 0.537-1.22 0.82-2.009 0.82-0.873 0-1.598-0.327-2.155-0.971-0.746-0.862-1.151-2.272-1.206-4.19-0.039-1.37 0.119-2.498 0.125-2.546l1.311-0.001c-0.162 1.151-0.384 4.604 0.736 5.897 0.312 0.361 0.69 0.529 1.189 0.529 0.497 0 0.872-0.167 1.179-0.525 0.436-0.508 0.682-1.321 0.779-2.193 0.122-1.088-0.078-3.696-0.078-3.696l1.414-0.012c0 0.376 0 11.875 0 11.875l-1.206 0.019z"></path>
<path fill="#16080a" style="fill: var(--color2, #16080a)" d="M32.316 14.773c-0.683 0-1.286-0.276-1.793-0.822-1.057-1.138-1.683-3.519-1.861-7.079-0.129-2.574 0.025-4.806 0.031-4.899h1.29c-0.17 2.434-0.25 9.248 1.475 11.105 0.262 0.282 0.535 0.414 0.857 0.414 0.326 0 0.604-0.133 0.875-0.419 1.564-1.649 1.796-7.117 1.744-10.035l-0.056-1.064 1.301 0.013c0.002 0.033 0.016 0.326 0.026 0.804l0.385 11.789-1.278 0.042-0.087-2.657c-0.302 0.865-0.672 1.531-1.109 1.991-0.515 0.543-1.121 0.818-1.802 0.818z"></path>
<path fill="#16080a" style="fill: var(--color2, #16080a)" d="M35.141 15.073l-0.388-1.225 3.776-1.113 0.347 1.197-3.735 1.141z"></path>
</symbol>
<symbol id="icon-logo-white" viewBox="0 0 45 32">
<path fill="#f2c857" style="fill: var(--color1, #f2c857)" d="M36.204 24.304h-5.337v-1.285h5.337v1.285z"></path>
<path fill="#f5efe6" style="fill: var(--color2, #f5efe6)" d="M37.030 30.755h-1.282l-0-13.426h1.282l0 13.426z"></path>
<path fill="#f5efe6" style="fill: var(--color2, #f5efe6)" d="M31.508 29.487h-1.282v-10.857l-3.302 2.565-0.778-1.021 4.333-3.354 1.030 0.511v12.157z"></path>
<path fill="#f5efe6" style="fill: var(--color2, #f5efe6)" d="M42.542 17.848c-0.74 0-1.591 0.119-2.113 0.55-0.36 0.296-0.535 0.724-0.535 1.308 0 0.663 0.169 1.143 0.517 1.468 0.726 0.677 2.134 0.591 2.85 0.539v-3.829c-0.213-0.021-0.459-0.036-0.719-0.036zM33.564 31.999l-0.079-1.067c4.323-0.172 6.135-3.054 6.729-5.712 0.219-0.979 0.802-1.706 1.416-2.233-0.73-0.087-1.501-0.321-2.093-0.872-0.614-0.573-0.926-1.383-0.926-2.409 0-0.967 0.348-1.763 1.005-2.304 1.538-1.264 4.293-0.729 4.41-0.705l0.515 0.63v11.901h-1.282v-5.826c-0.677 0.396-1.564 1.065-1.796 2.099-0.421 1.885-2.451 6.498-7.901 6.498z"></path>
<path fill="#f5efe6" style="fill: var(--color2, #f5efe6)" d="M21.614 29.485l-1.226 0.001v-11.014l-1.365 0.903-0.676-1.026 2.316-1.533 0.951 0.512v12.157z"></path>
<path fill="#f5efe6" style="fill: var(--color2, #f5efe6)" d="M27.136 29.485h-1.282v-12.157h1.282v12.157z"></path>
<path fill="#f5efe6" style="fill: var(--color2, #f5efe6)" d="M26.282 24.304h-5.337v-1.285h5.337v1.285z"></path>
<path fill="#f5efe6" style="fill: var(--color2, #f5efe6)" d="M8.639 14.102h-1.133v-9.904c0-0.034 0.004-0.854 0.354-1.747 0.485-1.237 1.39-2.029 2.617-2.289 1.802-0.383 3.428-0.080 4.576 0.852 0.875 0.71 1.377 1.736 1.377 2.814 0 0.728-0.399 1.756-2.306 2.519-1.024 0.41-2.033 0.567-2.076 0.573l-0.17-1.123c0.009-0.001 0.938-0.147 1.841-0.511 0.72-0.29 1.578-0.779 1.578-1.458-0-0.734-0.349-1.438-0.958-1.932-0.878-0.713-2.167-0.935-3.629-0.624-2.035 0.433-2.073 2.826-2.073 2.927v9.903z"></path>
<path fill="#f5efe6" style="fill: var(--color2, #f5efe6)" d="M7.555 9.256h-5.337v-1.285h5.337v1.285z"></path>
<path fill="#f5efe6" style="fill: var(--color2, #f5efe6)" d="M3.267 14.131h-1.226v-11.014l-1.365 0.903-0.676-1.026 2.316-1.533 0.951 0.513v12.157z"></path>
<path fill="#f5efe6" style="fill: var(--color2, #f5efe6)" d="M15.899 4.188l3.464 9.928h-1.355l-2.929-8.386-2.565 8.38-1.384 0.006 2.68-8.657z"></path>
<path fill="#f2c857" style="fill: var(--color1, #f2c857)" d="M14.057 10.397l1.099-1.101 1.099 1.101-1.099 1.101-1.099-1.101z"></path>
<path fill="#f5efe6" style="fill: var(--color2, #f5efe6)" d="M24.741 15.073l-0.357-1.234 6.106-1.914 0.869 1.186-6.618 1.962z"></path>
<path fill="#f5efe6" style="fill: var(--color2, #f5efe6)" d="M16.996 10.603l-0.357-1.234 4.36-1.318 1.707 0.673-5.71 1.879z"></path>
<path fill="#f5efe6" style="fill: var(--color2, #f5efe6)" d="M24.926 13.866l-0.080-5.006c-0.53 0.537-1.221 0.82-2.010 0.82-0.873 0-1.598-0.327-2.156-0.971-0.746-0.862-1.152-2.272-1.207-4.19-0.039-1.37 0.119-2.498 0.125-2.546l1.312-0.001c-0.163 1.151-0.384 4.604 0.736 5.897 0.312 0.361 0.69 0.529 1.189 0.529 0.497 0 0.872-0.167 1.18-0.525 0.436-0.508 0.682-1.32 0.78-2.193 0.121-1.088-0.078-3.696-0.078-3.696l1.415-0.012c0 0.376 0 11.875 0 11.875l-1.207 0.019z"></path>
<path fill="#f5efe6" style="fill: var(--color2, #f5efe6)" d="M32.331 14.773c-0.683 0-1.287-0.276-1.794-0.822-1.058-1.138-1.684-3.519-1.862-7.079-0.129-2.574 0.025-4.806 0.031-4.899h1.291c-0.171 2.434-0.25 9.248 1.476 11.105 0.262 0.282 0.535 0.413 0.858 0.413 0.326 0 0.604-0.133 0.875-0.419 1.564-1.649 1.797-7.117 1.744-10.035l-0.056-1.064 1.301 0.013c0.002 0.033 0.016 0.326 0.026 0.804l0.385 11.789-1.278 0.042-0.087-2.657c-0.302 0.865-0.672 1.531-1.109 1.991-0.515 0.543-1.121 0.818-1.803 0.818z"></path>
<path fill="#f5efe6" style="fill: var(--color2, #f5efe6)" d="M35.158 15.073l-0.389-1.225 3.778-1.113 0.347 1.197-3.737 1.141z"></path>
</symbol>
<symbol id="icon-ornament1" viewBox="0 0 32 32">
<path fill="#b74028" style="fill: var(--color5, #b74028)" d="M32 0h0.36v-0.36h-0.36v0.36zM32 32v0.36h0.36v-0.36h-0.36zM0 0.36h32v-0.719h-32v0.719zM31.64 0v32h0.719v-32h-0.719zM32 31.64h-32v0.719h32v-0.719z"></path>
<path fill="#000" style="fill: var(--color6, #000)" d="M1.438 12.225l3.236 4.135-3.236 3.775v-7.91z"></path>
<path fill="#000" style="fill: var(--color6, #000)" d="M19.775 1.438l-4.135 3.236-3.775-3.236h7.91z"></path>
<path fill="#000" style="fill: var(--color6, #000)" d="M30.562 12.225l-3.236 4.135 3.236 3.775v-7.91z"></path>
<path fill="#000" style="fill: var(--color6, #000)" d="M19.775 30.562l-4.135-3.236-3.775 3.236h7.91z"></path>
<path fill="#000" style="fill: var(--color6, #000)" d="M6.831 5.393c0 0.993-0.805 1.798-1.798 1.798s-1.798-0.805-1.798-1.798c0-0.993 0.805-1.798 1.798-1.798s1.798 0.805 1.798 1.798z"></path>
<path fill="#000" style="fill: var(--color6, #000)" d="M6.831 26.966c0 0.993-0.805 1.798-1.798 1.798s-1.798-0.805-1.798-1.798c0-0.993 0.805-1.798 1.798-1.798s1.798 0.805 1.798 1.798z"></path>
<path fill="#000" style="fill: var(--color6, #000)" d="M28.404 26.966c0 0.993-0.805 1.798-1.798 1.798s-1.798-0.805-1.798-1.798c0-0.993 0.805-1.798 1.798-1.798s1.798 0.805 1.798 1.798z"></path>
<path fill="#000" style="fill: var(--color6, #000)" d="M28.404 5.393c0 0.993-0.805 1.798-1.798 1.798s-1.798-0.805-1.798-1.798c0-0.993 0.805-1.798 1.798-1.798s1.798 0.805 1.798 1.798z"></path>
<path fill="#b74028" style="fill: var(--color5, #b74028)" d="M16.899 16.18c0 0.596-0.483 1.079-1.079 1.079s-1.079-0.483-1.079-1.079c0-0.596 0.483-1.079 1.079-1.079s1.079 0.483 1.079 1.079z"></path>
<path fill="#000" style="fill: var(--color6, #000)" d="M13.303 16.18c0 0.397-0.322 0.719-0.719 0.719s-0.719-0.322-0.719-0.719c0-0.397 0.322-0.719 0.719-0.719s0.719 0.322 0.719 0.719z"></path>
<path fill="#000" style="fill: var(--color6, #000)" d="M15.799 13.663c-0.397 0-0.719-0.322-0.719-0.719s0.322-0.719 0.719-0.719c0.397 0 0.719 0.322 0.719 0.719s-0.322 0.719-0.719 0.719z"></path>
<path fill="#000" style="fill: var(--color6, #000)" d="M25.528 16.18c0 0.397-0.322 0.719-0.719 0.719s-0.719-0.322-0.719-0.719c0-0.397 0.322-0.719 0.719-0.719s0.719 0.322 0.719 0.719z"></path>
<path fill="#000" style="fill: var(--color6, #000)" d="M15.881 25.887c-0.397 0-0.719-0.322-0.719-0.719s0.322-0.719 0.719-0.719c0.397 0 0.719 0.322 0.719 0.719s-0.322 0.719-0.719 0.719z"></path>
<path fill="#000" style="fill: var(--color6, #000)" d="M7.551 16.18c0 0.397-0.322 0.719-0.719 0.719s-0.719-0.322-0.719-0.719c0-0.397 0.322-0.719 0.719-0.719s0.719 0.322 0.719 0.719z"></path>
<path fill="#000" style="fill: var(--color6, #000)" d="M15.76 7.91c-0.397 0-0.719-0.322-0.719-0.719s0.322-0.719 0.719-0.719c0.397 0 0.719 0.322 0.719 0.719s-0.322 0.719-0.719 0.719z"></path>
<path fill="#000" style="fill: var(--color6, #000)" d="M19.775 16.18c0 0.397-0.322 0.719-0.719 0.719s-0.719-0.322-0.719-0.719c0-0.397 0.322-0.719 0.719-0.719s0.719 0.322 0.719 0.719z"></path>
<path fill="#000" style="fill: var(--color6, #000)" d="M15.842 20.134c-0.397 0-0.719-0.322-0.719-0.719s0.322-0.719 0.719-0.719c0.397 0 0.719 0.322 0.719 0.719s-0.322 0.719-0.719 0.719z"></path>
<path fill="#000" style="fill: var(--color6, #000)" d="M10.427 16.18c0 0.397-0.322 0.719-0.719 0.719s-0.719-0.322-0.719-0.719c0-0.397 0.322-0.719 0.719-0.719s0.719 0.322 0.719 0.719z"></path>
<path fill="#000" style="fill: var(--color6, #000)" d="M15.78 10.787c-0.397 0-0.719-0.322-0.719-0.719s0.322-0.719 0.719-0.719c0.397 0 0.719 0.322 0.719 0.719s-0.322 0.719-0.719 0.719z"></path>
<path fill="#000" style="fill: var(--color6, #000)" d="M22.652 16.18c0 0.397-0.322 0.719-0.719 0.719s-0.719-0.322-0.719-0.719c0-0.397 0.322-0.719 0.719-0.719s0.719 0.322 0.719 0.719z"></path>
<path fill="#000" style="fill: var(--color6, #000)" d="M15.861 23.011c-0.397 0-0.719-0.322-0.719-0.719s0.322-0.719 0.719-0.719c0.397 0 0.719 0.322 0.719 0.719s-0.322 0.719-0.719 0.719z"></path>
<path fill="#b74028" style="fill: var(--color5, #b74028)" d="M1.438 9.554h12.944v5.547h-9.061l-3.883-5.547z"></path>
<path fill="#b74028" style="fill: var(--color5, #b74028)" d="M8.835 2.157v12.944h5.547v-9.061l-5.547-3.883z"></path>
<path fill="#b74028" style="fill: var(--color5, #b74028)" d="M1.438 22.806h12.944v-5.547h-9.061l-3.883 5.547z"></path>
<path fill="#b74028" style="fill: var(--color5, #b74028)" d="M8.835 30.202v-12.944h5.547v9.061l-5.547 3.883z"></path>
<path fill="#b74028" style="fill: var(--color5, #b74028)" d="M30.202 9.554h-12.944v5.547h9.061l3.883-5.547z"></path>
<path fill="#b74028" style="fill: var(--color5, #b74028)" d="M22.806 2.157v12.944h-5.547v-9.061l5.547-3.883z"></path>
<path fill="#b74028" style="fill: var(--color5, #b74028)" d="M30.202 22.806h-12.944v-5.547h9.061l3.883 5.547z"></path>
<path fill="#b74028" style="fill: var(--color5, #b74028)" d="M22.806 30.202v-12.944h-5.547v9.061l5.547 3.883z"></path>
</symbol>
<symbol id="icon-wave-s" viewBox="0 0 320 32">
<path stroke-linejoin="miter" stroke-linecap="butt" stroke-miterlimit="4" stroke-width="3.2" d="M156.8 21.254c-4.934 1.916-14.354 1.916-25.119-3.832-27.81-15.326-31.847-7.184-45.753 0s-14.354 4.791-25.119-1.916c-9.719-6.067-32.744-14.178-47.098 1.916-3.364 3.736-6.131 4.266-12.111 3.354"></path>
<path stroke-linejoin="miter" stroke-linecap="butt" stroke-miterlimit="4" stroke-width="3.2" d="M169.6 11.663c3.598-2.084 21.123-8.654 32.389 0 11.734 6.732 18.776 9.137 29.102 9.137 8.262 0 17.525-5.771 22.062-9.137 11.266-10.579 23.658-2.885 35.674 2.885 12.018 5.771 24.722 2.404 29.573 0"></path>
<path stroke-linejoin="miter" stroke-linecap="round" stroke-miterlimit="4" stroke-width="1.6" d="M171.176 1.6c-6.037 0-10.243 0.568-15.874 3.121-6.599 2.992-5.64 10.164-3.47 16.174 2.556 7.084 12.597 11.335 19.115 8.734 3.755-1.498 5.693-4.586 6.629-8.734 0.63-2.796 1.699-6.781-0.483-9.080-4.694-4.942-15.208-8.789-18.917-0.568-0.806 1.787-1.139 6.018-0.54 7.914 1.351 4.277 8.703 3.437 11.89 3.437 5.381 0 6.464-6.345 1.366-8.229-3.746-1.384-7.587-1.349-8.933 3.121M160.518 13.289c-0.051-0.008-0.077-0.028-0.083-0.055M160.435 13.234c-0.006-0.033 0.013-0.077 0.042-0.122M160.435 13.234c-0.65 1.941-1.024 3.99-1.154 5.647-0.060 0.762-0.062 1.546 0.060 2.272M160.435 13.234c0.014-0.041 0.029-0.082 0.042-0.122M160.477 13.112c0.050-0.075 0.128-0.153 0.158-0.192 0.717-0.919 1.491-1.459 2.594-1.641M160.477 13.112c0.363-1.061 0.81-2.086 1.342-2.992M163.229 11.278l0.008-0.001c1.259-0.206 2.669-0.243 3.934-0.087 0.165 0.020 0.322 0.051 0.472 0.090M163.229 11.278c-0.762 1.18-0.792 2.895-0.768 4.774 0.021 1.531 0.176 3.714 0.704 5.693M163.229 11.278c0.294-0.457 0.699-0.833 1.251-1.107M167.643 11.28c0.325 0.086 0.621 0.215 0.896 0.378M167.643 11.28c-0.942-0.604-2.026-0.953-3.163-1.109M167.643 11.28c0.238 0.153 0.467 0.322 0.686 0.508 0.123 0.104 0.243 0.212 0.362 0.324M168.539 11.658c0.294 0.175 0.563 0.389 0.819 0.632M168.539 11.658c-0.498-1.29-1.458-2.167-2.978-1.85-0.411 0.086-0.77 0.208-1.082 0.363M168.539 11.658c0.056 0.146 0.107 0.298 0.152 0.454M169.358 12.29c0.435 0.414 0.829 0.91 1.229 1.434 0.562 0.738 1.115 1.456 1.611 2.192M169.358 12.29c-0.123-1.015-0.413-1.997-0.872-2.851-0.915-1.707-2.853-3.031-4.544-1.795-0.822 0.601-1.526 1.465-2.123 2.476M169.358 12.29c0.022 0.192 0.040 0.385 0.051 0.578M172.198 15.916c0.771 1.149 1.4 2.346 1.694 3.74M172.198 15.916c0.075-0.18 0.147-0.357 0.214-0.528 0.84-2.168 1.242-5.364 0.048-7.553M172.198 15.916c-0.154 0.36-0.326 0.736-0.515 1.118M173.893 19.656c0.126 0.6 0.19 1.236 0.178 1.922-0.029 1.573-0.741 2.739-1.774 3.545M173.893 19.656c0.542-0.916 0.995-1.889 1.336-2.908 0.773-2.309 0.755-4.87-0.429-6.786M173.893 19.656c-0.502 0.846-1.080 1.644-1.717 2.385M172.296 25.123c-0.426 0.332-0.906 0.603-1.414 0.816M172.296 25.123c2.538-1.798 4.088-5.085 4.395-8.418 0.253-2.742-0.294-4.777-1.891-6.742M172.296 25.123c-0.437 0.31-0.904 0.576-1.398 0.79M170.882 25.939c-0.242 0.101-0.49 0.189-0.741 0.265M170.882 25.939c0.005-0.009 0.011-0.018 0.016-0.027M170.882 25.939c-1.302 2.064-3.389 2.87-5.693 3.123-2.384 0.261-4.637 0.117-6.614-0.978M170.141 26.204c-0.867 0.26-1.779 0.37-2.626 0.345-0.338-0.010-0.653-0.062-0.947-0.152M170.141 26.204c0.168-0.060 0.336-0.122 0.506-0.188 0.085-0.033 0.168-0.068 0.251-0.104M170.141 26.204c-1.624 0.572-3.25 0.853-4.794 0.734M166.568 26.397c-1.075-0.328-1.875-1.152-2.469-2.229M166.568 26.397c2.067-1.019 4.022-2.513 5.608-4.355M166.568 26.397c-0.403 0.199-0.811 0.379-1.221 0.541M164.099 24.167c-0.397-0.719-0.702-1.551-0.934-2.422M164.099 24.167c0.032-0.004 0.066-0.008 0.099-0.011 1.73-0.202 3.534-0.807 4.602-2.437 0.21-0.318 0.384-0.667 0.523-1.035M164.099 24.167c-0.966 0.109-1.915 0.149-2.845-0.262-1.174-0.518-1.712-1.557-1.913-2.753M163.165 21.745c0.19-0.049 0.381-0.108 0.568-0.176M163.165 21.745c-1.171 0.304-2.368 0.244-3.442-0.352-0.134-0.074-0.261-0.154-0.382-0.24M164.48 10.171c-0.869-0.12-1.77-0.128-2.661-0.051M168.691 12.112c0.181 0.632 0.267 1.333 0.267 2.026 0 0.147-0.008 0.287-0.022 0.421M168.691 12.112c0.251 0.238 0.491 0.49 0.718 0.756M168.936 14.558c-0.029 0.262-0.085 0.5-0.166 0.718M168.936 14.558c-0.237-0.047-0.515-0.045-0.842 0.014-0.056 0.010-0.112 0.022-0.166 0.034M168.936 14.558c0.152 0.030 0.285 0.079 0.403 0.145M168.77 15.276c-0.237 0.629-0.69 1.091-1.323 1.494-0.438 0.278-1.418 0.977-1.963 0.674-0.328-0.182-0.531-0.456-0.632-0.767M168.77 15.276c-0.237-0.277-0.517-0.505-0.842-0.669M168.77 15.276c0.131 0.153 0.248 0.321 0.354 0.501M164.851 16.677c-0.299-0.928 0.317-2.185 1.261-2.322 0.712-0.103 1.317-0.001 1.816 0.252M164.851 16.677c-0.494 0.643-0.878 1.389-1.104 2.181-0.224 0.781-0.256 1.839-0.014 2.71M164.851 16.677c0.795-1.034 1.882-1.803 3.077-2.071M169.123 15.777c0.352 0.611 0.554 1.362 0.606 2.152M169.123 15.777c0.093-0.349 0.166-0.709 0.216-1.074M169.123 15.777c-0.070 0.257-0.15 0.509-0.243 0.753-0.322 0.844-0.843 1.683-1.496 2.44M169.73 17.929c0.061 0.918-0.077 1.889-0.406 2.755M169.73 17.929c0.464-1.229 0.51-2.719-0.39-3.226M169.73 17.929c-0.034 0.086-0.067 0.172-0.104 0.255-0.298 0.675-1.448 2.59-2.091 1.196-0.064-0.139-0.114-0.275-0.15-0.41M169.323 20.684c0.938-1.095 1.742-2.409 2.36-3.65M169.323 20.684c-0.99 1.158-2.13 2.071-3.349 2.395-1.248 0.332-1.947-0.451-2.242-1.51M159.341 21.153c-2.818-2.004-2.274-7.165-0.694-10.422M161.819 10.12c-1.096 0.094-2.179 0.316-3.172 0.611M169.41 12.868c0.037 0.614 0.013 1.233-0.070 1.836M169.41 12.868c1.011 1.177 1.789 2.617 2.274 4.167M167.384 18.971c-0.992 1.148-2.288 2.106-3.651 2.598M167.384 18.971c-0.163-0.588-0.090-1.144 0.022-1.766M158.647 10.731c0.346-0.714 0.743-1.337 1.164-1.815 2.925-3.316 8.997-3.077 12.65-1.081M158.647 10.731c-0.382 0.114-0.751 0.239-1.103 0.372-0.428 0.162-0.849 0.344-1.26 0.548M172.461 7.835c0.23 0.125 0.45 0.257 0.658 0.396 0.102 0.067 0.2 0.137 0.294 0.208M172.461 7.835c-0.133-0.245-0.286-0.478-0.462-0.695M173.413 8.439c0.573 0.434 1.032 0.95 1.387 1.523M173.413 8.439c-0.456-0.46-0.926-0.894-1.414-1.299M173.413 8.439c0.381 0.384 0.752 0.786 1.12 1.206 0.091 0.106 0.181 0.211 0.267 0.317M172.176 22.041c0.195-1.675 0.008-3.4-0.493-5.007M172.176 22.041c-0.122 1.031-0.387 2.043-0.814 2.996-0.141 0.314-0.296 0.605-0.464 0.875M165.347 26.938c-0.229 0.090-0.458 0.175-0.688 0.253-1.798 0.612-3.949 0.968-6.085 0.893M165.347 26.938c-2.41-0.185-4.619-1.343-6.301-3.88-1.828-2.758-3.263-6.836-2.944-10.301 0.036-0.386 0.097-0.754 0.182-1.105M158.575 28.084c-2.8-0.099-5.579-0.94-7.517-2.916-1.999-2.038-1.691-5.212-0.569-7.658 0.534-1.164 1.231-2.189 2.047-3.076M158.575 28.084c-0.849-0.47-1.648-1.116-2.385-1.981-2.776-3.257-3.593-7.416-3.655-11.669M152.535 14.434c1.075-1.167 2.357-2.095 3.748-2.783M152.535 14.434c-0.015-1.040 0.015-2.085 0.072-3.125 0.224-4.037 4.936-5.767 7.968-6.461 2.608-0.597 6.163-0.887 8.646 0.424 0.256 0.135 0.506 0.276 0.749 0.422M156.284 11.651c0.943-3.888 4.779-5.662 8.179-6.237 1.653-0.279 3.771-0.398 5.509 0.281M169.971 5.695c0.718 0.431 1.389 0.914 2.027 1.445M169.971 5.695c0.678 0.265 1.299 0.652 1.813 1.198 0.075 0.080 0.147 0.162 0.214 0.247"></path>
</symbol>
<symbol id="icon-wave-m" viewBox="0 0 480 32">
<path fill="none" stroke="#b73f28" style="stroke: var(--color7, #b73f28)" stroke-linejoin="miter" stroke-linecap="butt" stroke-miterlimit="4" stroke-width="3.2" d="M240 23.945c-7.579 2.767-22.048 2.767-38.586-5.534-42.718-22.138-48.92-10.377-70.279 0s-22.048 6.92-38.585-2.768c-14.929-8.764-50.298-20.479-72.347 2.768-5.168 5.397-9.418 6.162-18.604 4.844"></path>
<path fill="none" stroke="#b73f28" style="stroke: var(--color7, #b73f28)" stroke-linejoin="miter" stroke-linecap="butt" stroke-miterlimit="4" stroke-width="3.2" d="M257.6 10.802c5.341-3.010 31.344-12.501 48.061 0 17.413 9.724 27.861 13.198 43.184 13.198 12.259 0 26.005-8.335 32.738-13.198 16.717-15.281 35.106-4.168 52.936 4.167 17.832 8.335 36.685 3.473 43.882 0"></path>
<path fill="none" stroke="#b74028" style="stroke: var(--color5, #b74028)" stroke-linejoin="miter" stroke-linecap="round" stroke-miterlimit="4" stroke-width="1.6" d="M259.176 1.6c-6.037 0-10.243 0.568-15.874 3.121-6.598 2.992-5.64 10.164-3.47 16.174 2.557 7.084 12.597 11.335 19.115 8.734 3.755-1.498 5.693-4.586 6.629-8.734 0.63-2.796 1.699-6.781-0.483-9.080-4.694-4.942-15.208-8.789-18.917-0.568-0.806 1.787-1.139 6.018-0.541 7.914 1.35 4.277 8.702 3.437 11.89 3.437 5.381 0 6.464-6.345 1.366-8.229-3.746-1.384-7.587-1.349-8.933 3.121M248.518 13.289c-0.051-0.008-0.077-0.028-0.083-0.055M248.435 13.234c-0.006-0.033 0.013-0.077 0.042-0.122M248.435 13.234c-0.65 1.941-1.024 3.99-1.154 5.647-0.061 0.762-0.062 1.546 0.059 2.272M248.435 13.234c0.014-0.041 0.029-0.082 0.042-0.122M248.477 13.112c0.050-0.075 0.128-0.153 0.158-0.192 0.717-0.919 1.491-1.459 2.594-1.641M248.477 13.112c0.363-1.061 0.81-2.086 1.342-2.992M251.229 11.278l0.008-0.001c1.259-0.206 2.669-0.243 3.934-0.087 0.165 0.020 0.322 0.051 0.472 0.090M251.229 11.278c-0.762 1.18-0.792 2.895-0.768 4.774 0.021 1.531 0.176 3.714 0.704 5.693M251.229 11.278c0.294-0.457 0.699-0.833 1.251-1.107M255.643 11.28c0.325 0.086 0.621 0.215 0.896 0.378M255.643 11.28c-0.942-0.604-2.026-0.953-3.163-1.109M255.643 11.28c0.238 0.153 0.467 0.322 0.686 0.508 0.123 0.104 0.243 0.212 0.362 0.324M256.539 11.658c0.294 0.175 0.563 0.389 0.819 0.632M256.539 11.658c-0.498-1.29-1.458-2.167-2.978-1.85-0.411 0.086-0.77 0.208-1.082 0.363M256.539 11.658c0.056 0.146 0.107 0.298 0.152 0.454M257.358 12.29c0.435 0.414 0.829 0.91 1.229 1.434 0.562 0.738 1.115 1.456 1.611 2.192M257.358 12.29c-0.123-1.015-0.413-1.997-0.872-2.851-0.915-1.707-2.853-3.031-4.544-1.795-0.822 0.601-1.526 1.465-2.123 2.476M257.358 12.29c0.022 0.192 0.040 0.385 0.051 0.578M260.198 15.916c0.771 1.149 1.4 2.346 1.694 3.74M260.198 15.916c0.075-0.18 0.147-0.357 0.214-0.528 0.84-2.168 1.242-5.364 0.048-7.553M260.198 15.916c-0.154 0.36-0.326 0.736-0.515 1.118M261.893 19.656c0.126 0.6 0.19 1.236 0.178 1.922-0.029 1.573-0.741 2.739-1.774 3.545M261.893 19.656c0.542-0.916 0.995-1.889 1.336-2.908 0.773-2.309 0.755-4.87-0.429-6.786M261.893 19.656c-0.502 0.846-1.080 1.644-1.717 2.385M260.296 25.123c-0.426 0.332-0.906 0.603-1.414 0.816M260.296 25.123c2.538-1.798 4.088-5.085 4.395-8.418 0.253-2.742-0.294-4.777-1.891-6.742M260.296 25.123c-0.437 0.31-0.904 0.576-1.398 0.79M258.882 25.939c-0.242 0.101-0.49 0.189-0.741 0.265M258.882 25.939c0.005-0.009 0.011-0.018 0.016-0.027M258.882 25.939c-1.302 2.064-3.389 2.87-5.693 3.123-2.384 0.261-4.637 0.117-6.614-0.978M258.141 26.204c-0.867 0.26-1.779 0.37-2.626 0.345-0.338-0.010-0.653-0.062-0.947-0.152M258.141 26.204c0.168-0.060 0.336-0.122 0.506-0.188 0.085-0.033 0.168-0.068 0.251-0.104M258.141 26.204c-1.624 0.572-3.25 0.853-4.794 0.734M254.568 26.397c-1.075-0.328-1.875-1.152-2.469-2.229M254.568 26.397c2.067-1.019 4.022-2.513 5.608-4.355M254.568 26.397c-0.403 0.199-0.811 0.379-1.221 0.541M252.099 24.167c-0.397-0.719-0.702-1.551-0.934-2.422M252.099 24.167c0.032-0.004 0.066-0.008 0.099-0.011 1.73-0.202 3.534-0.807 4.602-2.437 0.21-0.318 0.384-0.667 0.523-1.035M252.099 24.167c-0.966 0.109-1.915 0.149-2.845-0.262-1.174-0.518-1.712-1.557-1.914-2.753M251.165 21.745c0.19-0.049 0.381-0.108 0.568-0.176M251.165 21.745c-1.171 0.304-2.368 0.244-3.442-0.352-0.134-0.074-0.261-0.154-0.382-0.24M252.48 10.171c-0.869-0.12-1.77-0.128-2.661-0.051M256.691 12.112c0.181 0.632 0.267 1.333 0.267 2.026 0 0.147-0.008 0.287-0.022 0.421M256.691 12.112c0.251 0.238 0.491 0.49 0.718 0.756M256.936 14.558c-0.029 0.262-0.085 0.5-0.166 0.718M256.936 14.558c-0.237-0.047-0.515-0.045-0.842 0.014-0.056 0.010-0.112 0.022-0.166 0.034M256.936 14.558c0.152 0.030 0.285 0.079 0.403 0.145M256.77 15.276c-0.237 0.629-0.69 1.091-1.323 1.494-0.438 0.278-1.418 0.977-1.963 0.674-0.328-0.182-0.531-0.456-0.632-0.767M256.77 15.276c-0.237-0.277-0.517-0.505-0.842-0.669M256.77 15.276c0.131 0.153 0.248 0.321 0.354 0.501M252.851 16.677c-0.299-0.928 0.317-2.185 1.261-2.322 0.712-0.103 1.317-0.001 1.816 0.252M252.851 16.677c-0.494 0.643-0.878 1.389-1.104 2.181-0.224 0.781-0.256 1.839-0.014 2.71M252.851 16.677c0.795-1.034 1.882-1.803 3.077-2.071M257.123 15.777c0.352 0.611 0.554 1.362 0.606 2.152M257.123 15.777c0.093-0.349 0.166-0.709 0.216-1.074M257.123 15.777c-0.070 0.257-0.15 0.509-0.243 0.753-0.322 0.844-0.843 1.683-1.496 2.44M257.73 17.929c0.061 0.918-0.077 1.889-0.406 2.755M257.73 17.929c0.464-1.229 0.51-2.719-0.39-3.226M257.73 17.929c-0.034 0.086-0.067 0.172-0.104 0.255-0.298 0.675-1.448 2.59-2.091 1.196-0.064-0.139-0.114-0.275-0.15-0.41M257.323 20.684c0.938-1.095 1.742-2.409 2.36-3.65M257.323 20.684c-0.99 1.158-2.13 2.071-3.349 2.395-1.248 0.332-1.947-0.451-2.242-1.51M247.341 21.153c-2.818-2.004-2.274-7.165-0.694-10.422M249.819 10.12c-1.096 0.094-2.179 0.316-3.173 0.611M257.41 12.868c0.037 0.614 0.013 1.233-0.070 1.836M257.41 12.868c1.011 1.177 1.789 2.617 2.274 4.167M255.384 18.971c-0.992 1.148-2.288 2.106-3.651 2.598M255.384 18.971c-0.163-0.588-0.090-1.144 0.022-1.766M246.646 10.731c0.347-0.714 0.744-1.337 1.165-1.815 2.925-3.316 8.997-3.077 12.65-1.081M246.646 10.731c-0.381 0.114-0.75 0.239-1.102 0.372-0.427 0.162-0.85 0.344-1.261 0.548M260.461 7.835c0.23 0.125 0.45 0.257 0.658 0.396 0.102 0.067 0.2 0.137 0.294 0.208M260.461 7.835c-0.133-0.245-0.286-0.478-0.462-0.695M261.413 8.439c0.573 0.434 1.032 0.95 1.387 1.523M261.413 8.439c-0.456-0.46-0.926-0.894-1.414-1.299M261.413 8.439c0.381 0.384 0.752 0.786 1.12 1.206 0.091 0.106 0.181 0.211 0.267 0.317M260.176 22.041c0.195-1.675 0.008-3.4-0.493-5.007M260.176 22.041c-0.122 1.031-0.387 2.043-0.814 2.996-0.141 0.314-0.296 0.605-0.464 0.875M253.347 26.938c-0.229 0.090-0.458 0.175-0.688 0.253-1.798 0.612-3.949 0.968-6.085 0.893M253.347 26.938c-2.41-0.185-4.619-1.343-6.301-3.88-1.829-2.758-3.264-6.836-2.946-10.301 0.037-0.386 0.098-0.754 0.182-1.105M246.574 28.084c-2.8-0.099-5.579-0.94-7.517-2.916-2-2.038-1.691-5.212-0.57-7.658 0.534-1.164 1.23-2.189 2.048-3.076M246.574 28.084c-0.85-0.47-1.648-1.116-2.384-1.981-2.778-3.257-3.594-7.416-3.654-11.669M240.536 14.434c1.074-1.167 2.357-2.095 3.747-2.783M240.536 14.434c-0.016-1.040 0.014-2.085 0.072-3.125 0.222-4.037 4.936-5.767 7.968-6.461 2.608-0.597 6.163-0.887 8.646 0.424 0.256 0.135 0.506 0.276 0.749 0.422M244.283 11.651c0.944-3.888 4.779-5.662 8.179-6.237 1.653-0.279 3.771-0.398 5.509 0.281M257.971 5.695c0.718 0.431 1.389 0.914 2.027 1.445M257.971 5.695c0.678 0.265 1.299 0.652 1.813 1.198 0.075 0.080 0.147 0.162 0.214 0.247"></path>
</symbol>
<symbol id="icon-wave-l" viewBox="0 0 560 32">
<path fill="none" stroke="#b73f28" style="stroke: var(--color7, #b73f28)" stroke-linejoin="miter" stroke-linecap="butt" stroke-miterlimit="4" stroke-width="3.2" d="M278.4 25.506c-8.8 3.193-25.6 3.193-44.8-6.386-49.6-25.544-56.8-11.974-81.6 0s-25.6 7.985-44.8-3.193c-17.333-10.112-58.4-23.63-84 3.193-6 6.227-10.935 7.11-21.6 5.589"></path>
<path fill="none" stroke="#b73f28" style="stroke: var(--color7, #b73f28)" stroke-linejoin="miter" stroke-linecap="butt" stroke-miterlimit="4" stroke-width="3.2" d="M303.2 10.372c6.192-3.473 36.341-14.424 55.722 0 20.19 11.22 32.304 15.228 50.070 15.228 14.213 0 30.149-9.618 37.955-15.228 19.382-17.632 40.702-4.809 61.376 4.809s42.531 4.007 50.877 0"></path>
<path fill="none" stroke="#b74028" style="stroke: var(--color5, #b74028)" stroke-linejoin="miter" stroke-linecap="round" stroke-miterlimit="4" stroke-width="1.6" d="M299.976 1.6c-6.037 0-10.243 0.568-15.874 3.121-6.598 2.992-5.64 10.164-3.47 16.174 2.557 7.084 12.597 11.335 19.115 8.734 3.755-1.498 5.693-4.586 6.629-8.734 0.63-2.796 1.699-6.781-0.483-9.080-4.694-4.942-15.208-8.789-18.917-0.568-0.806 1.787-1.139 6.018-0.541 7.914 1.35 4.277 8.702 3.437 11.89 3.437 5.381 0 6.464-6.345 1.366-8.229-3.746-1.384-7.587-1.349-8.933 3.121M289.318 13.289c-0.051-0.008-0.077-0.028-0.083-0.055M289.235 13.234c-0.006-0.033 0.013-0.077 0.042-0.122M289.235 13.234c-0.65 1.941-1.024 3.99-1.154 5.647-0.061 0.762-0.062 1.546 0.059 2.272M289.235 13.234c0.014-0.041 0.029-0.082 0.042-0.122M289.277 13.112c0.050-0.075 0.128-0.153 0.158-0.192 0.717-0.919 1.491-1.459 2.594-1.641M289.277 13.112c0.363-1.061 0.81-2.086 1.342-2.992M292.029 11.278l0.008-0.001c1.259-0.206 2.669-0.243 3.934-0.087 0.165 0.020 0.322 0.051 0.472 0.090M292.029 11.278c-0.762 1.18-0.792 2.895-0.768 4.774 0.021 1.531 0.176 3.714 0.704 5.693M292.029 11.278c0.294-0.457 0.699-0.833 1.251-1.107M296.443 11.28c0.325 0.086 0.621 0.215 0.896 0.378M296.443 11.28c-0.942-0.604-2.026-0.953-3.163-1.109M296.443 11.28c0.238 0.153 0.467 0.322 0.686 0.508 0.123 0.104 0.243 0.212 0.362 0.324M297.339 11.658c0.294 0.175 0.563 0.389 0.819 0.632M297.339 11.658c-0.498-1.29-1.458-2.167-2.978-1.85-0.411 0.086-0.77 0.208-1.082 0.363M297.339 11.658c0.056 0.146 0.107 0.298 0.152 0.454M298.158 12.29c0.435 0.414 0.829 0.91 1.229 1.434 0.562 0.738 1.115 1.456 1.611 2.192M298.158 12.29c-0.123-1.015-0.413-1.997-0.872-2.851-0.915-1.707-2.853-3.031-4.544-1.795-0.822 0.601-1.526 1.465-2.123 2.476M298.158 12.29c0.022 0.192 0.040 0.385 0.051 0.578M300.998 15.916c0.771 1.149 1.4 2.346 1.694 3.74M300.998 15.916c0.075-0.18 0.147-0.357 0.214-0.528 0.84-2.168 1.242-5.364 0.048-7.553M300.998 15.916c-0.154 0.36-0.326 0.736-0.515 1.118M302.693 19.656c0.126 0.6 0.19 1.236 0.178 1.922-0.029 1.573-0.741 2.739-1.774 3.545M302.693 19.656c0.542-0.916 0.995-1.889 1.336-2.908 0.773-2.309 0.755-4.87-0.429-6.786M302.693 19.656c-0.502 0.846-1.080 1.644-1.717 2.385M301.096 25.123c-0.426 0.332-0.906 0.603-1.414 0.816M301.096 25.123c2.538-1.798 4.088-5.085 4.395-8.418 0.253-2.742-0.294-4.777-1.891-6.742M301.096 25.123c-0.437 0.31-0.904 0.576-1.398 0.79M299.682 25.939c-0.242 0.101-0.49 0.189-0.741 0.265M299.682 25.939c0.005-0.009 0.011-0.018 0.016-0.027M299.682 25.939c-1.302 2.064-3.389 2.87-5.693 3.123-2.384 0.261-4.637 0.117-6.614-0.978M298.941 26.204c-0.867 0.26-1.779 0.37-2.626 0.345-0.338-0.010-0.653-0.062-0.947-0.152M298.941 26.204c0.168-0.060 0.336-0.122 0.506-0.188 0.085-0.033 0.168-0.068 0.251-0.104M298.941 26.204c-1.624 0.572-3.25 0.853-4.794 0.734M295.368 26.397c-1.075-0.328-1.875-1.152-2.469-2.229M295.368 26.397c2.067-1.019 4.022-2.513 5.608-4.355M295.368 26.397c-0.403 0.199-0.811 0.379-1.221 0.541M292.899 24.167c-0.397-0.719-0.702-1.551-0.934-2.422M292.899 24.167c0.032-0.004 0.066-0.008 0.099-0.011 1.73-0.202 3.534-0.807 4.602-2.437 0.21-0.318 0.384-0.667 0.523-1.035M292.899 24.167c-0.966 0.109-1.915 0.149-2.845-0.262-1.174-0.518-1.712-1.557-1.914-2.753M291.965 21.745c0.19-0.049 0.381-0.108 0.568-0.176M291.965 21.745c-1.171 0.304-2.368 0.244-3.442-0.352-0.134-0.074-0.261-0.154-0.382-0.24M293.28 10.171c-0.869-0.12-1.77-0.128-2.661-0.051M297.491 12.112c0.181 0.632 0.267 1.333 0.267 2.026 0 0.147-0.008 0.287-0.022 0.421M297.491 12.112c0.251 0.238 0.491 0.49 0.718 0.756M297.736 14.558c-0.029 0.262-0.085 0.5-0.166 0.718M297.736 14.558c-0.237-0.047-0.515-0.045-0.842 0.014-0.056 0.010-0.112 0.022-0.166 0.034M297.736 14.558c0.152 0.030 0.285 0.079 0.403 0.145M297.57 15.276c-0.237 0.629-0.69 1.091-1.323 1.494-0.438 0.278-1.418 0.977-1.963 0.674-0.328-0.182-0.531-0.456-0.632-0.767M297.57 15.276c-0.237-0.277-0.517-0.505-0.842-0.669M297.57 15.276c0.131 0.153 0.248 0.321 0.354 0.501M293.651 16.677c-0.299-0.928 0.317-2.185 1.261-2.322 0.712-0.103 1.317-0.001 1.816 0.252M293.651 16.677c-0.494 0.643-0.878 1.389-1.104 2.181-0.224 0.781-0.256 1.839-0.014 2.71M293.651 16.677c0.795-1.034 1.882-1.803 3.077-2.071M297.923 15.777c0.352 0.611 0.554 1.362 0.606 2.152M297.923 15.777c0.093-0.349 0.166-0.709 0.216-1.074M297.923 15.777c-0.070 0.257-0.15 0.509-0.243 0.753-0.322 0.844-0.843 1.683-1.496 2.44M298.53 17.929c0.061 0.918-0.077 1.889-0.406 2.755M298.53 17.929c0.464-1.229 0.51-2.719-0.39-3.226M298.53 17.929c-0.034 0.086-0.067 0.172-0.104 0.255-0.298 0.675-1.448 2.59-2.091 1.196-0.064-0.139-0.114-0.275-0.15-0.41M298.123 20.684c0.938-1.095 1.742-2.409 2.36-3.65M298.123 20.684c-0.99 1.158-2.13 2.071-3.349 2.395-1.248 0.332-1.947-0.451-2.242-1.51M288.141 21.153c-2.818-2.004-2.274-7.165-0.694-10.422M290.619 10.12c-1.096 0.094-2.179 0.316-3.173 0.611M298.21 12.868c0.037 0.614 0.013 1.233-0.070 1.836M298.21 12.868c1.011 1.177 1.789 2.617 2.274 4.167M296.184 18.971c-0.992 1.148-2.288 2.106-3.651 2.598M296.184 18.971c-0.163-0.588-0.090-1.144 0.022-1.766M287.446 10.731c0.347-0.714 0.744-1.337 1.165-1.815 2.925-3.316 8.997-3.077 12.65-1.081M287.446 10.731c-0.381 0.114-0.75 0.239-1.102 0.372-0.427 0.162-0.85 0.344-1.261 0.548M301.261 7.835c0.23 0.125 0.45 0.257 0.658 0.396 0.102 0.067 0.2 0.137 0.294 0.208M301.261 7.835c-0.133-0.245-0.286-0.478-0.462-0.695M302.213 8.439c0.573 0.434 1.032 0.95 1.387 1.523M302.213 8.439c-0.456-0.46-0.926-0.894-1.414-1.299M302.213 8.439c0.381 0.384 0.752 0.786 1.12 1.206 0.091 0.106 0.181 0.211 0.267 0.317M300.976 22.041c0.195-1.675 0.008-3.4-0.493-5.007M300.976 22.041c-0.122 1.031-0.387 2.043-0.814 2.996-0.141 0.314-0.296 0.605-0.464 0.875M294.147 26.938c-0.229 0.090-0.458 0.175-0.688 0.253-1.798 0.612-3.949 0.968-6.085 0.893M294.147 26.938c-2.41-0.185-4.619-1.343-6.301-3.88-1.829-2.758-3.264-6.836-2.946-10.301 0.037-0.386 0.098-0.754 0.182-1.105M287.374 28.084c-2.8-0.099-5.579-0.94-7.517-2.916-2-2.038-1.691-5.212-0.57-7.658 0.534-1.164 1.23-2.189 2.048-3.076M287.374 28.084c-0.85-0.47-1.648-1.116-2.384-1.981-2.778-3.257-3.594-7.416-3.654-11.669M281.336 14.434c1.074-1.167 2.357-2.095 3.747-2.783M281.336 14.434c-0.016-1.040 0.014-2.085 0.072-3.125 0.222-4.037 4.936-5.767 7.968-6.461 2.608-0.597 6.163-0.887 8.646 0.424 0.256 0.135 0.506 0.276 0.749 0.422M285.083 11.651c0.944-3.888 4.779-5.662 8.179-6.237 1.653-0.279 3.771-0.398 5.509 0.281M298.771 5.695c0.718 0.431 1.389 0.914 2.027 1.445M298.771 5.695c0.678 0.265 1.299 0.652 1.813 1.198 0.075 0.080 0.147 0.162 0.214 0.247"></path>
</symbol>
<symbol id="icon-wave-l-y" viewBox="0 0 560 32">
<path fill="none" stroke="#f2c857" style="stroke: var(--color3, #f2c857)" stroke-linejoin="miter" stroke-linecap="butt" stroke-miterlimit="4" stroke-width="3.2" d="M278.4 25.506c-8.8 3.193-25.6 3.193-44.8-6.386-49.6-25.544-56.8-11.974-81.6 0s-25.6 7.985-44.8-3.193c-17.333-10.112-58.4-23.63-84 3.193-6 6.227-10.935 7.11-21.6 5.589"></path>
<path fill="none" stroke="#f2c857" style="stroke: var(--color3, #f2c857)" stroke-linejoin="miter" stroke-linecap="butt" stroke-miterlimit="4" stroke-width="3.2" d="M303.2 10.372c6.192-3.473 36.341-14.424 55.722 0 20.19 11.22 32.304 15.228 50.070 15.228 14.213 0 30.149-9.618 37.955-15.228 19.382-17.632 40.702-4.809 61.376 4.809s42.531 4.007 50.877 0"></path>
<path fill="none" stroke="#f2c857" style="stroke: var(--color3, #f2c857)" stroke-linejoin="miter" stroke-linecap="round" stroke-miterlimit="4" stroke-width="1.6" d="M299.976 1.6c-6.037 0-10.243 0.568-15.874 3.121-6.598 2.992-5.64 10.164-3.47 16.174 2.557 7.084 12.597 11.335 19.115 8.734 3.755-1.498 5.693-4.586 6.629-8.734 0.63-2.796 1.699-6.781-0.483-9.080-4.694-4.942-15.208-8.789-18.917-0.568-0.806 1.787-1.139 6.018-0.541 7.914 1.35 4.277 8.702 3.437 11.89 3.437 5.381 0 6.464-6.345 1.366-8.229-3.746-1.384-7.587-1.349-8.933 3.121M289.318 13.289c-0.051-0.008-0.077-0.028-0.083-0.055M289.235 13.234c-0.006-0.033 0.013-0.077 0.042-0.122M289.235 13.234c-0.65 1.941-1.024 3.99-1.154 5.647-0.061 0.762-0.062 1.546 0.059 2.272M289.235 13.234c0.014-0.041 0.029-0.082 0.042-0.122M289.277 13.112c0.050-0.075 0.128-0.153 0.158-0.192 0.717-0.919 1.491-1.459 2.594-1.641M289.277 13.112c0.363-1.061 0.81-2.086 1.342-2.992M292.029 11.278l0.008-0.001c1.259-0.206 2.669-0.243 3.934-0.087 0.165 0.020 0.322 0.051 0.472 0.090M292.029 11.278c-0.762 1.18-0.792 2.895-0.768 4.774 0.021 1.531 0.176 3.714 0.704 5.693M292.029 11.278c0.294-0.457 0.699-0.833 1.251-1.107M296.443 11.28c0.325 0.086 0.621 0.215 0.896 0.378M296.443 11.28c-0.942-0.604-2.026-0.953-3.163-1.109M296.443 11.28c0.238 0.153 0.467 0.322 0.686 0.508 0.123 0.104 0.243 0.212 0.362 0.324M297.339 11.658c0.294 0.175 0.563 0.389 0.819 0.632M297.339 11.658c-0.498-1.29-1.458-2.167-2.978-1.85-0.411 0.086-0.77 0.208-1.082 0.363M297.339 11.658c0.056 0.146 0.107 0.298 0.152 0.454M298.158 12.29c0.435 0.414 0.829 0.91 1.229 1.434 0.562 0.738 1.115 1.456 1.611 2.192M298.158 12.29c-0.123-1.015-0.413-1.997-0.872-2.851-0.915-1.707-2.853-3.031-4.544-1.795-0.822 0.601-1.526 1.465-2.123 2.476M298.158 12.29c0.022 0.192 0.040 0.385 0.051 0.578M300.998 15.916c0.771 1.149 1.4 2.346 1.694 3.74M300.998 15.916c0.075-0.18 0.147-0.357 0.214-0.528 0.84-2.168 1.242-5.364 0.048-7.553M300.998 15.916c-0.154 0.36-0.326 0.736-0.515 1.118M302.693 19.656c0.126 0.6 0.19 1.236 0.178 1.922-0.029 1.573-0.741 2.739-1.774 3.545M302.693 19.656c0.542-0.916 0.995-1.889 1.336-2.908 0.773-2.309 0.755-4.87-0.429-6.786M302.693 19.656c-0.502 0.846-1.080 1.644-1.717 2.385M301.096 25.123c-0.426 0.332-0.906 0.603-1.414 0.816M301.096 25.123c2.538-1.798 4.088-5.085 4.395-8.418 0.253-2.742-0.294-4.777-1.891-6.742M301.096 25.123c-0.437 0.31-0.904 0.576-1.398 0.79M299.682 25.939c-0.242 0.101-0.49 0.189-0.741 0.265M299.682 25.939c0.005-0.009 0.011-0.018 0.016-0.027M299.682 25.939c-1.302 2.064-3.389 2.87-5.693 3.123-2.384 0.261-4.637 0.117-6.614-0.978M298.941 26.204c-0.867 0.26-1.779 0.37-2.626 0.345-0.338-0.010-0.653-0.062-0.947-0.152M298.941 26.204c0.168-0.060 0.336-0.122 0.506-0.188 0.085-0.033 0.168-0.068 0.251-0.104M298.941 26.204c-1.624 0.572-3.25 0.853-4.794 0.734M295.368 26.397c-1.075-0.328-1.875-1.152-2.469-2.229M295.368 26.397c2.067-1.019 4.022-2.513 5.608-4.355M295.368 26.397c-0.403 0.199-0.811 0.379-1.221 0.541M292.899 24.167c-0.397-0.719-0.702-1.551-0.934-2.422M292.899 24.167c0.032-0.004 0.066-0.008 0.099-0.011 1.73-0.202 3.534-0.807 4.602-2.437 0.21-0.318 0.384-0.667 0.523-1.035M292.899 24.167c-0.966 0.109-1.915 0.149-2.845-0.262-1.174-0.518-1.712-1.557-1.914-2.753M291.965 21.745c0.19-0.049 0.381-0.108 0.568-0.176M291.965 21.745c-1.171 0.304-2.368 0.244-3.442-0.352-0.134-0.074-0.261-0.154-0.382-0.24M293.28 10.171c-0.869-0.12-1.77-0.128-2.661-0.051M297.491 12.112c0.181 0.632 0.267 1.333 0.267 2.026 0 0.147-0.008 0.287-0.022 0.421M297.491 12.112c0.251 0.238 0.491 0.49 0.718 0.756M297.736 14.558c-0.029 0.262-0.085 0.5-0.166 0.718M297.736 14.558c-0.237-0.047-0.515-0.045-0.842 0.014-0.056 0.010-0.112 0.022-0.166 0.034M297.736 14.558c0.152 0.030 0.285 0.079 0.403 0.145M297.57 15.276c-0.237 0.629-0.69 1.091-1.323 1.494-0.438 0.278-1.418 0.977-1.963 0.674-0.328-0.182-0.531-0.456-0.632-0.767M297.57 15.276c-0.237-0.277-0.517-0.505-0.842-0.669M297.57 15.276c0.131 0.153 0.248 0.321 0.354 0.501M293.651 16.677c-0.299-0.928 0.317-2.185 1.261-2.322 0.712-0.103 1.317-0.001 1.816 0.252M293.651 16.677c-0.494 0.643-0.878 1.389-1.104 2.181-0.224 0.781-0.256 1.839-0.014 2.71M293.651 16.677c0.795-1.034 1.882-1.803 3.077-2.071M297.923 15.777c0.352 0.611 0.554 1.362 0.606 2.152M297.923 15.777c0.093-0.349 0.166-0.709 0.216-1.074M297.923 15.777c-0.070 0.257-0.15 0.509-0.243 0.753-0.322 0.844-0.843 1.683-1.496 2.44M298.53 17.929c0.061 0.918-0.077 1.889-0.406 2.755M298.53 17.929c0.464-1.229 0.51-2.719-0.39-3.226M298.53 17.929c-0.034 0.086-0.067 0.172-0.104 0.255-0.298 0.675-1.448 2.59-2.091 1.196-0.064-0.139-0.114-0.275-0.15-0.41M298.123 20.684c0.938-1.095 1.742-2.409 2.36-3.65M298.123 20.684c-0.99 1.158-2.13 2.071-3.349 2.395-1.248 0.332-1.947-0.451-2.242-1.51M288.141 21.153c-2.818-2.004-2.274-7.165-0.694-10.422M290.619 10.12c-1.096 0.094-2.179 0.316-3.173 0.611M298.21 12.868c0.037 0.614 0.013 1.233-0.070 1.836M298.21 12.868c1.011 1.177 1.789 2.617 2.274 4.167M296.184 18.971c-0.992 1.148-2.288 2.106-3.651 2.598M296.184 18.971c-0.163-0.588-0.090-1.144 0.022-1.766M287.446 10.731c0.347-0.714 0.744-1.337 1.165-1.815 2.925-3.316 8.997-3.077 12.65-1.081M287.446 10.731c-0.381 0.114-0.75 0.239-1.102 0.372-0.427 0.162-0.85 0.344-1.261 0.548M301.261 7.835c0.23 0.125 0.45 0.257 0.658 0.396 0.102 0.067 0.2 0.137 0.294 0.208M301.261 7.835c-0.133-0.245-0.286-0.478-0.462-0.695M302.213 8.439c0.573 0.434 1.032 0.95 1.387 1.523M302.213 8.439c-0.456-0.46-0.926-0.894-1.414-1.299M302.213 8.439c0.381 0.384 0.752 0.786 1.12 1.206 0.091 0.106 0.181 0.211 0.267 0.317M300.976 22.041c0.195-1.675 0.008-3.4-0.493-5.007M300.976 22.041c-0.122 1.031-0.387 2.043-0.814 2.996-0.141 0.314-0.296 0.605-0.464 0.875M294.147 26.938c-0.229 0.090-0.458 0.175-0.688 0.253-1.798 0.612-3.949 0.968-6.085 0.893M294.147 26.938c-2.41-0.185-4.619-1.343-6.301-3.88-1.829-2.758-3.264-6.836-2.946-10.301 0.037-0.386 0.098-0.754 0.182-1.105M287.374 28.084c-2.8-0.099-5.579-0.94-7.517-2.916-2-2.038-1.691-5.212-0.57-7.658 0.534-1.164 1.23-2.189 2.048-3.076M287.374 28.084c-0.85-0.47-1.648-1.116-2.384-1.981-2.778-3.257-3.594-7.416-3.654-11.669M281.336 14.434c1.074-1.167 2.357-2.095 3.747-2.783M281.336 14.434c-0.016-1.040 0.014-2.085 0.072-3.125 0.222-4.037 4.936-5.767 7.968-6.461 2.608-0.597 6.163-0.887 8.646 0.424 0.256 0.135 0.506 0.276 0.749 0.422M285.083 11.651c0.944-3.888 4.779-5.662 8.179-6.237 1.653-0.279 3.771-0.398 5.509 0.281M298.771 5.695c0.718 0.431 1.389 0.914 2.027 1.445M298.771 5.695c0.678 0.265 1.299 0.652 1.813 1.198 0.075 0.080 0.147 0.162 0.214 0.247"></path>
</symbol>
<symbol id="icon-wave-m-y" viewBox="0 0 482 32">
<path fill="none" stroke="#f2c857" style="stroke: var(--color3, #f2c857)" stroke-linejoin="miter" stroke-linecap="butt" stroke-miterlimit="4" stroke-width="3.2" d="M240.8 23.945c-7.579 2.767-22.048 2.767-38.586-5.534-42.718-22.138-48.92-10.377-70.279 0s-22.048 6.92-38.585-2.768c-14.929-8.764-50.298-20.479-72.347 2.768-5.168 5.397-9.418 6.162-18.604 4.844"></path>
<path fill="none" stroke="#f2c857" style="stroke: var(--color3, #f2c857)" stroke-linejoin="miter" stroke-linecap="butt" stroke-miterlimit="4" stroke-width="3.2" d="M258.4 10.802c5.341-3.010 31.344-12.501 48.061 0 17.413 9.724 27.861 13.198 43.184 13.198 12.259 0 26.005-8.335 32.738-13.198 16.717-15.281 35.106-4.168 52.936 4.167 17.832 8.335 36.685 3.473 43.882 0"></path>
<path fill="none" stroke="#f2c857" style="stroke: var(--color3, #f2c857)" stroke-linejoin="miter" stroke-linecap="round" stroke-miterlimit="4" stroke-width="1.6" d="M259.976 1.6c-6.037 0-10.243 0.568-15.874 3.121-6.598 2.992-5.64 10.164-3.47 16.174 2.557 7.084 12.597 11.335 19.115 8.734 3.755-1.498 5.693-4.586 6.629-8.734 0.63-2.796 1.699-6.781-0.483-9.080-4.694-4.942-15.208-8.789-18.917-0.568-0.806 1.787-1.139 6.018-0.541 7.914 1.35 4.277 8.702 3.437 11.89 3.437 5.381 0 6.464-6.345 1.366-8.229-3.746-1.384-7.587-1.349-8.933 3.121M249.318 13.289c-0.051-0.008-0.077-0.028-0.083-0.055M249.235 13.234c-0.006-0.033 0.013-0.077 0.042-0.122M249.235 13.234c-0.65 1.941-1.024 3.99-1.154 5.647-0.061 0.762-0.062 1.546 0.059 2.272M249.235 13.234c0.014-0.041 0.029-0.082 0.042-0.122M249.277 13.112c0.050-0.075 0.128-0.153 0.158-0.192 0.717-0.919 1.491-1.459 2.594-1.641M249.277 13.112c0.363-1.061 0.81-2.086 1.342-2.992M252.029 11.278l0.008-0.001c1.259-0.206 2.669-0.243 3.934-0.087 0.165 0.020 0.322 0.051 0.472 0.090M252.029 11.278c-0.762 1.18-0.792 2.895-0.768 4.774 0.021 1.531 0.176 3.714 0.704 5.693M252.029 11.278c0.294-0.457 0.699-0.833 1.251-1.107M256.443 11.28c0.325 0.086 0.621 0.215 0.896 0.378M256.443 11.28c-0.942-0.604-2.026-0.953-3.163-1.109M256.443 11.28c0.238 0.153 0.467 0.322 0.686 0.508 0.123 0.104 0.243 0.212 0.362 0.324M257.339 11.658c0.294 0.175 0.563 0.389 0.819 0.632M257.339 11.658c-0.498-1.29-1.458-2.167-2.978-1.85-0.411 0.086-0.77 0.208-1.082 0.363M257.339 11.658c0.056 0.146 0.107 0.298 0.152 0.454M258.158 12.29c0.435 0.414 0.829 0.91 1.229 1.434 0.562 0.738 1.115 1.456 1.611 2.192M258.158 12.29c-0.123-1.015-0.413-1.997-0.872-2.851-0.915-1.707-2.853-3.031-4.544-1.795-0.822 0.601-1.526 1.465-2.123 2.476M258.158 12.29c0.022 0.192 0.040 0.385 0.051 0.578M260.998 15.916c0.771 1.149 1.4 2.346 1.694 3.74M260.998 15.916c0.075-0.18 0.147-0.357 0.214-0.528 0.84-2.168 1.242-5.364 0.048-7.553M260.998 15.916c-0.154 0.36-0.326 0.736-0.515 1.118M262.693 19.656c0.126 0.6 0.19 1.236 0.178 1.922-0.029 1.573-0.741 2.739-1.774 3.545M262.693 19.656c0.542-0.916 0.995-1.889 1.336-2.908 0.773-2.309 0.755-4.87-0.429-6.786M262.693 19.656c-0.502 0.846-1.080 1.644-1.717 2.385M261.096 25.123c-0.426 0.332-0.906 0.603-1.414 0.816M261.096 25.123c2.538-1.798 4.088-5.085 4.395-8.418 0.253-2.742-0.294-4.777-1.891-6.742M261.096 25.123c-0.437 0.31-0.904 0.576-1.398 0.79M259.682 25.939c-0.242 0.101-0.49 0.189-0.741 0.265M259.682 25.939c0.005-0.009 0.011-0.018 0.016-0.027M259.682 25.939c-1.302 2.064-3.389 2.87-5.693 3.123-2.384 0.261-4.637 0.117-6.614-0.978M258.941 26.204c-0.867 0.26-1.779 0.37-2.626 0.345-0.338-0.010-0.653-0.062-0.947-0.152M258.941 26.204c0.168-0.060 0.336-0.122 0.506-0.188 0.085-0.033 0.168-0.068 0.251-0.104M258.941 26.204c-1.624 0.572-3.25 0.853-4.794 0.734M255.368 26.397c-1.075-0.328-1.875-1.152-2.469-2.229M255.368 26.397c2.067-1.019 4.022-2.513 5.608-4.355M255.368 26.397c-0.403 0.199-0.811 0.379-1.221 0.541M252.899 24.167c-0.397-0.719-0.702-1.551-0.934-2.422M252.899 24.167c0.032-0.004 0.066-0.008 0.099-0.011 1.73-0.202 3.534-0.807 4.602-2.437 0.21-0.318 0.384-0.667 0.523-1.035M252.899 24.167c-0.966 0.109-1.915 0.149-2.845-0.262-1.174-0.518-1.712-1.557-1.914-2.753M251.965 21.745c0.19-0.049 0.381-0.108 0.568-0.176M251.965 21.745c-1.171 0.304-2.368 0.244-3.442-0.352-0.134-0.074-0.261-0.154-0.382-0.24M253.28 10.171c-0.869-0.12-1.77-0.128-2.661-0.051M257.491 12.112c0.181 0.632 0.267 1.333 0.267 2.026 0 0.147-0.008 0.287-0.022 0.421M257.491 12.112c0.251 0.238 0.491 0.49 0.718 0.756M257.736 14.558c-0.029 0.262-0.085 0.5-0.166 0.718M257.736 14.558c-0.237-0.047-0.515-0.045-0.842 0.014-0.056 0.010-0.112 0.022-0.166 0.034M257.736 14.558c0.152 0.030 0.285 0.079 0.403 0.145M257.57 15.276c-0.237 0.629-0.69 1.091-1.323 1.494-0.438 0.278-1.418 0.977-1.963 0.674-0.328-0.182-0.531-0.456-0.632-0.767M257.57 15.276c-0.237-0.277-0.517-0.505-0.842-0.669M257.57 15.276c0.131 0.153 0.248 0.321 0.354 0.501M253.651 16.677c-0.299-0.928 0.317-2.185 1.261-2.322 0.712-0.103 1.317-0.001 1.816 0.252M253.651 16.677c-0.494 0.643-0.878 1.389-1.104 2.181-0.224 0.781-0.256 1.839-0.014 2.71M253.651 16.677c0.795-1.034 1.882-1.803 3.077-2.071M257.923 15.777c0.352 0.611 0.554 1.362 0.606 2.152M257.923 15.777c0.093-0.349 0.166-0.709 0.216-1.074M257.923 15.777c-0.070 0.257-0.15 0.509-0.243 0.753-0.322 0.844-0.843 1.683-1.496 2.44M258.53 17.929c0.061 0.918-0.077 1.889-0.406 2.755M258.53 17.929c0.464-1.229 0.51-2.719-0.39-3.226M258.53 17.929c-0.034 0.086-0.067 0.172-0.104 0.255-0.298 0.675-1.448 2.59-2.091 1.196-0.064-0.139-0.114-0.275-0.15-0.41M258.123 20.684c0.938-1.095 1.742-2.409 2.36-3.65M258.123 20.684c-0.99 1.158-2.13 2.071-3.349 2.395-1.248 0.332-1.947-0.451-2.242-1.51M248.141 21.153c-2.818-2.004-2.274-7.165-0.694-10.422M250.619 10.12c-1.096 0.094-2.179 0.316-3.173 0.611M258.21 12.868c0.037 0.614 0.013 1.233-0.070 1.836M258.21 12.868c1.011 1.177 1.789 2.617 2.274 4.167M256.184 18.971c-0.992 1.148-2.288 2.106-3.651 2.598M256.184 18.971c-0.163-0.588-0.090-1.144 0.022-1.766M247.446 10.731c0.347-0.714 0.744-1.337 1.165-1.815 2.925-3.316 8.997-3.077 12.65-1.081M247.446 10.731c-0.381 0.114-0.75 0.239-1.102 0.372-0.427 0.162-0.85 0.344-1.261 0.548M261.261 7.835c0.23 0.125 0.45 0.257 0.658 0.396 0.102 0.067 0.2 0.137 0.294 0.208M261.261 7.835c-0.133-0.245-0.286-0.478-0.462-0.695M262.213 8.439c0.573 0.434 1.032 0.95 1.387 1.523M262.213 8.439c-0.456-0.46-0.926-0.894-1.414-1.299M262.213 8.439c0.381 0.384 0.752 0.786 1.12 1.206 0.091 0.106 0.181 0.211 0.267 0.317M260.976 22.041c0.195-1.675 0.008-3.4-0.493-5.007M260.976 22.041c-0.122 1.031-0.387 2.043-0.814 2.996-0.141 0.314-0.296 0.605-0.464 0.875M254.147 26.938c-0.229 0.090-0.458 0.175-0.688 0.253-1.798 0.612-3.949 0.968-6.085 0.893M254.147 26.938c-2.41-0.185-4.619-1.343-6.301-3.88-1.829-2.758-3.264-6.836-2.946-10.301 0.037-0.386 0.098-0.754 0.182-1.105M247.374 28.084c-2.8-0.099-5.579-0.94-7.517-2.916-2-2.038-1.691-5.212-0.57-7.658 0.534-1.164 1.23-2.189 2.048-3.076M247.374 28.084c-0.85-0.47-1.648-1.116-2.384-1.981-2.778-3.257-3.594-7.416-3.654-11.669M241.336 14.434c1.074-1.167 2.357-2.095 3.747-2.783M241.336 14.434c-0.016-1.040 0.014-2.085 0.072-3.125 0.222-4.037 4.936-5.767 7.968-6.461 2.608-0.597 6.163-0.887 8.646 0.424 0.256 0.135 0.506 0.276 0.749 0.422M245.083 11.651c0.944-3.888 4.779-5.662 8.179-6.237 1.653-0.279 3.771-0.398 5.509 0.281M258.771 5.695c0.718 0.431 1.389 0.914 2.027 1.445M258.771 5.695c0.678 0.265 1.299 0.652 1.813 1.198 0.075 0.080 0.147 0.162 0.214 0.247"></path>
</symbol>
<symbol id="icon-wave-s-y" viewBox="0 0 322 32">
<path fill="none" stroke="#f2c857" style="stroke: var(--color3, #f2c857)" stroke-linejoin="miter" stroke-linecap="butt" stroke-miterlimit="4" stroke-width="3.2" d="M157.6 21.254c-4.934 1.916-14.354 1.916-25.119-3.832-27.81-15.326-31.847-7.184-45.753 0s-14.354 4.791-25.119-1.916c-9.719-6.067-32.744-14.178-47.098 1.916-3.364 3.736-6.131 4.266-12.111 3.354"></path>
<path fill="none" stroke="#f2c857" style="stroke: var(--color3, #f2c857)" stroke-linejoin="miter" stroke-linecap="butt" stroke-miterlimit="4" stroke-width="3.2" d="M170.4 11.663c3.598-2.084 21.123-8.654 32.389 0 11.734 6.732 18.776 9.137 29.102 9.137 8.262 0 17.525-5.771 22.062-9.137 11.266-10.579 23.658-2.885 35.674 2.885 12.018 5.771 24.722 2.404 29.573 0"></path>
<path fill="none" stroke="#f2c857" style="stroke: var(--color3, #f2c857)" stroke-linejoin="miter" stroke-linecap="round" stroke-miterlimit="4" stroke-width="1.6" d="M171.976 1.6c-6.037 0-10.243 0.568-15.874 3.121-6.599 2.992-5.64 10.164-3.47 16.174 2.556 7.084 12.597 11.335 19.115 8.734 3.755-1.498 5.693-4.586 6.629-8.734 0.63-2.796 1.699-6.781-0.483-9.080-4.694-4.942-15.208-8.789-18.917-0.568-0.806 1.787-1.139 6.018-0.54 7.914 1.351 4.277 8.703 3.437 11.89 3.437 5.381 0 6.464-6.345 1.366-8.229-3.746-1.384-7.587-1.349-8.933 3.121M161.318 13.289c-0.051-0.008-0.077-0.028-0.083-0.055M161.235 13.234c-0.006-0.033 0.013-0.077 0.042-0.122M161.235 13.234c-0.65 1.941-1.024 3.99-1.154 5.647-0.061 0.762-0.062 1.546 0.059 2.272M161.235 13.234c0.014-0.041 0.029-0.082 0.042-0.122M161.277 13.112c0.050-0.075 0.128-0.153 0.158-0.192 0.717-0.919 1.491-1.459 2.594-1.641M161.277 13.112c0.363-1.061 0.81-2.086 1.342-2.992M164.029 11.278l0.008-0.001c1.259-0.206 2.669-0.243 3.934-0.087 0.165 0.020 0.322 0.051 0.472 0.090M164.029 11.278c-0.762 1.18-0.792 2.895-0.768 4.774 0.021 1.531 0.176 3.714 0.704 5.693M164.029 11.278c0.294-0.457 0.699-0.833 1.251-1.107M168.443 11.28c0.325 0.086 0.621 0.215 0.896 0.378M168.443 11.28c-0.942-0.604-2.026-0.953-3.163-1.109M168.443 11.28c0.238 0.153 0.467 0.322 0.686 0.508 0.123 0.104 0.243 0.212 0.362 0.324M169.339 11.658c0.294 0.175 0.563 0.389 0.819 0.632M169.339 11.658c-0.498-1.29-1.458-2.167-2.978-1.85-0.411 0.086-0.77 0.208-1.082 0.363M169.339 11.658c0.056 0.146 0.107 0.298 0.152 0.454M170.158 12.29c0.435 0.414 0.829 0.91 1.229 1.434 0.562 0.738 1.115 1.456 1.611 2.192M170.158 12.29c-0.123-1.015-0.413-1.997-0.872-2.851-0.915-1.707-2.853-3.031-4.544-1.795-0.822 0.601-1.526 1.465-2.123 2.476M170.158 12.29c0.022 0.192 0.040 0.385 0.051 0.578M172.998 15.916c0.771 1.149 1.4 2.346 1.694 3.74M172.998 15.916c0.075-0.18 0.147-0.357 0.214-0.528 0.84-2.168 1.242-5.364 0.048-7.553M172.998 15.916c-0.154 0.36-0.326 0.736-0.515 1.118M174.693 19.656c0.126 0.6 0.19 1.236 0.178 1.922-0.029 1.573-0.741 2.739-1.774 3.545M174.693 19.656c0.542-0.916 0.995-1.889 1.336-2.908 0.773-2.309 0.755-4.87-0.429-6.786M174.693 19.656c-0.502 0.846-1.080 1.644-1.717 2.385M173.096 25.123c-0.426 0.332-0.906 0.603-1.414 0.816M173.096 25.123c2.538-1.798 4.088-5.085 4.395-8.418 0.253-2.742-0.294-4.777-1.891-6.742M173.096 25.123c-0.437 0.31-0.904 0.576-1.398 0.79M171.682 25.939c-0.242 0.101-0.49 0.189-0.741 0.265M171.682 25.939c0.005-0.009 0.011-0.018 0.016-0.027M171.682 25.939c-1.302 2.064-3.389 2.87-5.693 3.123-2.384 0.261-4.637 0.117-6.614-0.978M170.941 26.204c-0.867 0.26-1.779 0.37-2.626 0.345-0.338-0.010-0.653-0.062-0.947-0.152M170.941 26.204c0.168-0.060 0.336-0.122 0.506-0.188 0.085-0.033 0.168-0.068 0.251-0.104M170.941 26.204c-1.624 0.572-3.25 0.853-4.794 0.734M167.368 26.397c-1.075-0.328-1.875-1.152-2.469-2.229M167.368 26.397c2.067-1.019 4.022-2.513 5.608-4.355M167.368 26.397c-0.403 0.199-0.811 0.379-1.221 0.541M164.899 24.167c-0.397-0.719-0.702-1.551-0.934-2.422M164.899 24.167c0.032-0.004 0.066-0.008 0.099-0.011 1.73-0.202 3.534-0.807 4.602-2.437 0.21-0.318 0.384-0.667 0.523-1.035M164.899 24.167c-0.966 0.109-1.915 0.149-2.845-0.262-1.174-0.518-1.712-1.557-1.914-2.753M163.965 21.745c0.19-0.049 0.381-0.108 0.568-0.176M163.965 21.745c-1.171 0.304-2.368 0.244-3.442-0.352-0.134-0.074-0.261-0.154-0.382-0.24M165.28 10.171c-0.869-0.12-1.77-0.128-2.661-0.051M169.491 12.112c0.181 0.632 0.267 1.333 0.267 2.026 0 0.147-0.008 0.287-0.022 0.421M169.491 12.112c0.251 0.238 0.491 0.49 0.718 0.756M169.736 14.558c-0.029 0.262-0.085 0.5-0.166 0.718M169.736 14.558c-0.237-0.047-0.515-0.045-0.842 0.014-0.056 0.010-0.112 0.022-0.166 0.034M169.736 14.558c0.152 0.030 0.285 0.079 0.403 0.145M169.57 15.276c-0.237 0.629-0.69 1.091-1.323 1.494-0.438 0.278-1.418 0.977-1.963 0.674-0.328-0.182-0.531-0.456-0.632-0.767M169.57 15.276c-0.237-0.277-0.517-0.505-0.842-0.669M169.57 15.276c0.131 0.153 0.248 0.321 0.354 0.501M165.651 16.677c-0.299-0.928 0.317-2.185 1.261-2.322 0.712-0.103 1.317-0.001 1.816 0.252M165.651 16.677c-0.494 0.643-0.878 1.389-1.104 2.181-0.224 0.781-0.256 1.839-0.014 2.71M165.651 16.677c0.795-1.034 1.882-1.803 3.077-2.071M169.923 15.777c0.352 0.611 0.554 1.362 0.606 2.152M169.923 15.777c0.093-0.349 0.166-0.709 0.216-1.074M169.923 15.777c-0.070 0.257-0.15 0.509-0.243 0.753-0.322 0.844-0.843 1.683-1.496 2.44M170.53 17.929c0.061 0.918-0.077 1.889-0.406 2.755M170.53 17.929c0.464-1.229 0.51-2.719-0.39-3.226M170.53 17.929c-0.034 0.086-0.067 0.172-0.104 0.255-0.298 0.675-1.448 2.59-2.091 1.196-0.064-0.139-0.114-0.275-0.15-0.41M170.123 20.684c0.938-1.095 1.742-2.409 2.36-3.65M170.123 20.684c-0.99 1.158-2.13 2.071-3.349 2.395-1.248 0.332-1.947-0.451-2.242-1.51M160.141 21.153c-2.818-2.004-2.273-7.165-0.694-10.422M162.619 10.12c-1.096 0.094-2.179 0.316-3.172 0.611M170.21 12.868c0.037 0.614 0.013 1.233-0.070 1.836M170.21 12.868c1.011 1.177 1.789 2.617 2.274 4.167M168.184 18.971c-0.992 1.148-2.288 2.106-3.651 2.598M168.184 18.971c-0.163-0.588-0.090-1.144 0.022-1.766M159.447 10.731c0.346-0.714 0.743-1.337 1.164-1.815 2.925-3.316 8.997-3.077 12.65-1.081M159.447 10.731c-0.382 0.114-0.751 0.239-1.103 0.372-0.428 0.162-0.849 0.344-1.26 0.548M173.261 7.835c0.23 0.125 0.45 0.257 0.658 0.396 0.102 0.067 0.2 0.137 0.294 0.208M173.261 7.835c-0.133-0.245-0.286-0.478-0.462-0.695M174.213 8.439c0.573 0.434 1.032 0.95 1.387 1.523M174.213 8.439c-0.456-0.46-0.926-0.894-1.414-1.299M174.213 8.439c0.381 0.384 0.752 0.786 1.12 1.206 0.091 0.106 0.181 0.211 0.267 0.317M172.976 22.041c0.195-1.675 0.008-3.4-0.493-5.007M172.976 22.041c-0.122 1.031-0.387 2.043-0.814 2.996-0.141 0.314-0.296 0.605-0.464 0.875M166.147 26.938c-0.229 0.090-0.458 0.175-0.688 0.253-1.798 0.612-3.949 0.968-6.085 0.893M166.147 26.938c-2.41-0.185-4.619-1.343-6.301-3.88-1.828-2.758-3.263-6.836-2.944-10.301 0.036-0.386 0.097-0.754 0.182-1.105M159.375 28.084c-2.8-0.099-5.579-0.94-7.517-2.916-1.999-2.038-1.691-5.212-0.569-7.658 0.534-1.164 1.231-2.189 2.047-3.076M159.375 28.084c-0.849-0.47-1.648-1.116-2.385-1.981-2.776-3.257-3.593-7.416-3.655-11.669M153.335 14.434c1.075-1.167 2.357-2.095 3.748-2.783M153.335 14.434c-0.015-1.040 0.015-2.085 0.072-3.125 0.224-4.037 4.936-5.767 7.968-6.461 2.608-0.597 6.163-0.887 8.646 0.424 0.256 0.135 0.506 0.276 0.749 0.422M157.084 11.651c0.943-3.888 4.779-5.662 8.179-6.237 1.653-0.279 3.771-0.398 5.509 0.281M170.771 5.695c0.718 0.431 1.389 0.914 2.027 1.445M170.771 5.695c0.678 0.265 1.299 0.652 1.813 1.198 0.075 0.080 0.147 0.162 0.214 0.247"></path>
</symbol>
<symbol id="icon-mail" viewBox="0 0 32 32">
<path d="M6.644 6.857h18.711c0.853 0 1.671 0.363 2.274 1.010s0.942 1.523 0.942 2.437v12.535c0 0.914-0.339 1.791-0.942 2.437s-1.421 1.010-2.274 1.010h-18.711c-0.853 0-1.671-0.363-2.274-1.010s-0.942-1.523-0.942-2.437v-12.535c0-0.914 0.339-1.791 0.942-2.437s1.421-1.010 2.274-1.010zM10.656 12.041c-0.191-0.133-0.422-0.182-0.646-0.136s-0.421 0.184-0.552 0.384c-0.131 0.2-0.184 0.446-0.148 0.687s0.158 0.458 0.34 0.604l5.847 4.387c0.147 0.11 0.323 0.17 0.503 0.17s0.355-0.059 0.503-0.17l5.847-4.387c0.099-0.069 0.183-0.158 0.249-0.263s0.111-0.222 0.133-0.346c0.022-0.124 0.021-0.251-0.003-0.374s-0.072-0.24-0.139-0.343c-0.067-0.103-0.154-0.191-0.253-0.258s-0.211-0.111-0.327-0.131-0.235-0.014-0.349 0.016c-0.114 0.030-0.221 0.085-0.315 0.161l-5.344 4.010-5.344-4.010z"></path>
</symbol>
<symbol id="icon-phone" viewBox="0 0 32 32">
<path d="M23.229 19.449l3.814 3.814c0.122 0.122 0.219 0.267 0.286 0.426s0.1 0.33 0.1 0.503c0 0.173-0.034 0.344-0.1 0.503s-0.163 0.304-0.286 0.426c-1.341 1.341-3.121 2.154-5.013 2.288s-3.769-0.418-5.286-1.557l-2.268-1.702c-2.511-1.883-4.742-4.114-6.625-6.625l-1.702-2.268c-1.138-1.517-1.691-3.394-1.557-5.286s0.947-3.672 2.288-5.013c0.122-0.122 0.267-0.219 0.426-0.286s0.33-0.1 0.503-0.1c0.173 0 0.344 0.034 0.503 0.1s0.304 0.163 0.426 0.286l3.814 3.814c0.27 0.27 0.422 0.636 0.422 1.018s-0.152 0.748-0.422 1.018l-1.47 1.47c-0.115 0.114-0.191 0.261-0.216 0.42s-0.001 0.323 0.072 0.467c1.709 3.418 4.48 6.189 7.898 7.898 0.144 0.073 0.308 0.098 0.467 0.072s0.306-0.102 0.42-0.216l1.469-1.469c0.134-0.134 0.293-0.24 0.467-0.313s0.362-0.11 0.552-0.11c0.189 0 0.377 0.037 0.552 0.11s0.334 0.179 0.467 0.313v-0.001z"></path>
</symbol>
<symbol id="icon-youtube" viewBox="0 0 32 32">
<path d="M16.307 5.714c0.671 0.004 2.351 0.021 4.136 0.094l0.634 0.028c1.797 0.086 3.592 0.235 4.483 0.489 1.188 0.342 2.121 1.337 2.436 2.6 0.503 2.006 0.566 5.917 0.573 6.865l0.001 0.195v0.224c-0.009 0.948-0.072 4.86-0.575 6.865-0.319 1.267-1.253 2.263-2.436 2.6-0.891 0.253-2.687 0.402-4.483 0.489l-0.634 0.030c-1.785 0.072-3.465 0.090-4.136 0.093l-0.295 0.001h-0.321c-1.421-0.009-7.362-0.075-9.253-0.612-1.187-0.342-2.121-1.337-2.436-2.6-0.503-2.006-0.566-5.917-0.573-6.865v-0.419c0.008-0.948 0.070-4.86 0.573-6.865 0.319-1.266 1.253-2.263 2.438-2.599 1.89-0.539 7.832-0.604 9.253-0.612h0.615zM13.485 11.5v9.001l7.543-4.5-7.543-4.5z"></path>
</symbol>
<symbol id="icon-tiktok" viewBox="0 0 32 32">
<path d="M25.578 3.429h-19.156c-0.794 0.001-1.555 0.316-2.116 0.878s-0.877 1.322-0.878 2.116v19.156c0 1.652 1.342 2.993 2.993 2.993h19.156c0.794-0.001 1.555-0.316 2.116-0.878s0.877-1.322 0.878-2.116v-19.156c-0.001-0.794-0.316-1.555-0.878-2.116s-1.322-0.877-2.116-0.878zM23.187 14.398c-0.881 0.086-1.768-0.095-2.545-0.518-0.656-0.354-1.213-0.866-1.62-1.489v6.906c0 1.009-0.299 1.996-0.86 2.836s-1.358 1.494-2.291 1.88c-0.933 0.386-1.959 0.487-2.949 0.29s-1.9-0.683-2.613-1.397-1.2-1.623-1.397-2.613c-0.197-0.99-0.096-2.016 0.29-2.949s1.040-1.73 1.88-2.291 1.826-0.86 2.836-0.86c0.106 0 0.21 0.010 0.314 0.015v2.516c-0.105-0.013-0.207-0.032-0.314-0.032-0.691 0-1.354 0.274-1.842 0.763s-0.763 1.151-0.763 1.842c0 0.691 0.274 1.354 0.763 1.842s1.151 0.763 1.842 0.763c1.439 0 2.71-1.133 2.71-2.572l0.025-11.731h2.407c0.11 1.045 0.584 2.019 1.339 2.75s1.743 1.174 2.791 1.252v2.796z"></path>
</symbol>
<symbol id="icon-linkedin" viewBox="0 0 32 32">
<path d="M24.381 3.429c1.111 0 2.177 0.442 2.963 1.227s1.227 1.852 1.227 2.963v16.762c0 1.111-0.442 2.177-1.227 2.963s-1.852 1.227-2.963 1.227h-16.762c-1.111 0-2.177-0.442-2.963-1.227s-1.227-1.852-1.227-2.963v-16.762c0-1.111 0.442-2.177 1.227-2.963s1.852-1.227 2.963-1.227h16.762zM10.413 13.206c-0.37 0-0.726 0.147-0.988 0.409s-0.409 0.617-0.409 0.988v6.984c0 0.37 0.147 0.726 0.409 0.988s0.617 0.409 0.988 0.409c0.37 0 0.726-0.147 0.988-0.409s0.409-0.617 0.409-0.988v-6.984c0-0.37-0.147-0.726-0.409-0.988s-0.617-0.409-0.988-0.409zM14.603 11.809c-0.37 0-0.726 0.147-0.988 0.409s-0.409 0.617-0.409 0.988v8.381c0 0.37 0.147 0.726 0.409 0.988s0.617 0.409 0.988 0.409c0.37 0 0.726-0.147 0.988-0.409s0.409-0.617 0.409-0.988v-5.112c0.426-0.481 1.145-1.045 1.946-1.387 0.465-0.198 1.165-0.279 1.651-0.126 0.161 0.041 0.305 0.133 0.409 0.263 0.073 0.098 0.184 0.316 0.184 0.775v5.587c0 0.37 0.147 0.726 0.409 0.988s0.617 0.409 0.988 0.409c0.37 0 0.726-0.147 0.988-0.409s0.409-0.617 0.409-0.988v-5.587c0-0.936-0.238-1.768-0.732-2.436-0.455-0.605-1.092-1.049-1.817-1.267-1.26-0.395-2.655-0.176-3.587 0.223-0.298 0.128-0.589 0.274-0.87 0.436-0.059-0.322-0.228-0.613-0.479-0.822s-0.568-0.324-0.895-0.324zM10.413 9.016c-0.37 0-0.726 0.147-0.988 0.409s-0.409 0.617-0.409 0.988c0 0.37 0.147 0.726 0.409 0.988s0.617 0.409 0.988 0.409 0.726-0.147 0.988-0.409c0.262-0.262 0.409-0.617 0.409-0.988s-0.147-0.726-0.409-0.988c-0.262-0.262-0.617-0.409-0.988-0.409z"></path>
</symbol>
<symbol id="icon-facebook" viewBox="0 0 32 32">
<path d="M25.778 3.429h-19.556c-1.537 0-2.794 1.257-2.794 2.794v19.556c0 1.538 1.257 2.794 2.794 2.794h9.778v-9.778h-2.794v-3.457h2.794v-2.863c0-3.023 1.693-5.146 5.26-5.146l2.518 0.003v3.639h-1.672c-1.388 0-1.916 1.042-1.916 2.009v2.361h3.587l-0.793 3.456h-2.794v9.778h5.587c1.536 0 2.794-1.256 2.794-2.794v-19.556c0-1.537-1.257-2.794-2.794-2.794z"></path>
</symbol>
<symbol id="icon-instagram" viewBox="0 0 32 32">
<path d="M17.292 3.429c1.414 0.004 2.132 0.011 2.752 0.029l0.244 0.009c0.282 0.010 0.559 0.023 0.895 0.038 1.338 0.063 2.25 0.274 3.051 0.585 0.83 0.319 1.529 0.752 2.228 1.449 0.639 0.628 1.134 1.388 1.449 2.228 0.311 0.801 0.522 1.713 0.585 3.052 0.015 0.334 0.028 0.612 0.038 0.895l0.008 0.244c0.019 0.618 0.026 1.336 0.029 2.751l0.001 0.938v1.647c0.003 0.917-0.006 1.834-0.029 2.75l-0.008 0.244c-0.010 0.283-0.023 0.561-0.038 0.895-0.063 1.339-0.277 2.25-0.586 3.052-0.315 0.839-0.81 1.599-1.449 2.228-0.628 0.64-1.388 1.134-2.228 1.45-0.801 0.311-1.713 0.522-3.051 0.585l-0.895 0.038-0.244 0.008c-0.62 0.018-1.338 0.026-2.752 0.029l-2.583 0.001c-0.917 0.003-1.835-0.006-2.752-0.029l-0.244-0.008c-0.298-0.011-0.597-0.024-0.895-0.039-1.338-0.063-2.25-0.274-3.052-0.585-0.839-0.316-1.598-0.81-2.226-1.45-0.64-0.628-1.135-1.388-1.451-2.228-0.311-0.801-0.522-1.713-0.585-3.052l-0.038-0.895-0.006-0.244c-0.023-0.917-0.034-1.834-0.031-2.75v-2.585c-0.003-0.917 0.006-1.834 0.028-2.751l0.009-0.244c0.010-0.283 0.023-0.561 0.038-0.895 0.063-1.339 0.274-2.25 0.585-3.052 0.316-0.84 0.812-1.6 1.453-2.228 0.627-0.639 1.387-1.134 2.225-1.449 0.802-0.311 1.713-0.522 3.052-0.585 0.334-0.015 0.614-0.028 0.895-0.038l0.244-0.008c0.917-0.022 1.834-0.032 2.751-0.029l2.585-0.001zM16 9.714c-1.667 0-3.266 0.662-4.444 1.841s-1.841 2.778-1.841 4.445c0 1.667 0.662 3.266 1.841 4.445s2.777 1.841 4.444 1.841 3.266-0.662 4.444-1.841c1.179-1.179 1.841-2.777 1.841-4.445s-0.662-3.266-1.841-4.445c-1.179-1.179-2.777-1.841-4.444-1.841zM16 12.228c0.495-0 0.986 0.097 1.443 0.287s0.873 0.467 1.224 0.817c0.35 0.35 0.628 0.766 0.818 1.223s0.287 0.948 0.287 1.443c0 0.495-0.098 0.986-0.287 1.443s-0.467 0.873-0.817 1.224c-0.35 0.35-0.766 0.628-1.223 0.818s-0.948 0.287-1.443 0.287c-1 0-1.959-0.397-2.667-1.105s-1.105-1.666-1.105-2.667 0.397-1.959 1.105-2.667c0.707-0.707 1.666-1.105 2.667-1.105zM22.601 7.828c-0.417 0-0.816 0.166-1.111 0.46s-0.46 0.694-0.46 1.111 0.166 0.816 0.46 1.111c0.295 0.295 0.694 0.46 1.111 0.46s0.816-0.166 1.111-0.46c0.295-0.295 0.46-0.694 0.46-1.111s-0.166-0.816-0.46-1.111c-0.295-0.295-0.694-0.46-1.111-0.46z"></path>
</symbol>

</defs>
</svg>