<svg width="350" height="20" viewBox="0 0 350 20" fill="none" xmlns="http://www.w3.org/2000/svg">
<path d="M174 15.9412C168.5 17.9369 158 17.9368 146 11.9502C115 -4.01479 110.5 4.46659 95 11.9502C79.5 19.4337 79 16.9409 67 9.95433C56.1667 3.63437 30.5 -4.81442 14.5 11.9502C10.7501 15.8422 7.66579 16.3939 1 15.4434" stroke="#B74028" stroke-width="2" stroke-dasharray="4 4"/>
<path d="M189.5 6.48251C193.37 4.31191 212.213 -2.53239 224.326 6.48251C236.945 13.4951 244.516 16 255.62 16C264.503 16 274.463 9.98883 279.342 6.48251C291.456 -4.53738 304.781 3.47697 317.702 9.48786C330.623 15.4988 344.284 11.9924 349.5 9.48786" stroke="#B74028" stroke-width="2" stroke-dasharray="4 4"/>
<path d="M187.485 1C183.712 1 181.083 1.35522 177.564 2.95086C173.44 4.8209 174.039 9.3033 175.395 13.0598C176.993 17.487 183.268 20.1442 187.342 18.5183C189.689 17.5819 190.9 15.6518 191.485 13.0598C191.879 11.312 192.547 8.82144 191.183 7.38462C188.249 4.29599 181.678 1.89126 179.36 7.02992C178.856 8.14673 178.648 10.7911 179.022 11.976C179.866 14.6493 184.461 14.1239 186.453 14.1239C189.816 14.1239 190.493 10.158 187.307 8.98078C184.966 8.1158 182.565 8.13736 181.724 10.9316M180.824 8.30574C180.792 8.30067 180.776 8.28809 180.772 8.27114M180.772 8.27114C180.768 8.25034 180.78 8.22296 180.798 8.19479M180.772 8.27114C180.366 9.48415 180.132 10.7652 180.051 11.8002C180.013 12.2762 180.012 12.7665 180.088 13.2205M180.772 8.27114C180.781 8.24566 180.79 8.22021 180.798 8.19479M180.798 8.19479C180.829 8.14799 180.878 8.09904 180.897 8.07459C181.345 7.50044 181.829 7.16277 182.518 7.04884M180.798 8.19479C181.025 7.53183 181.304 6.89128 181.637 6.32482M182.518 7.04884L182.523 7.04801C183.31 6.91904 184.191 6.89613 184.982 6.99362C185.085 7.00625 185.183 7.02527 185.277 7.05012M182.518 7.04884C182.042 7.78611 182.023 8.85825 182.038 10.0326C182.051 10.9895 182.148 12.3538 182.478 13.5906M182.518 7.04884C182.702 6.7635 182.955 6.52832 183.3 6.35679M185.277 7.05012C185.48 7.10364 185.665 7.18421 185.837 7.28624M185.277 7.05012C184.688 6.67274 184.011 6.45479 183.3 6.35679M185.277 7.05012C185.426 7.14553 185.569 7.25112 185.706 7.36754C185.783 7.43283 185.858 7.50032 185.932 7.56988M185.837 7.28624C186.021 7.39553 186.189 7.52945 186.349 7.68113M185.837 7.28624C185.526 6.48008 184.926 5.93195 183.976 6.13021C183.719 6.18401 183.495 6.26034 183.3 6.35679M185.837 7.28624C185.872 7.3777 185.904 7.47249 185.932 7.56988M186.349 7.68113C186.621 7.93968 186.867 8.24984 187.117 8.57768C187.468 9.03894 187.814 9.48737 188.124 9.94782M186.349 7.68113C186.272 7.04687 186.091 6.43283 185.804 5.89906C185.232 4.83243 184.021 4.0047 182.964 4.7773C182.45 5.15308 182.01 5.69284 181.637 6.32482M186.349 7.68113C186.363 7.80099 186.374 7.92158 186.381 8.04248M188.124 9.94782C188.606 10.6662 188.999 11.4138 189.183 12.2851M188.124 9.94782C188.171 9.83519 188.216 9.72498 188.258 9.61785C188.783 8.26272 189.034 6.26563 188.288 4.89692M188.124 9.94782C188.028 10.1729 187.92 10.4077 187.802 10.6467M189.183 12.2851C189.262 12.6601 189.302 13.0579 189.294 13.4862C189.276 14.4696 188.831 15.1981 188.185 15.7017M189.183 12.2851C189.522 11.7124 189.805 11.1044 190.018 10.4677C190.501 9.02469 190.49 7.42403 189.75 6.22659M189.183 12.2851C188.869 12.8138 188.508 13.3125 188.11 13.7759M188.185 15.7017C187.919 15.9093 187.619 16.0787 187.301 16.212M188.185 15.7017C189.771 14.578 190.74 12.5237 190.932 10.4405C191.09 8.72672 190.748 7.45467 189.75 6.22659M188.185 15.7017C187.912 15.8954 187.62 16.0615 187.311 16.1952M187.301 16.212C187.15 16.2752 186.995 16.3302 186.838 16.3774M187.301 16.212C187.304 16.2064 187.308 16.2008 187.311 16.1952M187.301 16.212C186.487 17.5017 185.183 18.0057 183.743 18.1636C182.253 18.327 180.845 18.237 179.609 17.5523M186.838 16.3774C186.296 16.5399 185.726 16.6088 185.197 16.5931C184.986 16.5869 184.789 16.5541 184.605 16.498M186.838 16.3774C186.943 16.3402 187.048 16.3011 187.154 16.26C187.207 16.2394 187.259 16.2178 187.311 16.1952M186.838 16.3774C185.823 16.7351 184.807 16.9103 183.842 16.8361M184.605 16.498C183.933 16.2933 183.433 15.7777 183.062 15.1046M184.605 16.498C185.897 15.8609 187.119 14.9272 188.11 13.7759M184.605 16.498C184.353 16.6222 184.098 16.7351 183.842 16.8361M183.062 15.1046C182.814 14.655 182.623 14.1352 182.478 13.5906M183.062 15.1046C183.082 15.1023 183.103 15.0999 183.124 15.0975C184.205 14.9713 185.333 14.5931 186 13.5746C186.131 13.3759 186.24 13.1577 186.327 12.9277M183.062 15.1046C182.458 15.1725 181.865 15.1977 181.284 14.9411C180.55 14.6171 180.214 13.9681 180.088 13.2205M182.478 13.5906C182.597 13.5597 182.716 13.5228 182.833 13.4804M182.478 13.5906C181.746 13.7808 180.998 13.7428 180.327 13.3706C180.243 13.3244 180.164 13.2743 180.088 13.2205M183.3 6.35679C182.757 6.2818 182.194 6.27704 181.637 6.32482M185.932 7.56988C186.045 7.96489 186.099 8.4028 186.099 8.83602C186.099 8.92788 186.094 9.01541 186.085 9.09897M185.932 7.56988C186.089 7.71831 186.239 7.87621 186.381 8.04248M186.085 9.09897C186.067 9.26287 186.032 9.4115 185.981 9.54764M186.085 9.09897C185.937 9.06986 185.763 9.07064 185.559 9.10796C185.524 9.11436 185.489 9.12144 185.455 9.1292M186.085 9.09897C186.18 9.1176 186.263 9.14846 186.337 9.18983M185.981 9.54764C185.833 9.94079 185.55 10.2298 185.154 10.4813C184.88 10.655 184.268 11.0919 183.927 10.9028C183.722 10.7889 183.595 10.6177 183.532 10.4233M185.981 9.54764C185.833 9.3747 185.658 9.23202 185.455 9.1292M185.981 9.54764C186.063 9.64332 186.136 9.74825 186.202 9.86084M183.532 10.4233C183.345 9.84359 183.73 9.05754 184.32 8.97199C184.765 8.90748 185.143 8.97142 185.455 9.1292M183.532 10.4233C183.223 10.8253 182.983 11.2915 182.842 11.7866C182.702 12.2748 182.682 12.9361 182.833 13.4804M183.532 10.4233C184.029 9.77677 184.708 9.29633 185.455 9.1292M186.202 9.86084C186.422 10.2424 186.548 10.7118 186.581 11.2058M186.202 9.86084C186.26 9.64266 186.306 9.41803 186.337 9.18983M186.202 9.86084C186.158 10.0217 186.108 10.179 186.05 10.3317C185.849 10.859 185.523 11.3838 185.115 11.8567M186.581 11.2058C186.619 11.7795 186.533 12.3864 186.327 12.9277M186.581 11.2058C186.871 10.4377 186.9 9.50635 186.337 9.18983M186.581 11.2058C186.56 11.2598 186.539 11.313 186.516 11.3651C186.33 11.7869 185.611 12.9836 185.209 12.1129C185.169 12.026 185.138 11.9408 185.115 11.8567M186.327 12.9277C186.913 12.2434 187.416 11.4223 187.802 10.6467M186.327 12.9277C185.708 13.6512 184.996 14.2219 184.234 14.4244C183.454 14.6316 183.017 14.1426 182.833 13.4804M180.088 13.2205C178.327 11.9678 178.667 8.74248 179.654 6.70701M181.637 6.32482C180.952 6.38363 180.275 6.52203 179.654 6.70701M186.381 8.04248C186.404 8.42606 186.389 8.81282 186.337 9.18983M186.381 8.04248C187.013 8.77827 187.499 9.67802 187.802 10.6467M185.115 11.8567C184.495 12.5745 183.685 13.1731 182.833 13.4804M185.115 11.8567C185.013 11.4889 185.059 11.1416 185.129 10.7532M179.654 6.70701C179.871 6.26055 180.119 5.87133 180.382 5.57273C182.21 3.50031 186.005 3.64964 188.288 4.89692M179.654 6.70701C179.416 6.77815 179.185 6.85618 178.965 6.93923C178.698 7.0403 178.434 7.15446 178.177 7.28171M188.288 4.89692C188.432 4.97519 188.569 5.05778 188.699 5.14442C188.763 5.18639 188.824 5.22982 188.883 5.27466M188.288 4.89692C188.205 4.74364 188.109 4.59824 187.999 4.46251M188.883 5.27466C189.241 5.5458 189.528 5.86813 189.75 6.22659M188.883 5.27466C188.598 4.98693 188.304 4.71592 187.999 4.46251M188.883 5.27466C189.121 5.51441 189.353 5.76577 189.583 6.02823C189.64 6.09426 189.696 6.16036 189.75 6.22659M188.11 13.7759C188.232 12.7293 188.115 11.651 187.802 10.6467M188.11 13.7759C188.034 14.4202 187.868 15.0526 187.601 15.6481C187.513 15.8445 187.416 16.0265 187.311 16.1952M183.842 16.8361C183.699 16.8926 183.556 16.9453 183.412 16.9943C182.288 17.3771 180.944 17.5996 179.609 17.5523M183.842 16.8361C182.336 16.7203 180.955 15.9966 179.904 14.4108C178.761 12.6871 177.864 10.1386 178.063 7.97261C178.086 7.73126 178.124 7.5011 178.177 7.28171M179.609 17.5523C177.859 17.4903 176.122 16.9649 174.911 15.7297C173.661 14.456 173.854 12.4722 174.555 10.9436C174.889 10.2163 175.324 9.57557 175.835 9.02127M179.609 17.5523C179.078 17.2583 178.579 16.8547 178.119 16.3144C176.383 14.2787 175.873 11.6796 175.835 9.02127M175.835 9.02127C176.506 8.29169 177.308 7.71187 178.177 7.28171M175.835 9.02127C175.825 8.3714 175.844 7.71799 175.88 7.0684C176.019 4.54534 178.965 3.46374 180.86 3.03008C182.49 2.6572 184.712 2.47586 186.264 3.29522C186.424 3.37945 186.58 3.46748 186.732 3.55923M178.177 7.28171C178.767 4.85154 181.164 3.74265 183.289 3.3836C184.322 3.20907 185.646 3.13463 186.732 3.55923M186.732 3.55923C187.181 3.82882 187.6 4.13057 187.999 4.46251M186.732 3.55923C187.156 3.72495 187.544 3.9667 187.865 4.3082C187.912 4.3581 187.957 4.40957 187.999 4.46251" stroke="#B74028" stroke-linecap="round"/>
</svg>
