<svg width="300" height="20" viewBox="0 0 300 20" fill="none" xmlns="http://www.w3.org/2000/svg">
<path d="M150 14.9656C145.263 16.6952 136.22 16.6951 125.884 11.5067C99.185 -2.32961 95.3092 5.02091 81.9595 11.5067C68.6098 17.9924 68.1792 15.832 57.8439 9.77696C48.5135 4.29965 26.4075 -3.02263 12.6272 11.5067C9.39746 14.8797 6.74105 15.3579 1 14.5342" stroke="#B74028" stroke-width="2" stroke-dasharray="4 4"/>
<path d="M161 6.75151C164.338 4.87032 180.59 -1.06141 191.038 6.75151C201.921 12.8291 208.451 15 218.028 15C225.69 15 234.281 9.79032 238.489 6.75151C248.937 -2.79906 260.43 4.1467 271.574 9.35615C282.719 14.5656 294.502 11.5268 299 9.35615" stroke="#B74028" stroke-width="2" stroke-dasharray="4 4"/>
<path d="M161.985 1C158.212 1 155.583 1.35522 152.064 2.95086C147.94 4.8209 148.539 9.3033 149.895 13.0598C151.493 17.487 157.768 20.1442 161.842 18.5183C164.189 17.5819 165.4 15.6518 165.985 13.0598C166.379 11.312 167.047 8.82144 165.683 7.38462C162.749 4.29599 156.178 1.89126 153.86 7.02992C153.356 8.14673 153.148 10.7911 153.522 11.976C154.366 14.6493 158.961 14.1239 160.953 14.1239C164.316 14.1239 164.993 10.158 161.807 8.98078C159.466 8.1158 157.065 8.13736 156.224 10.9316M155.324 8.30574C155.292 8.30067 155.276 8.28809 155.272 8.27114M155.272 8.27114C155.268 8.25034 155.28 8.22296 155.298 8.19479M155.272 8.27114C154.866 9.48415 154.632 10.7652 154.551 11.8002C154.513 12.2762 154.512 12.7665 154.588 13.2205M155.272 8.27114C155.281 8.24566 155.29 8.22021 155.298 8.19479M155.298 8.19479C155.329 8.14799 155.378 8.09904 155.397 8.07459C155.845 7.50044 156.329 7.16277 157.018 7.04884M155.298 8.19479C155.525 7.53183 155.804 6.89128 156.137 6.32482M157.018 7.04884L157.023 7.04801C157.81 6.91904 158.691 6.89613 159.482 6.99362C159.585 7.00625 159.683 7.02527 159.777 7.05012M157.018 7.04884C156.542 7.78611 156.523 8.85825 156.538 10.0326C156.551 10.9895 156.648 12.3538 156.978 13.5906M157.018 7.04884C157.202 6.7635 157.455 6.52832 157.8 6.35679M159.777 7.05012C159.98 7.10364 160.165 7.18421 160.337 7.28624M159.777 7.05012C159.188 6.67274 158.511 6.45479 157.8 6.35679M159.777 7.05012C159.926 7.14553 160.069 7.25112 160.206 7.36754C160.283 7.43283 160.358 7.50032 160.432 7.56988M160.337 7.28624C160.521 7.39553 160.689 7.52945 160.849 7.68113M160.337 7.28624C160.026 6.48008 159.426 5.93195 158.476 6.13021C158.219 6.18401 157.995 6.26034 157.8 6.35679M160.337 7.28624C160.372 7.3777 160.404 7.47249 160.432 7.56988M160.849 7.68113C161.121 7.93968 161.367 8.24984 161.617 8.57768C161.968 9.03894 162.314 9.48737 162.624 9.94782M160.849 7.68113C160.772 7.04687 160.591 6.43283 160.304 5.89906C159.732 4.83243 158.521 4.0047 157.464 4.7773C156.95 5.15308 156.51 5.69284 156.137 6.32482M160.849 7.68113C160.863 7.80099 160.874 7.92158 160.881 8.04248M162.624 9.94782C163.106 10.6662 163.499 11.4138 163.683 12.2851M162.624 9.94782C162.671 9.83519 162.716 9.72498 162.758 9.61785C163.283 8.26272 163.534 6.26563 162.788 4.89692M162.624 9.94782C162.528 10.1729 162.42 10.4077 162.302 10.6467M163.683 12.2851C163.762 12.6601 163.802 13.0579 163.794 13.4862C163.776 14.4696 163.331 15.1981 162.685 15.7017M163.683 12.2851C164.022 11.7124 164.305 11.1044 164.518 10.4677C165.001 9.02469 164.99 7.42403 164.25 6.22659M163.683 12.2851C163.369 12.8138 163.008 13.3125 162.61 13.7759M162.685 15.7017C162.419 15.9093 162.119 16.0787 161.801 16.212M162.685 15.7017C164.271 14.578 165.24 12.5237 165.432 10.4405C165.59 8.72672 165.248 7.45467 164.25 6.22659M162.685 15.7017C162.412 15.8954 162.12 16.0615 161.811 16.1952M161.801 16.212C161.65 16.2752 161.495 16.3302 161.338 16.3774M161.801 16.212C161.804 16.2064 161.808 16.2008 161.811 16.1952M161.801 16.212C160.987 17.5017 159.683 18.0057 158.243 18.1636C156.753 18.327 155.345 18.237 154.109 17.5523M161.338 16.3774C160.796 16.5399 160.226 16.6088 159.697 16.5931C159.486 16.5869 159.289 16.5541 159.105 16.498M161.338 16.3774C161.443 16.3402 161.548 16.3011 161.654 16.26C161.707 16.2394 161.759 16.2178 161.811 16.1952M161.338 16.3774C160.323 16.7351 159.307 16.9103 158.342 16.8361M159.105 16.498C158.433 16.2933 157.933 15.7777 157.562 15.1046M159.105 16.498C160.397 15.8609 161.619 14.9272 162.61 13.7759M159.105 16.498C158.853 16.6222 158.598 16.7351 158.342 16.8361M157.562 15.1046C157.314 14.655 157.123 14.1352 156.978 13.5906M157.562 15.1046C157.582 15.1023 157.603 15.0999 157.624 15.0975C158.705 14.9713 159.833 14.5931 160.5 13.5746C160.631 13.3759 160.74 13.1577 160.827 12.9277M157.562 15.1046C156.958 15.1725 156.365 15.1977 155.784 14.9411C155.05 14.6171 154.714 13.9681 154.588 13.2205M156.978 13.5906C157.097 13.5597 157.216 13.5228 157.333 13.4804M156.978 13.5906C156.246 13.7808 155.498 13.7428 154.827 13.3706C154.743 13.3244 154.664 13.2743 154.588 13.2205M157.8 6.35679C157.257 6.2818 156.694 6.27704 156.137 6.32482M160.432 7.56988C160.545 7.96489 160.599 8.4028 160.599 8.83602C160.599 8.92788 160.594 9.01541 160.585 9.09897M160.432 7.56988C160.589 7.71831 160.739 7.87621 160.881 8.04248M160.585 9.09897C160.567 9.26287 160.532 9.4115 160.481 9.54764M160.585 9.09897C160.437 9.06986 160.263 9.07064 160.059 9.10796C160.024 9.11436 159.989 9.12144 159.955 9.1292M160.585 9.09897C160.68 9.1176 160.763 9.14846 160.837 9.18983M160.481 9.54764C160.333 9.94079 160.05 10.2298 159.654 10.4813C159.38 10.655 158.768 11.0919 158.427 10.9028C158.222 10.7889 158.095 10.6177 158.032 10.4233M160.481 9.54764C160.333 9.3747 160.158 9.23202 159.955 9.1292M160.481 9.54764C160.563 9.64332 160.636 9.74825 160.702 9.86084M158.032 10.4233C157.845 9.84359 158.23 9.05754 158.82 8.97199C159.265 8.90748 159.643 8.97142 159.955 9.1292M158.032 10.4233C157.723 10.8253 157.483 11.2915 157.342 11.7866C157.202 12.2748 157.182 12.9361 157.333 13.4804M158.032 10.4233C158.529 9.77677 159.208 9.29633 159.955 9.1292M160.702 9.86084C160.922 10.2424 161.048 10.7118 161.081 11.2058M160.702 9.86084C160.76 9.64266 160.806 9.41803 160.837 9.18983M160.702 9.86084C160.658 10.0217 160.608 10.179 160.55 10.3317C160.349 10.859 160.023 11.3838 159.615 11.8567M161.081 11.2058C161.119 11.7795 161.033 12.3864 160.827 12.9277M161.081 11.2058C161.371 10.4377 161.4 9.50635 160.837 9.18983M161.081 11.2058C161.06 11.2598 161.039 11.313 161.016 11.3651C160.83 11.7869 160.111 12.9836 159.709 12.1129C159.669 12.026 159.638 11.9408 159.615 11.8567M160.827 12.9277C161.413 12.2434 161.916 11.4223 162.302 10.6467M160.827 12.9277C160.208 13.6512 159.496 14.2219 158.734 14.4244C157.954 14.6316 157.517 14.1426 157.333 13.4804M154.588 13.2205C152.827 11.9678 153.167 8.74248 154.154 6.70701M156.137 6.32482C155.452 6.38363 154.775 6.52203 154.154 6.70701M160.881 8.04248C160.904 8.42606 160.889 8.81282 160.837 9.18983M160.881 8.04248C161.513 8.77827 161.999 9.67802 162.302 10.6467M159.615 11.8567C158.995 12.5745 158.185 13.1731 157.333 13.4804M159.615 11.8567C159.513 11.4889 159.559 11.1416 159.629 10.7532M154.154 6.70701C154.371 6.26055 154.619 5.87133 154.882 5.57273C156.71 3.50031 160.505 3.64964 162.788 4.89692M154.154 6.70701C153.916 6.77815 153.685 6.85618 153.465 6.93923C153.198 7.0403 152.934 7.15446 152.677 7.28171M162.788 4.89692C162.932 4.97519 163.069 5.05778 163.199 5.14442C163.263 5.18639 163.324 5.22982 163.383 5.27466M162.788 4.89692C162.705 4.74364 162.609 4.59824 162.499 4.46251M163.383 5.27466C163.741 5.5458 164.028 5.86813 164.25 6.22659M163.383 5.27466C163.098 4.98693 162.804 4.71592 162.499 4.46251M163.383 5.27466C163.621 5.51441 163.853 5.76577 164.083 6.02823C164.14 6.09426 164.196 6.16036 164.25 6.22659M162.61 13.7759C162.732 12.7293 162.615 11.651 162.302 10.6467M162.61 13.7759C162.534 14.4202 162.368 15.0526 162.101 15.6481C162.013 15.8445 161.916 16.0265 161.811 16.1952M158.342 16.8361C158.199 16.8926 158.056 16.9453 157.912 16.9943C156.788 17.3771 155.444 17.5996 154.109 17.5523M158.342 16.8361C156.836 16.7203 155.455 15.9966 154.404 14.4108C153.261 12.6871 152.364 10.1386 152.563 7.97261C152.586 7.73126 152.624 7.5011 152.677 7.28171M154.109 17.5523C152.359 17.4903 150.622 16.9649 149.411 15.7297C148.161 14.456 148.354 12.4722 149.055 10.9436C149.389 10.2163 149.824 9.57557 150.335 9.02127M154.109 17.5523C153.578 17.2583 153.079 16.8547 152.619 16.3144C150.883 14.2787 150.373 11.6796 150.335 9.02127M150.335 9.02127C151.006 8.29169 151.808 7.71187 152.677 7.28171M150.335 9.02127C150.325 8.3714 150.344 7.71799 150.38 7.0684C150.519 4.54534 153.465 3.46374 155.36 3.03008C156.99 2.6572 159.212 2.47586 160.764 3.29522C160.924 3.37945 161.08 3.46748 161.232 3.55923M152.677 7.28171C153.267 4.85154 155.664 3.74265 157.789 3.3836C158.822 3.20907 160.146 3.13463 161.232 3.55923M161.232 3.55923C161.681 3.82882 162.1 4.13057 162.499 4.46251M161.232 3.55923C161.656 3.72495 162.044 3.9667 162.365 4.3082C162.412 4.3581 162.457 4.40957 162.499 4.46251" stroke="#B74028" stroke-linecap="round"/>
</svg>
