<svg width="201" height="20" viewBox="0 0 201 20" fill="none" xmlns="http://www.w3.org/2000/svg">
<path d="M98.875 13.2839C95.7912 14.4813 89.9039 14.4812 83.1756 10.8892C65.7941 1.31027 63.271 6.39909 54.5802 10.8892C45.8894 15.3794 45.6091 13.8837 38.8808 9.69174C32.8066 5.89976 18.4155 0.83049 9.44436 10.8892C7.3418 13.2244 5.61246 13.5555 1.875 12.9852" stroke="#B74028" stroke-width="2" stroke-dasharray="4 4"/>
<path d="M106.875 7.2895C109.124 5.98714 120.077 1.88056 127.118 7.2895C134.452 11.4971 138.853 13 145.307 13C150.471 13 156.26 9.3933 159.096 7.2895C166.137 0.677571 173.882 5.48618 181.392 9.09272C188.903 12.6993 196.843 10.5954 199.875 9.09272" stroke="#B74028" stroke-width="2" stroke-dasharray="4 4"/>
<path d="M107.86 1C104.087 1 101.458 1.35522 97.939 2.95086C93.8148 4.8209 94.4143 9.3033 95.77 13.0598C97.3677 17.487 103.643 20.1442 107.717 18.5183C110.064 17.5819 111.275 15.6518 111.86 13.0598C112.254 11.312 112.922 8.82144 111.558 7.38462C108.624 4.29599 102.053 1.89126 99.7347 7.02992C99.2309 8.14673 99.0227 10.7911 99.3969 11.976C100.241 14.6493 104.836 14.1239 106.828 14.1239C110.191 14.1239 110.868 10.158 107.682 8.98078C105.341 8.1158 102.94 8.13736 102.099 10.9316M101.199 8.30574C101.167 8.30067 101.151 8.28809 101.147 8.27114M101.147 8.27114C101.143 8.25034 101.155 8.22296 101.173 8.19479M101.147 8.27114C100.741 9.48415 100.507 10.7652 100.426 11.8002C100.388 12.2762 100.387 12.7665 100.463 13.2205M101.147 8.27114C101.156 8.24566 101.165 8.22021 101.173 8.19479M101.173 8.19479C101.204 8.14799 101.253 8.09904 101.272 8.07459C101.72 7.50044 102.204 7.16277 102.893 7.04884M101.173 8.19479C101.4 7.53183 101.679 6.89128 102.012 6.32482M102.893 7.04884L102.898 7.04801C103.685 6.91904 104.566 6.89613 105.357 6.99362C105.46 7.00625 105.558 7.02527 105.652 7.05012M102.893 7.04884C102.417 7.78611 102.398 8.85825 102.413 10.0326C102.426 10.9895 102.523 12.3538 102.853 13.5906M102.893 7.04884C103.077 6.7635 103.33 6.52832 103.675 6.35679M105.652 7.05012C105.855 7.10364 106.04 7.18421 106.212 7.28624M105.652 7.05012C105.063 6.67274 104.386 6.45479 103.675 6.35679M105.652 7.05012C105.801 7.14553 105.944 7.25112 106.081 7.36754C106.158 7.43283 106.233 7.50032 106.307 7.56988M106.212 7.28624C106.396 7.39553 106.564 7.52945 106.724 7.68113M106.212 7.28624C105.901 6.48008 105.301 5.93195 104.351 6.13021C104.094 6.18401 103.87 6.26034 103.675 6.35679M106.212 7.28624C106.247 7.3777 106.279 7.47249 106.307 7.56988M106.724 7.68113C106.996 7.93968 107.242 8.24984 107.492 8.57768C107.843 9.03894 108.189 9.48737 108.499 9.94782M106.724 7.68113C106.647 7.04687 106.466 6.43283 106.179 5.89906C105.607 4.83243 104.396 4.0047 103.339 4.7773C102.825 5.15308 102.385 5.69284 102.012 6.32482M106.724 7.68113C106.738 7.80099 106.749 7.92158 106.756 8.04248M108.499 9.94782C108.981 10.6662 109.374 11.4138 109.558 12.2851M108.499 9.94782C108.546 9.83519 108.591 9.72498 108.633 9.61785C109.158 8.26272 109.409 6.26563 108.663 4.89692M108.499 9.94782C108.403 10.1729 108.295 10.4077 108.177 10.6467M109.558 12.2851C109.637 12.6601 109.677 13.0579 109.669 13.4862C109.651 14.4696 109.206 15.1981 108.56 15.7017M109.558 12.2851C109.897 11.7124 110.18 11.1044 110.393 10.4677C110.876 9.02469 110.865 7.42403 110.125 6.22659M109.558 12.2851C109.244 12.8138 108.883 13.3125 108.485 13.7759M108.56 15.7017C108.294 15.9093 107.994 16.0787 107.676 16.212M108.56 15.7017C110.146 14.578 111.115 12.5237 111.307 10.4405C111.465 8.72672 111.123 7.45467 110.125 6.22659M108.56 15.7017C108.287 15.8954 107.995 16.0615 107.686 16.1952M107.676 16.212C107.525 16.2752 107.37 16.3302 107.213 16.3774M107.676 16.212C107.679 16.2064 107.683 16.2008 107.686 16.1952M107.676 16.212C106.862 17.5017 105.558 18.0057 104.118 18.1636C102.628 18.327 101.22 18.237 99.9841 17.5523M107.213 16.3774C106.671 16.5399 106.101 16.6088 105.572 16.5931C105.361 16.5869 105.164 16.5541 104.98 16.498M107.213 16.3774C107.318 16.3402 107.423 16.3011 107.529 16.26C107.582 16.2394 107.634 16.2178 107.686 16.1952M107.213 16.3774C106.198 16.7351 105.182 16.9103 104.217 16.8361M104.98 16.498C104.308 16.2933 103.808 15.7777 103.437 15.1046M104.98 16.498C106.272 15.8609 107.494 14.9272 108.485 13.7759M104.98 16.498C104.728 16.6222 104.473 16.7351 104.217 16.8361M103.437 15.1046C103.189 14.655 102.998 14.1352 102.853 13.5906M103.437 15.1046C103.457 15.1023 103.478 15.0999 103.499 15.0975C104.58 14.9713 105.708 14.5931 106.375 13.5746C106.506 13.3759 106.615 13.1577 106.702 12.9277M103.437 15.1046C102.833 15.1725 102.24 15.1977 101.659 14.9411C100.925 14.6171 100.589 13.9681 100.463 13.2205M102.853 13.5906C102.972 13.5597 103.091 13.5228 103.208 13.4804M102.853 13.5906C102.121 13.7808 101.373 13.7428 100.702 13.3706C100.618 13.3244 100.539 13.2743 100.463 13.2205M103.675 6.35679C103.132 6.2818 102.569 6.27704 102.012 6.32482M106.307 7.56988C106.42 7.96489 106.474 8.4028 106.474 8.83602C106.474 8.92788 106.469 9.01541 106.46 9.09897M106.307 7.56988C106.464 7.71831 106.614 7.87621 106.756 8.04248M106.46 9.09897C106.442 9.26287 106.407 9.4115 106.356 9.54764M106.46 9.09897C106.312 9.06986 106.138 9.07064 105.934 9.10796C105.899 9.11436 105.864 9.12144 105.83 9.1292M106.46 9.09897C106.555 9.1176 106.638 9.14846 106.712 9.18983M106.356 9.54764C106.208 9.94079 105.925 10.2298 105.529 10.4813C105.255 10.655 104.643 11.0919 104.302 10.9028C104.097 10.7889 103.97 10.6177 103.907 10.4233M106.356 9.54764C106.208 9.3747 106.033 9.23202 105.83 9.1292M106.356 9.54764C106.438 9.64332 106.511 9.74825 106.577 9.86084M103.907 10.4233C103.72 9.84359 104.105 9.05754 104.695 8.97199C105.14 8.90748 105.518 8.97142 105.83 9.1292M103.907 10.4233C103.598 10.8253 103.358 11.2915 103.217 11.7866C103.077 12.2748 103.057 12.9361 103.208 13.4804M103.907 10.4233C104.404 9.77677 105.083 9.29633 105.83 9.1292M106.577 9.86084C106.797 10.2424 106.923 10.7118 106.956 11.2058M106.577 9.86084C106.635 9.64266 106.681 9.41803 106.712 9.18983M106.577 9.86084C106.533 10.0217 106.483 10.179 106.425 10.3317C106.224 10.859 105.898 11.3838 105.49 11.8567M106.956 11.2058C106.994 11.7795 106.908 12.3864 106.702 12.9277M106.956 11.2058C107.246 10.4377 107.275 9.50635 106.712 9.18983M106.956 11.2058C106.935 11.2598 106.914 11.313 106.891 11.3651C106.705 11.7869 105.986 12.9836 105.584 12.1129C105.544 12.026 105.513 11.9408 105.49 11.8567M106.702 12.9277C107.288 12.2434 107.791 11.4223 108.177 10.6467M106.702 12.9277C106.083 13.6512 105.371 14.2219 104.609 14.4244C103.829 14.6316 103.392 14.1426 103.208 13.4804M100.463 13.2205C98.7019 11.9678 99.0422 8.74248 100.029 6.70701M102.012 6.32482C101.327 6.38363 100.65 6.52203 100.029 6.70701M106.756 8.04248C106.779 8.42606 106.764 8.81282 106.712 9.18983M106.756 8.04248C107.388 8.77827 107.874 9.67802 108.177 10.6467M105.49 11.8567C104.87 12.5745 104.06 13.1731 103.208 13.4804M105.49 11.8567C105.388 11.4889 105.434 11.1416 105.504 10.7532M100.029 6.70701C100.246 6.26055 100.494 5.87133 100.757 5.57273C102.585 3.50031 106.38 3.64964 108.663 4.89692M100.029 6.70701C99.7905 6.77815 99.5599 6.85618 99.3401 6.93923C99.0726 7.0403 98.8095 7.15446 98.5523 7.28171M108.663 4.89692C108.807 4.97519 108.944 5.05778 109.074 5.14442C109.138 5.18639 109.199 5.22982 109.258 5.27466M108.663 4.89692C108.58 4.74364 108.484 4.59824 108.374 4.46251M109.258 5.27466C109.616 5.5458 109.903 5.86813 110.125 6.22659M109.258 5.27466C108.973 4.98693 108.679 4.71592 108.374 4.46251M109.258 5.27466C109.496 5.51441 109.728 5.76577 109.958 6.02823C110.015 6.09426 110.071 6.16036 110.125 6.22659M108.485 13.7759C108.607 12.7293 108.49 11.651 108.177 10.6467M108.485 13.7759C108.409 14.4202 108.243 15.0526 107.976 15.6481C107.888 15.8445 107.791 16.0265 107.686 16.1952M104.217 16.8361C104.074 16.8926 103.931 16.9453 103.787 16.9943C102.663 17.3771 101.319 17.5996 99.9841 17.5523M104.217 16.8361C102.711 16.7203 101.33 15.9966 100.279 14.4108C99.1359 12.6871 98.2392 10.1386 98.4384 7.97261C98.4606 7.73126 98.4991 7.5011 98.5523 7.28171M99.9841 17.5523C98.2338 17.4903 96.4973 16.9649 95.2857 15.7297C94.0361 14.456 94.2288 12.4722 94.9299 10.9436C95.2635 10.2163 95.6991 9.57557 96.2095 9.02127M99.9841 17.5523C99.4533 17.2583 98.9542 16.8547 98.4936 16.3144C96.7584 14.2787 96.2481 11.6796 96.2095 9.02127M96.2095 9.02127C96.8814 8.29169 97.6829 7.71187 98.5523 7.28171M96.2095 9.02127C96.2001 8.3714 96.2189 7.71799 96.2548 7.0684C96.3945 4.54534 99.3398 3.46374 101.235 3.03008C102.865 2.6572 105.087 2.47586 106.639 3.29522C106.799 3.37945 106.955 3.46748 107.107 3.55923M98.5523 7.28171C99.1416 4.85154 101.539 3.74265 103.664 3.3836C104.697 3.20907 106.021 3.13463 107.107 3.55923M107.107 3.55923C107.556 3.82882 107.975 4.13057 108.374 4.46251M107.107 3.55923C107.531 3.72495 107.919 3.9667 108.24 4.3082C108.287 4.3581 108.332 4.40957 108.374 4.46251" stroke="#B74028" stroke-linecap="round"/>
</svg>
