<svg width="351" height="20" viewBox="0 0 351 20" fill="none" xmlns="http://www.w3.org/2000/svg">
<path d="M174.5 15.9412C169 17.9369 158.5 17.9368 146.5 11.9502C115.5 -4.01479 111 4.46659 95.5 11.9502C80 19.4337 79.5 16.9409 67.5 9.95433C56.6667 3.63437 31 -4.81442 15 11.9502C11.2501 15.8422 8.16579 16.3939 1.5 15.4434" stroke="#B74028" stroke-width="2" stroke-dasharray="4 4"/>
<path d="M190 6.48251C193.87 4.31191 212.713 -2.53239 224.826 6.48251C237.445 13.4951 245.016 16 256.12 16C265.003 16 274.963 9.98883 279.842 6.48251C291.956 -4.53738 305.281 3.47697 318.202 9.48786C331.123 15.4988 344.784 11.9924 350 9.48786" stroke="#B74028" stroke-width="2" stroke-dasharray="4 4"/>
<path d="M187.985 1C184.212 1 181.583 1.35522 178.064 2.95086C173.94 4.8209 174.539 9.3033 175.895 13.0598C177.493 17.487 183.768 20.1442 187.842 18.5183C190.189 17.5819 191.4 15.6518 191.985 13.0598C192.379 11.312 193.047 8.82144 191.683 7.38462C188.749 4.29599 182.178 1.89126 179.86 7.02992C179.356 8.14673 179.148 10.7911 179.522 11.976C180.366 14.6493 184.961 14.1239 186.953 14.1239C190.316 14.1239 190.993 10.158 187.807 8.98078C185.466 8.1158 183.065 8.13736 182.224 10.9316M181.324 8.30574C181.292 8.30067 181.276 8.28809 181.272 8.27114M181.272 8.27114C181.268 8.25034 181.28 8.22296 181.298 8.19479M181.272 8.27114C180.866 9.48415 180.632 10.7652 180.551 11.8002C180.513 12.2762 180.512 12.7665 180.588 13.2205M181.272 8.27114C181.281 8.24566 181.29 8.22021 181.298 8.19479M181.298 8.19479C181.329 8.14799 181.378 8.09904 181.397 8.07459C181.845 7.50044 182.329 7.16277 183.018 7.04884M181.298 8.19479C181.525 7.53183 181.804 6.89128 182.137 6.32482M183.018 7.04884L183.023 7.04801C183.81 6.91904 184.691 6.89613 185.482 6.99362C185.585 7.00625 185.683 7.02527 185.777 7.05012M183.018 7.04884C182.542 7.78611 182.523 8.85825 182.538 10.0326C182.551 10.9895 182.648 12.3538 182.978 13.5906M183.018 7.04884C183.202 6.7635 183.455 6.52832 183.8 6.35679M185.777 7.05012C185.98 7.10364 186.165 7.18421 186.337 7.28624M185.777 7.05012C185.188 6.67274 184.511 6.45479 183.8 6.35679M185.777 7.05012C185.926 7.14553 186.069 7.25112 186.206 7.36754C186.283 7.43283 186.358 7.50032 186.432 7.56988M186.337 7.28624C186.521 7.39553 186.689 7.52945 186.849 7.68113M186.337 7.28624C186.026 6.48008 185.426 5.93195 184.476 6.13021C184.219 6.18401 183.995 6.26034 183.8 6.35679M186.337 7.28624C186.372 7.3777 186.404 7.47249 186.432 7.56988M186.849 7.68113C187.121 7.93968 187.367 8.24984 187.617 8.57768C187.968 9.03894 188.314 9.48737 188.624 9.94782M186.849 7.68113C186.772 7.04687 186.591 6.43283 186.304 5.89906C185.732 4.83243 184.521 4.0047 183.464 4.7773C182.95 5.15308 182.51 5.69284 182.137 6.32482M186.849 7.68113C186.863 7.80099 186.874 7.92158 186.881 8.04248M188.624 9.94782C189.106 10.6662 189.499 11.4138 189.683 12.2851M188.624 9.94782C188.671 9.83519 188.716 9.72498 188.758 9.61785C189.283 8.26272 189.534 6.26563 188.788 4.89692M188.624 9.94782C188.528 10.1729 188.42 10.4077 188.302 10.6467M189.683 12.2851C189.762 12.6601 189.802 13.0579 189.794 13.4862C189.776 14.4696 189.331 15.1981 188.685 15.7017M189.683 12.2851C190.022 11.7124 190.305 11.1044 190.518 10.4677C191.001 9.02469 190.99 7.42403 190.25 6.22659M189.683 12.2851C189.369 12.8138 189.008 13.3125 188.61 13.7759M188.685 15.7017C188.419 15.9093 188.119 16.0787 187.801 16.212M188.685 15.7017C190.271 14.578 191.24 12.5237 191.432 10.4405C191.59 8.72672 191.248 7.45467 190.25 6.22659M188.685 15.7017C188.412 15.8954 188.12 16.0615 187.811 16.1952M187.801 16.212C187.65 16.2752 187.495 16.3302 187.338 16.3774M187.801 16.212C187.804 16.2064 187.808 16.2008 187.811 16.1952M187.801 16.212C186.987 17.5017 185.683 18.0057 184.243 18.1636C182.753 18.327 181.345 18.237 180.109 17.5523M187.338 16.3774C186.796 16.5399 186.226 16.6088 185.697 16.5931C185.486 16.5869 185.289 16.5541 185.105 16.498M187.338 16.3774C187.443 16.3402 187.548 16.3011 187.654 16.26C187.707 16.2394 187.759 16.2178 187.811 16.1952M187.338 16.3774C186.323 16.7351 185.307 16.9103 184.342 16.8361M185.105 16.498C184.433 16.2933 183.933 15.7777 183.562 15.1046M185.105 16.498C186.397 15.8609 187.619 14.9272 188.61 13.7759M185.105 16.498C184.853 16.6222 184.598 16.7351 184.342 16.8361M183.562 15.1046C183.314 14.655 183.123 14.1352 182.978 13.5906M183.562 15.1046C183.582 15.1023 183.603 15.0999 183.624 15.0975C184.705 14.9713 185.833 14.5931 186.5 13.5746C186.631 13.3759 186.74 13.1577 186.827 12.9277M183.562 15.1046C182.958 15.1725 182.365 15.1977 181.784 14.9411C181.05 14.6171 180.714 13.9681 180.588 13.2205M182.978 13.5906C183.097 13.5597 183.216 13.5228 183.333 13.4804M182.978 13.5906C182.246 13.7808 181.498 13.7428 180.827 13.3706C180.743 13.3244 180.664 13.2743 180.588 13.2205M183.8 6.35679C183.257 6.2818 182.694 6.27704 182.137 6.32482M186.432 7.56988C186.545 7.96489 186.599 8.4028 186.599 8.83602C186.599 8.92788 186.594 9.01541 186.585 9.09897M186.432 7.56988C186.589 7.71831 186.739 7.87621 186.881 8.04248M186.585 9.09897C186.567 9.26287 186.532 9.4115 186.481 9.54764M186.585 9.09897C186.437 9.06986 186.263 9.07064 186.059 9.10796C186.024 9.11436 185.989 9.12144 185.955 9.1292M186.585 9.09897C186.68 9.1176 186.763 9.14846 186.837 9.18983M186.481 9.54764C186.333 9.94079 186.05 10.2298 185.654 10.4813C185.38 10.655 184.768 11.0919 184.427 10.9028C184.222 10.7889 184.095 10.6177 184.032 10.4233M186.481 9.54764C186.333 9.3747 186.158 9.23202 185.955 9.1292M186.481 9.54764C186.563 9.64332 186.636 9.74825 186.702 9.86084M184.032 10.4233C183.845 9.84359 184.23 9.05754 184.82 8.97199C185.265 8.90748 185.643 8.97142 185.955 9.1292M184.032 10.4233C183.723 10.8253 183.483 11.2915 183.342 11.7866C183.202 12.2748 183.182 12.9361 183.333 13.4804M184.032 10.4233C184.529 9.77677 185.208 9.29633 185.955 9.1292M186.702 9.86084C186.922 10.2424 187.048 10.7118 187.081 11.2058M186.702 9.86084C186.76 9.64266 186.806 9.41803 186.837 9.18983M186.702 9.86084C186.658 10.0217 186.608 10.179 186.55 10.3317C186.349 10.859 186.023 11.3838 185.615 11.8567M187.081 11.2058C187.119 11.7795 187.033 12.3864 186.827 12.9277M187.081 11.2058C187.371 10.4377 187.4 9.50635 186.837 9.18983M187.081 11.2058C187.06 11.2598 187.039 11.313 187.016 11.3651C186.83 11.7869 186.111 12.9836 185.709 12.1129C185.669 12.026 185.638 11.9408 185.615 11.8567M186.827 12.9277C187.413 12.2434 187.916 11.4223 188.302 10.6467M186.827 12.9277C186.208 13.6512 185.496 14.2219 184.734 14.4244C183.954 14.6316 183.517 14.1426 183.333 13.4804M180.588 13.2205C178.827 11.9678 179.167 8.74248 180.154 6.70701M182.137 6.32482C181.452 6.38363 180.775 6.52203 180.154 6.70701M186.881 8.04248C186.904 8.42606 186.889 8.81282 186.837 9.18983M186.881 8.04248C187.513 8.77827 187.999 9.67802 188.302 10.6467M185.615 11.8567C184.995 12.5745 184.185 13.1731 183.333 13.4804M185.615 11.8567C185.513 11.4889 185.559 11.1416 185.629 10.7532M180.154 6.70701C180.371 6.26055 180.619 5.87133 180.882 5.57273C182.71 3.50031 186.505 3.64964 188.788 4.89692M180.154 6.70701C179.916 6.77815 179.685 6.85618 179.465 6.93923C179.198 7.0403 178.934 7.15446 178.677 7.28171M188.788 4.89692C188.932 4.97519 189.069 5.05778 189.199 5.14442C189.263 5.18639 189.324 5.22982 189.383 5.27466M188.788 4.89692C188.705 4.74364 188.609 4.59824 188.499 4.46251M189.383 5.27466C189.741 5.5458 190.028 5.86813 190.25 6.22659M189.383 5.27466C189.098 4.98693 188.804 4.71592 188.499 4.46251M189.383 5.27466C189.621 5.51441 189.853 5.76577 190.083 6.02823C190.14 6.09426 190.196 6.16036 190.25 6.22659M188.61 13.7759C188.732 12.7293 188.615 11.651 188.302 10.6467M188.61 13.7759C188.534 14.4202 188.368 15.0526 188.101 15.6481C188.013 15.8445 187.916 16.0265 187.811 16.1952M184.342 16.8361C184.199 16.8926 184.056 16.9453 183.912 16.9943C182.788 17.3771 181.444 17.5996 180.109 17.5523M184.342 16.8361C182.836 16.7203 181.455 15.9966 180.404 14.4108C179.261 12.6871 178.364 10.1386 178.563 7.97261C178.586 7.73126 178.624 7.5011 178.677 7.28171M180.109 17.5523C178.359 17.4903 176.622 16.9649 175.411 15.7297C174.161 14.456 174.354 12.4722 175.055 10.9436C175.389 10.2163 175.824 9.57557 176.335 9.02127M180.109 17.5523C179.578 17.2583 179.079 16.8547 178.619 16.3144C176.883 14.2787 176.373 11.6796 176.335 9.02127M176.335 9.02127C177.006 8.29169 177.808 7.71187 178.677 7.28171M176.335 9.02127C176.325 8.3714 176.344 7.71799 176.38 7.0684C176.519 4.54534 179.465 3.46374 181.36 3.03008C182.99 2.6572 185.212 2.47586 186.764 3.29522C186.924 3.37945 187.08 3.46748 187.232 3.55923M178.677 7.28171C179.267 4.85154 181.664 3.74265 183.789 3.3836C184.822 3.20907 186.146 3.13463 187.232 3.55923M187.232 3.55923C187.681 3.82882 188.1 4.13057 188.499 4.46251M187.232 3.55923C187.656 3.72495 188.044 3.9667 188.365 4.3082C188.412 4.3581 188.457 4.40957 188.499 4.46251" stroke="#B74028" stroke-linecap="round"/>
</svg>
