<svg width="350" height="21" viewBox="0 0 350 21" fill="none" xmlns="http://www.w3.org/2000/svg">
<path d="M174 16.4412C168.5 18.4369 158 18.4368 146 12.4502C115 -3.51479 110.5 4.96659 95 12.4502C79.5 19.9337 79 17.4409 67 10.4543C56.1667 4.13437 30.5 -4.31442 14.5 12.4502C10.7501 16.3422 7.66579 16.8939 1 15.9434" stroke="#F2C857" stroke-width="2" stroke-dasharray="4 4"/>
<path d="M189.5 6.98251C193.37 4.81191 212.213 -2.03239 224.326 6.98251C236.945 13.9951 244.516 16.5 255.62 16.5C264.503 16.5 274.463 10.4888 279.342 6.98251C291.456 -4.03738 304.781 3.97697 317.702 9.98786C330.623 15.9988 344.284 12.4924 349.5 9.98786" stroke="#F2C857" stroke-width="2" stroke-dasharray="4 4"/>
<path d="M187.485 1.5C183.712 1.5 181.083 1.85522 177.564 3.45086C173.44 5.3209 174.039 9.8033 175.395 13.5598C176.993 17.987 183.268 20.6442 187.342 19.0183C189.689 18.0819 190.9 16.1518 191.485 13.5598C191.879 11.812 192.547 9.32144 191.183 7.88462C188.249 4.79599 181.678 2.39126 179.36 7.52992C178.856 8.64673 178.648 11.2911 179.022 12.476C179.866 15.1493 184.461 14.6239 186.453 14.6239C189.816 14.6239 190.493 10.658 187.307 9.48078C184.966 8.6158 182.565 8.63736 181.724 11.4316M180.824 8.80574C180.792 8.80067 180.776 8.78809 180.772 8.77114M180.772 8.77114C180.768 8.75034 180.78 8.72296 180.798 8.69479M180.772 8.77114C180.366 9.98415 180.132 11.2652 180.051 12.3002C180.013 12.7762 180.012 13.2665 180.088 13.7205M180.772 8.77114C180.781 8.74566 180.79 8.72021 180.798 8.69479M180.798 8.69479C180.829 8.64799 180.878 8.59904 180.897 8.57459C181.345 8.00044 181.829 7.66277 182.518 7.54884M180.798 8.69479C181.025 8.03183 181.304 7.39128 181.637 6.82482M182.518 7.54884L182.523 7.54801C183.31 7.41904 184.191 7.39613 184.982 7.49362C185.085 7.50625 185.183 7.52527 185.277 7.55012M182.518 7.54884C182.042 8.28611 182.023 9.35825 182.038 10.5326C182.051 11.4895 182.148 12.8538 182.478 14.0906M182.518 7.54884C182.702 7.2635 182.955 7.02832 183.3 6.85679M185.277 7.55012C185.48 7.60364 185.665 7.68421 185.837 7.78624M185.277 7.55012C184.688 7.17274 184.011 6.95479 183.3 6.85679M185.277 7.55012C185.426 7.64553 185.569 7.75112 185.706 7.86754C185.783 7.93283 185.858 8.00032 185.932 8.06988M185.837 7.78624C186.021 7.89553 186.189 8.02945 186.349 8.18113M185.837 7.78624C185.526 6.98008 184.926 6.43195 183.976 6.63021C183.719 6.68401 183.495 6.76034 183.3 6.85679M185.837 7.78624C185.872 7.8777 185.904 7.97249 185.932 8.06988M186.349 8.18113C186.621 8.43968 186.867 8.74984 187.117 9.07768C187.468 9.53894 187.814 9.98737 188.124 10.4478M186.349 8.18113C186.272 7.54687 186.091 6.93283 185.804 6.39906C185.232 5.33243 184.021 4.5047 182.964 5.2773C182.45 5.65308 182.01 6.19284 181.637 6.82482M186.349 8.18113C186.363 8.30099 186.374 8.42158 186.381 8.54248M188.124 10.4478C188.606 11.1662 188.999 11.9138 189.183 12.7851M188.124 10.4478C188.171 10.3352 188.216 10.225 188.258 10.1179C188.783 8.76272 189.034 6.76563 188.288 5.39692M188.124 10.4478C188.028 10.6729 187.92 10.9077 187.802 11.1467M189.183 12.7851C189.262 13.1601 189.302 13.5579 189.294 13.9862C189.276 14.9696 188.831 15.6981 188.185 16.2017M189.183 12.7851C189.522 12.2124 189.805 11.6044 190.018 10.9677C190.501 9.52469 190.49 7.92403 189.75 6.72659M189.183 12.7851C188.869 13.3138 188.508 13.8125 188.11 14.2759M188.185 16.2017C187.919 16.4093 187.619 16.5787 187.301 16.712M188.185 16.2017C189.771 15.078 190.74 13.0237 190.932 10.9405C191.09 9.22672 190.748 7.95467 189.75 6.72659M188.185 16.2017C187.912 16.3954 187.62 16.5615 187.311 16.6952M187.301 16.712C187.15 16.7752 186.995 16.8302 186.838 16.8774M187.301 16.712C187.304 16.7064 187.308 16.7008 187.311 16.6952M187.301 16.712C186.487 18.0017 185.183 18.5057 183.743 18.6636C182.253 18.827 180.845 18.737 179.609 18.0523M186.838 16.8774C186.296 17.0399 185.726 17.1088 185.197 17.0931C184.986 17.0869 184.789 17.0541 184.605 16.998M186.838 16.8774C186.943 16.8402 187.048 16.8011 187.154 16.76C187.207 16.7394 187.259 16.7178 187.311 16.6952M186.838 16.8774C185.823 17.2351 184.807 17.4103 183.842 17.3361M184.605 16.998C183.933 16.7933 183.433 16.2777 183.062 15.6046M184.605 16.998C185.897 16.3609 187.119 15.4272 188.11 14.2759M184.605 16.998C184.353 17.1222 184.098 17.2351 183.842 17.3361M183.062 15.6046C182.814 15.155 182.623 14.6352 182.478 14.0906M183.062 15.6046C183.082 15.6023 183.103 15.5999 183.124 15.5975C184.205 15.4713 185.333 15.0931 186 14.0746C186.131 13.8759 186.24 13.6577 186.327 13.4277M183.062 15.6046C182.458 15.6725 181.865 15.6977 181.284 15.4411C180.55 15.1171 180.214 14.4681 180.088 13.7205M182.478 14.0906C182.597 14.0597 182.716 14.0228 182.833 13.9804M182.478 14.0906C181.746 14.2808 180.998 14.2428 180.327 13.8706C180.243 13.8244 180.164 13.7743 180.088 13.7205M183.3 6.85679C182.757 6.7818 182.194 6.77704 181.637 6.82482M185.932 8.06988C186.045 8.46489 186.099 8.9028 186.099 9.33602C186.099 9.42788 186.094 9.51541 186.085 9.59897M185.932 8.06988C186.089 8.21831 186.239 8.37621 186.381 8.54248M186.085 9.59897C186.067 9.76287 186.032 9.9115 185.981 10.0476M186.085 9.59897C185.937 9.56986 185.763 9.57064 185.559 9.60796C185.524 9.61436 185.489 9.62144 185.455 9.6292M186.085 9.59897C186.18 9.6176 186.263 9.64846 186.337 9.68983M185.981 10.0476C185.833 10.4408 185.55 10.7298 185.154 10.9813C184.88 11.155 184.268 11.5919 183.927 11.4028C183.722 11.2889 183.595 11.1177 183.532 10.9233M185.981 10.0476C185.833 9.8747 185.658 9.73202 185.455 9.6292M185.981 10.0476C186.063 10.1433 186.136 10.2483 186.202 10.3608M183.532 10.9233C183.345 10.3436 183.73 9.55754 184.32 9.47199C184.765 9.40748 185.143 9.47142 185.455 9.6292M183.532 10.9233C183.223 11.3253 182.983 11.7915 182.842 12.2866C182.702 12.7748 182.682 13.4361 182.833 13.9804M183.532 10.9233C184.029 10.2768 184.708 9.79633 185.455 9.6292M186.202 10.3608C186.422 10.7424 186.548 11.2118 186.581 11.7058M186.202 10.3608C186.26 10.1427 186.306 9.91803 186.337 9.68983M186.202 10.3608C186.158 10.5217 186.108 10.679 186.05 10.8317C185.849 11.359 185.523 11.8838 185.115 12.3567M186.581 11.7058C186.619 12.2795 186.533 12.8864 186.327 13.4277M186.581 11.7058C186.871 10.9377 186.9 10.0064 186.337 9.68983M186.581 11.7058C186.56 11.7598 186.539 11.813 186.516 11.8651C186.33 12.2869 185.611 13.4836 185.209 12.6129C185.169 12.526 185.138 12.4408 185.115 12.3567M186.327 13.4277C186.913 12.7434 187.416 11.9223 187.802 11.1467M186.327 13.4277C185.708 14.1512 184.996 14.7219 184.234 14.9244C183.454 15.1316 183.017 14.6426 182.833 13.9804M180.088 13.7205C178.327 12.4678 178.667 9.24248 179.654 7.20701M181.637 6.82482C180.952 6.88363 180.275 7.02203 179.654 7.20701M186.381 8.54248C186.404 8.92606 186.389 9.31282 186.337 9.68983M186.381 8.54248C187.013 9.27827 187.499 10.178 187.802 11.1467M185.115 12.3567C184.495 13.0745 183.685 13.6731 182.833 13.9804M185.115 12.3567C185.013 11.9889 185.059 11.6416 185.129 11.2532M179.654 7.20701C179.871 6.76055 180.119 6.37133 180.382 6.07273C182.21 4.00031 186.005 4.14964 188.288 5.39692M179.654 7.20701C179.416 7.27815 179.185 7.35618 178.965 7.43923C178.698 7.5403 178.434 7.65446 178.177 7.78171M188.288 5.39692C188.432 5.47519 188.569 5.55778 188.699 5.64442C188.763 5.68639 188.824 5.72982 188.883 5.77466M188.288 5.39692C188.205 5.24364 188.109 5.09824 187.999 4.96251M188.883 5.77466C189.241 6.0458 189.528 6.36813 189.75 6.72659M188.883 5.77466C188.598 5.48693 188.304 5.21592 187.999 4.96251M188.883 5.77466C189.121 6.01441 189.353 6.26577 189.583 6.52823C189.64 6.59426 189.696 6.66036 189.75 6.72659M188.11 14.2759C188.232 13.2293 188.115 12.151 187.802 11.1467M188.11 14.2759C188.034 14.9202 187.868 15.5526 187.601 16.1481C187.513 16.3445 187.416 16.5265 187.311 16.6952M183.842 17.3361C183.699 17.3926 183.556 17.4453 183.412 17.4943C182.288 17.8771 180.944 18.0996 179.609 18.0523M183.842 17.3361C182.336 17.2203 180.955 16.4966 179.904 14.9108C178.761 13.1871 177.864 10.6386 178.063 8.47261C178.086 8.23126 178.124 8.0011 178.177 7.78171M179.609 18.0523C177.859 17.9903 176.122 17.4649 174.911 16.2297C173.661 14.956 173.854 12.9722 174.555 11.4436C174.889 10.7163 175.324 10.0756 175.835 9.52127M179.609 18.0523C179.078 17.7583 178.579 17.3547 178.119 16.8144C176.383 14.7787 175.873 12.1796 175.835 9.52127M175.835 9.52127C176.506 8.79169 177.308 8.21187 178.177 7.78171M175.835 9.52127C175.825 8.8714 175.844 8.21799 175.88 7.5684C176.019 5.04534 178.965 3.96374 180.86 3.53008C182.49 3.1572 184.712 2.97586 186.264 3.79522C186.424 3.87945 186.58 3.96748 186.732 4.05923M178.177 7.78171C178.767 5.35154 181.164 4.24265 183.289 3.8836C184.322 3.70907 185.646 3.63463 186.732 4.05923M186.732 4.05923C187.181 4.32882 187.6 4.63057 187.999 4.96251M186.732 4.05923C187.156 4.22495 187.544 4.4667 187.865 4.8082C187.912 4.8581 187.957 4.90957 187.999 4.96251" stroke="#F2C857" stroke-linecap="round"/>
</svg>
