<svg width="769" height="333" viewBox="0 0 769 333" fill="none" xmlns="http://www.w3.org/2000/svg">
<path d="M1229.72 323.764C1290.95 285.796 1348.29 166.207 1070.2 127.243M1070.2 127.243C1047.52 124.849 1024.62 126.538 1030.52 132.567C1036.28 138.46 1054.82 135.132 1070.2 127.243ZM1070.2 127.243C1129.45 78.8871 990.703 -12.1353 721.797 3.79626C698.899 4.76539 651.599 14.0759 627.313 21.2946M627.313 21.2946C619.882 23.5032 614.605 25.5159 612.841 27.0341C605.311 33.5144 636.27 35.9019 642.127 32.1501C647.024 29.013 649.615 26.5891 627.313 21.2946ZM627.313 21.2946C622.943 20.2573 617.618 19.1098 611.168 17.8252M13.7845 331.949C-22.1367 288.938 -4.10355 167.307 289.069 158.004M289.069 158.004C312.497 158.004 333.628 161.979 324.212 167.213C315.008 172.329 299.11 167.213 289.069 158.004ZM289.069 158.004C261.457 105.139 359.814 -25.0758 610.335 17.8252" stroke="#B74028" stroke-width="2" stroke-dasharray="4 4"/>
</svg>
